<svg xmlns="http://www.w3.org/2000/svg" width="256" height="315" preserveAspectRatio="xMidYMid"><path d="M213.803 167.03c.442 47.58 41.74 63.412 42.197 63.614-.35 1.117-6.6 22.564-21.757 44.717-13.104 19.153-26.704 38.235-48.13 38.63-21.052.388-27.82-12.484-51.89-12.484-24.06 0-31.582 12.088-51.5 12.872-20.68.783-36.428-20.71-49.64-39.793-27-39.034-47.632-110.3-19.927-158.406 13.763-23.9 38.36-39.017 65.055-39.405 20.307-.387 39.475 13.662 51.89 13.662 12.406 0 35.7-16.896 60.186-14.414 10.25.427 39.026 4.14 57.503 31.187-1.49.923-34.334 20.044-33.977 59.822M174.24 50.2c10.98-13.3 18.37-31.79 16.353-50.2-15.826.636-34.962 10.546-46.314 23.828-10.173 11.762-19.082 30.59-16.678 48.632 17.64 1.365 35.66-8.964 46.64-22.262"/></svg>