<svg xmlns="http://www.w3.org/2000/svg" viewBox="0 0 210 210"><path d="M190.32 90.03L36.784 2.266C34.137.754 31.2 0 28.243 0l-.178.008-1.185.055-.533.053-.92.128-.334.046.006.008c-1.913.353-3.78 1.027-5.515 2.034-5.314 3.083-8.585 8.762-8.585 14.905v175.527c0 6.143 3.27 11.822 8.585 14.905a17.17 17.17 0 0 0 5.514 2.035l-.005.007c.1.02.2.025.3.04a15.8 15.8 0 0 0 .99.137l.497.05a17.49 17.49 0 0 0 1.167.054c.066.001.13.01.197.01 2.947 0 5.894-.754 8.54-2.266L190.32 119.97c5.368-3.07 8.68-8.777 8.68-14.962 0-6.2-3.313-11.908-8.68-14.978zM129.602 72.6l-15.266 20.027-38.84-50.956 54.106 30.93zm53.274 34.346l-107.38 61.38 67.234-88.206 40.145 22.947a2.24 2.24 0 0 1 1.127 1.938c-.001.8-.433 1.544-1.126 1.94z"/></svg>