<svg width="1600" height="919" viewBox="0 0 1600 919" fill="none" xmlns="http://www.w3.org/2000/svg">
<g clip-path="url(#clip0)">
<g clip-path="url(#clip1)">
<path d="M1064.1 503.862C1071.19 520.464 1083.19 533.848 1094.68 547.476C1144.28 606.313 1207.31 645.544 1277.59 674.707C1324.53 694.188 1372.85 708.995 1421.78 722.128C1426.24 723.322 1430.8 724.366 1434.23 727.773C1438.09 731.601 1439.3 735.036 1432.13 735.843C1430.37 736.041 1427.93 734.626 1428.45 737.927C1430.24 749.308 1421.75 750.117 1414.36 751.539C1400.49 754.208 1386.81 750.663 1373.31 748.499C1335.5 742.444 1297.87 734.952 1261.54 722.578C1227.81 711.09 1196.1 694.833 1164.86 677.699C1144.97 666.793 1124.89 655.422 1110.04 638.425C1100.17 627.134 1087.14 620.472 1077.37 609.522C1058.63 588.538 1040.19 567.437 1026.41 542.682C1015.07 522.303 1009.59 500.517 1011.11 477.261C1011.46 473.833 1010.96 470.369 1009.66 467.174C1008.36 463.98 1006.29 461.155 1003.64 458.949C988.923 445.798 974.582 432.129 960.532 418.381C937.679 396.019 918.459 370.134 900.353 343.678C871.475 301.484 847.194 256.975 834.056 207.114C826.333 177.808 820.613 148.418 831.034 118.528C833.777 110.659 837.736 103.882 845.752 100.291C849.205 98.7416 852.307 98.5721 855.358 101.23C858.963 104.367 856.342 106.072 854.673 109.136C843.244 130.144 850.634 151.188 855.959 172.005C870.63 229.373 900.769 278.897 934.964 326.289C960.955 362.561 990.76 395.932 1023.86 425.824C1026.5 428.196 1028.39 432.329 1032.75 427.158C1047.96 409.147 1068.45 400.893 1091.15 398.496C1126.17 394.801 1158.85 400.633 1183.77 428.429C1197.16 443.373 1197.18 457.672 1187.41 475C1162.52 519.163 1115.24 524.56 1076.69 506.744C1073.24 505.148 1069.8 503.552 1066.35 501.955C1065.6 502.586 1064.85 503.222 1064.1 503.862ZM1151.52 477.281C1161.5 472.592 1157.13 466.779 1153.42 461.295C1140.87 442.753 1120.6 439.945 1101.19 437.447C1087.04 435.632 1072.11 435.521 1058.48 441.945C1053.29 444.393 1049.85 447.772 1056.81 452.691C1075.79 466.121 1096.05 476.645 1119.3 480.037C1130.38 481.649 1141.42 481.141 1151.52 477.282L1151.52 477.281Z" fill="black"/>
<path d="M1420.67 795.348C1442.37 785.384 1465.4 779.311 1488.13 772.361C1491.53 771.323 1496.06 771.904 1496.89 766.582C1497.67 761.467 1493.53 759.834 1490.58 758.066C1474.47 748.435 1462.06 734.613 1448.24 722.314C1439.5 714.54 1429.24 708.365 1420.5 700.108C1407.06 687.392 1392.65 675.67 1378.35 663.897C1371.1 657.934 1366.95 648.838 1357.01 645.416C1347.26 642.06 1345.78 634.003 1352.81 620.617C1356.39 613.789 1363.01 608.484 1371.72 612.909C1378.94 616.52 1385.79 620.828 1392.18 625.772C1433.91 658.608 1475.37 691.779 1517.06 724.665C1526.42 732.049 1536.28 738.804 1545.99 745.733C1563.64 758.327 1564.67 766.801 1551.85 784.349C1541.9 797.969 1528.95 804.972 1512.35 807.137C1480.39 811.304 1448.56 816.385 1417.84 826.561C1411.68 828.601 1405.82 831.506 1399.74 833.794C1392.7 836.442 1389.43 834.105 1390.57 826.368C1393.09 809.215 1395.52 806.699 1420.67 795.348Z" fill="black"/>
</g>
</g>
<defs>
<clipPath id="clip0">
<rect width="1600" height="919" fill="white"/>
</clipPath>
<clipPath id="clip1">
<rect width="1008.96" height="753.487" fill="white" transform="translate(1297.62 -163) rotate(64.0669)"/>
</clipPath>
</defs>
</svg>
