<svg width="1274" height="1170" viewBox="0 0 1274 1170" fill="none" xmlns="http://www.w3.org/2000/svg">
<g clip-path="url(#clip0)">
<path d="M970 318.6C979.002 318.6 986.3 311.302 986.3 302.3C986.3 293.298 979.002 286 970 286C960.998 286 953.7 293.298 953.7 302.3C953.7 311.302 960.998 318.6 970 318.6Z" fill="#046AAC"/>
<path d="M987.299 273.4C991.497 273.4 994.899 269.997 994.899 265.8C994.899 261.603 991.497 258.2 987.299 258.2C983.102 258.2 979.699 261.603 979.699 265.8C979.699 269.997 983.102 273.4 987.299 273.4Z" fill="#046AAC"/>
<path d="M489 174.5C493.308 174.5 496.8 171.008 496.8 166.7C496.8 162.392 493.308 158.9 489 158.9C484.692 158.9 481.2 162.392 481.2 166.7C481.2 171.008 484.692 174.5 489 174.5Z" fill="#046AAC"/>
<path d="M999.399 1087.4C1006.69 1087.4 1012.6 1081.49 1012.6 1074.2C1012.6 1066.91 1006.69 1061 999.399 1061C992.109 1061 986.199 1066.91 986.199 1074.2C986.199 1081.49 992.109 1087.4 999.399 1087.4Z" fill="#046AAC"/>
<path d="M398.7 1132.6C402.069 1132.6 404.8 1129.87 404.8 1126.5C404.8 1123.13 402.069 1120.4 398.7 1120.4C395.331 1120.4 392.6 1123.13 392.6 1126.5C392.6 1129.87 395.331 1132.6 398.7 1132.6Z" fill="#046AAC"/>
<path d="M474.9 682C478.379 682 481.2 679.179 481.2 675.7C481.2 672.22 478.379 669.4 474.9 669.4C471.42 669.4 468.6 672.22 468.6 675.7C468.6 679.179 471.42 682 474.9 682Z" fill="#046AAC"/>
<path d="M487.3 714.1C490.669 714.1 493.4 711.369 493.4 708C493.4 704.631 490.669 701.9 487.3 701.9C483.931 701.9 481.2 704.631 481.2 708C481.2 711.369 483.931 714.1 487.3 714.1Z" fill="#EF5F75"/>
<path d="M480 884.1C486.296 884.1 491.4 878.996 491.4 872.7C491.4 866.404 486.296 861.3 480 861.3C473.704 861.3 468.6 866.404 468.6 872.7C468.6 878.996 473.704 884.1 480 884.1Z" fill="#EF5F75"/>
<path d="M960.9 236.2C964.877 236.2 968.1 232.976 968.1 229C968.1 225.023 964.877 221.8 960.9 221.8C956.924 221.8 953.7 225.023 953.7 229C953.7 232.976 956.924 236.2 960.9 236.2Z" fill="#EF5F75"/>
<path d="M687 248.8C690.48 248.8 693.3 245.979 693.3 242.5C693.3 239.021 690.48 236.2 687 236.2C683.521 236.2 680.7 239.021 680.7 242.5C680.7 245.979 683.521 248.8 687 248.8Z" fill="#EF5F75"/>
<path d="M125.3 741.6C127.951 741.6 130.1 739.451 130.1 736.8C130.1 734.149 127.951 732 125.3 732C122.649 732 120.5 734.149 120.5 736.8C120.5 739.451 122.649 741.6 125.3 741.6Z" fill="#EF5F75"/>
<path d="M982.699 1120.4C989.327 1120.4 994.699 1115.03 994.699 1108.4C994.699 1101.77 989.327 1096.4 982.699 1096.4C976.072 1096.4 970.699 1101.77 970.699 1108.4C970.699 1115.03 976.072 1120.4 982.699 1120.4Z" fill="#EF5F75"/>
<path d="M499.099 369.9C498.099 363.7 497.199 351.3 507.099 352.3C510.699 352.7 512.699 355.9 516.699 354.5C524.199 351.9 522.499 342.2 525.599 336.6C530.699 327.6 540.599 340.7 548.199 336.4C550.699 335 551.299 332.4 551.199 329.7C550.999 319.6 559.899 320.3 567.199 322.3C569.099 322.8 569.899 319.9 567.999 319.4C560.599 317.4 548.299 316.7 547.999 327.4C547.899 330 549.299 332.6 545.499 334.2C544.299 334.7 542.299 334.1 541.199 333.8C538.599 333 536.299 331.2 533.599 330.5C530.099 329.5 526.699 330.2 524.299 333C521.299 336.6 521.399 341.5 519.999 345.7C518.499 350.2 515.599 352.8 510.699 350.6C508.699 349.7 506.899 348.9 504.599 349.2C494.299 350.6 494.799 363.1 496.099 370.7C496.499 372.6 499.399 371.8 499.099 369.9Z" fill="#EF5F75"/>
<path d="M510.9 375.7C511.7 369.5 516.7 366.8 522.5 366.8C525.6 366.8 528.7 367.3 531.7 366.2C538.5 363.6 537.2 356.2 538.8 350.4C541.8 339.4 555.7 346.2 563.4 344.4C568.6 343.1 573 337.9 570.8 332.4C570.1 330.6 567.2 331.4 567.9 333.2C571.3 341.5 559.7 342 554.8 341.4C551.2 341 547.7 340.4 544.1 341.3C538.4 342.8 536.2 347 535.4 352.4C534.7 357.4 534.8 362.9 528.3 363.7C524.8 364.1 521.3 363.1 517.8 363.9C512.2 365.2 508.6 369.9 507.9 375.5C507.6 377.6 510.6 377.6 510.9 375.7Z" fill="#EF5F75"/>
<path d="M717.5 130.1C714 134.5 710.3 139.9 712 145.8C713.4 150.6 717.2 152.4 721.8 152.1C724.5 151.9 727.3 151.2 729.5 153.6C731.2 155.4 730.1 159.2 729.6 161.2C728.8 164.3 727.3 167.3 727.6 170.6C728.1 175.1 731.7 178.6 736.3 177.6C738.2 177.2 737.4 174.3 735.5 174.7C726.8 176.7 732.8 162.2 733.2 158.7C733.5 155.8 733 152.6 730.8 150.5C728.6 148.4 725.9 148.6 723.1 148.9C718.7 149.4 714.6 148 714.4 142.7C714.3 138.7 717.1 135.1 719.5 132.1C720.9 130.8 718.7 128.6 717.5 130.1Z" fill="#EF5F75"/>
<path d="M741.1 128.6C736.4 130.6 733.4 135.5 734.6 140.6C735.2 142.9 736.6 145.1 738.6 146.5C741 148.3 743.8 147.9 746.2 149.4C750.7 152.1 747.1 157.4 747.3 161.6C747.4 163.7 747.9 165.6 749.7 166.9C752.4 169 756.4 168.3 757.5 164.9C758.1 163.1 755.2 162.3 754.6 164.1C750.8 163.6 749.5 161.9 750.6 159C750.8 158 751 157 751.2 156C751.4 155 751.5 154 751.5 153C751.5 150.9 750.9 148.7 749.3 147.2C746.9 145 743.2 145.9 740.6 144.1C735.3 140.4 737.2 133.4 742.6 131.1C744.4 130.4 742.8 127.9 741.1 128.6Z" fill="#EF5F75"/>
<path d="M87.1998 719.7C84.8998 716.1 84.8998 711.7 87.1998 708C89.4998 704.4 92.6998 704.3 96.3998 702.9C101.5 700.8 101.6 695.5 101.3 690.7C101.2 689 101.1 687.2 101.6 685.5C102.9 681.5 106.3 682.6 109.4 683.1C111.2 683.4 112.9 683.1 114.4 682.1C116.3 680.8 117.5 678.5 118.1 676.3C118.6 674.5 118.7 672.6 119.1 670.8C119.3 669.5 119.7 668.3 120.3 667.2C121.9 664.7 123.8 664.5 126.1 666.7C126.6 668.6 129.5 667.8 129 665.9C127.2 659.4 119.2 662.3 117.2 666.9C116.3 669 116.2 671.3 115.7 673.5C115.4 674.8 115.2 676.2 114.5 677.4C113 680.1 110.2 679.6 107.6 679.3C104.5 679 102.1 678.7 100.1 681.6C97.7998 684.9 98.3998 688.8 98.3998 692.6C98.4998 697.2 97.4998 699 92.9998 700.5C91.1998 701.1 89.6998 701.4 88.0998 702.6C82.2998 706.7 80.7998 715.2 84.5998 721.1C85.5998 722.8 88.1998 721.3 87.1998 719.7Z" fill="#046AAC"/>
<path d="M99.6995 726.6C95.4995 726 97.0995 721.4 98.9995 719.6C100.399 718.3 102.3 717.5 104.1 716.6C106.3 715.5 108.5 714.2 110.1 712.3C114.4 706.9 108.199 699.7 114.199 695.4C120.199 691.2 136.299 689.3 131.599 678.1C130.899 676.3 128.299 677.9 128.999 679.6C132.399 687.7 115.899 690.1 111.699 693.5C110.199 694.7 108.899 696.3 108.299 698.2C107.099 702.4 110.599 706.7 107.499 710.7C103.899 715.1 96.1995 715.1 94.3995 721.3C93.2995 724.8 95.1995 729 98.9995 729.6C100.799 729.8 101.599 726.9 99.6995 726.6Z" fill="#046AAC"/>
<path d="M1195.9 494.2C1194.6 491.9 1194.8 489.4 1196.2 487.2C1198.4 484 1201 484.7 1204.4 485C1206.7 485.2 1208.8 485.7 1211 484.4C1214.9 482 1214.3 477 1215 473.2C1216.6 464.3 1224.3 472.4 1229.5 469.6C1231.4 468.6 1232.1 466.7 1232.5 464.7C1233.2 460.8 1233.4 449.2 1240.9 453.9C1242.5 454.9 1244.1 452.3 1242.4 451.3C1235.7 447.2 1230.3 454 1229.7 460.3C1229.3 463.9 1229.7 467.4 1224.9 466.9C1223.2 466.7 1221.5 465.8 1219.8 465.6C1217.1 465.3 1214.7 466.1 1213.2 468.5C1211.5 471.3 1212.1 474.8 1211.4 477.8C1209.9 484.6 1204.1 480.8 1199.4 481.6C1193.1 482.7 1190.2 490.3 1193.2 495.6C1194.2 497.4 1196.8 495.9 1195.9 494.2Z" fill="#046AAC"/>
<path d="M1210.8 500.5C1209.1 495.9 1214.4 490.8 1219 493.2C1219.6 493.5 1220.4 493.5 1220.8 493C1223.1 490.5 1223.7 487.6 1224.7 484.4C1226.5 478.6 1230.8 477.8 1236 476.2C1241.1 474.6 1246.8 470.4 1244.7 464.4C1244 462.6 1241.1 463.4 1241.8 465.2C1244.7 473.1 1230.5 473.7 1226.3 476.6C1221.2 480.2 1222.7 486.7 1218.8 490.9C1219.4 490.8 1220 490.7 1220.6 490.7C1213.9 487.2 1205.4 494.1 1208 501.4C1208.6 503.1 1211.5 502.4 1210.8 500.5Z" fill="#046AAC"/>
<path d="M806.9 526.7C807.1 526.7 809.3 532.1 810.2 532.8C811.6 533.9 813.3 534 815 533.7C818 533.2 819.9 531 822.5 529.6C828.1 526.4 828.1 531.9 830.3 535C832.8 538.7 835.5 536.9 838.4 535.1C840.3 533.9 842.1 533.1 843.8 534.8C844.7 535.7 845.3 537.2 846 538.3C847.1 539.9 848.3 541.2 850.1 542C851.8 542.8 853.4 540.2 851.6 539.4C847.5 537.6 847 530.8 842.1 530.1C839.8 529.8 838.8 531.1 837 532.1C834.8 533.4 833.5 534.3 832.1 531.8C831.5 530.8 831.4 529.4 830.7 528.4C827.5 523.1 822.5 526 818.5 528.6C817.8 529.1 817.1 529.6 816.3 530C814.6 529.5 812.8 529 811.1 528.5C810.4 527.8 810.4 526.1 809.8 525.2C808.8 523.8 807.8 523.4 806.2 523.7C804.2 524.1 805 527 806.9 526.7Z" fill="#046AAC"/>
<path d="M830.399 517.1C833.399 512.4 840.299 522.2 843.099 523.4C844.799 524.1 846.399 524.1 848.199 523.6C848.999 523.4 849.699 523 850.399 522.7C853.099 521.6 855.399 522.3 857.599 524.2C860.799 526.9 861.699 530.5 866.299 531.5C868.999 532.1 871.499 531.3 872.699 528.7C873.499 527 870.899 525.4 870.099 527.2C867.299 533.2 859.599 521.4 857.599 520.1C853.899 517.7 851.599 519.7 847.899 520.5C841.999 521.7 840.099 515.1 835.199 513.5C832.299 512.5 829.499 513 827.899 515.7C826.699 517.3 829.299 518.8 830.399 517.1Z" fill="#046AAC"/>
<path d="M1204.1 691.9C1257.2 691.9 1310.3 691.9 1363.5 691.9C1365.4 691.9 1365.4 688.9 1363.5 688.9C1310.4 688.9 1257.3 688.9 1204.1 688.9C1202.2 688.9 1202.2 691.9 1204.1 691.9Z" fill="#8B8585"/>
<path d="M1247.6 691.2C1247.6 706.7 1247.6 722.1 1247.6 737.6C1247.6 739.5 1250.6 739.5 1250.6 737.6C1250.6 722.1 1250.6 706.7 1250.6 691.2C1250.6 689.3 1247.6 689.3 1247.6 691.2Z" fill="#8B8585"/>
<path d="M303.2 207.7C338.5 207.7 373.9 207.7 409.2 207.7C411.1 207.7 411.1 204.7 409.2 204.7C373.9 204.7 338.5 204.7 303.2 204.7C301.3 204.7 301.2 207.7 303.2 207.7Z" fill="#8B8585"/>
<path d="M404.8 207.4C404.8 217 404.8 226.6 404.8 236.2C404.8 238.1 407.8 238.1 407.8 236.2C407.8 226.6 407.8 217 407.8 207.4C407.8 205.4 404.8 205.4 404.8 207.4Z" fill="#8B8585"/>
<path d="M372.7 205C372.7 189.6 372.7 174.3 372.7 158.9C372.7 157 369.7 157 369.7 158.9C369.7 174.3 369.7 189.6 369.7 205C369.7 207 372.7 207 372.7 205Z" fill="#8B8585"/>
<path d="M95.8 1065.2C128.4 1065.2 161 1065.2 193.6 1065.2C195.5 1065.2 195.5 1062.2 193.6 1062.2C161 1062.2 128.4 1062.2 95.8 1062.2C93.9 1062.2 93.9 1065.2 95.8 1065.2Z" fill="#8B8585"/>
<path d="M141 1026C141 1037.5 141 1049.1 141 1060.6C141 1062.5 144 1062.5 144 1060.6C144 1049.1 144 1037.5 144 1026C144 1024.1 141 1024.1 141 1026Z" fill="#8B8585"/>
<path d="M141 1021.5C128 1021.5 114.9 1021.5 101.9 1021.5C99.9996 1021.5 99.9996 1024.5 101.9 1024.5C114.9 1024.5 128 1024.5 141 1024.5C142.9 1024.5 142.9 1021.5 141 1021.5Z" fill="#8B8585"/>
<path d="M1182.9 977.2C1179.6 973.9 1180.4 967.5 1185.5 966.4C1188.2 965.8 1190.8 967.5 1193.4 967.8C1195.4 968.1 1197.5 967.9 1198.8 966.1C1200.8 963.5 1199.2 960.5 1199.1 957.6C1198.9 948.5 1209.7 949.1 1215.1 952.3C1216.3 953 1217.6 951.8 1217.3 950.6C1214.7 938.1 1229 929.5 1238.8 937.8C1240.3 939 1242.4 936.9 1240.9 935.7C1228.8 925.5 1211.1 935.9 1214.4 951.5C1215.1 950.9 1215.9 950.4 1216.6 949.8C1212 947 1206.1 945.6 1201.2 948.7C1199.4 949.8 1197.8 951.5 1197 953.5C1196.4 954.9 1196.1 956.2 1196.2 957.7C1196.3 960.4 1197.2 960.2 1195.2 962.8C1193 965.7 1192.8 964.4 1189.7 963.7C1188.6 963.4 1187.6 963.2 1186.4 963.3C1183.9 963.4 1181.6 964.6 1180 966.4C1176.5 970.3 1177.4 975.8 1180.9 979.3C1182.2 980.7 1184.3 978.6 1182.9 977.2Z" fill="#8B8585"/>
<path d="M1202.4 980.2C1201.3 971.1 1216.2 971 1220.4 964.7C1221.5 963.1 1221.9 961.3 1222.6 959.6C1223.9 956.5 1226.2 954.5 1229.6 953.6C1235.1 952.2 1240.8 954.7 1245.8 956.8C1247.6 957.5 1248.4 954.6 1246.6 953.9C1237.4 950.1 1225 947.2 1219.9 958.4C1218.1 962.4 1217.5 964.6 1213.3 966.7C1210.8 967.9 1208.2 968.6 1205.8 970C1202 972.2 1199 975.6 1199.5 980.2C1199.7 982.1 1202.7 982.1 1202.4 980.2Z" fill="#8B8585"/>
<path d="M772.3 689.4C774.3 694.4 776.3 699.5 778.3 704.5C778.5 703.9 778.8 703.4 779 702.8C777.9 703.5 776.8 704.2 775.7 705C774 701 774.7 700 777.9 701.8C779.8 703 780.7 705.6 781.1 707.7C782 712.5 781 717.5 779.4 722.1C779 723.3 780.2 724.1 781.2 723.9C787.2 722.7 789.6 729.9 788.4 734.4C787.5 737.7 785.7 740.6 783.9 743.5C782.9 745.1 785.5 746.6 786.5 745C789.7 740 793.4 733.8 791.2 727.6C789.5 723 785.3 720.1 780.4 721C781 721.6 781.6 722.2 782.2 722.8C784.2 717 785.5 709.7 783 703.8C781.3 699.9 777.4 696.9 773 698.2C769.6 699.2 767.9 702.6 769.5 705.9C772.2 711.4 776.9 707.7 780.4 705.4C780.9 705.1 781.3 704.3 781.1 703.7C779.1 698.7 777.1 693.6 775.1 688.6C774.5 686.9 771.6 687.6 772.3 689.4Z" fill="#8B8585"/>
<path d="M180.9 216.3C179 211.5 185.4 210.2 188.4 211.9C190.7 213.2 192.2 215.5 193.6 217.6C194.9 219.5 196.3 221.6 197 223.8C197.8 225.7 197.7 227.5 196.7 229.3C193.2 230.9 191.4 230.5 191.3 228.2C190.4 224.9 193.9 222.7 196.9 222.8C200 222.9 202.9 224.7 205 226.9C208.6 230.7 209.9 235.7 209.4 240.8C210.3 240.5 211.3 240.3 212.2 240C210.2 237.1 212.1 234 214.8 232.5C217.1 231.3 219.7 231.6 221.9 232.8C225.5 234.7 228 238.2 230.3 241.4C231.4 243 234 241.5 232.9 239.9C229.1 234.6 223.4 227.2 215.9 228.9C210.4 230.1 206 236.5 209.6 241.5C210.5 242.8 212.2 242.2 212.4 240.7C213.3 231.2 206.3 218.2 195.1 219.8C191.1 220.4 188.2 223.2 188.2 227.3C188.2 230.5 190.2 233.8 193.6 234C197.6 234.3 200.3 230.4 200.5 226.8C200.8 221.8 196.9 216.4 193.9 212.7C191.1 209.4 187 206.6 182.6 208.3C179 209.6 176.6 213.2 178.1 216.9C178.7 218.9 181.6 218.1 180.9 216.3Z" fill="#8B8585"/>
<path d="M707.7 363C703.5 360.5 706.5 353.1 711.2 356.2C715.7 359.2 709.7 364.3 706.8 360.8C705.6 359.3 703.5 361.4 704.7 362.9C707 365.7 711.4 365.5 714 363.2C717 360.5 716.2 356.1 713.1 353.9C710 351.7 705.5 352.1 703.6 355.7C701.7 359.1 703 363.7 706.3 365.6C707.8 366.5 709.3 364 707.7 363Z" fill="#8B8585"/>
<path d="M1026.3 144.3C1024.1 141.2 1027.9 136.5 1031.4 137.9C1031.1 137.7 1030.8 137.4 1030.5 137.2C1032.4 140.5 1029.6 145 1025.9 144.8C1026.4 145.2 1026.9 145.5 1027.3 145.9C1026.7 144.2 1026 142.4 1025.4 140.7C1024.7 138.9 1021.8 139.7 1022.5 141.5C1023.1 143.2 1023.8 145 1024.4 146.7C1024.6 147.4 1025.1 147.8 1025.8 147.8C1029 148 1031.8 146 1033.2 143.2C1034.3 141 1034.9 136.4 1032.2 135C1026.3 132.1 1020.2 140.9 1023.7 145.8C1024.8 147.4 1027.4 145.9 1026.3 144.3Z" fill="#8B8585"/>
<path d="M1107.7 293C1107.2 290.7 1108.9 288.2 1111.2 287.7C1113.3 287.3 1115.2 289 1115.7 290.9C1117 295.4 1111.1 297.5 1108.3 294.4C1107 293 1104.9 295.1 1106.2 296.5C1111.4 302.3 1121.4 296.6 1118.2 289.2C1116.8 285.9 1113.3 283.8 1109.8 284.9C1106.1 286.1 1103.9 290 1104.7 293.8C1105.3 295.7 1108.2 294.9 1107.7 293Z" fill="#8B8585"/>
<path d="M783.1 1120.7C779.3 1118.9 779.6 1113.7 783.1 1111.7C786.5 1109.8 789.7 1111.5 792.8 1112.9C795.4 1114.1 798.4 1115.2 800.7 1112.9C802.8 1110.9 802.4 1107.8 802.5 1105.2C802.9 1095.1 812.7 1097.1 819.4 1099.6C821.2 1100.3 822 1097.4 820.2 1096.7C814.3 1094.4 806.1 1092.2 801.4 1098C800 1099.7 799.6 1101.7 799.5 1103.8C799.4 1105.2 800 1108.3 799.2 1109.6C797 1112.9 794 1109.9 791.7 1108.9C787.3 1107 781 1107.5 778.3 1112.1C776 1116 777.4 1121.3 781.5 1123.2C783.3 1124.1 784.8 1121.5 783.1 1120.7Z" fill="#8B8585"/>
<path d="M831.5 885C828.5 921.7 830.1 958.5 836.3 994.8C836.6 996.7 839.5 995.9 839.2 994C833.1 958 831.5 921.4 834.5 885C834.7 883.1 831.7 883.1 831.5 885Z" fill="#8B8585"/>
<path d="M833.499 887.3C849.099 892.7 865.199 896.3 881.599 898.1C896.999 899.7 914.699 901.4 929.499 895.6C931.299 894.9 930.499 892 928.699 892.7C914.299 898.4 896.799 896.7 881.599 895.1C865.499 893.4 849.599 889.7 834.299 884.4C832.399 883.7 831.699 886.6 833.499 887.3Z" fill="#8B8585"/>
<path d="M857.299 891.4C852.099 883.3 847.799 874.7 844.799 865.5C843.399 861.1 842.199 856.7 841.299 852.2C840.799 849.5 840.299 846.8 839.999 844.1C839.999 843.8 838.899 836.7 840.999 837.7C841.999 838.2 843.699 837.3 843.199 836C837.699 822.1 834.7 807.5 834.4 792.5C833.9 793 833.4 793.5 832.9 794C833.7 794.3 834.399 794.6 835.199 794.9C836.199 796.1 838.099 794.8 837.699 793.4C835.699 787 834.399 780.4 833.999 773.6C833.899 772 834.199 754 835.299 754.3C836.499 754.6 837.299 753.5 837.099 752.5C835.199 741.2 834.299 729.7 834.799 718.3C834.999 712.6 835.5 707 836.4 701.4C837.2 696.3 837.599 690.1 841.599 686.4C840.799 686.3 839.999 686.2 839.199 686.1C847.599 701.9 852.299 719.2 856.599 736.4C860.799 753.3 864.499 770.4 867.699 787.6C874.199 823.1 878.299 859 880.099 895.1C880.199 897 883.199 897 883.099 895.1C881.299 858.8 877.199 822.6 870.599 786.8C867.299 769 863.499 751.3 859.099 733.7C854.799 716.8 850.099 700 841.799 684.5C841.299 683.6 840.1 683.6 839.4 684.2C836 687.3 834.999 691.4 834.199 695.7C833.099 701.8 832.3 708.1 831.9 714.3C831.1 727.3 831.899 740.3 834.099 753.2C834.699 752.6 835.3 752 835.9 751.4C830.1 749.8 830.799 762.3 830.699 765.1C830.299 774.9 831.799 784.7 834.699 794.1C835.499 793.6 836.399 793.1 837.199 792.6C835.899 791.1 834.799 790.6 832.799 790.8C831.999 790.9 831.299 791.4 831.299 792.3C831.599 807.5 834.599 822.4 840.199 836.6C840.899 836 841.7 835.5 842.4 834.9C832.4 830.1 838.199 852.7 838.999 856.1C841.999 869.1 847.399 881.5 854.599 892.7C855.799 894.5 858.399 893 857.299 891.4Z" fill="#8B8585"/>
<path d="M873.2 791.5C872.3 785.1 872.1 778.6 872.9 772.2C873.1 770.6 876.9 751.8 878.8 752.6C879.8 753.1 881 752.5 881.1 751.3C881.7 738.5 885.7 727.1 890.4 715.3C895.1 703.6 899.7 692.3 907.5 682.2C906.8 682.2 906.1 682.2 905.4 682.2C911.1 688.7 910.4 698.6 910.7 706.7C911.1 715.8 911.4 724.9 911.5 734C911.7 751.9 911.4 769.8 910.6 787.7C908.9 824.3 904.8 860.8 898.6 896.9C898.3 898.8 901.2 899.6 901.5 897.7C908 860.1 912.1 822 913.8 783.8C914.6 764.6 914.8 745.4 914.4 726.2C914.2 716.6 914 707 913.3 697.4C912.9 691.1 911.9 684.9 907.5 680C907 679.4 905.9 679.4 905.4 680C897.7 690 892.9 701 888.3 712.7C883.2 725.3 878.9 737.5 878.2 751.3C879 750.9 879.7 750.4 880.5 750C874.4 747.3 872.4 760.3 871.6 763.8C869.4 773.2 869.2 782.7 870.6 792.2C870.5 794.2 873.4 793.4 873.2 791.5Z" fill="#8B8585"/>
<path d="M837.7 997.3C869 1007.4 902.9 1006.9 933.9 995.9C935.7 995.3 934.9 992.4 933.1 993C902.6 1003.8 869.3 1004.3 838.5 994.4C836.6 993.8 835.8 996.7 837.7 997.3Z" fill="#8B8585"/>
<path d="M929.1 894.6C930.3 910.8 931.6 927 932.7 943.2C933.8 959.7 934.2 976.4 931.5 992.8C931.2 994.7 934.1 995.5 934.4 993.6C937.1 977.5 936.9 961.3 935.8 945.1C934.7 928.3 933.4 911.4 932.1 894.6C932 892.7 929 892.7 929.1 894.6Z" fill="#8B8585"/>
<path d="M395.399 1023C415.799 1012.1 436.299 1001.2 456.699 990.3C466.299 991.9 479.499 994 495.299 996.2C526.899 1000.6 577.799 1007.7 642.199 1009.6C706.599 1011.5 754.899 1007.4 773.299 1005.6C817.599 1001.4 844.399 995.7 866.299 989.8C886.199 984.4 902.599 978.5 914.299 974C923.899 977.2 934.599 981.5 945.999 987.4C952.499 990.8 958.499 994.3 963.799 997.8C944.999 1003.2 919.699 1010.1 889.599 1017.1C826.199 1031.9 777.599 1038.9 767.399 1040.4C709.099 1048.7 625.999 1060.4 521.499 1048.3C488.999 1044.4 445.699 1037.3 395.399 1023Z" fill="white"/>
<path d="M394.3 1023.1C394.8 1027.3 395.4 1031.4 395.9 1035.6C403.4 1037.7 414.4 1040.7 428 1043.7C454 1049.5 480.4 1053.5 514.9 1056.2C642.3 1066.2 744.1 1057.3 744.1 1057.3C795 1052.8 844.4 1048.2 908.2 1029.6C932.2 1022.6 951.8 1015.5 965.8 1010C964.7 1005.3 963.6 1000.6 962.5 995.9C958.6 997.5 952.8 999.8 945.7 1002.4C897.5 1020 857.8 1025.8 822.4 1030.1C744.6 1039.7 705.7 1044.4 648.6 1045.3C583.6 1046.4 496.4 1042.5 394.3 1023.1Z" fill="#161616"/>
<path d="M393.6 1025C393.6 1028.2 393.6 1031.4 393.6 1034.6C393.6 1036.5 396.6 1036.5 396.6 1034.6C396.6 1031.4 396.6 1028.2 396.6 1025C396.6 1023 393.6 1023 393.6 1025Z" fill="#161616"/>
<path d="M394.7 1037.4C469.4 1057.6 547.4 1060.2 624.3 1061.3C698.2 1062.3 772.6 1059.1 845.4 1045.6C886.4 1038 926.8 1026.9 965.8 1011.8C967.6 1011.1 966.8 1008.2 965 1008.9C896.2 1035.6 823.1 1049.2 749.6 1054.9C675.5 1060.6 600.7 1059.3 526.6 1054.8C482.3 1052 438.4 1046.2 395.5 1034.6C393.6 1034 392.8 1036.9 394.7 1037.4Z" fill="#161616"/>
<path d="M965.8 1009.7C966.4 1005.5 966.6 1001.2 966.2 997C966 995.1 963 995.1 963.2 997C963.5 1001 963.5 1005 962.9 1008.9C962.6 1010.7 965.5 1011.6 965.8 1009.7Z" fill="#161616"/>
<path d="M396 1024.7C417 1014.7 437.6 1004 457.8 992.4C459.5 991.4 458 988.9 456.3 989.8C436.1 1001.3 415.5 1012.1 394.5 1022.1C392.7 1022.9 394.2 1025.5 396 1024.7Z" fill="#161616"/>
<path d="M456.999 991C576.299 1013.7 700.299 1017.9 820.599 1000.7C852.599 996.1 884.399 989 913.999 975.8C915.799 975 914.199 972.4 912.499 973.2C885.899 985 857.499 991.9 828.799 996.4C799.599 1001 770.099 1003.8 740.599 1005.7C680.699 1009.5 620.499 1008.5 560.799 1002.8C526.199 999.5 491.899 994.5 457.799 988.1C455.899 987.8 455.099 990.7 456.999 991Z" fill="#161616"/>
<path d="M913.4 975.3C931.2 981.1 947.9 989.2 963.5 999.5C965.1 1000.6 966.6 998 965 996.9C949.2 986.5 932.2 978.3 914.2 972.4C912.3 971.8 911.5 974.7 913.4 975.3Z" fill="#161616"/>
<path d="M396.2 1023.1C431.5 1035 468.3 1040.6 505.3 1043.6C542.8 1046.6 580.6 1047.5 618.2 1047.5C692.9 1047.5 767.8 1042.4 841.4 1029C883.2 1021.4 924.6 1011.1 964.9 997.6C966.7 997 965.9 994.1 964.1 994.7C893.2 1018.3 819.5 1032.1 745.1 1038.9C671.1 1045.7 596.3 1046.1 522.1 1041.7C479.7 1039.1 437.2 1033.8 396.8 1020.2C395.2 1019.6 394.4 1022.5 396.2 1023.1Z" fill="#161616"/>
<path d="M453.799 452C575.999 423.7 701.799 417.5 826.799 416.3C862.199 415.9 897.599 416 932.999 416C934.899 416 934.899 413 932.999 413C807.599 412.8 681.599 412.7 557.099 430C522.099 434.9 487.399 441.1 452.999 449.1C451.099 449.6 451.899 452.5 453.799 452Z" fill="#161616"/>
<path d="M939.2 413.3C940.5 459.8 941.3 513.7 941 573.6C940.8 608.4 940.5 591.8 937.4 736.6C935.6 820 935.1 851.4 929.2 899.6C925.4 931 920.8 956.8 917.4 974.3C943.2 981.5 967.8 988.3 989.4 994.3C1022.8 1003.6 1031.7 1006.1 1045 1008C1065.6 1010.8 1090.7 1011.2 1119.7 1005.3C1130.4 917.7 1136.3 843 1139.7 785.8C1151.9 584.8 1140.5 492.2 1136.1 459.7C1130.1 415.9 1122.7 379.9 1117 355C1095.6 359.1 1078.2 363.5 1066 366.8C1024.1 378.3 990.9 391.8 963.1 403.2C952.8 407.5 944.5 411 939.2 413.3Z" fill="white"/>
<path d="M249.8 356.8C249 365.4 248.1 376 247.3 385.2C230.7 574.5 222.4 669.2 219.7 730.1C216.9 795.5 216.7 890.3 230.6 1008.2C231.7 1010.6 233.7 1013.9 237.3 1016.6C242 1020.1 246.3 1020 254.8 1022.4C261.5 1024.3 265 1026.2 268.2 1027.4C277.4 1031 298 1035.1 324.2 1034.1C361.8 1032.6 390.7 1021.1 411.9 1012.4C431.8 1004.3 447.7 995.6 458.7 989C452.5 933.3 447.9 874.5 445.3 812.8C440 681.6 445.3 561.1 456.2 453.7C451.6 451.9 444.9 449.4 437 446.2C423.4 440.7 390.8 427.4 333.4 399.4C310.7 388.4 282.3 374.1 249.8 356.8Z" fill="white"/>
<path d="M1116.4 354.6C1117.6 361.2 1119.2 370.3 1121 381.2C1123.5 396.7 1129.1 433.4 1133.2 481.6C1137.4 531.8 1138.4 575 1138.5 609.4C1138.8 679.2 1136.2 730.4 1129.4 849.8C1127.3 887 1124.2 941.5 1120.3 1008C1124.4 1007.7 1128.4 1007.5 1132.5 1007.2C1134.5 990.6 1137.2 965.9 1139.3 935.7C1140.9 913.9 1141.6 898 1142.3 880.9C1145.8 802.5 1146.4 803.4 1147.6 771.4C1150 708.3 1149.5 659.8 1149.1 616.2C1148.8 586.1 1147.9 557.6 1146.1 500.6C1144.8 461.8 1143.5 427.4 1134.7 382.7C1132.4 371.3 1130.2 361.8 1128.6 355.3C1124.5 355.1 1120.5 354.9 1116.4 354.6Z" fill="#161616"/>
<path d="M234.5 358.6C233.8 362.1 232.7 367.5 231.6 374.1C228.4 393.2 227.6 407.6 227.3 412.3C225.1 446.3 220.7 462.9 214.3 538.4C213.1 552.2 212.2 564.3 210.4 588.6C206.7 638.2 204.9 663 203.6 691C202.2 722.3 202 744.4 201.7 788.6C201.4 826.8 201.2 854.4 202.2 890.5C203 919.3 204.6 958.4 208.5 1005C216.6 1007.4 224.6 1009.8 232.7 1012.2C232.6 1007.7 232.3 999.6 231.7 989.5C229.3 944.6 225.4 926.4 224.5 889C224.2 877.5 224.4 869.9 224.5 859C225.6 780.8 224.3 745.1 225 694.3C226.2 611.4 231.8 546.6 236.6 491.4C241.1 439.2 246.2 394.5 250.6 359.5C245.1 359.2 239.8 358.9 234.5 358.6Z" fill="#161616"/>
<path d="M936.799 415C940.499 488.4 940 562 939 635.4C937.9 707.2 937.4 779.2 931.9 850.9C928.8 891.7 923.899 932.4 916.299 972.7C915.899 974.6 918.8 975.4 919.2 973.5C932.5 903 937.399 831.3 939.599 759.7C941.899 686.6 942.899 613.3 942.799 540.1C942.699 498.4 942 456.7 939.9 415C939.7 413.1 936.699 413.1 936.799 415Z" fill="#161616"/>
<path d="M940.5 415C996 387.5 1054.9 367.7 1115.7 356C1117.6 355.6 1116.8 352.7 1114.9 353.1C1053.9 364.9 994.7 384.9 939 412.4C937.3 413.3 938.8 415.9 940.5 415Z" fill="#161616"/>
<path d="M1114.7 355.1C1131.2 438.2 1136.2 523.1 1136.1 607.7C1135.9 692.3 1130.9 776.7 1126.8 861.2C1124.4 909.9 1122 958.5 1119.6 1007.2C1119.5 1009.1 1122.5 1009.1 1122.6 1007.2C1126.9 921 1131.4 834.8 1135.3 748.5C1139.1 663.9 1141.5 579.1 1135.8 494.6C1132.6 447.5 1126.9 400.6 1117.7 354.4C1117.2 352.4 1114.3 353.2 1114.7 355.1Z" fill="#161616"/>
<path d="M916.8 973.3C921.3 978.5 929.3 979.5 935.6 981.4C944.2 984 952.9 986.6 961.5 989.2C978.9 994.4 996.2 999.9 1013.8 1004.3C1048.2 1012.7 1083.5 1014.4 1118.4 1008.4C1120.3 1008.1 1119.5 1005.2 1117.6 1005.5C1083.2 1011.4 1048.4 1009.7 1014.6 1001.4C998.5 997.5 982.7 992.5 966.9 987.7C958.9 985.3 950.9 982.9 942.9 980.5C938.9 979.3 934.9 978.1 930.9 976.9C926.7 975.6 922 974.7 919 971.2C917.6 969.8 915.5 971.9 916.8 973.3Z" fill="#161616"/>
<path d="M1116.7 355.2C1120.4 356.1 1124.1 357 1127.9 357.9C1129.8 358.4 1130.6 355.5 1128.7 355C1125 354.1 1121.3 353.2 1117.5 352.3C1115.6 351.9 1114.8 354.8 1116.7 355.2Z" fill="#161616"/>
<path d="M1127.7 356.9C1137.7 397.3 1140.4 439.5 1143.3 481C1146.3 523.4 1147.9 565.9 1148.6 608.5C1149.8 693 1146.9 777.5 1142.1 861.9C1139.4 909.7 1136 957.5 1132.5 1005.3C1132.4 1007.2 1135.4 1007.2 1135.5 1005.3C1141.8 920.3 1147.5 835.3 1150.2 750.1C1152.9 665.1 1152.7 579.9 1147.3 494.9C1144.4 448.7 1141.8 401.3 1130.7 356.2C1130.1 354.2 1127.2 355 1127.7 356.9Z" fill="#161616"/>
<path d="M1121.2 1008.9C1125.6 1008.5 1129.9 1008.1 1134.3 1007.7C1136.2 1007.5 1136.2 1004.5 1134.3 1004.7C1129.9 1005.1 1125.6 1005.5 1121.2 1005.9C1119.3 1006.1 1119.3 1009.1 1121.2 1008.9Z" fill="#161616"/>
<path d="M453.7 452.9C447 522.2 443 591.7 441.7 661.3C440.4 731.2 441.799 801.2 445.999 871C448.299 910.2 451.599 949.3 455.599 988.3C455.799 990.2 458.799 990.2 458.599 988.3C451.399 919.1 446.899 849.6 445.099 780C443.299 710.1 444.199 640.1 447.899 570.3C449.999 531.1 452.899 492 456.599 452.9C456.899 451 453.9 451 453.7 452.9Z" fill="#161616"/>
<path d="M251.7 359.2C316.6 395.3 384 426.9 453.2 453.8C455 454.5 455.8 451.6 454 450.9C385 424.1 317.9 392.6 253.2 356.6C251.5 355.6 250 358.2 251.7 359.2Z" fill="#161616"/>
<path d="M248.599 358.5C237.499 443.1 229.799 528.2 225.599 613.5C221.399 698.8 220.799 784.2 223.599 869.5C225.199 917.4 227.899 965.3 231.699 1013.1C231.899 1015 234.899 1015 234.699 1013.1C227.899 928 224.699 842.6 224.899 757.3C225.099 671.9 228.899 586.6 236.099 501.5C240.199 453.7 245.399 406.1 251.599 358.5C251.799 356.6 248.799 356.6 248.599 358.5Z" fill="#161616"/>
<path d="M231.6 1015C287.3 1045.3 354 1038.8 410.6 1014.8C427.6 1007.6 444 998.9 459.8 989.4C461.4 988.4 459.9 985.8 458.3 986.8C405.6 1018.7 343.8 1041 281.5 1029.4C264.6 1026.3 248.2 1020.6 233.1 1012.4C231.5 1011.5 229.9 1014.1 231.6 1015Z" fill="#161616"/>
<path d="M209.5 1006.7C216.5 1010 223.7 1012.8 231 1015.3C232.8 1015.9 233.6 1013 231.8 1012.4C224.7 1010 217.8 1007.3 211 1004.1C209.2 1003.3 207.7 1005.9 209.5 1006.7Z" fill="#161616"/>
<path d="M232.5 359.2C221.7 443 212.7 527 206.8 611.3C201 695.2 198.2 779.3 200 863.4C201 911 203.4 958.6 207.5 1006C207.7 1007.9 210.7 1007.9 210.5 1006C203.3 921.9 201.2 837.5 203.2 753.1C205.1 669 210.9 585 219.2 501.2C223.9 453.8 229.4 406.4 235.5 359.1C235.8 357.3 232.8 357.3 232.5 359.2Z" fill="#161616"/>
<path d="M234.2 361.3C240 360.1 245.8 359.7 251.8 360C253.7 360.1 253.7 357.1 251.8 357C245.6 356.7 239.5 357.2 233.4 358.4C231.5 358.8 232.3 361.7 234.2 361.3Z" fill="#161616"/>
<path d="M975.1 421.8C979.3 537.8 979.1 653.9 974.3 769.9C973 802.4 971.3 834.8 969.2 867.3C969.1 869.2 972.1 869.2 972.2 867.3C979.5 751.5 982.3 635.4 980.6 519.3C980.1 486.8 979.3 454.3 978.1 421.8C978 419.9 975 419.9 975.1 421.8Z" fill="#161616"/>
<path d="M1023.6 380.2C1027.6 460.9 1029.6 541.8 1029.5 622.6C1029.5 703.4 1027.5 784.3 1023.5 865C1021.3 910.7 1018.4 956.3 1014.9 1001.9C1014.8 1003.8 1017.8 1003.8 1017.9 1001.9C1024.1 921.3 1028.3 840.6 1030.6 759.8C1032.8 679 1033.1 598.1 1031.4 517.3C1030.4 471.6 1028.8 425.9 1026.6 380.2C1026.5 378.3 1023.5 378.3 1023.6 380.2Z" fill="#161616"/>
<path d="M1081.8 362.4C1087.4 446.3 1090.8 530.4 1091.7 614.6C1092.6 699.1 1091.2 783.5 1087.4 867.9C1085.3 915.2 1082.4 962.5 1078.7 1009.7C1078.6 1011.6 1081.6 1011.6 1081.7 1009.7C1088.1 925.8 1092.3 841.7 1094 757.6C1095.7 673.2 1095.1 588.7 1092.1 504.2C1090.4 456.9 1088 409.6 1084.8 362.3C1084.7 360.4 1081.7 360.4 1081.8 362.4Z" fill="#161616"/>
<path d="M964.8 904.8C962.5 931 958.3 957 952.2 982.6C951.8 984.5 954.6 985.3 955.1 983.4C961.3 957.5 965.5 931.3 967.8 904.8C968 902.9 965 902.9 964.8 904.8Z" fill="#161616"/>
<path d="M284.5 378.7C272.5 462.6 267.4 547.4 266.6 632.1C265.9 717.3 269.4 802.4 274.6 887.4C277.5 935.5 280.9 983.5 284.3 1031.6C284.4 1033.5 287.4 1033.5 287.3 1031.6C281.3 946.9 275.3 862.2 272 777.4C268.7 692.8 268.2 608 273.1 523.4C275.9 475.3 280.5 427.2 287.3 379.5C287.7 377.7 284.8 376.8 284.5 378.7Z" fill="#161616"/>
<path d="M342 406.7C334.4 487.8 329.3 569.2 327.6 650.7C326 732.1 327.9 813.5 334.6 894.7C338.3 939.8 343.5 984.7 350.3 1029.4C350.6 1031.3 353.5 1030.5 353.2 1028.6C341 948 334 866.6 331.4 785.1C328.8 704.7 330.3 624.1 334.7 543.8C337.2 498.1 340.7 452.4 345 406.8C345.2 404.8 342.2 404.8 342 406.7Z" fill="#161616"/>
<path d="M399.6 430.6C389.8 506.3 384.1 582.5 382.6 658.8C381.1 735.1 383.7 811.5 390.4 887.5C394.2 929.9 399.2 972.1 405.5 1014.2C405.8 1016.1 408.7 1015.3 408.4 1013.4C397.1 938 389.9 862.1 386.8 786C383.7 710.1 384.8 634 389.9 558.1C392.8 515.5 397 472.9 402.5 430.5C402.9 428.7 399.9 428.7 399.6 430.6Z" fill="#161616"/>
<path opacity="0.12" d="M1059.4 369.2C1070.5 414.5 1079.5 467.6 1082.5 527.1C1090 678.5 1054.4 802.2 1023.4 881.6C1001.5 916.7 979.7 951.8 957.8 986.9C979.1 996.1 1010.7 1006.8 1050.1 1010C1077.3 1012.2 1100.9 1010.2 1119.3 1007.2C1119.5 1002.8 1122.8 935.9 1123 931.5C1133.9 707.4 1134.6 692.1 1135 676.7C1136.8 614 1136.5 524 1125.8 411.7C1122.1 392.6 1118.4 373.5 1114.7 354.5C1096.4 359.3 1077.9 364.2 1059.4 369.2Z" fill="#3F3F3F"/>
<path opacity="0.13" d="M361.5 418.1C358.9 429 355 445.3 350.4 465.2C330 554 315 619.3 307 679.4C292.8 785.3 279.1 887.9 337.5 972.1C354.5 996.6 373.1 1013.1 385.5 1022.9C373.5 1027.6 358.6 1031.9 341.2 1034C292.8 1039.7 254 1024 235 1014.6C227.8 948.3 222.8 877.3 221.2 802.2C217.6 636 231.1 486.6 251.7 358.1C288.2 378.1 324.8 398.1 361.5 418.1Z" fill="#3F3F3F"/>
<path d="M256.599 310.5C255.299 311.5 256.299 315.4 258.099 322.1C258.799 324.7 259.499 326.7 259.899 328C259.099 333.4 258.399 338.8 257.599 344.2C255.999 344.4 251.899 345.3 248.099 348.6C244.599 351.7 243.199 355.3 242.699 356.9C245.899 357.2 249.799 357.9 253.999 359.2C260.099 361.1 264.899 363.7 268.399 365.9C268.399 367.1 268.599 369.4 270.199 371.1C271.599 372.5 273.299 372.7 274.299 372.9C277.899 373.5 282.199 374.3 287.699 375.5C290.099 376.9 294.099 379.2 298.999 381.9C315.599 390.9 321.599 392.4 338.199 401.2C348.899 406.9 347.999 407.1 355.499 410.7C366.999 416.3 376.899 419.6 383.599 421.5C386.399 418.4 390.899 412.4 393.399 403.7C395.399 396.8 395.299 390.8 394.899 386.9C396.599 387.8 399.299 388.8 402.399 388.4C410.399 387.5 415.499 378.4 417.099 371.9C418.499 366.2 417.199 362.6 416.099 355.9C413.599 340.9 411.399 327.5 417.599 319C422.799 311.9 433.499 308.6 442.099 299.1C442.899 298.2 444.399 296.5 443.899 295.7C442.999 294.2 435.999 296.8 432.599 298.3C430.399 299.3 413.899 306.9 408.899 324.1C408.099 326.8 407.999 334.6 407.899 350.1C407.799 361.4 407.999 367.8 403.499 371.5C401.199 373.4 397.799 374.5 394.699 373.8C390.099 372.8 387.899 368.3 385.899 365.3C380.699 357.4 373.299 354.1 364.199 349.6C357.099 346.1 350.999 344.8 338.699 342.1C327.099 339.6 323.599 339.9 318.599 336.2C312.999 332 309.899 326.1 308.299 322.8C306.699 319.7 304.199 314.8 303.099 307.8C302.499 303.7 302.599 300.8 301.599 300.6C299.799 300.2 298.899 308.5 292.799 311.4C289.099 313.2 286.699 311.5 280.199 311.7C275.999 311.8 271.199 312.7 265.799 315.1C263.999 313.8 258.399 309.2 256.599 310.5Z" fill="black"/>
<path d="M259.6 343.4C257.5 326.9 272.5 311.9 289.1 313.6C304.8 315.2 315.2 334.3 314.7 348.6C314.6 350.5 317.6 350.5 317.7 348.6C318.2 332.8 306.4 312 289.1 310.6C270.9 309.1 254.3 325.2 256.6 343.4C256.9 345.2 259.9 345.3 259.6 343.4Z" fill="black"/>
<path d="M259.3 353.8C265.4 365.7 278.5 374.1 292.2 372.3C304.7 370.6 315.3 360.5 317.2 348C317.5 346.1 314.6 345.3 314.3 347.2C312.6 358.6 303.2 367.8 291.8 369.3C279.3 371 267.5 363.2 261.9 352.3C261 350.6 258.4 352.1 259.3 353.8Z" fill="black"/>
<path d="M270.099 368.3C269.799 364.5 280.599 362.9 283.299 362.3C288.199 361.2 293.199 360.6 298.199 360.6C307.499 360.6 316.399 363 324.299 367.9C325.899 368.9 327.499 366.3 325.799 365.3C315.599 359 303.699 356.8 291.899 357.9C285.699 358.5 279.599 359.8 273.699 361.8C270.499 362.9 266.699 364.3 266.999 368.3C267.199 370.2 270.299 370.2 270.099 368.3Z" fill="black"/>
<path d="M313.099 333.7C319.399 341.3 329.599 343.1 338.699 345.1C350.799 347.9 363.299 350.4 373.899 357.1C395.799 370.9 399.899 401 382.599 420.3C381.299 421.7 383.399 423.9 384.699 422.4C400.099 405.3 400.499 379.1 384.599 362.1C376.199 353.1 364.199 348.4 352.499 345.3C340.599 342.2 323.499 341.7 315.099 331.5C313.999 330.1 311.899 332.2 313.099 333.7Z" fill="black"/>
<path d="M383.099 386C378.099 379.4 369.299 377.1 361.599 380.3C352.099 384.2 351.599 395.9 352.699 404.8C352.899 406.7 355.899 406.7 355.699 404.8C354.799 397.8 354.699 387 361.899 383.5C368.099 380.4 376.199 382 380.399 387.6C381.599 389.1 384.199 387.6 383.099 386Z" fill="black"/>
<path d="M355.299 403.4C349.799 399.2 344.099 395.6 336.999 397.5C336.199 397.7 335.799 398.6 335.999 399.3C337.799 406.3 348.799 409.2 354.599 411.7C363.499 415.6 372.599 418.9 381.799 421.8C383.599 422.4 384.399 419.5 382.599 418.9C375.199 416.6 367.999 414.1 360.799 411.1C356.899 409.5 353.099 407.8 349.299 406C345.899 404.4 339.799 402.5 338.799 398.5C338.499 399.1 338.099 399.7 337.799 400.3C343.999 398.6 349.099 402.3 353.699 405.9C355.299 407.2 356.799 404.6 355.299 403.4Z" fill="black"/>
<path d="M267.399 368C271.299 374.4 279.199 375.5 286.099 376.5C296.299 378 306.499 378 316.699 376.9C318.599 376.7 318.599 373.7 316.699 373.9C308.499 374.8 300.299 375 292.099 374.2C285.199 373.5 274.099 373.1 269.899 366.5C268.999 364.8 266.399 366.3 267.399 368Z" fill="black"/>
<path d="M244.1 357.8C245.4 350.8 251.5 347.2 258.3 346.9C257.8 346.5 257.3 346.2 256.9 345.8C257.4 348.2 258.1 350.5 259.1 352.7C259.8 354.5 262.7 353.7 262 351.9C261.1 349.6 260.4 347.4 259.8 345C259.7 344.4 259 343.9 258.4 343.9C250.4 344.3 242.8 348.7 241.3 357C240.9 358.9 243.8 359.7 244.1 357.8Z" fill="black"/>
<path d="M261.499 326.8C259.999 322.5 258.899 318 258.499 313.4C258.499 313 258.399 312.6 258.399 312.2C258.299 311.3 258.399 311.4 258.799 312.5C259.699 313.1 260.599 313.8 261.499 314.5C262.999 315.8 264.399 317.2 265.599 318.7C266.899 320.2 268.999 318 267.699 316.6C265.999 314.6 258.899 306.4 255.899 309.6C254.399 311.2 255.499 314.9 255.799 316.7C256.299 320.4 257.299 324.1 258.499 327.6C259.299 329.4 262.199 328.7 261.499 326.8Z" fill="black"/>
<path d="M295.3 312.8C296.2 311.2 297.1 309.6 298.1 308C298.5 307.3 298.9 306.7 299.2 306C299.8 305 299.8 304.1 301 304.4C302.4 304.7 301.9 308 301.9 309.2C301.9 311.1 302 313 302 314.9C302 316.8 305 316.8 305 314.9C305 311.8 305.1 308.7 304.9 305.6C304.8 303.6 304.1 301.4 301.9 300.7C299.9 300.1 298.5 301.4 297.5 302.9C295.8 305.6 294.3 308.5 292.7 311.2C291.7 313 294.3 314.5 295.3 312.8Z" fill="black"/>
<path d="M391.099 378.2C391.699 385.8 400.199 388.3 406.099 384.6C414.799 379.2 416.699 367 415.599 357.8C414.099 345.2 411.099 333.5 415.399 321C419.499 309.1 429.699 299.4 442.599 298.6C444.499 298.5 444.499 295.5 442.599 295.6C424.999 296.7 412.999 311.7 410.499 328.3C408.999 338.2 411.199 347.4 412.499 357.1C413.299 363.5 412.899 369.6 409.999 375.5C408.699 378 406.899 380.5 404.499 382.1C400.799 384.4 394.399 383.7 393.999 378.3C393.999 376.3 390.999 376.2 391.099 378.2Z" fill="black"/>
<path d="M392.7 383.6C395.8 391.9 406.6 388.2 411.3 383.4C419 375.6 417.3 362.6 416.7 352.7C416.6 350.8 413.6 350.8 413.7 352.7C414.1 359 414.7 365.8 413.6 372.1C413.1 375.1 412 377.9 410 380.3C407.8 383 398.2 389.8 395.6 382.8C394.9 381 392 381.8 392.7 383.6Z" fill="black"/>
<path d="M442.7 295.5C431.3 299.9 419.8 306.1 415.2 318.1C409.9 331.9 413.7 346.9 413.4 361.2C413.4 363.1 416.4 363.1 416.4 361.2C416.7 348.7 413.7 335.9 416.7 323.5C420 309.9 431.3 303.1 443.5 298.4C445.3 297.7 444.5 294.8 442.7 295.5Z" fill="black"/>
<path d="M440.4 297.2C429.9 302 420.3 310.4 415.4 321.1C412.8 326.7 413.2 332.9 413.2 339C413.2 346.8 413.5 354.7 414.1 362.5C414.2 364.4 417.2 364.4 417.1 362.5C416.7 356.2 416.4 350 416.3 343.7C416.2 337.1 415.3 329.3 417.8 323.1C422.1 312.6 431.8 304.5 441.9 299.8C443.7 299 442.2 296.4 440.4 297.2Z" fill="black"/>
<path d="M265.499 333.4C268.299 338.3 275.399 336.6 276.099 331.2C276.199 330.2 274.699 330.3 274.599 331.2C274.099 335.3 268.899 336.1 266.799 332.7C266.299 331.8 264.999 332.6 265.499 333.4Z" fill="white"/>
<path d="M286.699 329.5C289.799 334.8 297.699 332.7 297.799 326.6C297.799 325.6 296.299 325.6 296.299 326.6C296.199 331.3 290.399 332.8 287.999 328.8C287.499 327.9 286.199 328.6 286.699 329.5Z" fill="white"/>
<path d="M280.699 336.1C281.399 339 280.799 341.9 278.999 344.3C278.399 345.1 279.699 345.8 280.299 345.1C282.299 342.4 282.899 339 282.199 335.7C281.899 334.8 280.399 335.2 280.699 336.1Z" fill="white"/>
<path d="M281.3 336C281 339.8 283.1 343.4 286.6 345C287.5 345.4 288.2 344.1 287.4 343.7C284.4 342.3 282.5 339.3 282.8 336C282.8 335 281.3 335 281.3 336Z" fill="white"/>
<path d="M256.9 344.9C265.7 344.2 271.3 351.4 277.2 356.7C277.9 357.3 279 356.3 278.3 355.6C272.1 350 266.1 342.7 256.9 343.3C256 343.4 256 344.9 256.9 344.9Z" fill="white"/>
<path d="M273.3 362.5C284.6 355.3 298 352.9 311.1 355.8C312 356 312.4 354.6 311.5 354.4C298 351.5 284.2 353.9 272.6 361.3C271.7 361.7 272.5 363 273.3 362.5Z" fill="white"/>
<path d="M301.699 376.2C310.999 376.8 319.799 373.9 326.899 367.8C327.599 367.2 326.599 366.1 325.799 366.7C318.999 372.5 310.599 375.3 301.699 374.7C300.799 374.7 300.799 376.2 301.699 376.2Z" fill="white"/>
<path d="M299 305.2C296.8 308.9 296.3 313.2 297.6 317.3C297.9 318.2 299.3 317.8 299 316.9C297.8 313.2 298.2 309.3 300.2 306C300.8 305.1 299.5 304.3 299 305.2Z" fill="white"/>
<path d="M259.399 314.5C261.799 316 263.299 318.3 263.899 321C264.099 321.9 265.499 321.5 265.299 320.6C264.599 317.5 262.799 314.9 260.099 313.2C259.299 312.7 258.599 314 259.399 314.5Z" fill="white"/>
<path d="M312.299 330.5C314.199 332.8 316.399 334.8 318.899 336.3C319.699 336.8 320.499 335.5 319.699 335C317.299 333.5 315.099 331.6 313.399 329.4C312.699 328.7 311.699 329.8 312.299 330.5Z" fill="white"/>
<path d="M373.999 379.6C371.899 374.3 361.799 377.9 358.499 380C352.599 383.9 349.999 391.2 352.199 397.9C352.499 398.8 353.899 398.4 353.599 397.5C351.899 392.2 353.299 386.5 357.499 382.6C359.299 380.9 361.699 379.7 364.099 379.1C365.799 378.6 371.599 377.5 372.499 379.9C372.899 380.9 374.299 380.5 373.999 379.6Z" fill="white"/>
<path d="M353.4 398C345.6 394.7 337.3 394.4 329.2 396.9C328.3 397.2 328.7 398.6 329.6 398.3C337.5 395.8 345.4 396.2 353 399.4C353.9 399.8 354.3 398.3 353.4 398Z" fill="white"/>
<path d="M628.1 813.9C624 823.7 624 831 623.4 849.8C622.7 873 620.7 896.1 620.5 919.2C620.3 938.7 620 968.2 619.2 1006.6C651.2 1008.4 686.6 1008.8 725 1006.9C761.6 1005.1 795.4 1001.4 825.9 996.8C811.5 948.1 802 912.6 795.2 885.1C791.6 870.4 786.3 848.4 771.7 822.7C763.7 808.6 755.4 798 749.3 790.9C747.7 789.5 712.4 759.8 671.6 773.8C669.6 774.6 639.9 785.4 628.1 813.9Z" fill="#85C7F2"/>
<path d="M687 872.2C693.7 884.1 700.4 896 707 907.9C707.9 909.6 710.5 908.1 709.6 906.4C702.9 894.5 696.2 882.6 689.6 870.7C688.7 869 686.1 870.5 687 872.2Z" fill="#046AAC"/>
<path d="M686.2 871.6C701.6 890.8 710.5 912.7 715.3 936.7C719.8 959.4 722.7 982.4 724.4 1005.5C724.5 1007.4 727.5 1007.4 727.4 1005.5C725.6 981.8 722.6 958.1 718 934.8C713.2 910.7 703.8 888.7 688.4 869.5C687.2 867.9 685 870.1 686.2 871.6Z" fill="#046AAC"/>
<path opacity="0.19" d="M710.3 771.5C713.8 778.5 718.8 788.8 724.4 801.2C740.7 837.4 757.6 875.6 766.6 922.6C770.3 941.6 773.8 969.1 772.3 1003.4C780.7 1003 789.6 1002.3 798.9 1001.3C808.2 1000.3 817.1 999.1 825.5 997.7C822.9 988.9 818.7 974.9 814 957.6C800.9 909.2 799.1 894.1 787.9 862.2C779.6 838.5 771.9 822.4 760.8 807C750.8 793.1 741.4 784.4 729.5 778.3C722.1 774.5 715.2 772.6 710.3 771.5Z" fill="#3F3F3F"/>
<path opacity="0.11" d="M686.4 872.7C690.3 887.3 693.7 904.7 695.3 924.3C698.1 958.2 694.5 987.1 690.1 1008.7C701.6 1008 713 1007.3 724.5 1006.6C723.3 983.9 720.7 964.8 718.2 950.3C711.9 913.4 705.3 899.7 700 890.9C695 882.8 690 876.7 686.4 872.7Z" fill="#3F3F3F"/>
<path d="M558.3 643.5C555 645.7 553 649.9 549.1 658.2C545.9 665 544.4 670.3 542 678.2C535.4 700.6 536.1 696.8 533.8 705.3C530.8 716.6 525.4 736.4 522.4 762.5C519.5 787.8 520.1 807.3 520.2 812C521.3 841.7 526.5 863.8 530 878C536.2 903.5 544.5 924.7 561 967C564.6 976.1 567.6 983.6 569.7 988.8C568.2 989 565.8 989.3 562.9 989.7C547.8 991.5 545.7 991.1 539.6 992.4C531.8 994.1 524.8 995.8 522.1 1001.7C520.9 1004.4 520.4 1008.2 521.9 1009.5C523.8 1011.1 527.5 1007.5 533.9 1005.4C539.3 1003.7 544.1 1003.8 547.4 1004.3C544.8 1009.4 543.3 1014 542.4 1017.3C540.2 1024.9 538.5 1031.1 541.3 1035.5C542.7 1037.7 545.4 1039.7 547.6 1039.1C548.8 1038.8 549.9 1037.7 552.9 1029.8C555.8 1021.9 556 1019.4 558.4 1016.3C560.5 1013.7 562.9 1012.3 564.5 1011.5C563.7 1014 562.8 1017.7 562.4 1022.2C562.2 1024.9 561.9 1027.4 562.4 1030.6C562.8 1033.5 563.7 1039.7 568.3 1043.1C569.1 1043.7 572.4 1046.2 574.4 1044.9C576.1 1043.9 575.6 1041.1 576.3 1032.1C576.9 1024.5 577.5 1022.4 578 1021.2C579.3 1017.7 581.3 1015.2 582.8 1013.7C582.3 1020.9 582.4 1026.9 582.6 1031.3C583 1038.4 583.7 1041.6 586 1043.6C587.3 1044.7 589.5 1045.8 591.3 1045C593.1 1044.2 593.7 1041.7 594.2 1038.6C596.4 1026.9 595.1 1023.5 597.6 1017.6C598.6 1015.3 599.7 1012.5 602.4 1010.5C608.1 1006.3 616.2 1008.8 617.3 1009.1C622.1 1010.6 623.9 1013.2 626.3 1012.1C628.3 1011.2 629.4 1008.3 629.5 1005.9C629.6 1000 623.1 995.5 617.5 991.8C614.7 989.9 610.5 987.4 604.9 985.4C600 975.7 593.8 961.6 588.7 943.7C585.3 931.7 583.7 922.5 582.2 913.8C576.9 883.3 578.8 871.6 572.9 841.3C571.5 834 570.1 828.2 569.3 824.9C569.7 819.9 570.4 812.1 571.4 802.6C574.7 771.6 576.9 752.2 583.6 729.4C588.9 711.5 594.3 696.8 594.3 696.8C601.1 678.5 603.3 676 602.5 670.1C599.7 651.5 570.6 635.3 558.3 643.5Z" fill="white"/>
<path d="M550.6 653C532.8 694.1 521.6 738 519.2 782.8C516.7 828.5 524.6 873.2 539.4 916.4C547.8 941.1 558 965.1 568.4 989.1C569.2 990.9 571.7 989.3 571 987.6C553 946 535.4 903.8 527 859.2C518.7 815.2 520.4 769.7 530 726C535.4 701.5 543.2 677.6 553.2 654.6C553.9 652.8 551.4 651.2 550.6 653Z" fill="#161616"/>
<path d="M587.9 710.1C575.3 748.2 568.7 788.1 568 828.2C568 830.1 571 830.1 571 828.2C571.7 788.3 578.3 748.8 590.8 710.9C591.4 709.1 588.5 708.3 587.9 710.1Z" fill="#161616"/>
<path d="M557.5 810C566.4 822.4 570 837.2 572.1 852C574.3 867.1 575.3 882.4 577.5 897.5C581.9 928.2 589.1 958.8 603.6 986.3C604.5 988 607.1 986.5 606.2 984.8C591.1 956.2 584 924.3 579.8 892.5C576.1 864.6 577.2 832.3 560.1 808.5C559 807 556.4 808.5 557.5 810Z" fill="#161616"/>
<path d="M568 987.7C558.7 988.2 549.4 989.1 540.3 990.8C533.8 992.1 526.9 994.2 522.4 999.4C519.8 1002.5 516.5 1009.9 522.2 1012C524.7 1012.9 526.9 1011.2 529 1010C534.2 1007 539.6 1003.9 545.8 1005.6C547.7 1006.1 548.5 1003.2 546.6 1002.7C541.5 1001.3 536.9 1002.5 532.3 1004.8C530.9 1005.5 529.6 1006.2 528.3 1007C527.5 1007.4 526.8 1007.9 526 1008.4C525.1 1006.8 524.1 1005.2 523.2 1003.6C523.4 1001.1 528.4 998.2 530.2 997.2C535.1 994.6 540.8 993.7 546.2 992.9C553.5 991.8 560.8 991.1 568.1 990.7C570 990.6 570 987.6 568 987.7Z" fill="#161616"/>
<path d="M559.801 996.6C551.901 997.9 545.401 1003.3 542.401 1010.6C539.201 1018.2 536.501 1029.5 540.201 1037.3C543.001 1043.2 549.901 1045.3 552.501 1038.1C554.101 1033.6 553.801 1028.7 555.401 1024.2C557.401 1018.6 560.801 1013.8 565.801 1010.5C567.401 1009.4 565.901 1006.8 564.301 1007.9C559.601 1011 556.101 1015.2 553.801 1020.3C552.601 1022.9 551.701 1025.6 551.101 1028.4C550.601 1030.7 550.301 1042.3 544.801 1038.9C541.701 1037 541.401 1030.9 541.501 1027.8C541.701 1023.2 542.901 1017.9 544.401 1013.5C546.901 1006.1 552.801 1000.8 560.501 999.5C562.501 999.2 561.701 996.3 559.801 996.6Z" fill="#161616"/>
<path d="M569.2 1004C563 1008 560.8 1016.7 560.2 1023.7C559.6 1031.2 561.7 1039.3 567.3 1044.6C570.6 1047.7 575.7 1049.3 576.6 1043.5C578.1 1033.8 574.2 1020.1 584.8 1014.3C586.5 1013.4 585 1010.8 583.3 1011.7C579.5 1013.8 577.1 1017.2 575.6 1021.3C573.5 1027.3 574.7 1033.4 573.8 1039.6C573.4 1042.4 572.6 1045.4 569.5 1042.5C568.4 1041.5 567.4 1040.2 566.6 1038.9C564.7 1035.9 563.6 1032.5 563.3 1029C562.6 1022 564.4 1010.8 570.8 1006.6C572.3 1005.5 570.8 1002.9 569.2 1004Z" fill="#161616"/>
<path d="M583.4 1012C581.5 1019.2 579.7 1026.7 580.9 1034.2C581.4 1037.8 583.5 1046.6 588.1 1047.5C593.3 1048.5 595.4 1039.3 595.9 1035.9C597 1028.5 595.6 1019.6 601.4 1013.9C602.8 1012.5 600.7 1010.4 599.3 1011.8C592.3 1018.7 594.7 1028.7 592.6 1037.5C591.9 1040.7 589.9 1045.5 586.6 1041.8C584.8 1039.9 584.3 1036.2 583.9 1033.7C582.9 1026.7 584.6 1019.7 586.4 1012.9C586.8 1011 583.9 1010.2 583.4 1012Z" fill="#161616"/>
<path d="M605 988C610.9 990.4 617 993 621.6 997.6C623.7 999.7 626.3 1002.9 626.9 1005.9C628.4 1014.2 622.2 1008.9 619.9 1007.9C613.6 1005.1 601.1 1007.1 597.5 1013.5C596.6 1015.2 599.2 1016.7 600.1 1015C602 1011.5 607.2 1010.6 610.8 1010.1C613 1009.8 615.5 1009.6 617.6 1010.2C620 1010.9 621.5 1013 623.8 1013.7C627.1 1014.7 629.6 1012.4 630.1 1009.2C631 1004 626.5 998.2 623 994.8C618.1 990.1 611.8 987.5 605.6 985C604 984.4 603.3 987.3 605 988Z" fill="#161616"/>
<path opacity="0.13" d="M584.801 677.8C573.301 678.5 566.401 707.9 562.601 724.2C558.301 742.5 554.401 767.7 555.201 804.4C555.901 837.2 560.101 862.2 561.501 870.9C567.801 908.3 577.701 939.7 587.401 964.3C590.601 973.3 593.701 982.3 596.901 991.2C595.101 998.6 593.301 1006.2 591.601 1014.1C589.401 1024.5 587.401 1034.7 585.801 1044.5C587.701 1044.7 590.301 1044.6 592.101 1042.8C594.401 1040.5 594.101 1036.8 594.201 1033.6C594.301 1030.6 594.601 1016.1 601.101 1010.7C605.101 1007.4 611.501 1007.4 615.901 1009C620.401 1010.7 622.401 1014 625.401 1013C627.701 1012.3 629.301 1009.5 629.601 1007.3C630.601 1000 616.601 992.5 614.301 991.3C609.801 988.9 607.701 988.6 604.801 985.6C601.201 981.8 600.001 977.3 599.501 975.3C591.201 943.7 587.101 945.7 581.501 909.4C577.301 882 580.001 883.6 575.701 861.8C572.701 846.4 570.201 840.1 569.401 826.8C568.501 812.2 570.201 800.8 572.001 790.7C579.501 749.4 593.901 699.4 597.401 687.5C594.201 682.5 589.801 677.5 584.801 677.8Z" fill="#3F3F3F"/>
<path d="M788.9 266.7C785.8 266.6 783.4 272.2 782.8 273.7C781.9 275.9 780.5 280.2 781.5 286.3C781.5 286.3 782.1 290.5 784.1 315.9C784.6 321.6 784.7 329.9 783.2 340.3C779.2 351.3 775.4 359.9 772.8 365.5C764 384.3 758.1 391.8 745.8 415.6C741.2 424.5 740.8 425.9 735.4 436.9C721.9 464.2 712 481.3 701.9 499.6C693 515.6 680.5 539.1 665.8 569.3C665.1 571.9 661.6 585.8 669.7 598C678.3 610.9 696.3 616.7 713.7 611.1C716.4 607.3 720.2 601.4 723.7 593.7C727.1 586.2 728.7 580.4 729.8 576.7C730.9 573 735.3 560.5 744.2 535.3C747 527.5 750.4 518.2 757.3 500C767.8 472.1 773 458.2 776.5 449.5C784.4 429.7 790.4 416 802.2 389.4C808.4 375.4 816 358.5 824.8 339.3C829.9 336.4 836.9 331.9 844.4 325.4C855.2 316.1 860.6 308.2 871 293.2C877.7 283.4 882.8 274.8 881.4 266.2C881.2 265 880.7 261.5 878.8 261C876.4 260.3 873.4 265.1 870.1 269.3C866.7 273.6 861.6 279.2 854 285C856.6 277.8 859.2 272.2 861 268.5C865.1 260.1 868.5 254.7 870.6 245.4C872.9 235.5 870.8 233.7 870.2 233.2C867.5 231.2 862.9 235 860.2 232.8C857.8 230.7 859.9 226.1 858 225C856.1 223.9 851.9 227.2 848.9 230.7C843.7 236.7 842.5 242.5 840.6 248.1C838.8 253.6 835.5 261.1 829.3 269.4C827.8 269.6 825.8 269.7 824.9 268.5C823.9 267.1 825.3 264.8 826.6 261.1C826.9 260.2 826.7 260.7 828.8 251.5C829.6 248 831.1 241.5 832.3 236.3C834 228.8 834.8 225.7 833.2 222.4C832.9 221.7 831.6 219 829.7 218.9C827.5 218.8 825.8 222.3 824.5 225C819.2 235.9 816.5 241.4 815.8 243.3C812.3 252.8 807.6 267.3 806.9 272.3C806.8 272.9 806.6 275 805.6 277.7C805.1 279 804.8 279.5 804.5 280.3C802 285.9 804.1 289.6 801.5 291.6C801.2 291.8 799.7 292.9 798.5 292.5C797.2 292.1 796.6 290.4 795.9 284.7C794.9 276.9 795.5 274.6 793.7 271.2C792.5 269.7 791 266.8 788.9 266.7Z" fill="white"/>
<path d="M784.099 313C784.799 305.7 783.699 298.6 783.299 291.3C783.099 287.8 783.099 284.2 783.599 280.7C783.899 278.7 784.299 276.7 784.899 274.8C785.899 271.9 785.999 269.5 789.199 269.4C792.199 269.3 791.999 271.1 792.499 273.6C792.999 275.8 793.099 278.1 793.199 280.3C793.399 283.4 793.499 286.6 794.199 289.6C794.899 292.7 796.799 295.3 800.299 294.2C802.099 293.6 801.399 290.7 799.499 291.3C795.999 292.3 796.299 280.5 796.099 278.5C795.799 275.3 795.499 272 794.299 269C792.599 264.8 788.699 262.7 785.399 266.6C781.099 271.6 780.199 280.6 780.199 286.8C780.199 295.6 781.899 304.2 781.099 313C780.999 314.9 783.999 314.9 784.099 313Z" fill="#161616"/>
<path d="M801.499 293C806.499 283.3 807.999 272.3 810.899 261.9C813.999 250.7 817.899 239.7 823.699 229.7C824.999 227.5 826.299 224.4 828.199 222.7C831.899 219.3 831.899 225.8 831.599 228.6C830.999 234.8 829.399 241.1 827.999 247.2C826.699 252.8 824.899 258.2 823.599 263.8C822.899 266.9 822.899 269.6 825.099 272C826.399 273.4 828.499 271.3 827.199 269.9C824.699 267.2 827.299 261.8 828.099 258.9C828.999 255.6 829.899 252.3 830.599 249C831.999 242.9 833.399 236.7 834.299 230.4C834.799 227.1 835.499 221.3 832.599 218.8C830.099 216.7 827.599 218.7 825.899 220.7C818.599 229.8 814.099 241.8 810.499 252.8C806.399 265.5 805.099 279.7 798.899 291.6C797.999 293.2 800.599 294.7 801.499 293Z" fill="#161616"/>
<path d="M825.799 272.3C828.799 272.6 829.899 270.4 831.299 268C833.499 264.2 835.499 260.2 837.399 256.3C841.099 248.7 843.699 240.4 848.199 233.3C849.199 231.7 850.399 229.7 851.999 228.5C853.299 227 854.999 226.5 857.199 227.2C857.499 228.6 857.699 230 857.699 231.4C857.799 236.3 856.199 241.2 854.499 245.8C851.099 254.9 847.299 263.9 843.599 273C842.899 274.8 845.799 275.6 846.499 273.8C848.599 268.6 870.199 223 856.099 222.7C853.299 222.6 850.099 226.1 848.499 228C845.699 231.3 843.699 235.1 841.899 239C839.799 243.7 837.899 248.4 835.699 253C834.399 255.8 832.899 258.7 831.499 261.4C830.599 263.2 828.399 269.4 825.899 269.2C823.899 269.1 823.899 272.1 825.799 272.3Z" fill="#161616"/>
<path d="M861.2 235.5C862.3 229.7 868.6 233.7 869.4 237.4C870.1 240.5 868.9 243.6 867.9 246.5C866.4 250.9 864.7 255.2 862.9 259.4C859.4 267.6 855.3 275.4 850.7 283.1C849.7 284.8 852.3 286.3 853.3 284.6C857.6 277.5 861.4 270.1 864.8 262.6C867.7 256.1 871.2 248.9 872.3 241.8C873 237.3 871.7 231.5 866.7 229.9C863 228.7 859 231 858.3 234.8C858 236.6 860.9 237.4 861.2 235.5Z" fill="#161616"/>
<path d="M855.4 285.8C859.2 281.5 862.9 277.2 866.7 272.9C868.7 270.6 870.5 268.1 872.7 266.1C873.4 265.5 874.1 265 874.7 264.4C876.4 265 878.1 265.6 879.9 266.2C880.4 267.1 879.2 269.7 878.9 270.5C875.8 280 871.3 289 866 297.4C855.3 314.3 840.6 328.5 823.4 338.8C821.7 339.8 823.3 342.4 824.9 341.4C846.3 328.6 863.9 309.8 875 287.5C877.7 282.1 880.3 276.4 882 270.6C883 267.2 883.6 262.6 879.7 260.8C875.9 259 871.9 262.5 869.5 265C863.8 270.9 858.6 277.5 853.2 283.7C852 285.1 854.1 287.2 855.4 285.8Z" fill="#161616"/>
<path d="M781.5 309.9C782.2 319.1 782.9 328.5 781.4 337.7C779.9 346.8 776.1 355.2 771.9 363.4C763.4 380 754.5 396.4 745.8 412.9C728.4 445.9 711 478.8 693.6 511.8C683.6 530.7 673.6 549.7 663.6 568.6C662.7 570.3 665.3 571.8 666.2 570.1C702.1 502 738.7 434.2 774 365.7C778.2 357.6 782.1 349.3 783.8 340.4C785.8 330.3 785.1 320.1 784.3 309.9C784.4 308 781.4 308 781.5 309.9Z" fill="#161616"/>
<path d="M823.199 338.1C791.199 405.7 763.299 474.9 738.699 545.5C731.499 566 724.299 586.5 715.599 606.4C714.799 608.2 717.399 609.7 718.199 607.9C733.099 574 743.999 538.5 756.799 503.9C769.899 468.3 784.099 433 799.199 398.2C807.799 378.5 816.599 359 825.799 339.6C826.599 337.9 823.999 336.4 823.199 338.1Z" fill="#161616"/>
<path opacity="0.1" d="M868.4 234.3C864.3 233.7 858.8 250.5 855.6 258.9C845.9 284.7 837.7 287.7 816.9 322.7C809.2 335.6 798.6 355 787.9 380.3C755.9 447.7 724 515.2 692 582.6C699.8 592.1 707.5 601.7 715.3 611.2C719.2 600.1 724.9 583.8 732 564.1C744.9 528.6 761.6 482.9 785.2 427.3C794.6 405.3 807.6 375.6 824.3 340.7C828.9 337.8 835.3 333.3 842.3 327.1C851.7 318.9 864.1 307.8 872.6 289.7C875.3 284.1 878.7 275.5 880.5 264.2C879.2 263.6 877.3 262.9 875.2 263.3C871.6 264 869.7 267.5 868.2 269.9C862.4 278.8 853.9 284.7 852.8 284C852.2 283.5 853.9 280.6 858.5 271.2C867.9 251.9 864 257 867.7 250.5C869.8 246.8 871.9 243.6 871.2 239.5C871.2 237.7 870.1 234.6 868.4 234.3Z" fill="#3F3F3F"/>
<path opacity="0.13" d="M862.3 302.5C857.3 305.7 850.2 310.4 842.1 316.6C832.8 323.6 822.8 331.2 814.4 340.8C803 353.8 798 366.7 795 374.2C767.5 444.4 734.8 520.6 725.5 541.8C720.4 553.4 712.4 570.9 701.8 591.9C706.6 598.2 711.5 604.5 716.3 610.8C730.1 568.7 746 524.6 764.2 478.9C783.8 429.8 804.1 383.9 824.5 341.2C830 337.5 836.2 332.8 842.5 326.7C851.4 318.2 857.8 309.6 862.3 302.5Z" fill="#3F3F3F"/>
<path d="M596.4 592C592.7 594.5 584.4 600.3 575.9 609.7C567.1 619.4 562 628.5 557.8 636.2C554.5 642.1 552.1 647.3 550.4 651.1C553 656.1 557.2 663.8 563 673C573.3 689.3 581.3 698.1 595.1 715.8C600.9 723.2 609.3 734.3 619.3 748.3C620.9 755.8 622.3 763.7 623.5 772C625.9 789 626.8 804.8 626.8 819C630.5 823 636.9 828.8 646.3 832.9C661.9 839.8 676.1 837.8 683.5 836.6C699.9 834.1 711.1 826.8 718.8 821.7C732.8 812.5 742.3 801.5 748.6 792.4C747.3 776.8 745.6 760.7 743.5 744C741.7 729.8 739.7 716 737.5 702.6C737.3 692.1 736.3 677.8 732.9 661.2C730.1 647.3 726.7 631.1 716.6 611.9C704 588 688.3 573.5 682.2 568.2C676.8 563.5 671.9 560 668.3 557.5C653.7 566.8 641.1 572.6 632.5 576.1C616.5 582.7 609 583.7 596.4 592Z" fill="white"/>
<path d="M552 651.5C555.1 639.7 563.7 628.7 571.1 619.1C578.9 609.1 587.7 600 598.2 592.7C599.8 591.6 598.3 589 596.7 590.1C585.9 597.6 576.8 606.9 568.8 617.2C561.1 627.1 552.4 638.3 549.2 650.6C548.7 652.6 551.6 653.3 552 651.5Z" fill="#161616"/>
<path d="M549.8 652.5C570.4 688.5 594.8 722.3 622.5 753.2C623.8 754.6 625.9 752.5 624.6 751.1C597.1 720.4 572.9 686.8 552.4 651C551.4 649.3 548.8 650.8 549.8 652.5Z" fill="#161616"/>
<path d="M634.401 577.5C645.601 569.6 657.901 563.7 671.001 559.9C672.901 559.4 672.101 556.5 670.201 557C656.801 560.9 644.301 566.9 632.901 574.9C631.301 576 632.801 578.6 634.401 577.5Z" fill="#161616"/>
<path d="M668.5 560.7C716.3 594 736.8 652.4 734.5 708.9C734.4 710.8 737.4 710.8 737.5 708.9C739.9 651.2 718.7 592 670 558.1C668.5 557 667 559.6 668.5 560.7Z" fill="#161616"/>
<path d="M616 747.3C621.2 758 621.8 771.3 622.9 782.9C624.1 794.7 624.5 806.6 624.5 818.5C624.5 820.4 627.5 820.4 627.5 818.5C627.6 805.3 627 792.1 625.5 779C624.3 767.9 623.5 755.9 618.6 745.7C617.7 744 615.2 745.5 616 747.3Z" fill="#161616"/>
<path d="M626.4 819.1C641.4 837.5 667 842.7 689.3 837C701.7 833.8 713.2 827.7 723.5 820.1C733.8 812.5 743.6 803.7 749.4 792.1C750.3 790.4 747.7 788.9 746.8 790.6C741.2 801.7 731.8 810.2 721.9 817.5C712.3 824.6 701.6 830.4 690 833.7C668.2 839.8 643.1 835.1 628.4 817C627.3 815.5 625.2 817.6 626.4 819.1Z" fill="#161616"/>
<path d="M735.6 704.4C740.5 733.7 745.3 763 747 792.6C747.1 794.5 750.1 794.5 750 792.6C748.2 762.7 743.4 733.1 738.5 703.6C738.2 701.7 735.3 702.5 735.6 704.4Z" fill="#161616"/>
<path opacity="0.13" d="M638.2 573.5C649.3 586.6 664.5 607 677.2 634.6C695.8 675 699.5 709.9 702.3 739.6C704.5 762.2 705.7 793.7 701.3 831.3C709.8 827.6 721.8 821.2 733.4 810.1C739.8 803.9 744.6 797.7 748.2 792.3C744.9 764.4 741.6 736.4 738.3 708.5C738.9 685.5 735.3 666.9 731.9 654.3C721.4 615.3 701.2 590.2 694.4 582.3C685.1 571.4 676 563.4 669.3 558.1C658.9 563.3 648.6 568.4 638.2 573.5Z" fill="#3F3F3F"/>
<path opacity="0.14" d="M712.7 608.5C710.9 609 715.1 625.3 719.1 649.4C719.1 649.4 725.2 686 726.5 721.4C727.4 744.8 726.2 779 715.7 821.5C720.5 819.1 726.4 815.6 732.5 810.7C739.9 804.7 745.2 798.4 748.8 793.4C747.5 753.1 744.1 732.2 740.9 720.4C740.3 718.1 738.7 712.7 737.4 705.1C735 690.9 736.2 684.8 734.9 673C733.9 663.6 732 657.4 728.5 645.9C723.2 628.6 714.7 607.9 712.7 608.5Z" fill="#3F3F3F"/>
<path d="M595 427.5C588.4 431.2 580 436.8 571.9 445.3C555.1 463.2 549.7 483.2 547.8 493.1C546.3 492.9 542.2 492.6 538.9 495.2C534 499 533.9 506.5 535.8 510.9C536.5 512.5 537.5 513.8 539.6 516.4C542.1 519.5 543.7 521.4 546.3 522.5C547.4 523 549.9 523.7 553.5 522.9C554.6 526.2 556.4 530.8 559.1 536.1C562.6 542.9 567.9 553 578.5 561.8C581.6 564.4 586.4 567.8 592.9 570.9C595.3 574 599.7 580.5 600.2 589.3C601.2 604.8 589.9 617.7 579.2 623.4C560.6 633.3 540.4 623.4 533 619.7C529 617.7 508.9 607.3 500.5 584.5C490.3 557 503.6 529.5 511.5 513.1C519.5 496.6 523.2 497.7 529.3 481.6C537.4 460.3 533.1 452.8 542.4 436.5C546 430.1 553.3 417.3 568.6 411.3C581.7 406.2 593.8 408.8 599 410.3C603.3 407.7 610.9 404 620.5 404C643.3 404 657.9 425.6 661.4 430.8C671.8 446.1 666.3 450.8 675.6 472.3C687.3 499.4 698.7 497.8 709.2 523.2C714.3 535.6 722.8 556.1 713.4 575.7C703.7 595.9 681.6 601.8 678.8 602.5C673.7 603.8 660 607.2 646.3 599.9C645 599.2 627.8 589.8 626.4 573.7C625.9 567.8 627.6 562.3 628 561.1C630.1 554.6 633.7 550.4 634.8 549C639.1 543.7 644.3 533.9 647.9 514.4C649.6 514.3 652.4 513.9 655.2 512.3C661.1 508.9 663.9 502 663.6 496C663.5 494.6 663.1 486.6 657.3 483.9C654.9 482.8 652.4 483.1 651 483.4C632.4 464.6 613.7 446.1 595 427.5Z" fill="#161616"/>
<path d="M595 427.4C583.9 433.9 576.2 441.1 571.3 446.4C555 464.1 549.8 482.6 548.7 486.9C548 489.6 547.5 491.8 547.3 493.4C546.2 493 543.7 492.3 541.2 493.4C537.4 495.1 536.6 499.7 536.2 502C535.2 507.3 537.2 511.5 538 513.1C539.1 515.4 540.9 519.1 545.2 521C548.7 522.6 552 522 553.4 521.7C554.8 525.3 556.8 530.3 559.9 536C564.6 545 569 553.3 577.5 560.7C580.8 563.6 586.2 567.6 594 570.7C595.6 573.2 597.8 577.1 599 582.2C600 586.2 600.2 589.6 600.1 592.2C602.7 593.5 607.6 595.5 613.7 595.4C625.4 595.2 633.1 587.9 634.9 586.1C633 580.4 631.3 573.4 630.6 565.3C630.3 561.6 630.2 558.1 630.2 554.9C633.3 551.6 637.1 546.9 640.2 540.6C645.7 529.7 646.6 519.6 646.7 513.7C648.1 513.9 650.9 514.2 653.9 513C658.1 511.3 660 507.6 661.1 505.5C661.4 505 665.6 496.4 661.8 487.9C660.9 486 659.4 482.5 656.4 482.2C654.2 482 652.4 483.7 651.7 484.4C647.6 479.5 639.9 470.4 629.1 457.9C619.8 447 613.9 440.2 604 433.2C600.4 430.6 597.2 428.7 595 427.4Z" fill="white"/>
<path d="M581.2 533.5C580.2 535.8 584.9 539.9 587.1 541.6C591.7 545 596.6 545.5 598.4 545.6C600.5 545.8 607.4 546.3 613.7 541.8C615.2 540.7 619.4 537.8 621 532.4C622.1 528.5 621.8 523.1 619.7 522.2C618.1 521.6 616.6 523.6 613.2 526C607.2 530.1 601 531.1 595.7 531.9C586.7 533.3 582.2 531.5 581.2 533.5Z" fill="black"/>
<path d="M549.5 510.4C553.1 525.4 558.9 540.1 568.5 552.3C577 563.2 589.6 573.7 604.3 572.3C617.9 571 629 560.4 636.2 549.6C644.7 537 648.8 521.9 648.4 506.7C648.3 504.8 645.3 504.8 645.4 506.7C645.8 520.6 642.2 534.2 634.9 546C628 557.1 616.6 568.8 602.7 569.4C588 570 575.9 558 568.1 546.8C560.3 535.6 555.5 522.7 552.3 509.5C551.9 507.7 549 508.5 549.5 510.4Z" fill="#161616"/>
<path d="M592 570.9C596.2 577.3 598.3 584.3 598.3 592C598.3 593.9 601.3 593.9 601.3 592C601.3 583.9 599 576.2 594.6 569.4C593.6 567.7 591 569.2 592 570.9Z" fill="#161616"/>
<path d="M599.7 593.2C611.9 600.2 627.7 596.8 636 585.6C637.2 584.1 634.6 582.6 633.4 584.1C626 594 611.8 596.8 601.2 590.6C599.5 589.7 598 592.3 599.7 593.2Z" fill="#161616"/>
<path d="M628.5 557.5C628.6 566.6 630 575.6 632.9 584.3C633.5 586.1 636.4 585.3 635.8 583.5C633.1 575 631.6 566.4 631.5 557.5C631.5 555.5 628.5 555.5 628.5 557.5Z" fill="#161616"/>
<path d="M552.5 519.9C551.2 521.3 548 520.8 546.5 520C545.3 519.4 544.2 518.5 543.3 517.6C541.3 515.7 539.7 513.4 538.7 510.9C536.7 506.2 535.8 492.7 544.7 495.1C546.6 495.6 547.4 492.7 545.5 492.2C534.5 489.3 532.8 503.9 535.6 511.2C537.8 517.1 547.9 529.3 554.7 522C555.9 520.6 553.8 518.5 552.5 519.9Z" fill="#161616"/>
<path d="M653 484.9C654.2 480.9 659.4 488.6 660 490C661.2 493.2 661.6 496.7 661.1 500.1C660.3 506.9 654.9 513.4 647.4 511.5C645.5 511 644.7 513.9 646.6 514.4C658.7 517.5 665.2 504.9 664.1 494.6C663.6 490.1 661.8 484.3 657.5 481.9C654.7 480.4 651.1 480.8 650.1 484C649.5 486 652.4 486.7 653 484.9Z" fill="#161616"/>
<path d="M563.2 463.7C566.5 457.4 572.3 453.3 579.3 452.3C581.2 452 580.4 449.1 578.5 449.4C570.8 450.5 564.2 455.3 560.6 462.2C559.7 463.9 562.3 465.4 563.2 463.7Z" fill="#161616"/>
<path d="M609.4 448.3C617.8 446.3 626.2 450.5 630 458.1C630.9 459.8 633.4 458.3 632.6 456.6C628.2 447.7 618.2 443.1 608.6 445.4C606.7 445.9 607.5 448.8 609.4 448.3Z" fill="#161616"/>
<path d="M587.6 460.6C589.5 471.2 590 482.1 588.9 492.9C588.5 496.2 586.9 500.9 588.4 504.2C590 507.8 594.3 510.9 597 513.7C598.3 515.1 600.5 513 599.1 511.6C597.3 509.7 595.5 507.9 593.7 506C590.9 503.1 590.6 502.2 591.2 498C591.7 494.2 592.2 490.3 592.4 486.4C592.8 477.5 592.1 468.6 590.5 459.9C590.2 457.9 587.3 458.7 587.6 460.6Z" fill="#161616"/>
<path d="M575 486.3C573.5 483.9 572.8 481.3 573 478.5C573 477.9 573.4 475.3 573.9 475.2C574.2 475.2 574.7 478.7 574.8 479.1C575 480.4 575.1 481.8 575.1 483.1C575.1 483.5 575 486.8 575 484.8C574.9 481.9 575.1 479 575.2 476.1C574.2 476.2 573.2 476.4 572.3 476.5C572.8 479.6 573.1 482.7 573.1 485.9C574.1 485.9 575.1 485.9 576.1 485.9C576.1 485.5 576.1 485.1 576.1 484.7C576.1 482.8 573.1 482.8 573.1 484.7C573.1 485.1 573.1 485.5 573.1 485.9C573.1 487.8 576.1 487.8 576.1 485.9C576.1 482.5 575.8 479.1 575.2 475.7C574.9 474 572.3 474.5 572.3 476.1C572.2 479.3 571.8 482.8 572.2 486C572.4 487.5 573.1 488.9 574.8 489.2C579.8 490.2 578.3 480.4 577.9 478C577.6 476.1 577.3 473.2 575.5 472.1C574 471.2 572.4 472.1 571.5 473.5C569 477.7 570.4 483.9 572.7 487.7C573.4 489.4 576 487.9 575 486.3Z" fill="#161616"/>
<path d="M621.199 481C619.699 478.6 618.999 476 619.199 473.2C619.199 472.6 619.599 470 620.099 469.9C620.399 469.9 620.899 473.4 620.999 473.8C621.199 475.1 621.299 476.5 621.299 477.8C621.299 478.2 621.199 481.5 621.199 479.5C621.099 476.6 621.299 473.7 621.399 470.8C620.399 470.9 619.399 471.1 618.499 471.2C618.999 474.3 619.299 477.4 619.299 480.6C620.299 480.6 621.299 480.6 622.299 480.6C622.299 480.2 622.299 479.8 622.299 479.4C622.299 477.5 619.299 477.5 619.299 479.4C619.299 479.8 619.299 480.2 619.299 480.6C619.299 482.5 622.299 482.5 622.299 480.6C622.299 477.2 621.999 473.8 621.399 470.4C621.099 468.7 618.499 469.2 618.499 470.8C618.399 474 617.999 477.5 618.399 480.7C618.599 482.2 619.299 483.6 620.999 483.9C625.999 484.9 624.499 475.1 624.099 472.7C623.799 470.8 623.499 467.9 621.699 466.8C620.199 465.9 618.599 466.8 617.699 468.2C615.199 472.4 616.599 478.6 618.899 482.4C619.599 484.2 622.199 482.7 621.199 481Z" fill="#161616"/>
<path d="M560.199 495.5C562.099 495.5 562.099 492.5 560.199 492.5C558.299 492.5 558.299 495.5 560.199 495.5Z" fill="#161616"/>
<path d="M572 497.7C572.1 497.7 572.2 497.7 572.4 497.7C573.2 497.7 573.9 497 573.9 496.2C573.9 495.4 573.2 494.7 572.4 494.7C572.3 494.7 572.2 494.7 572 494.7C571.2 494.7 570.5 495.4 570.5 496.2C570.5 497 571.1 497.7 572 497.7Z" fill="#161616"/>
<path d="M565 506.9C566.9 506.9 566.9 503.9 565 503.9C563.1 503.9 563 506.9 565 506.9Z" fill="#161616"/>
<path d="M621.8 494C621.9 494 622 494 622.2 494C623 494 623.7 493.3 623.7 492.5C623.7 491.7 623 491 622.2 491C622.1 491 622 491 621.8 491C621 491 620.3 491.7 620.3 492.5C620.3 493.3 620.9 494 621.8 494Z" fill="#161616"/>
<path d="M632.8 486.6C634.7 486.6 634.7 483.6 632.8 483.6C630.9 483.6 630.9 486.6 632.8 486.6Z" fill="#161616"/>
<path d="M631.3 494.7C631.4 494.7 631.5 494.7 631.7 494.7C632.5 494.7 633.2 494 633.2 493.2C633.2 492.4 632.5 491.7 631.7 491.7C631.6 491.7 631.5 491.7 631.3 491.7C630.5 491.7 629.8 492.4 629.8 493.2C629.9 494 630.5 494.7 631.3 494.7Z" fill="#161616"/>
<path d="M583.699 535.8C582.099 533.5 579.499 530.2 580.599 527.2C581.899 523.8 585.999 524.3 588.699 524.7C591.999 525.2 594.699 525.8 597.899 524.8C600.499 524 602.799 522.3 605.199 521C610.899 517.8 617.599 517.5 619.399 525C624.499 545.5 588.299 551.3 582.699 533.3C582.099 531.5 579.199 532.2 579.799 534.1C586.699 556.2 629.499 548 621.999 523.5C620.699 519.4 617.599 515.9 613.199 515.4C605.999 514.7 601.299 521.9 594.399 522.4C589.299 522.8 583.099 518.9 578.999 523.7C575.299 528 578.299 533.5 580.999 537.3C582.199 538.9 584.799 537.4 583.699 535.8Z" fill="#161616"/>
<path d="M577.9 530.1C580.1 536.2 591.1 534.3 595.9 533.6C605.1 532.2 613.5 528.2 620.6 522.3C622.1 521.1 620 518.9 618.5 520.2C613.3 524.6 607.3 527.8 600.7 529.6C597.8 530.4 582.5 533.8 580.9 529.4C580.1 527.5 577.2 528.3 577.9 530.1Z" fill="#161616"/>
<path d="M595.7 574C607.4 577 623 569.6 629.6 559.9C630.7 558.3 628.1 556.8 627 558.4C621.2 566.9 606.7 573.7 596.5 571.1C594.6 570.6 593.8 573.5 595.7 574Z" fill="#161616"/>
<path d="M596.8 574.9C607.2 581.4 624.3 572.2 629.3 562.3C630.2 560.6 627.6 559.1 626.7 560.8C622.5 569.2 607.2 577.9 598.3 572.4C596.6 571.3 595.1 573.9 596.8 574.9Z" fill="#161616"/>
<path opacity="0.2" d="M638.3 468.9C639 472.5 639.9 478.2 640.5 485.1C641.9 503.5 644.3 534.3 625.7 554.8C621.7 559.2 613.2 567 597.5 571.4C602.5 571.2 608.6 570.6 615.2 568.9C618.5 568.1 621.5 567.1 624.2 566C624.6 574.9 624.9 583.8 625.3 592.7C628.7 590.5 632 588.4 635.4 586.2C630.8 576 630.8 568.1 631.4 563.1C632.3 556.1 634.9 550.4 637.5 544.7C639.8 539.7 642.2 535.7 644.1 532.9C644.3 535 644.8 537.2 646.2 539.3C652.3 548.4 671.4 549.3 683.4 541.5C694.5 534.3 699.9 519.7 697.1 504.7C699 506.3 701 508.2 702.9 510.5C704.4 512.3 708.3 517.5 713.7 535.8C715.4 541.5 716.2 544.4 716.7 547.3C717.3 551.3 718.4 558.9 716.3 567.5C712.7 582.3 702 590.8 698.8 593.2C696.5 594.9 689.5 600 679 602.4C674 603.5 659 607.1 644.9 598.9C639.6 595.8 636.7 593.5 635.1 590.7C633.4 587.6 633.2 584.7 633 582.5C632.1 568.8 631.7 561.9 632.6 557.2C635.3 543.6 641.4 542.2 644.8 526.7C646 521.1 646.3 516.4 646.4 513.4C647.7 513.6 649.7 513.8 652.1 513.2C657.1 511.9 659.6 507.8 660.5 506.3C664.1 500.6 665.7 490.4 660.1 485.7C659.3 485 656.5 482.9 651.1 483.3C647 478.5 642.7 473.7 638.3 468.9Z" fill="#3F3F3F"/>
<path opacity="0.13" d="M590.899 501.3C595.999 502.8 601.199 504.4 606.299 505.9C604.999 507.1 603.699 508.2 602.299 509.4C600.999 510.5 599.799 511.4 598.499 512.4C596.899 511.2 594.599 509.1 592.799 505.9C591.799 504.2 591.199 502.6 590.899 501.3Z" fill="#3F3F3F"/>
<path opacity="0.16" d="M510.7 513.8C499.8 552.3 507.9 583.4 524.2 590.2C537 595.5 560.1 588 564.4 574.9C565 573.2 565.6 570.2 563.3 561C561.3 552.9 557.2 540.7 548 526.8C546.4 525.8 544.3 524.2 542.3 521.8C538.8 517.5 537.8 512.9 537.5 510.7C540.4 513.7 544.6 517.5 547.3 516.3C549.9 515.1 551.5 511.5 550.6 507.9C551.5 512.5 552.9 518.8 555.5 526.1C558.9 535.8 562.3 545.2 570.2 554.1C573.8 558.2 580.9 564.9 592.9 569.7C594.9 572.2 598.6 577.6 599.8 585.5C600 586.7 600.7 592.2 598.9 599.1C598.5 600.7 596.1 609.4 588.2 616.9C579 625.7 568 627.3 564.4 627.8C537.3 631.4 516.3 607.7 512.6 603.6C508.9 599.4 502.8 592.4 499.3 581.6C493.7 564.4 498 548.9 501.1 537.6C504 527 507.9 519 510.7 513.8Z" fill="#3F3F3F"/>
</g>
<defs>
<clipPath id="clip0">
<rect width="1274" height="1170" fill="white"/>
</clipPath>
</defs>
</svg>
