<svg width="1274" height="1170" viewBox="0 0 1274 1170" fill="none" xmlns="http://www.w3.org/2000/svg">
<g clip-path="url(#clip0)">
<path d="M24.4006 1005.2C73.6006 1007.4 122.801 1008.5 172.001 1008.4C173.901 1008.4 173.901 1005.4 172.001 1005.4C122.801 1005.5 73.6006 1004.4 24.4006 1002.2C22.5006 1002.1 22.5006 1005.1 24.4006 1005.2Z" fill="#8B8585"/>
<path d="M175 930.8C182.7 959.7 189.9 988.8 196.5 1018C196.9 1019.9 199.8 1019.1 199.4 1017.2C192.7 988 185.6 958.9 177.9 930C177.4 928.2 174.5 929 175 930.8Z" fill="#8B8585"/>
<path d="M309 933C306.2 960.5 303.4 988.1 300.7 1015.6C300.5 1017.5 303.5 1017.5 303.7 1015.6C306.5 988.1 309.3 960.5 312 933C312.1 931.1 309.1 931.1 309 933Z" fill="#8B8585"/>
<path d="M197.3 1020.7C214.8 1023.8 232.5 1025.2 250.3 1024.7C267.3 1024.2 285.9 1022.9 302.1 1017.5C303.9 1016.9 303.1 1014 301.3 1014.6C285.2 1019.9 267.1 1021.2 250.3 1021.7C232.8 1022.2 215.3 1020.8 198.1 1017.8C196.2 1017.4 195.4 1020.3 197.3 1020.7Z" fill="#8B8585"/>
<path d="M176.201 931.8C196.901 937.6 219.401 937.7 240.801 937.8C263.801 938 286.801 936.7 309.601 934.1C311.501 933.9 311.501 930.9 309.601 931.1C287.401 933.7 265.101 934.9 242.801 934.8C221.101 934.7 198.101 934.7 177.001 928.9C175.101 928.4 174.301 931.3 176.201 931.8Z" fill="#8B8585"/>
<path d="M167.6 921.5C167.8 923.4 168 925.4 168.2 927.3C168.3 928.5 168.3 930 168.8 931.1C170 933.7 174 932.8 176.3 932.8C178.2 932.8 178.2 929.8 176.3 929.8C175.2 929.8 174.1 929.8 172.9 929.8C171.4 929.8 171.4 929.5 171.3 928C171.1 925.8 170.9 923.7 170.7 921.5C170.4 919.6 167.4 919.5 167.6 921.5Z" fill="#8B8585"/>
<path d="M169.6 923.1C194.6 926 219.7 927.4 244.9 927.6C257.3 927.7 269.7 927.5 282.2 927.1C288.4 926.9 294.6 926.6 300.8 926.3C303.7 926.2 307.7 925.2 310.6 925.8C314.1 926.4 313.9 929.4 314.3 932.5C314.6 931.9 315 931.3 315.3 930.7C314 930.7 312.7 930.7 311.4 930.7C309.5 930.3 308.7 933.2 310.6 933.6C312.6 934 314.1 934 316 933.6C316.9 933.4 317.2 932.5 317 931.8C316.5 928.3 316.9 923.9 312.7 923C310.2 922.4 307.1 923.1 304.5 923.2C301.2 923.4 298 923.5 294.7 923.7C280.7 924.3 266.6 924.7 252.5 924.7C224.7 924.7 197 923.4 169.4 920.1C167.7 919.9 167.7 922.9 169.6 923.1Z" fill="#8B8585"/>
<path d="M191.301 995.8C199.301 1006.3 208.701 1015.4 219.301 1023.2C220.901 1024.3 222.401 1021.7 220.801 1020.6C210.601 1013.1 201.501 1004.3 193.801 994.2C192.701 992.7 190.101 994.2 191.301 995.8Z" fill="#8B8585"/>
<path d="M184.601 965.3C200.201 987.8 219.401 1007.5 241.601 1023.6C243.201 1024.7 244.701 1022.1 243.101 1021C221.401 1005.2 202.501 985.8 187.201 963.8C186.101 962.2 183.501 963.7 184.601 965.3Z" fill="#8B8585"/>
<path d="M178.501 938.5C205.501 970.5 235.501 1000.4 271.301 1022.6C272.901 1023.6 274.501 1021 272.801 1020C237.201 998 207.401 968.3 180.601 936.4C179.401 934.9 177.301 937.1 178.501 938.5Z" fill="#8B8585"/>
<path d="M207.2 936.8C232.9 966.7 261.4 995.1 293.2 1018.5C294.8 1019.6 296.3 1017 294.7 1015.9C263.1 992.7 234.8 964.3 209.3 934.7C208 933.2 205.9 935.3 207.2 936.8Z" fill="#8B8585"/>
<path d="M240.001 938.9C257.401 960.2 277.401 979.2 299.601 995.5C301.201 996.6 302.701 994 301.101 992.9C279.101 976.8 259.301 957.9 242.101 936.8C240.901 935.3 238.801 937.4 240.001 938.9Z" fill="#8B8585"/>
<path d="M266.801 937.8C278.001 950.4 290.801 961.2 305.001 970.3C306.601 971.3 308.101 968.7 306.501 967.7C292.501 958.8 279.901 948 268.901 935.7C267.601 934.2 265.501 936.3 266.801 937.8Z" fill="#8B8585"/>
<path d="M128.4 773C134.9 786.7 139.3 801.1 141.8 816.1C141.9 816.8 142.6 817.2 143.2 817.2C143.8 817.2 147 817.1 147.2 818.1C147.3 818.5 145.3 820.8 145.1 821.3C144.5 822.9 144.5 824.8 145.1 826.4C145.9 828.3 147.4 829.6 149.2 830.3C149.8 830.6 150.5 830.7 151.2 830.8C151.8 830.9 152.4 830.9 153 830.8C153.8 830.7 153.7 830.8 152.8 831.2C151.8 832.7 150.4 832.9 150 835.1C149.7 837.2 150.7 839.2 151.5 841C154.8 848 156.7 855.4 159.4 862.7C168.7 887.5 186.5 908 206.6 924.9C208.1 926.1 210.2 924 208.7 922.8C188 905.4 169.6 884.1 160.9 858C159.8 854.6 158.8 851.2 157.6 847.9C156.6 845 154.7 842 153.8 839.1C152.8 837.5 152.9 835.7 154.2 833.9C154.6 833.6 155 833.3 155.4 833C155.7 832.5 156.3 832.2 156.6 831.6C157 830.5 156.7 829.5 155.9 828.7C154.6 827.4 152.6 828.1 150.9 827.6C144.4 825.7 149.7 821.3 150.2 818.1C150.9 813.9 145.7 814.4 142.9 814.2C143.4 814.6 143.9 814.9 144.3 815.3C141.8 800.1 137.2 785.4 130.6 771.5C130.2 769.7 127.6 771.2 128.4 773Z" fill="#8B8585"/>
<path d="M129.5 772.3C162 781 190.5 803.1 211.2 829.3C233.2 857.1 246.9 890.5 254.3 925C254.7 926.9 257.6 926.1 257.2 924.2C249.7 889.2 235.7 855.4 213.4 827.2C192.4 800.7 163.4 778.3 130.4 769.5C128.4 768.9 127.6 771.8 129.5 772.3Z" fill="#8B8585"/>
<path d="M141.3 784.7C181.1 823.4 211.8 870.9 230.7 923.2C231.4 925 234.3 924.2 233.6 922.4C214.5 869.7 183.6 821.7 143.4 782.6C142.1 781.2 139.9 783.3 141.3 784.7Z" fill="#8B8585"/>
<path d="M159 847.6C167.4 848.5 175.6 850.4 183.4 853.5C191 856.5 199.3 860.3 204.1 867.2C205.2 868.8 207.8 867.3 206.7 865.7C201.9 858.8 194.4 854.9 186.8 851.7C177.9 847.9 168.6 845.6 158.9 844.6C157.1 844.4 157.1 847.4 159 847.6Z" fill="#8B8585"/>
<path d="M173.9 792.8C173.8 804.3 175.7 815.6 179.4 826.5C180 828.3 182.9 827.5 182.3 825.7C178.7 815.1 176.9 804.1 176.9 792.8C176.9 790.9 173.9 790.9 173.9 792.8Z" fill="#8B8585"/>
<path d="M228.8 847.2C233.7 828.9 250 818 263.9 806.8C278.7 794.9 293 782.2 306.6 769C305.8 768.5 304.9 768 304.1 767.5C299.6 779.6 298.7 792.3 298.9 805.1C299.1 817.9 302 832.6 297.9 845C298.4 844.6 298.9 844.3 299.3 843.9C296.1 844.1 292.9 844.4 289.7 844.6C288.7 844.7 287.7 845.9 288.4 846.9C290.7 850 293.4 851 293.3 855.6C293.3 858.8 292.5 862.5 291.4 865.5C290.3 868.6 287.4 870.7 286.4 873.6C285.6 876.2 287.6 878.4 287.6 881C287.7 885.3 284.6 888.9 282.4 892.3C280.3 895.5 278.4 898.8 276.7 902.2C273.3 908.9 270.6 915.8 268.6 923C268.1 924.9 271 925.7 271.5 923.8C274 914.9 277.6 906.3 282.3 898.3C285.5 892.9 291.5 886.6 290.8 879.8C290.5 877.1 289.1 876.3 290.3 873.2C290.4 873.1 292.2 870.7 292.3 870.5C294.2 867.4 295.1 863.9 295.7 860.4C296.1 857.8 296.9 854.6 296.5 852C295.9 848.3 293.1 848 291 845.2C290.6 846 290.1 846.7 289.7 847.5C292.9 847.3 296.1 847 299.3 846.8C300 846.7 300.5 846.4 300.7 845.7C304.5 834.1 302.2 820.6 301.8 808.6C301.4 794.9 301.9 781.1 306.8 768.1C307.4 766.6 305.3 765.7 304.3 766.6C289.8 780.7 274.6 794.2 258.7 806.8C245.1 817.6 230.4 828.6 225.7 846.2C225.4 848.3 228.3 849.1 228.8 847.2Z" fill="#8B8585"/>
<path d="M295.501 782C285.701 799.1 275.701 816 266.301 833.3C257.501 849.3 249.701 865.9 246.001 883.8C245.601 885.7 248.501 886.5 248.901 884.6C252.701 866.3 260.801 849.5 269.801 833.2C279.001 816.5 288.701 800.1 298.101 783.5C299.001 781.9 296.401 780.3 295.501 782Z" fill="#8B8585"/>
<path d="M266 809.8C267.3 815.5 267.9 821.2 267.7 827C267.6 828.9 270.6 828.9 270.7 827C270.9 820.9 270.3 815 268.9 809C268.4 807.1 265.6 807.9 266 809.8Z" fill="#8B8585"/>
<path d="M282.3 790.7C283.4 795 283.6 799.2 283.1 803.5C282.9 805.4 285.9 805.4 286.1 803.5C286.7 798.9 286.4 794.4 285.2 789.9C284.7 788.1 281.8 788.9 282.3 790.7Z" fill="#8B8585"/>
<path d="M283 810.6C288.9 807.1 295 804 301.3 801.4C303.1 800.7 302.3 797.8 300.5 798.5C293.9 801.2 287.6 804.4 281.4 808C279.8 809 281.3 811.6 283 810.6Z" fill="#8B8585"/>
<path d="M257.2 860.8C261 857.6 264.8 854.5 268.7 851.5C272.8 848.3 277.3 844 282.3 842C284.1 841.3 283.3 838.4 281.5 839.1C277 840.8 273.3 844.1 269.5 847.1C264.6 850.9 259.8 854.7 255.1 858.7C253.6 859.9 255.7 862 257.2 860.8Z" fill="#8B8585"/>
<path d="M141.401 804.7C148.401 805.4 155.401 806.1 162.401 806.7C164.301 806.9 164.301 803.9 162.401 803.7C155.401 803 148.401 802.3 141.401 801.7C139.501 801.5 139.501 804.5 141.401 804.7Z" fill="#8B8585"/>
<path d="M324.9 1004.2C450.2 1004.2 575.4 1004.2 700.7 1004.2C736 1004.2 771.3 1004.2 806.6 1004.2C808.5 1004.2 808.5 1001.2 806.6 1001.2C681.3 1001.2 556.1 1001.2 430.8 1001.2C395.5 1001.2 360.2 1001.2 324.9 1001.2C322.9 1001.2 322.9 1004.2 324.9 1004.2Z" fill="#8B8585"/>
<path d="M748.7 759.2C748.7 773.8 748.7 788.4 748.7 803C748.7 804.9 751.7 804.9 751.7 803C751.7 788.4 751.7 773.8 751.7 759.2C751.7 757.3 748.7 757.3 748.7 759.2Z" fill="#8B8585"/>
<path d="M679.7 809.7C728.2 809.7 776.7 809.7 825.2 809.7C827.1 809.7 827.1 806.7 825.2 806.7C776.7 806.7 728.2 806.7 679.7 806.7C677.8 806.7 677.7 809.7 679.7 809.7Z" fill="#8B8585"/>
<path d="M712.301 810.5C712.301 823.1 712.301 835.7 712.301 848.4C712.301 850.3 715.301 850.3 715.301 848.4C715.301 835.8 715.301 823.2 715.301 810.5C715.301 808.5 712.301 808.5 712.301 810.5Z" fill="#8B8585"/>
<path d="M787.301 809.7C787.301 820.8 787.301 832 787.301 843.1C787.301 845 790.301 845 790.301 843.1C790.301 832 790.301 820.8 790.301 809.7C790.301 807.8 787.301 807.8 787.301 809.7Z" fill="#8B8585"/>
<path d="M739.8 851.3C776.9 851.3 814 851.3 851.1 851.3C853 851.3 853 848.3 851.1 848.3C814 848.3 776.9 848.3 739.8 848.3C737.9 848.3 737.9 851.3 739.8 851.3Z" fill="#8B8585"/>
<path d="M655.901 1033.2C737.801 1033.2 819.701 1033.2 901.601 1033.2C903.501 1033.2 903.501 1030.2 901.601 1030.2C819.701 1030.2 737.801 1030.2 655.901 1030.2C654.001 1030.2 654.001 1033.2 655.901 1033.2Z" fill="#8B8585"/>
<path d="M994.601 1007.3C1075 1007.3 1155.5 1007.3 1235.9 1007.3C1258.5 1007.3 1281.1 1007.3 1303.7 1007.3C1305.6 1007.3 1305.6 1004.3 1303.7 1004.3C1223.3 1004.3 1142.8 1004.3 1062.4 1004.3C1039.8 1004.3 1017.2 1004.3 994.601 1004.3C992.701 1004.3 992.701 1007.3 994.601 1007.3Z" fill="#8B8585"/>
<path d="M-2.29961 1058.5C80.1004 1058.5 162.6 1058.5 245 1058.5C246.9 1058.5 246.9 1055.5 245 1055.5C162.6 1055.5 80.1004 1055.5 -2.29961 1055.5C-4.19961 1055.5 -4.19961 1058.5 -2.29961 1058.5Z" fill="#8B8585"/>
<path d="M163.9 1088.5C231.2 1088.5 298.5 1088.5 365.8 1088.5C367.7 1088.5 367.7 1085.5 365.8 1085.5C298.5 1085.5 231.2 1085.5 163.9 1085.5C161.9 1085.5 161.9 1088.5 163.9 1088.5Z" fill="#8B8585"/>
<path d="M1160 233.641C1160 205.741 1160 177.941 1160 150.041C1160 148.141 1157 148.141 1157 150.041C1157 177.941 1157 205.741 1157 233.641C1157 235.541 1160 235.541 1160 233.641Z" fill="#8B8585"/>
<path d="M1159.5 149.441C1195.6 149.441 1231.7 149.441 1267.8 149.441C1269.7 149.441 1269.7 146.441 1267.8 146.441C1231.7 146.441 1195.6 146.441 1159.5 146.441C1157.6 146.441 1157.6 149.441 1159.5 149.441Z" fill="#8B8585"/>
<path d="M1266.3 148.141C1266.1 176.441 1265.9 204.741 1265.6 233.041C1265.6 234.941 1268.6 234.941 1268.6 233.041C1268.8 204.741 1269 176.441 1269.3 148.141C1269.3 146.241 1266.3 146.241 1266.3 148.141Z" fill="#8B8585"/>
<path d="M1160 235.142C1195.6 235.142 1231.2 235.142 1266.8 235.142C1268.7 235.142 1268.7 232.142 1266.8 232.142C1231.2 232.142 1195.6 232.142 1160 232.142C1158.1 232.142 1158.1 235.142 1160 235.142Z" fill="#8B8585"/>
<path d="M1162.9 155.842C1162.9 179.342 1162.9 202.742 1162.9 226.242C1162.9 228.142 1165.9 228.142 1165.9 226.242C1165.9 202.742 1165.9 179.342 1165.9 155.842C1165.9 153.942 1162.9 153.942 1162.9 155.842Z" fill="#8B8585"/>
<path d="M1165.1 157.341C1196.7 157.341 1228.2 157.341 1259.8 157.341C1261.7 157.341 1261.7 154.341 1259.8 154.341C1228.2 154.341 1196.7 154.341 1165.1 154.341C1163.1 154.341 1163.1 157.341 1165.1 157.341Z" fill="#8B8585"/>
<path d="M1258.2 156.541C1258.1 179.541 1258 202.541 1257.9 225.641C1257.9 227.541 1260.9 227.541 1260.9 225.641C1261 202.641 1261.1 179.641 1261.2 156.541C1261.2 154.641 1258.2 154.641 1258.2 156.541Z" fill="#8B8585"/>
<path d="M1165.7 228.142C1196.8 228.142 1227.9 228.142 1259 228.142C1260.9 228.142 1260.9 225.142 1259 225.142C1227.9 225.142 1196.8 225.142 1165.7 225.142C1163.8 225.142 1163.8 228.142 1165.7 228.142Z" fill="#8B8585"/>
<path d="M1165.1 207.442C1176.6 203.442 1188.7 207.042 1199.9 210.342C1211.3 213.642 1222.5 217.642 1233.4 222.242C1235.2 222.942 1236 220.042 1234.2 219.342C1222.1 214.242 1209.7 209.942 1197.1 206.442C1186.4 203.542 1175.1 200.742 1164.3 204.542C1162.5 205.142 1163.3 208.042 1165.1 207.442Z" fill="#8B8585"/>
<path d="M1203.1 210.841C1222 209.741 1239.7 202.141 1258.4 200.041C1260.3 199.841 1260.3 196.841 1258.4 197.041C1239.7 199.141 1222 206.641 1203.1 207.841C1201.1 208.041 1201.1 211.041 1203.1 210.841Z" fill="#8B8585"/>
<path d="M1238.9 174.242C1234.7 171.842 1238.5 163.942 1243 165.842C1245.4 166.842 1245.9 169.742 1244.6 171.842C1243.2 174.142 1240.3 174.542 1237.9 173.842C1236 173.342 1235.2 176.242 1237.1 176.742C1241.1 177.842 1245.6 176.642 1247.6 172.742C1249.4 169.242 1248 164.642 1244.2 163.042C1236.4 159.742 1230 172.742 1237.4 176.842C1239 177.742 1240.6 175.142 1238.9 174.242Z" fill="#8B8585"/>
<path d="M1208.3 147.441C1208.4 145.741 1208.5 144.041 1209 142.441C1209.4 141.141 1210.4 138.041 1211.9 137.441C1214.6 136.441 1215.6 145.941 1215.8 147.741C1216 149.641 1219 149.641 1218.8 147.741C1218.5 144.241 1217.7 133.241 1212.1 134.041C1209.7 134.341 1208 137.041 1207.1 139.041C1205.9 141.641 1205.5 144.541 1205.4 147.341C1205.3 149.341 1208.3 149.341 1208.3 147.441Z" fill="#8B8585"/>
<path d="M1252.1 613.8C1252.1 625.8 1252.1 637.9 1252.1 649.9C1252.1 651.8 1255.1 651.8 1255.1 649.9C1255.1 637.9 1255.1 625.8 1255.1 613.8C1255.1 611.9 1252.1 611.9 1252.1 613.8Z" fill="#8B8585"/>
<path d="M1215.8 654.3C1243 654.3 1270.3 654.3 1297.5 654.3C1299.4 654.3 1299.4 651.3 1297.5 651.3C1270.3 651.3 1243 651.3 1215.8 651.3C1213.9 651.3 1213.9 654.3 1215.8 654.3Z" fill="#8B8585"/>
<path d="M1227.3 655.2C1227.3 660.9 1227.3 666.5 1227.3 672.2C1227.3 674.1 1230.3 674.1 1230.3 672.2C1230.3 666.5 1230.3 660.9 1230.3 655.2C1230.3 653.3 1227.3 653.3 1227.3 655.2Z" fill="#8B8585"/>
<path d="M1271 656.1C1271 662.8 1271 669.6 1271 676.3C1271 678.2 1274 678.2 1274 676.3C1274 669.6 1274 662.8 1274 656.1C1274 654.1 1271 654.1 1271 656.1Z" fill="#8B8585"/>
<path d="M1249.8 680.2C1268.7 680.2 1287.6 680.2 1306.5 680.2C1308.4 680.2 1308.4 677.2 1306.5 677.2C1287.6 677.2 1268.7 677.2 1249.8 677.2C1247.9 677.2 1247.9 680.2 1249.8 680.2Z" fill="#8B8585"/>
<path d="M557.9 972.6C589.4 951.3 605.2 940.6 609.3 939.3C619.3 936.1 651.7 925.8 680 943.1C700.3 955.5 719 982.4 711.2 1000.4C705.6 1013.2 688.5 1017.2 673 1020.9C650.1 1026.3 630.5 1023.3 619.5 1020.7C615.2 1024.9 608.3 1030.5 598.6 1034.2C582.5 1040.4 563.9 1039.3 563 1035.6C562.6 1033.7 566.6 1030 586 1022.4C583.7 1019.9 580.3 1016.9 575.5 1014.8C561.3 1008.3 547.1 1014.6 544.4 1015.9C558.3 1024 561.3 1028.2 560.6 1030.5C558.8 1036.3 530.5 1038.2 522.9 1024.9C522.1 1023.6 519.9 1019.1 521.7 1010.6C525.3 995 538.3 985.9 557.9 972.6Z" fill="#161616"/>
<path d="M695.1 994.8C698.3 988.2 712.7 989.8 718.3 990.4C725.5 991.2 731.9 991.9 737.7 997C742.1 1000.8 748.5 1009.1 746.2 1015.8C744.1 1022.2 736.2 1021.7 720.9 1029.2C718.3 1030.5 693.3 1042.8 695 1050.9C695.7 1054.2 700.2 1054.1 714.5 1060.2C726.9 1065.4 734.2 1068.6 740.3 1075.6C743.3 1079.1 749.3 1086 747.7 1093C744.7 1105.9 717.9 1108.1 717.2 1106.1C716.6 1104.4 735.4 1099.7 735.6 1090.9C735.8 1084.2 725.3 1078.8 718.7 1075.3C699.3 1065.2 686.2 1068.8 681.1 1059.1C678.2 1053.6 679.8 1047.7 680.1 1046.6C681.6 1041.2 685.8 1036.6 706.3 1026.3C725 1016.9 733.3 1014.7 733.2 1010.5C733.1 1006.6 725.9 1003.4 721.5 1002.3C709.1 999 700 1006.8 695.8 1002.4C694 1000.4 694.1 997 695.1 994.8Z" fill="#161616"/>
<path d="M524.3 946.4C530.6 951.1 536.9 955.8 543.2 960.5C552.2 959.6 561.1 958.8 570.1 957.9C575.7 952.5 581.3 947 586.9 941.6C587.3 945 588.1 952.7 588.4 956.4C591.9 989.7 592.2 992.6 590.1 996.4C583.2 1008.7 559.9 1013.7 546.5 1005.1C540 1000.9 537.5 994.6 532.8 982.5C527.1 967.9 525.1 955.1 524.3 946.4Z" fill="#161616"/>
<path d="M549.699 981C548.199 984.1 544.899 986 541.499 985.4C540.599 985.2 540.199 986.7 541.099 986.8C545.199 987.5 549.299 985.5 550.999 981.7C551.399 980.9 550.199 980.1 549.699 981Z" fill="white"/>
<path d="M563.599 980C566.899 983.2 571.299 984.6 575.799 983.9C576.799 983.8 576.299 982.3 575.399 982.5C571.399 983.1 567.499 981.8 564.599 979C563.899 978.3 562.899 979.3 563.599 980Z" fill="white"/>
<path d="M558.299 989.5C557.999 989.5 557.799 989.4 557.499 989.4C557.599 989.3 557.6 989.1 557.7 989C557.9 989.2 558.2 989.4 558.4 989.6C558.4 989.4 558.299 989.3 558.299 989.1C557.999 988.2 556.6 988.6 556.9 989.5C557.4 991.7 558.199 995.1 555.499 996.2C554.599 996.6 555 998 555.9 997.6C559.5 996.1 559.1 992.2 558.4 989C557.9 989.1 557.399 989.3 556.999 989.4C556.999 989.6 557.099 989.7 557.099 989.9C557.199 990.2 557.499 990.5 557.799 990.5C560.399 990.3 558.299 986.7 557.099 988.8C556.599 989.5 557.799 990.3 558.299 989.5Z" fill="white"/>
<path d="M557.3 990.2C557.8 991.9 557.9 993.8 559 995.3C559.9 996.5 561.3 997.1 562.8 996.8C563.7 996.6 563.3 995.2 562.4 995.4C559.6 996 559.2 991.6 558.7 989.8C558.5 988.9 557.1 989.3 557.3 990.2Z" fill="white"/>
<path d="M552.499 991.6C549.599 990.3 546.599 989.7 543.399 989.9C542.399 990 542.399 991.5 543.399 991.4C546.299 991.2 549.099 991.7 551.699 992.9C552.599 993.3 553.399 992 552.499 991.6Z" fill="white"/>
<path d="M549.9 993.6C547.4 993.8 545.2 994.801 543.5 996.501C542.8 997.201 543.9 998.2 544.6 997.6C546.1 996.2 547.9 995.3 550 995.1C550.8 995 550.8 993.5 549.9 993.6Z" fill="white"/>
<path d="M564.2 990.9C567.1 989.8 570 989.4 573.1 989.7C574.1 989.8 574.1 988.3 573.1 988.2C569.9 987.9 566.8 988.4 563.8 989.5C562.9 989.8 563.2 991.3 564.2 990.9Z" fill="white"/>
<path d="M566.199 993.6C568.399 993.3 570.499 993.5 572.599 994.3C573.499 994.6 573.899 993.2 572.999 992.9C570.799 992.1 568.499 991.9 566.199 992.2C565.199 992.2 565.199 993.8 566.199 993.6Z" fill="white"/>
<path d="M542.6 976.6C544.1 975.7 545.9 975.7 547.4 976.6C548.2 977.1 549 975.8 548.2 975.3C546.2 974.2 543.9 974.2 541.9 975.3C541 975.8 541.8 977.1 542.6 976.6Z" fill="white"/>
<path d="M563.6 974.6C565.1 973.8 566.8 973.6 568.6 973.8C569.5 973.9 570 972.5 569 972.4C566.9 972.1 564.8 972.4 562.9 973.4C561.9 973.7 562.7 975 563.6 974.6Z" fill="white"/>
<path d="M539.7 943.2C542.8 941.9 545.9 940.6 548.9 939.2C548.3 938.8 547.8 938.4 547.2 937.9C546 941.7 544.2 945.1 541.8 948.3C541.2 949.1 542.2 950.3 543.1 950C546.5 948.7 549.9 947.5 553.3 946.2C554.6 945.7 554.1 943.5 552.7 944C549.3 945.3 545.9 946.5 542.5 947.8C542.9 948.4 543.3 948.9 543.8 949.5C546.4 946.2 548.2 942.6 549.5 938.6C549.8 937.6 548.7 937 547.8 937.3C544.7 938.6 541.6 939.9 538.6 941.3C537.2 941.9 538.4 943.8 539.7 943.2Z" fill="#161616"/>
<path d="M544.699 925C546.799 923.8 548.899 923 551.199 922.5C550.799 921.9 550.4 921.4 549.9 920.8C549 922.8 547.899 924.8 546.599 926.6C546.099 927.4 546.799 928.2 547.599 928.3C550.299 928.5 552.8 927.8 554.9 926.2C556 925.3 554.899 923.4 553.799 924.3C551.999 925.7 549.999 926.3 547.699 926.1C547.999 926.7 548.299 927.2 548.699 927.8C549.999 925.9 551.099 924 551.999 922C552.399 921.1 551.699 920.1 550.699 920.3C548.199 920.8 545.799 921.7 543.599 923C542.299 923.8 543.399 925.7 544.699 925Z" fill="#161616"/>
<path d="M561.199 949.2C557.899 945.9 563.599 944 564.199 941.1C564.799 937.7 560.799 934.5 565.299 931.9C566.599 931.2 565.399 929.2 564.199 930C562.599 930.9 561.299 932.3 560.899 934.2C560.299 937.4 563.099 939.3 560.699 942.2C559.599 943.6 558.299 944 557.899 945.9C557.499 947.8 558.299 949.4 559.599 950.8C560.699 951.8 562.299 950.2 561.199 949.2Z" fill="#161616"/>
<path d="M837.3 663.7C586.6 681.8 335.9 699.8 85.3 717.9C78.5 536.1 71.7 354.3 65 172.5C316.8 169.1 568.6 165.7 820.4 162.3C826 329.4 831.6 496.5 837.3 663.7Z" fill="white" stroke="#161616" stroke-width="3.5" stroke-miterlimit="10"/>
<path d="M278 261C326.6 261 375.3 261 423.9 261C425.8 261 425.8 258 423.9 258C375.3 258 326.6 258 278 258C276.1 258 276.1 261 278 261Z" fill="#161616"/>
<path d="M332.6 273.3C382.7 273.3 432.8 273.3 482.9 273.3C484.8 273.3 484.8 270.3 482.9 270.3C432.8 270.3 382.7 270.3 332.6 270.3C330.6 270.3 330.6 273.3 332.6 273.3Z" fill="#161616"/>
<path d="M95.3999 566.7C97.1999 608.5 98.9999 650.4 100.8 692.2C100.9 694.1 103.9 694.1 103.8 692.2C102 650.4 100.2 608.5 98.3999 566.7C98.2999 564.8 95.2999 564.8 95.3999 566.7Z" fill="#161616"/>
<path d="M315.7 542.3C320 542.3 324.3 542.3 328.7 542.3C330.6 542.3 330.6 539.3 328.7 539.3C324.4 539.3 320.1 539.3 315.7 539.3C313.8 539.3 313.8 542.3 315.7 542.3Z" fill="#161616"/>
<path d="M340 542.3C351.1 542.3 362.1 542.3 373.2 542.3C375.1 542.3 375.1 539.3 373.2 539.3C362.1 539.3 351.1 539.3 340 539.3C338.1 539.3 338.1 542.3 340 542.3Z" fill="#161616"/>
<path d="M398.3 540.7C411.5 540.7 424.7 540.7 438 540.7C439.9 540.7 439.9 537.7 438 537.7C424.8 537.7 411.6 537.7 398.3 537.7C396.4 537.7 396.4 540.7 398.3 540.7Z" fill="#161616"/>
<path d="M333.6 563.3C349.8 563.3 366 563.3 382.2 563.3C384.1 563.3 384.1 560.3 382.2 560.3C366 560.3 349.8 560.3 333.6 560.3C331.6 560.3 331.6 563.3 333.6 563.3Z" fill="#161616"/>
<path d="M357 552C375.9 552 394.8 552 413.7 552C415.6 552 415.6 549 413.7 549C394.8 549 375.9 549 357 549C355.1 549 355.1 552 357 552Z" fill="#161616"/>
<path d="M457.4 658.9C489.2 658.9 521.1 658.9 552.9 658.9C554.8 658.9 554.8 655.9 552.9 655.9C521.1 655.9 489.2 655.9 457.4 655.9C455.5 655.9 455.5 658.9 457.4 658.9Z" fill="#161616"/>
<path d="M535.9 667C552.6 667 569.4 667 586.1 667C588 667 588 664 586.1 664C569.4 664 552.6 664 535.9 664C534 664 534 667 535.9 667Z" fill="#161616"/>
<path d="M579.6 654.8C596.1 654.8 612.5 654.8 629 654.8C630.9 654.8 630.9 651.8 629 651.8C612.5 651.8 596.1 651.8 579.6 651.8C577.7 651.8 577.7 654.8 579.6 654.8Z" fill="#161616"/>
<path d="M663.8 383.7C694.3 383.7 724.8 383.7 755.3 383.7C757.2 383.7 757.2 380.7 755.3 380.7C724.8 380.7 694.3 380.7 663.8 380.7C661.9 380.7 661.9 383.7 663.8 383.7Z" fill="#161616"/>
<path d="M635.5 388.5C645.2 388.5 654.9 388.5 664.6 388.5C666.5 388.5 666.5 385.5 664.6 385.5C654.9 385.5 645.2 385.5 635.5 385.5C633.5 385.5 633.5 388.5 635.5 388.5Z" fill="#161616"/>
<path d="M641.1 396.6C673.7 396.6 706.4 396.6 739 396.6C740.9 396.6 740.9 393.6 739 393.6C706.4 393.6 673.7 393.6 641.1 393.6C639.2 393.6 639.2 396.6 641.1 396.6Z" fill="#161616"/>
<path d="M761.8 389.3C768 389.3 774.2 389.3 780.4 389.3C782.3 389.3 782.3 386.3 780.4 386.3C774.2 386.3 768 386.3 761.8 386.3C759.8 386.3 759.8 389.3 761.8 389.3Z" fill="#161616"/>
<path d="M737.5 511.5C746.7 511.5 755.8 511.5 765 511.5C766.9 511.5 766.9 508.5 765 508.5C755.8 508.5 746.7 508.5 737.5 508.5C735.5 508.5 735.5 511.5 737.5 511.5Z" fill="#161616"/>
<path d="M719.7 519.6C729.7 519.6 739.7 519.6 749.6 519.6C751.5 519.6 751.5 516.6 749.6 516.6C739.6 516.6 729.6 516.6 719.7 516.6C717.7 516.6 717.7 519.6 719.7 519.6Z" fill="#161616"/>
<path d="M734.2 527.7C753.9 527.7 773.6 527.7 793.3 527.7C795.2 527.7 795.2 524.7 793.3 524.7C773.6 524.7 753.9 524.7 734.2 524.7C732.3 524.7 732.3 527.7 734.2 527.7Z" fill="#161616"/>
<path d="M771.5 518C777.4 518 783.4 518 789.3 518C791.2 518 791.2 515 789.3 515C783.4 515 777.4 515 771.5 515C769.5 515 769.5 518 771.5 518Z" fill="#161616"/>
<path d="M359.6 393.3C373.6 393.3 387.5 393.3 401.5 393.3C403.4 393.3 403.4 390.3 401.5 390.3C387.5 390.3 373.6 390.3 359.6 390.3C357.7 390.3 357.7 393.3 359.6 393.3Z" fill="#161616"/>
<path d="M390.099 401.9C410.699 401.9 431.399 401.9 451.999 401.9C453.899 401.9 453.899 398.9 451.999 398.9C431.399 398.9 410.699 398.9 390.099 398.9C388.199 398.9 388.099 401.9 390.099 401.9Z" fill="#161616"/>
<path d="M444.4 390.4C456.1 390.4 467.9 390.4 479.6 390.4C481.5 390.4 481.5 387.4 479.6 387.4C467.9 387.4 456.1 387.4 444.4 387.4C442.5 387.4 442.5 390.4 444.4 390.4Z" fill="#161616"/>
<path d="M86.5 230.8C88.7 306.7 90.9 382.7 93.1 458.6C93.7 480.2 94.3 501.7 95 523.3C95.1 525.2 98.1 525.2 98 523.3C95.8 447.4 93.6 371.4 91.4 295.5C90.8 273.9 90.2 252.4 89.5 230.8C89.5 228.9 86.5 228.9 86.5 230.8Z" fill="#161616"/>
<path d="M813.4 478.9C814.9 529.1 816.4 579.2 817.9 629.4C818 631.3 821 631.3 820.9 629.4C819.4 579.2 817.9 529.1 816.4 478.9C816.4 477 813.4 477 813.4 478.9Z" fill="#161616"/>
<path d="M606.3 455.9C606.9 462 607.5 468.2 608 474.3C613.8 472.8 619.5 471.2 625.3 469.7C624.5 463.6 623.8 457.4 623 451.3C617.4 452.8 611.9 454.4 606.3 455.9Z" fill="#EF5F75"/>
<path d="M602.8 502.6C608.8 501.8 614.7 501.1 620.7 500.3C621.5 507.6 622.2 514.9 623 522.2C617.6 522.4 612.2 522.6 606.9 522.8C605.5 516 604.2 509.3 602.8 502.6Z" fill="#EF5F75"/>
<path d="M624.699 546.9C626.599 553.2 628.499 559.6 630.499 565.9C635.899 563.4 641.299 560.9 646.599 558.4C644.899 552.8 643.099 547.3 641.399 541.7C635.899 543.5 630.299 545.2 624.699 546.9Z" fill="#EF5F75"/>
<path d="M229.399 606.5C230.699 625.9 231.999 645.3 233.299 664.6C267.299 662.4 301.299 660.3 335.299 658.1C335.899 640.7 336.599 623.2 337.199 605.8C301.299 606.1 265.299 606.3 229.399 606.5Z" fill="#EF5F75"/>
<path d="M652.1 211.8C656.021 211.8 659.2 209.158 659.2 205.9C659.2 202.642 656.021 200 652.1 200C648.179 200 645 202.642 645 205.9C645 209.158 648.179 211.8 652.1 211.8Z" fill="#EF5F75"/>
<path d="M169.599 256C172.858 256 175.499 254.254 175.499 252.1C175.499 249.946 172.858 248.2 169.599 248.2C166.341 248.2 163.699 249.946 163.699 252.1C163.699 254.254 166.341 256 169.599 256Z" fill="#EF5F75"/>
<path d="M263.499 369.1C266.04 369.1 268.099 366.682 268.099 363.7C268.099 360.717 266.04 358.3 263.499 358.3C260.959 358.3 258.899 360.717 258.899 363.7C258.899 366.682 260.959 369.1 263.499 369.1Z" fill="#EF5F75"/>
<path opacity="0.21" d="M221.299 234.4C223.099 234.1 226.599 250.8 235.199 281.1C246.499 321 257.699 353.2 265.799 375.2C253.499 382.8 225.999 397.3 188.499 397.8C161.999 398.1 141.099 391.3 128.699 386.1C152.999 388.8 172.599 388.1 186.299 386.8C207.999 384.8 204.199 382.5 220.599 381.7C227.399 381.4 236.299 381.4 245.399 375.9C248.699 373.9 251.099 371.7 252.699 370.1C246.299 356.9 238.099 337.5 231.499 313.2C220.999 273.7 218.699 234.9 221.299 234.4Z" fill="#6D6C6C"/>
<path opacity="0.25" d="M315 342.9C316.6 355.6 319.5 369.8 324.3 385C338 428.2 361.1 459 378.5 478C368.1 485.7 355.2 493.7 339.7 500.4C292.7 520.7 248.8 517.7 225.3 514.1C224.4 508.8 223.5 503.5 222.6 498.2C232.6 498.5 243.2 498.3 254.3 497.7C293.9 495.2 327.9 486.3 355 476.4C346.4 461.8 340.2 449.2 335.9 439.7C325.5 417 317.8 399.9 315.1 376.8C313.4 362.7 314.1 350.8 315 342.9Z" fill="#6D6C6C"/>
<path opacity="0.14" d="M632.899 409.1C633.899 431.9 636.299 450.8 638.399 464.4C643.299 495.6 646.899 517.2 659.699 541.5C667.699 556.6 676.699 567.7 683.199 574.9C671.899 584.6 656.699 595.6 637.199 604.4C588.199 626.7 542.199 622.2 520.699 618.6C519.599 613.7 518.499 608.8 517.399 603.8C520.099 604 524.299 604.2 529.399 604.3C546.399 604.7 581.799 605.3 622.399 591.7C633.799 587.9 649.799 581.5 667.799 570.9C660.699 561.4 653.699 550.1 647.599 537C623.499 485.3 628.299 435.1 632.899 409.1Z" fill="#6D6C6C"/>
<path opacity="0.18" d="M709.5 184.8C711.5 194.1 714.4 208.3 717.3 226C722.7 260.2 722.3 272.6 728.6 292.8C731.9 303.3 737.8 318.2 748.9 335.2C739.6 342.8 728 350.7 713.7 357.3C666.9 379 622.1 372.9 601.5 368.6C601.7 364.6 601.9 360.6 602.1 356.7C604.7 357.4 608.6 358.3 613.4 359.1C619.7 360.1 643 363.5 686.8 352.5C698.9 349.5 715.2 344.7 733.9 337C730.3 330.6 725 320.6 720.2 307.8C706.2 270.7 706.3 238.5 706.5 221.9C706.6 212.8 707.2 200.1 709.5 184.8Z" fill="#6D6C6C"/>
<path d="M111.7 228.7C101.8 281.1 111.8 334.1 121.8 385.7C122.2 387.6 125.1 386.8 124.7 384.9C114.8 333.9 104.9 281.4 114.6 229.5C114.9 227.7 112 226.8 111.7 228.7Z" fill="#161616"/>
<path d="M114.499 228.3C128.799 237.9 146.099 239.6 162.999 238.4C182.299 237 201.399 232.9 220.499 229.7C222.399 229.4 221.599 226.5 219.699 226.8C201.399 229.8 183.099 233.7 164.599 235.2C147.699 236.6 130.399 235.3 115.999 225.6C114.399 224.6 112.899 227.2 114.499 228.3Z" fill="#161616"/>
<path d="M218.5 231.8C221.3 279.6 228.5 328.4 252.7 370.4C253.7 372.1 256.3 370.6 255.3 368.9C231.4 327.3 224.3 279 221.5 231.8C221.4 229.9 218.4 229.9 218.5 231.8Z" fill="#161616"/>
<path d="M124.299 386.5C146.999 393.1 171.399 389.1 194.499 387.2C214.999 385.5 236.999 384.7 254.599 372.7C256.199 371.6 254.699 369 253.099 370.1C235.399 382.2 213.199 382.6 192.599 384.3C170.399 386.1 146.999 389.8 125.099 383.5C123.199 383.1 122.399 386 124.299 386.5Z" fill="#161616"/>
<path d="M162.7 252.7C160.7 251.8 162.9 249.9 164.1 249.6C165.6 249.2 168.5 249 169.2 250.7C169.7 252 168.9 253.7 167.7 254.2C165.8 255.1 163.7 254 162.4 252.7C161 251.3 158.9 253.4 160.3 254.8C162.8 257.3 166.9 258.6 170 256.3C172.5 254.5 173.4 250.5 171.3 248.1C168.9 245.4 163.8 245.7 161.1 247.7C158.7 249.5 158.2 253.8 161.3 255.2C163 256.1 164.5 253.5 162.7 252.7Z" fill="#161616"/>
<path d="M202.8 386.9C195.6 423.4 203.3 460.3 211.1 496.1C211.5 498 214.4 497.2 214 495.3C206.3 460.1 198.7 423.7 205.7 387.7C206.1 385.8 203.2 385 202.8 386.9Z" fill="#161616"/>
<path d="M244.099 348.6C267.199 344.2 290.599 342.6 313.999 343.5C313.499 343 312.999 342.5 312.499 342C307.799 390.2 328.399 436.1 353.399 476C354.399 477.6 356.999 476.1 355.999 474.5C331.299 435 310.799 389.7 315.499 342C315.599 341.2 314.699 340.5 313.999 340.5C290.299 339.6 266.599 341.3 243.299 345.7C241.399 346.1 242.199 349 244.099 348.6Z" fill="#161616"/>
<path d="M212.699 498.2C261.299 503.9 310.599 496.6 355.599 477.4C357.399 476.6 355.799 474.1 354.099 474.8C309.699 493.8 260.699 500.8 212.699 495.2C210.799 495 210.799 498 212.699 498.2Z" fill="#161616"/>
<path d="M262.899 360.9C262.899 360.8 263.2 360.3 263.2 360.1C263.3 359.7 263.599 359.3 263.899 359C264.499 358.5 265.199 358.1 265.999 358C267.499 357.8 268.899 358.6 269.299 360.1C269.599 361.3 269.1 362.9 267.7 363.1C266.4 363.3 265.199 362.4 264.999 361.1C264.699 359.2 261.8 360 262.1 361.9C262.6 365.4 267.099 367.1 269.999 365.4C273.199 363.5 272.999 358.6 270.299 356.3C267.299 353.8 262.3 355.1 260.6 358.5C259.8 360.2 259.8 362.5 261.7 363.5C263.2 364.3 265.399 363.6 265.799 361.7C266.099 359.8 263.199 359 262.899 360.9Z" fill="#161616"/>
<path d="M121.6 283.1C148.2 286.8 174.6 281.3 200.1 274C202 273.5 201.2 270.6 199.3 271.1C174.3 278.2 148.4 283.8 122.4 280.2C120.5 279.9 119.7 282.8 121.6 283.1Z" fill="#161616"/>
<path d="M126.6 302.7C140.4 304.2 154.2 302.8 167.5 298.6C169.3 298 168.6 295.1 166.7 295.7C153.7 299.8 140.2 301.1 126.6 299.7C124.7 299.5 124.7 302.5 126.6 302.7Z" fill="#161616"/>
<path d="M126.6 326.9C153 330 179.6 328.1 205.2 321.4C207.1 320.9 206.3 318 204.4 318.5C179 325.2 152.7 327 126.6 323.9C124.7 323.6 124.7 326.6 126.6 326.9Z" fill="#161616"/>
<path d="M225.399 480.4C251.899 481.6 278.399 478.4 303.799 470.8C305.599 470.3 304.899 467.4 302.999 467.9C277.799 475.4 251.699 478.6 225.399 477.4C223.399 477.3 223.399 480.3 225.399 480.4Z" fill="#161616"/>
<path d="M230.499 457.5C242.299 457.1 254.099 456.2 265.899 454.9C267.799 454.7 267.799 451.7 265.899 451.9C254.099 453.2 242.399 454.1 230.499 454.5C228.599 454.6 228.599 457.6 230.499 457.5Z" fill="#161616"/>
<path d="M240.1 416.3C247.9 417.3 256 415.3 263.7 414.2C272.2 412.9 280.6 411.7 289.1 410.4C291 410.1 290.2 407.2 288.3 407.5C280.5 408.7 272.6 409.9 264.8 411C256.7 412.2 248.3 414.4 240.1 413.3C238.2 413 238.2 416 240.1 416.3Z" fill="#161616"/>
<path d="M593.5 192.1C582.6 245.6 581.5 300.6 590.2 354.5C590.5 356.4 593.4 355.6 593.1 353.7C584.5 300.4 585.7 245.8 596.4 192.9C596.8 191 593.9 190.2 593.5 192.1Z" fill="#161616"/>
<path d="M596.9 192.8C633.2 184.5 670.7 182.8 707.7 187.8C709.6 188.1 710.4 185.2 708.5 184.9C671 179.8 633 181.5 596.1 189.9C594.3 190.4 595.1 193.3 596.9 192.8Z" fill="#161616"/>
<path d="M706.8 185.1C705.7 236.6 706.4 291 732.5 337.1C733.5 338.8 736 337.3 735.1 335.6C709.3 290 708.7 236.1 709.8 185.1C709.9 183.2 706.9 183.2 706.8 185.1Z" fill="#161616"/>
<path d="M592.5 356.1C603.7 359.5 615.7 359.7 627.3 359.8C639.8 359.9 652.3 359.1 664.8 357.4C688.7 354.2 712 347.7 734.3 338.3C736.1 337.6 734.5 335 732.8 335.7C710.5 345.1 687 351.5 663 354.6C651.8 356 640.5 356.8 629.2 356.7C617.3 356.7 604.8 356.6 593.4 353.1C591.4 352.7 590.7 355.6 592.5 356.1Z" fill="#161616"/>
<path d="M653.7 196C650.3 197.2 648.8 201.1 650 204.4C651.4 208.1 655.7 209 658.9 206.8C662 204.6 663 200.2 660 197.4C657.4 195 652.9 194.9 650.5 197.5C649.2 198.9 651.3 201 652.6 199.6C655.6 196.4 661.5 200.9 657.4 204.1C655.8 205.3 653.5 205.3 652.8 203.2C652.3 201.6 652.8 199.4 654.5 198.8C656.3 198.2 655.5 195.3 653.7 196Z" fill="#161616"/>
<path d="M595 238.6C622.3 239.3 649.5 238.8 676.7 237C678.6 236.9 678.6 233.9 676.7 234C649.5 235.8 622.2 236.4 595 235.6C593 235.6 593 238.6 595 238.6Z" fill="#161616"/>
<path d="M597.699 253.8C607.899 254.2 618.099 254.6 628.199 255C630.099 255.1 630.099 252.1 628.199 252C617.999 251.6 607.799 251.2 597.699 250.8C595.699 250.7 595.699 253.7 597.699 253.8Z" fill="#161616"/>
<path d="M594.9 275C620.6 276.4 646.6 277.6 671.9 272C673.8 271.6 673 268.7 671.1 269.1C646 274.6 620.3 273.4 594.9 272C593 271.9 593 274.9 594.9 275Z" fill="#161616"/>
<path d="M222.1 600.1C219.8 620.1 219 640.2 219.7 660.3C219.8 662.2 222.8 662.2 222.7 660.3C222 640.2 222.8 620.1 225.1 600.1C225.3 598.2 222.3 598.2 222.1 600.1Z" fill="#161616"/>
<path d="M223.1 601.3C258.7 601.3 294.4 600.8 330 599.7C331.9 599.6 331.9 596.6 330 596.7C294.4 597.8 258.7 598.3 223.1 598.3C221.2 598.3 221.2 601.3 223.1 601.3Z" fill="#161616"/>
<path d="M329.7 598.3C330 615.7 330.3 633 330.6 650.4C330.6 652.3 333.6 652.3 333.6 650.4C333.3 633 333 615.7 332.7 598.3C332.7 596.4 329.6 596.4 329.7 598.3Z" fill="#161616"/>
<path d="M219.399 658.1C219.599 664.6 230.899 661.7 234.599 661.5C245.199 660.8 255.799 660.1 266.299 659.3C287.799 657.8 309.299 656.4 330.799 654.9C332.699 654.8 332.699 651.8 330.799 651.9C312.499 653.1 294.299 654.4 275.999 655.6C267.299 656.2 258.599 656.8 249.899 657.4C247.299 657.6 222.399 660 222.299 658.1C222.399 656.2 219.399 656.2 219.399 658.1Z" fill="#161616"/>
<path d="M231.199 614.8C255.199 613.7 279.199 614.6 302.999 617.6C304.899 617.8 304.899 614.8 302.999 614.6C279.199 611.6 255.199 610.7 231.199 611.8C229.199 611.9 229.199 614.9 231.199 614.8Z" fill="#161616"/>
<path d="M232.1 630C245.5 629 259 627.9 272.4 626.9C274.3 626.8 274.3 623.8 272.4 623.9C259 624.9 245.5 626 232.1 627C230.2 627.1 230.2 630.1 232.1 630Z" fill="#161616"/>
<path d="M236.6 645.3C255.9 642.8 276.9 637.7 296.3 641.2C298.2 641.5 299 638.7 297.1 638.3C277.3 634.7 256.3 639.7 236.6 642.3C234.8 642.6 234.7 645.6 236.6 645.3Z" fill="#161616"/>
<path d="M496.7 429.9C480.8 486.5 482.8 547.1 502.3 602.6C502.9 604.4 505.8 603.6 505.2 601.8C485.9 546.8 483.9 486.8 499.6 430.7C500.1 428.8 497.2 428 496.7 429.9Z" fill="#161616"/>
<path d="M498.699 430.9C543.199 430.7 587.499 424.9 630.599 413.6C632.499 413.1 631.699 410.2 629.799 410.7C586.999 421.9 542.999 427.7 498.699 427.9C496.699 427.9 496.699 430.9 498.699 430.9Z" fill="#161616"/>
<path d="M629.799 411.8C627.999 439.6 629.199 467.6 634.199 495.1C636.699 509 639.699 522.9 645.199 535.9C650.699 548.8 658.299 560.5 667.199 571.2C668.399 572.7 670.599 570.6 669.299 569.1C660.199 558.2 652.499 546.1 647.099 532.9C641.999 520.3 639.199 506.8 636.899 493.5C632.099 466.6 630.999 439.1 632.699 411.8C632.899 409.9 629.899 409.9 629.799 411.8Z" fill="#161616"/>
<path d="M502.699 604.2C559.299 608.2 618.399 601.8 667.999 572.6C669.699 571.6 668.199 569 666.499 570C617.199 599 558.699 605.1 502.699 601.2C500.799 601 500.799 604 502.699 604.2Z" fill="#161616"/>
<path d="M562.9 439.9C561.2 437 564.6 433.4 567.5 435.7C570.6 438.2 567.3 442.2 564 440.9C562.2 440.2 561.4 443.1 563.2 443.8C565.9 444.9 569.2 443.7 570.8 441.3C572.6 438.6 571.8 435.2 569.3 433.3C563.9 429 557.1 435.7 560.3 441.4C561.3 443.1 563.9 441.6 562.9 439.9Z" fill="#161616"/>
<path d="M499.699 474.4C529.599 473.9 559.499 471.8 589.299 468.2C591.199 468 591.199 465 589.299 465.2C559.599 468.9 529.699 470.9 499.699 471.4C497.799 471.5 497.799 474.5 499.699 474.4Z" fill="#161616"/>
<path d="M599.999 454.3C600.899 458.9 601.799 463.6 602.699 468.2C603.099 470.1 605.999 469.3 605.599 467.4C604.699 462.8 603.799 458.1 602.899 453.5C602.599 451.6 599.699 452.4 599.999 454.3Z" fill="#161616"/>
<path d="M602 453.9C607.5 453.1 613 452.3 618.6 451.4C620.5 451.1 619.7 448.2 617.8 448.5C612.3 449.3 606.8 450.1 601.2 451C599.3 451.3 600.1 454.2 602 453.9Z" fill="#161616"/>
<path d="M617.699 450.5C618.499 454.8 619.199 459.1 619.999 463.3C620.299 465.2 623.199 464.4 622.899 462.5C622.099 458.2 621.399 453.9 620.599 449.7C620.299 447.9 617.399 448.7 617.699 450.5Z" fill="#161616"/>
<path d="M605.2 470.5C611.1 469.3 616.7 467.7 622.3 465.5C624.1 464.8 623.3 461.9 621.5 462.6C615.9 464.7 610.2 466.4 604.4 467.6C602.5 468 603.3 470.9 605.2 470.5Z" fill="#161616"/>
<path d="M605.7 457.3C606.8 459.8 608.3 461.8 610.5 463.5C611.3 464.1 612.8 464.1 613 462.8C613.8 457.4 615.7 452.6 618.9 448.1C620 446.5 617.4 445 616.3 446.6C613 451.2 610.9 456.4 610.1 462C610.9 461.8 611.8 461.6 612.6 461.3C610.7 459.8 609.3 458 608.3 455.7C607.5 454 604.9 455.5 605.7 457.3Z" fill="#161616"/>
<path d="M606.8 500.2C605.2 507.4 605.9 514.4 608.8 521.1C609.6 522.9 612.1 521.3 611.4 519.6C608.8 513.7 608.3 507.3 609.7 501C610.1 499.1 607.2 498.3 606.8 500.2Z" fill="#161616"/>
<path d="M608.8 501.2C614.8 500.2 620.8 499.3 626.8 498.3C626.2 497.7 625.6 497.1 625 496.5C624 502.9 624.7 509 627.2 515C627.9 516.8 630.8 516 630.1 514.2C627.8 508.8 627 503.1 627.9 497.3C628.1 496.1 627.3 495.3 626.1 495.5C620.1 496.4 614.1 497.4 608.1 498.4C606.1 498.6 606.9 501.5 608.8 501.2Z" fill="#161616"/>
<path d="M610.1 521.2C616.7 521 623 519.7 629.2 517.5C631 516.8 630.2 513.9 628.4 514.6C622.5 516.8 616.4 518 610.1 518.2C608.2 518.2 608.2 521.2 610.1 521.2Z" fill="#161616"/>
<path d="M611 507.3C611.9 509.9 613.4 511.7 615.8 513.1C616.9 513.7 617.9 512.9 618.1 511.8C618.7 506.5 620.1 501.4 622.3 496.5C623.1 494.8 620.5 493.2 619.7 495C617.3 500.4 615.8 506 615.1 511.8C615.9 511.4 616.6 510.9 617.4 510.5C615.7 509.5 614.7 508.3 614 506.4C613.3 504.7 610.4 505.5 611 507.3Z" fill="#161616"/>
<path d="M613 546.6C613.7 553.3 615.5 559.6 618.5 565.6C619.3 567.3 621.9 565.8 621.1 564.1C618.4 558.6 616.7 552.7 616.1 546.6C615.8 544.7 612.8 544.7 613 546.6Z" fill="#161616"/>
<path d="M614.4 546.3C622.1 547 629.3 545.6 636.2 542.2C635.5 541.9 634.7 541.6 634 541.3C635.3 547.4 638 552.7 642.2 557.4C643.5 558.8 645.6 556.7 644.3 555.3C640.5 551 638.1 546.2 636.9 540.6C636.7 539.6 635.5 539.3 634.7 539.7C628.3 542.8 621.5 544 614.4 543.4C612.5 543.2 612.5 546.2 614.4 546.3Z" fill="#161616"/>
<path d="M621.199 566.7C628.999 563.8 636.699 560.7 644.199 557.3C645.999 556.5 644.399 553.9 642.699 554.7C635.399 558 627.899 561 620.399 563.8C618.599 564.5 619.399 567.4 621.199 566.7Z" fill="#161616"/>
<path d="M619.599 551.6C621.999 553.7 627.499 560.9 630.299 555.6C631.599 553.2 631.299 549.9 632.099 547.2C633.299 543.4 635.299 539.9 637.899 536.9C639.099 535.4 636.999 533.3 635.799 534.8C632.999 538.1 630.799 541.7 629.499 545.9C628.899 547.8 628.399 549.8 628.099 551.8C627.699 554.3 626.999 553.7 625.099 552.5C623.899 551.7 622.799 550.5 621.699 549.5C620.299 548.2 618.199 550.3 619.599 551.6Z" fill="#161616"/>
<path d="M502.4 523.3C530.4 523 558.3 520.7 585.9 516.3C587.8 516 587 513.1 585.1 513.4C557.7 517.7 530.1 520 502.4 520.2C500.5 520.3 500.5 523.3 502.4 523.3Z" fill="#161616"/>
<path d="M499.199 482.7C517.299 483.2 535.299 482.6 553.299 481.1C555.199 480.9 555.199 477.9 553.299 478.1C535.299 479.6 517.199 480.1 499.199 479.7C497.299 479.6 497.299 482.6 499.199 482.7Z" fill="#161616"/>
<path d="M503.499 529.2C522.499 530.1 541.499 529.4 560.299 527C562.199 526.8 562.199 523.8 560.299 524C541.399 526.3 522.399 527.1 503.499 526.2C501.599 526.1 501.599 529.1 503.499 529.2Z" fill="#161616"/>
<path d="M566.699 525.6C572.099 525.7 577.399 525 582.599 523.3C584.399 522.7 583.599 519.8 581.799 520.4C576.899 522 571.899 522.7 566.699 522.6C564.799 522.6 564.799 525.6 566.699 525.6Z" fill="#161616"/>
<path d="M513.699 566.8C536.499 565.4 559.199 563.3 581.799 560.2C583.699 559.9 583.699 556.9 581.799 557.2C559.199 560.2 536.499 562.4 513.699 563.8C511.699 563.9 511.699 566.9 513.699 566.8Z" fill="#161616"/>
<path d="M516.3 573.8C523.8 573.8 531.3 573.8 538.8 573.8C540.7 573.8 540.7 570.8 538.8 570.8C531.3 570.8 523.8 570.8 516.3 570.8C514.4 570.8 514.4 573.8 516.3 573.8Z" fill="#161616"/>
<path d="M522.8 580.5C534.5 579.8 546.2 578.7 557.9 577.3C567.3 576.1 577.4 575.6 585.5 570.1C587.1 569 585.6 566.4 584 567.5C575.5 573.3 564.1 573.6 554.2 574.7C543.8 575.9 533.3 576.8 522.9 577.5C520.9 577.6 520.8 580.6 522.8 580.5Z" fill="#161616"/>
<path d="M636.999 499.7C655.199 498.8 673.299 496.4 691.199 492.6C690.599 492.3 689.999 491.9 689.399 491.6C697.799 516.6 710.199 539.9 726.099 561C727.199 562.5 729.899 561 728.699 559.5C712.999 538.7 700.699 515.6 692.299 490.9C691.999 490.1 691.299 489.7 690.499 489.9C672.899 493.7 655.099 496 637.099 496.9C634.999 496.8 634.999 499.8 636.999 499.7Z" fill="#161616"/>
<path d="M640.1 584.1C642.8 587.9 645 591.9 646.9 596.2C647.1 596.8 648 597.1 648.6 596.9C663.3 592 677.8 586.6 692 580.5C699.2 577.4 706.3 574.2 713.4 570.8C716.8 569.2 720.2 567.5 723.5 565.8C725.5 564.8 727.8 564.2 728.5 562C728.7 561.4 728.4 560.6 727.8 560.3C726.9 559.8 726.4 559.8 725.5 560.3C724.9 560.6 724.6 561.4 724.8 562C724.8 562.1 724.9 562.2 724.9 562.3C725.4 564.2 728.3 563.4 727.8 561.5C727.8 561.4 727.7 561.3 727.7 561.2C727.5 561.8 727.2 562.3 727 562.9C726.8 562.9 726.5 562.9 726.3 562.9C726.1 562.3 725.8 561.8 725.6 561.2C725 563 718.7 564.9 717 565.8C714.2 567.2 711.4 568.5 708.5 569.9C701.8 573.1 695 576.1 688.1 579C674.9 584.6 661.4 589.6 647.8 594.1C648.4 594.3 648.9 594.6 649.5 594.8C647.7 590.5 645.4 586.5 642.7 582.7C641.6 581 639 582.5 640.1 584.1Z" fill="#161616"/>
<path d="M657.5 507.5C657.3 506.2 659.699 505 660.599 505.9C661.799 507.1 659.8 509.3 658.4 508.8C656.6 508.1 655.799 511 657.599 511.7C661.899 513.3 666.1 507.1 662.8 503.8C661.3 502.3 659 502.4 657.2 503.3C655.3 504.3 654.3 506.2 654.7 508.3C654.9 510.2 657.8 509.3 657.5 507.5Z" fill="#161616"/>
<path d="M214.4 427.5C225.5 427.7 236.7 427.2 247.7 425.7C259.2 424.1 270.6 420.8 282.3 421.3C284.2 421.4 284.2 418.4 282.3 418.3C271.6 417.9 261.2 420.6 250.7 422.2C238.7 424.1 226.5 424.8 214.3 424.5C212.5 424.5 212.5 427.5 214.4 427.5Z" fill="#161616"/>
<path d="M215.999 394.4C232.999 395.7 249.999 394.2 266.499 389.9C268.399 389.4 267.599 386.5 265.699 387C249.399 391.2 232.799 392.7 215.999 391.4C214.099 391.3 214.099 394.3 215.999 394.4Z" fill="#161616"/>
<path d="M600.8 310.2C599.1 321.2 597.7 333.1 604.6 342.7C605.7 344.3 608.3 342.8 607.2 341.2C600.8 332.3 602.2 321.2 603.7 311C604 309.1 601.1 308.3 600.8 310.2Z" fill="#161616"/>
<path d="M601.7 310.1C625.5 311 649.3 308.7 672.5 303.2C671.9 302.9 671.3 302.5 670.7 302.2C672.8 312.5 676.8 322.1 682.4 330.9C683.4 332.5 686 331 685 329.4C679.5 320.8 675.7 311.4 673.6 301.4C673.4 300.6 672.5 300.2 671.8 300.4C648.9 305.8 625.4 308.1 601.8 307.2C599.8 307 599.8 310 601.7 310.1Z" fill="#161616"/>
<path d="M607.1 342.6C632.9 341.8 658.4 338 683.2 331.2C685.1 330.7 684.3 327.8 682.4 328.3C657.8 335.1 632.6 338.9 607.1 339.6C605.1 339.7 605.1 342.7 607.1 342.6Z" fill="#161616"/>
<path d="M959.7 1041.1C959.7 1052.4 959.7 1063.6 959.7 1074.9C879.7 1106.6 863.4 1117.9 864.6 1122C864.9 1123 867 1126 909 1121.1C950.6 1116.2 984.3 1109.1 1007.7 1103.3C1003.6 1080.2 999.4 1057.1 995.3 1034C983.4 1036.4 971.5 1038.8 959.7 1041.1Z" fill="#161616"/>
<path d="M995.6 562.8C993.3 567.1 992.5 570.6 992.3 571.4C978 632.2 959.3 668.1 947.1 738.6C923.8 874.4 943.9 1028.7 945.8 1043.2C952.2 1046 964.5 1050.2 980.2 1049.6C994 1049 1004.7 1044.9 1010.8 1042C1008.5 997.7 1010.8 943 1026.1 882.7C1044.8 808.8 1068.5 784.3 1089.8 697.9C1105.6 633.9 1123.9 559.4 1092.3 537.3C1068.1 520.1 1011.4 532.7 995.6 562.8Z" fill="#85C7F2"/>
<path opacity="0.2" d="M1050.9 594.7C1034.9 667.7 1020 745.5 1007.4 827.8C995.5 905.2 986.6 979.3 980 1049.7C990.1 1047.6 1000.1 1045.5 1010.2 1043.4C1008.9 1012.3 1010.3 985.8 1012.3 965.5C1014.7 940.3 1020.8 881.6 1045.3 823C1048.5 815.5 1052.6 806.4 1059.3 789.3C1070.6 761 1078.8 736.8 1082.5 725.4C1099.9 671 1108.6 607.9 1111.3 587.1C1091.1 589.5 1071 592.1 1050.9 594.7Z" fill="#6D6C6C"/>
<path opacity="0.19" d="M1083.9 721.8C1044.7 772.9 1026.4 819.2 1017.2 850.3C1008.8 878.6 1005.1 903.6 1000.3 936C993.5 982 990.9 1020.8 989.8 1048.4C996.4 1046.8 1002.9 1045.1 1009.5 1043.5C1008.4 1004.8 1011.1 971.7 1014.4 945.9C1018.4 915.3 1023 879.8 1039 837.1C1044.8 821.6 1047.6 817.2 1060.8 783.7C1071 757.5 1078.8 736 1083.9 721.8Z" fill="#6D6C6C"/>
<path d="M1175.7 1029.6C1181.3 1043.5 1187 1057.4 1192.6 1071.4C1145.6 1101.3 1123.4 1118.7 1125.9 1123.8C1129 1130.1 1169.6 1117.6 1247.7 1086.5C1239.4 1059.5 1231.1 1032.6 1222.8 1005.6C1207.1 1013.6 1191.4 1021.6 1175.7 1029.6Z" fill="#161616"/>
<path d="M1137.1 564C1161.6 586.4 1160.8 617.8 1163.9 669.8C1163.9 669.8 1171.5 797.7 1197 900.5C1203.4 926.2 1215 966.1 1236.5 1013.9C1232.9 1018.5 1223.1 1029.7 1205.9 1035.6C1188.3 1041.6 1173.3 1038.4 1167.7 1036.9C1137.1 984.7 1115.4 940.2 1101.4 909.4C1036.5 767.2 1031.3 692.3 1031.3 653.2C1031.3 613 1032 564.8 1061.9 548.7C1084.4 536.6 1117.4 546 1137.1 564Z" fill="#85C7F2"/>
<path opacity="0.15" d="M1067.7 579.3C1078.8 622 1090.8 665.4 1103.6 709.4C1137 823.6 1173.3 931.5 1211.4 1032.7C1215.1 1030.8 1219.6 1028.2 1224.2 1024.7C1228.9 1021.1 1232.6 1017.5 1235.4 1014.3C1230.2 1002.2 1223 984.7 1215.4 963.2C1203.9 930.3 1185.2 869.8 1175.5 789.2C1166.2 711.8 1161.5 673.1 1161.9 648.7C1162.2 628.6 1164 587.7 1138 565.7C1132.6 561.2 1127.3 558.5 1123.6 556.9C1104.9 564.4 1086.3 571.9 1067.7 579.3Z" fill="#6D6C6C"/>
<path opacity="0.22" d="M1163.1 674.7C1158.5 721.2 1157 783.5 1168.2 855.5C1179.5 927.9 1200 987 1218.5 1030C1224.2 1025.3 1229.9 1020.6 1235.6 1015.8C1228.8 999.7 1219.9 977.3 1211 949.9C1193.9 897.2 1186.5 856.1 1180.1 819.2C1173.6 781.4 1166.8 732.5 1163.1 674.7Z" fill="#6D6C6C"/>
<path d="M694.901 198.7C690.901 200.7 685.401 204.2 681.101 210.2C678.801 213.3 676.001 217.4 675.601 223.2C675.501 225.5 675.201 230.5 678.401 233.8C679.301 234.8 681.701 236.7 693.501 236.3C704.001 235.9 709.301 235.7 712.001 232.9C717.201 227.5 715.301 217.3 712.001 211.2C706.801 201.5 696.601 199.1 694.901 198.7Z" fill="white" stroke="#161616" stroke-width="2" stroke-miterlimit="10"/>
<path d="M755.3 223.8C769.4 239.9 792 249.5 833.5 266.6C885.8 288.2 912 299 943 302.8C976.5 306.9 994.4 302.6 1000.6 313.5C1008.7 327.6 989.7 354 970.1 376.1C955.5 372.9 940.4 368.9 924.8 363.7C839.3 335.4 777.5 285.6 736.9 244.2C731.8 245.3 723.1 246.4 713.2 243.4C704.7 240.9 692.7 234.5 693.4 229.4C694.3 223.2 716 222.1 717.3 222C710.7 219.3 701.2 214.7 690.9 207.2C687.9 205 670.7 192.3 672.8 188.3C674.6 184.8 690.2 189.6 704.9 194.1C718.3 198.2 727.6 201.1 737.8 208.1C747.6 214.7 753.3 221.5 755.3 223.8Z" fill="white" stroke="#161616" stroke-width="2" stroke-miterlimit="10"/>
<path d="M686.1 199.8C688.5 202.5 689 206.1 691.1 208.9C692.9 211.4 695.5 213.2 698.2 214.7C706.3 219.2 714.9 222.9 723.2 227C724.6 227.7 726.4 225.8 725 224.6C720.7 220.9 716.1 217.6 711.3 214.6C709.7 213.6 708.1 216.2 709.8 217.2C714.4 220.1 718.801 223.2 722.901 226.7C723.501 225.9 724.1 225.1 724.7 224.3C716.8 220.5 708.9 216.8 701.1 212.7C697.4 210.8 694.1 208.6 692.2 204.8C690.9 202.2 690.2 199.7 688.2 197.5C686.9 196.3 684.8 198.4 686.1 199.8Z" fill="white"/>
<path d="M693.9 210.3C698.5 212.3 702.9 214.9 706.9 218C708.4 219.2 710.5 217.1 709 215.9C704.8 212.6 700.3 209.9 695.4 207.7C693.6 206.9 692.1 209.5 693.9 210.3Z" fill="white"/>
<path d="M682.1 198C685.9 204.1 690.9 209.1 696.8 213.1C698.4 214.2 699.9 211.6 698.3 210.5C692.8 206.8 688.2 202.1 684.7 196.4C683.7 194.9 681.1 196.4 682.1 198Z" fill="white"/>
<path d="M686.6 206.2C688.6 208.9 690.8 211.4 693.3 213.6C695.1 215.2 703 220.9 698.9 223.8C698.1 224.3 698.9 225.6 699.7 225.1C702.5 223.2 701.4 219.8 699.7 217.5C698.4 215.8 696.6 214.5 694.9 213C692.3 210.7 690 208.2 687.9 205.5C687.3 204.6 686 205.4 686.6 206.2Z" fill="#161616"/>
<path d="M684.5 216.6C687.5 220.7 693.2 226.5 698.8 224.8C699.7 224.5 699.3 223.1 698.4 223.4C693.6 224.9 688.3 219.4 685.8 215.9C685.2 215.1 683.9 215.8 684.5 216.6Z" fill="#161616"/>
<path d="M680.1 223.6C683.4 228.1 688.2 230.7 693.8 231C694.8 231.1 694.8 229.6 693.8 229.5C688.8 229.2 684.4 226.8 681.4 222.8C680.8 222 679.5 222.8 680.1 223.6Z" fill="#161616"/>
<path d="M676.9 232.6C681.6 237.5 689.4 237.6 694.1 232.6C694.8 231.9 693.7 230.8 693 231.5C688.9 235.9 682.1 235.8 678 231.5C677.3 230.8 676.2 231.9 676.9 232.6Z" fill="#161616"/>
<path d="M677.9 197.8C689 205.1 697 217.4 710.9 219.8C711.8 220 712.3 218.5 711.3 218.4C697.6 216.1 689.6 203.8 678.7 196.6C677.8 195.9 677.1 197.2 677.9 197.8Z" fill="#161616"/>
<path opacity="0.2" d="M676.701 230.5C673.101 225.6 676.1 215.1 684.8 205.2C694.6 210.9 704.3 216.7 714.1 222.4C712.3 222.4 696.501 222.6 695.401 227.5C695.201 228.3 695.401 229.5 696.901 231.2C701.901 233.6 710.3 236.8 721.1 237.1C726.7 237.2 731.601 236.5 735.401 235.6C755.801 256.2 791.7 287.3 844.5 309.9C890.9 329.7 932.5 335.4 960 337C959.1 348.8 958.201 360.5 957.301 372.3C912.001 360.3 850.6 337.5 789.6 291.7C768.8 276.1 751 260 735.8 244.5C721.8 246.8 713.1 244.4 707.6 241.6C702.9 239.2 699.901 236.2 693.701 235.7C689.601 235.4 686.1 236.4 681.6 234.2C681.1 234 678.201 232.5 676.701 230.5Z" fill="#6D6C6C"/>
<path opacity="0.14" d="M805.5 301.1C819.5 308.6 835.7 316.2 854.2 322.7C894.5 337 931 341.5 958.9 342.5C958.5 352.7 958.2 363 957.8 373.2C928.8 366.4 892.4 354.5 853.8 332.9C835.3 322.6 819.3 311.7 805.5 301.1Z" fill="#6D6C6C"/>
<path d="M963.6 329.6C957.9 342.5 957.6 353.2 957.1 372.4C956.7 386.9 957.7 402.5 965.5 443.5C975 493.1 979.5 501.1 981 527.4C982.2 548 980.6 564.9 979.1 576.1C991.7 583 1012.8 592.4 1040.4 594.5C1089.2 598.2 1125.3 576.7 1137.7 568.5C1139.2 537.1 1140.7 505.6 1142.3 474.2C1136.8 447.4 1130.3 426.4 1125.6 412.6C1110.8 369.1 1097 348.5 1105.8 326.7C1110.7 314.6 1120.4 307.2 1127.1 303.1C1122.4 299.5 1073.1 263 1019.3 281.9C1013.7 283.8 978.3 296.3 963.6 329.6Z" fill="white" stroke="#161616" stroke-width="2" stroke-miterlimit="10"/>
<path opacity="0.19" d="M1019.1 281.8C1034.1 305.8 1042.5 327 1047.3 341.8C1047.3 341.8 1070.8 413.2 1053.6 509C1049.9 529.4 1043.3 558.4 1030.3 591.6C1035.3 592.7 1041.3 593.6 1048.1 593.9C1048.1 593.9 1058.6 594.4 1070.4 592.9C1084.8 591 1109.5 583.3 1138.6 568.5C1139.1 535 1139.6 501.6 1140.1 468.1C1132.7 439.8 1125.2 417.1 1119.6 401.2C1106.1 363.3 1096.6 345.5 1104.4 326.7C1109.5 314.4 1119.9 306.8 1128 302.4C1117.4 295.4 1097.8 284.5 1071 280.3C1048.9 276.9 1030.7 279.3 1019.1 281.8Z" fill="#6D6C6C"/>
<path opacity="0.11" d="M1032.8 279.5C1048.9 299.3 1067.7 328.2 1079.3 366.3C1112.2 475.1 1058.1 570.5 1045.6 591.4C1056.1 591.3 1068.4 590.4 1081.8 587.8C1105.7 583.2 1124.8 575 1138.5 567.7C1139 536.5 1139.5 505.3 1140 474.2C1131.5 445.3 1123.5 417.9 1112.6 380.7C1105.2 355.2 1099.4 334.3 1110.3 317.6C1115.6 309.5 1123 305 1128.6 302.4C1096.7 294.7 1064.7 287.1 1032.8 279.5Z" fill="#6D6C6C"/>
<path d="M1025.4 483.8C1025.1 462.4 1024.9 441.1 1024.6 419.7C1075.9 417.1 1127.2 414.5 1178.6 411.9C1180.4 431.7 1182.2 451.5 1184.1 471.3C1131.2 475.5 1078.3 479.6 1025.4 483.8Z" fill="white" stroke="#161616" stroke-width="2" stroke-miterlimit="10"/>
<path d="M1009.8 476.8C1009.8 469 1009.8 461.2 1009.8 453.4C1075.7 448.5 1141.6 443.5 1207.5 438.6C1208 448.2 1208.5 457.9 1209.1 467.5C1142.7 470.5 1076.2 473.7 1009.8 476.8Z" fill="white" stroke="#161616" stroke-width="2" stroke-miterlimit="10"/>
<path d="M1015.3 441.6C1016.1 453.1 1016.9 464.5 1017.6 476C1078.6 471.1 1139.5 466.1 1200.5 461.2C1201 450.8 1201.5 440.4 1202.1 429.9C1139.8 433.8 1077.5 437.7 1015.3 441.6Z" fill="white" stroke="#161616" stroke-width="2" stroke-miterlimit="10"/>
<path d="M1000.4 467.4C1002.2 513 1004 558.6 1005.9 604.2C1073.9 596.6 1141.9 589.1 1209.9 581.5C1212 536.7 1214.1 491.9 1216.2 447.1C1144.2 453.9 1072.3 460.6 1000.4 467.4Z" fill="white" stroke="#161616" stroke-width="2" stroke-miterlimit="10"/>
<path d="M1012 485.2C1042.9 481.1 1073.8 478.2 1104.9 476.4C1106.3 476.3 1106.3 474.1 1104.9 474.1C1073.8 475.9 1042.8 478.8 1012 482.9C1010.6 483.1 1010.6 485.4 1012 485.2Z" fill="#161616"/>
<path d="M1046.5 491.3C1070.2 488.3 1093.9 485.2 1117.7 482.2C1119.1 482 1119.1 479.8 1117.7 479.9C1094 482.9 1070.3 486 1046.5 489C1045.1 489.3 1045.1 491.5 1046.5 491.3Z" fill="#161616"/>
<path d="M1160.4 555.3C1160 561.6 1160 568 1160.6 574.3C1160.7 575.7 1163 575.7 1162.9 574.3C1162.3 568 1162.2 561.6 1162.7 555.3C1162.8 553.9 1160.5 553.9 1160.4 555.3Z" fill="#161616"/>
<path d="M1161.4 555.5C1173.8 555.8 1186.1 555.1 1198.4 553.5C1198 553.1 1197.6 552.7 1197.3 552.4C1197.1 558.2 1197.3 563.9 1197.7 569.6C1197.8 571 1200.1 571 1200 569.6C1199.5 563.9 1199.4 558.1 1199.6 552.4C1199.6 551.8 1199.1 551.2 1198.5 551.3C1186.2 552.9 1173.9 553.5 1161.5 553.3C1159.9 553.2 1159.9 555.4 1161.4 555.5Z" fill="#161616"/>
<path d="M1162.3 576.1C1174.6 576.3 1186.7 575 1198.7 572.3C1200.1 572 1199.5 569.8 1198.1 570.1C1186.3 572.7 1174.4 574 1162.3 573.8C1160.9 573.8 1160.9 576 1162.3 576.1Z" fill="#161616"/>
<path d="M1167 562.5C1174.6 563 1182.1 562.6 1189.7 561.4C1191.1 561.2 1190.5 559 1189.1 559.2C1181.8 560.4 1174.4 560.7 1167 560.2C1165.6 560.1 1165.6 562.4 1167 562.5Z" fill="#161616"/>
<path d="M1171.8 568.8C1179.7 568.6 1187.3 567.1 1194.8 564.4C1196.1 563.9 1195.6 561.7 1194.2 562.2C1187 564.9 1179.5 566.3 1171.8 566.6C1170.4 566.5 1170.3 568.8 1171.8 568.8Z" fill="#161616"/>
<path opacity="0.2" d="M1032.7 599C1034.5 556.8 1036.3 514.6 1038 472.3C1096.4 467.6 1154.9 463 1213.3 458.3C1212 498.3 1210.6 538.3 1209.3 578.3C1150.4 585.2 1091.6 592.1 1032.7 599Z" fill="#6D6C6C"/>
<path opacity="0.2" d="M1191.3 431C1191.6 442.6 1191 456.4 1188 471.7C1180.6 509.3 1162.8 536.4 1150.7 551.7C1158.9 562.6 1167.1 573.5 1175.4 584.4C1150.3 587.3 1125.2 590.2 1100.1 593.1C1104.1 547.3 1108.1 501.5 1112.1 455.8C1110.8 449.8 1109.4 443.8 1108.1 437.8C1135.8 435.4 1163.6 433.2 1191.3 431Z" fill="#6D6C6C"/>
<path d="M1121.7 300.4C1142.6 297.6 1167.5 345.6 1177.4 380.1C1188.8 419.8 1183.8 454.1 1179.7 472.2C1171.7 507.7 1155.1 532.7 1144.7 546.2C1146.3 551.5 1150 565.9 1143.9 581.7C1134.9 604.8 1110.5 615.9 1108.6 613.8C1108 613.1 1109.2 610.2 1118.7 599.3C1116.7 601.4 1102.3 615.7 1086.1 612.3C1083.3 611.7 1079.8 611 1077.8 608.2C1073.1 601.4 1080.9 586 1097.5 568.9C1079.4 573.4 1074.6 572.2 1073.7 570.2C1071.4 565.4 1089.9 551.8 1096.6 546.8C1106.5 539.5 1115.4 534.5 1121.5 531.4C1138.6 495.9 1137.7 468.2 1136.2 455.2C1134 436 1126.8 415.1 1125.4 411.1C1121.4 399.6 1119.5 397 1111.5 376.3C1098.6 343.1 1098.6 337.4 1099.1 333C1100.9 319.8 1109.8 302 1121.7 300.4Z" fill="white" stroke="#161616" stroke-width="2" stroke-miterlimit="10"/>
<path d="M1078.2 605.4C1089.3 599.1 1099 591 1107.1 581.2C1108.3 579.7 1106.2 577.6 1105 579.1C1097.1 588.7 1087.6 596.7 1076.7 602.9C1075 603.7 1076.5 606.3 1078.2 605.4Z" fill="#161616"/>
<path d="M1088 612.1C1099 606.4 1108.4 598.5 1116 588.7C1117.2 587.2 1114.6 585.7 1113.4 587.2C1106.2 596.6 1097 604.1 1086.5 609.5C1084.8 610.4 1086.3 613 1088 612.1Z" fill="#161616"/>
<path opacity="0.17" d="M1113.3 305.2C1093.4 322.5 1174.6 398.4 1160.7 484.6C1151.2 543.7 1111.8 582.3 1111.8 582.3C1100.8 593.3 1080.1 606.8 1082.6 611.5C1084.4 614.9 1096.9 611.8 1101.4 610.4C1109.9 607.8 1115.8 603.4 1119.1 600.5C1114.1 606.1 1108.4 613 1109.6 614.4C1111.3 616.2 1125.5 608.8 1134.4 598.4C1149.8 580.4 1147.6 555.4 1146.1 545.2C1149.7 540.5 1154.4 533.9 1159.2 525.5C1163.6 518 1176.3 494.6 1181.8 462.8C1191.5 406.5 1171.6 362.1 1163.6 344.7C1156.4 329.2 1144.2 303.5 1125.7 302.4C1123.3 302.1 1117.2 301.8 1113.3 305.2Z" fill="#6D6C6C"/>
<path opacity="0.22" d="M1180.7 461.2C1175.3 476.9 1168.9 493.4 1161.3 510.7C1155.9 523 1150.4 534.5 1144.8 545.4C1142 554.4 1136.7 567.9 1126.2 581.8C1115.2 596.4 1103.1 605.3 1095 610.4C1097.3 610.5 1100.1 610.3 1103.2 609.5C1111 607.7 1116.2 603.4 1118.8 600.8C1115.8 604.6 1112.7 608.3 1109.7 612.1C1112.1 611.7 1115.9 611 1120.1 609.1C1142.1 599.2 1146.7 572.3 1147 570.5C1147.8 565.6 1148.3 557.2 1145.3 546.8C1152.5 538.3 1161.6 525.6 1168.9 508.5C1177 489.7 1179.7 472.8 1180.7 461.2Z" fill="#6D6C6C"/>
<path d="M940.6 234.6C924.5 253 935.6 278.7 937.1 282.2C942.7 295.2 957.2 313.7 975.6 312.2C989 311 997.5 299.7 999.6 296.7C1014.4 275.4 1009.5 234.7 984.5 224.2C970.7 218.4 951.7 221.8 940.6 234.6Z" fill="#161616"/>
<path d="M981.2 251C981.9 258.9 990.2 260.6 995.8 273.6C999.8 283 999.8 292.2 999.1 298.8C1005.6 299.4 1017.6 299.7 1031.2 294.5C1041.9 290.4 1049.4 284.5 1053.9 280.4C1051.8 275.7 1048.7 268.8 1045 260.6C1029 225.7 1026.4 222.7 1022.5 221.2C1006.9 215.3 979.9 236.3 981.2 251Z" fill="white" stroke="#161616" stroke-width="2" stroke-miterlimit="10"/>
<path d="M923.6 147.7C920.2 152.5 918.1 158.4 917.8 183.7C917.6 205.3 918.8 225 920.8 242.5C925.3 239.9 929.8 237.3 934.3 234.7C936.3 239.6 939.7 246.3 945.5 252.8C957 265.7 971 270.1 977.2 271.7C983.7 270.1 999.9 265.1 1012.2 249.8C1020.3 239.6 1022.9 229.5 1023.5 227.2C1027.2 212.1 1023.6 199.6 1021.7 194.4C1024.1 193.3 1027.8 191.2 1030.6 187.4C1036.5 179.4 1038.1 165.1 1030.8 160.3C1025.4 156.7 1015.8 158.8 1008.6 166.2C1007 162.5 1004.5 157.4 1000.5 152.1C999.5 150.8 992 141 982.8 135.9C965.1 125.7 935.8 130.5 923.6 147.7Z" fill="white" stroke="#161616" stroke-width="2" stroke-miterlimit="10"/>
<path d="M916.3 179.1C912.3 178.4 904.9 176.3 901.4 170.2C895.4 159.9 904.2 144.2 906.4 140.3C908.2 137 913 129.1 933.4 114.8C948.9 103.9 956.699 98.5001 965.099 95.9001C994.899 87.0001 1022.2 102.4 1027.3 105.3C1038 111.4 1044.8 118 1050.2 123.2C1058.5 131.2 1067.8 140.4 1078.2 151C1104.9 185.6 1114.3 217.2 1118.1 236.1C1122.4 257.5 1126.8 279.3 1114 292.1C1101.2 304.9 1077.8 302.3 1063.5 296.2C1043.6 287.7 1035.1 269.7 1028.5 255.8C1017.3 232 1016.6 209.2 1017.7 194.4C1027.7 191.5 1032.8 182.1 1030.5 175C1028.7 169.4 1022 163.8 1015.1 165.8C1009.8 167.3 1006 172.8 1006.3 179.2C1001.5 179.1 988.7 178 976.5 168.8C967.6 162.1 963.1 154.1 961 149.7C955.5 150.4 944.5 152.4 933.4 160.4C924.1 166.8 918.9 174.5 916.3 179.1Z" fill="#161616"/>
<path opacity="0.24" d="M982.5 198.2C994.5 212.7 998.3 228 998.3 228C1002.2 245.2 996.6 259.8 994.1 265.7C1000.4 260.9 1006.8 256.1 1013.1 251.3C1017.5 265.9 1021.8 280.4 1026.2 295C1029.5 294.7 1036.3 293.5 1043.1 288.7C1048.3 285 1051.4 280.7 1053.1 278C1045 270.5 1029.5 253.9 1022.4 227.8C1019 215.2 1018.5 204 1018.9 195.6C1028 191.9 1032.7 183 1030.8 175.6C1029.4 170.2 1023.9 163.7 1016.8 164.7C1010.9 165.6 1006 171.4 1006.1 178.5C1001.6 178.5 991 178 979.9 171.3C968.4 164.4 962.9 154.8 960.8 150.7C961.3 169.9 967.2 181 972.5 187.6C976 192.1 977.6 192.3 982.5 198.2Z" fill="#6D6C6C"/>
<path d="M936 194C934.9 198 935 202.1 936.5 206C937 207.4 938.9 207.5 939.4 206C940.6 202.4 940.6 198.6 939.5 195C938.9 193.2 936 193.9 936.6 195.8C937.6 199 937.5 202.1 936.5 205.3C937.5 205.3 938.4 205.3 939.4 205.3C938.1 201.9 937.9 198.4 938.9 194.9C939.4 192.9 936.6 192.1 936 194Z" fill="#161616"/>
<path d="M932.4 187.8C935 186.2 938.2 186.5 940.4 188.6C941.8 189.9 943.9 187.8 942.5 186.5C939.4 183.5 934.6 182.9 930.9 185.2C929.3 186.2 930.8 188.8 932.4 187.8Z" fill="#161616"/>
<path d="M943.199 213.2C945.099 213.2 945.099 210.2 943.199 210.2C941.199 210.2 941.199 213.2 943.199 213.2Z" fill="#161616"/>
<path d="M949.8 204.5C949.8 204.6 949.8 204.7 949.8 204.8C949.8 205.6 950.5 206.3 951.3 206.3C952.1 206.3 952.8 205.6 952.8 204.8C952.8 204.7 952.8 204.6 952.8 204.5C952.8 203.7 952.1 203 951.3 203C950.5 203 949.8 203.6 949.8 204.5Z" fill="#161616"/>
<path d="M950.1 212C952 212 952 209 950.1 209C948.2 209 948.2 212 950.1 212Z" fill="#161616"/>
<path d="M908.899 198.6C907.699 202.6 907.799 206.7 909.199 210.6C909.699 212 911.599 212 912.099 210.6C913.299 207 913.399 203.2 912.399 199.6C911.899 197.7 908.999 198.5 909.499 200.4C910.399 203.6 910.299 206.7 909.199 209.8C910.199 209.8 911.099 209.8 912.099 209.8C910.899 206.4 910.699 202.9 911.799 199.4C912.299 197.5 909.399 196.7 908.899 198.6Z" fill="#161616"/>
<path d="M907.199 191.1C909.299 190 912.199 190.5 913.599 192.5C914.699 194 917.299 192.5 916.199 191C913.699 187.7 909.399 186.6 905.699 188.5C903.999 189.4 905.499 192 907.199 191.1Z" fill="#161616"/>
<path d="M940.9 245.5C948.6 244.1 955.3 240 960.3 233.9C961.2 232.8 959.6 231.2 958.7 232.3C954 238.1 947.7 241.9 940.3 243.3C938.9 243.6 939.5 245.8 940.9 245.5Z" fill="#161616"/>
<path d="M956.5 232.5C958.3 233.1 959.8 234 961.1 235.3C962.1 236.3 963.7 234.7 962.7 233.7C961.1 232.1 959.2 231 957.1 230.3C955.7 229.9 955.1 232.1 956.5 232.5Z" fill="#161616"/>
<path opacity="0.45" d="M1018.8 101.7C1031.5 119.3 1047.8 144.2 1063.3 176C1079.7 209.6 1091.7 234.9 1082.4 244.9C1070.1 258.2 1027.6 237.1 1020.8 233.6C1022.2 242.7 1025.7 257.2 1036 271.7C1041.2 279 1050.3 291.9 1067.1 297.9C1077.2 301.5 1086.2 301.3 1089.7 301C1094.4 300.7 1099.8 300.3 1105.7 297.1C1105.7 297.1 1113.4 293 1118.6 284.6C1126.5 271.8 1122.3 254.5 1116.7 232.8C1110 206.8 1101 189.5 1092.2 172.4C1090 168.2 1087.4 163.3 1083.2 157.6C1079 151.8 1075.9 148.7 1062.9 136.2C1043.6 117.5 1040.6 114.8 1034.8 110.9C1028.4 106.5 1022.7 103.6 1018.8 101.7Z" fill="#161616"/>
<path opacity="0.43" d="M994.7 271.8C995.5 274.1 997.3 280.6 994.7 287.8C990.8 298.5 980 302.1 978.3 302.6C966 306.6 950.5 300.3 940.1 286.6C941.5 290.2 944.6 296.6 951 302.2C954.2 305 962.9 312.5 975.2 311.6C977.3 311.4 990.8 310.4 997 298.7C1001.5 290.4 1000.5 280 994.7 271.8Z" fill="#161616"/>
</g>
<defs>
<clipPath id="clip0">
<rect width="1274" height="1170" fill="white"/>
</clipPath>
</defs>
</svg>
