<svg width="1274" height="1170" viewBox="0 0 1274 1170" fill="none" xmlns="http://www.w3.org/2000/svg">
<g clip-path="url(#clip0)">
<path d="M163.7 991.3C199.2 991.3 234.7 991.3 270.2 991.3C272.1 991.3 272.1 988.3 270.2 988.3C234.7 988.3 199.2 988.3 163.7 988.3C161.8 988.3 161.8 991.3 163.7 991.3Z" fill="#161616"/>
<path d="M276.601 1020.3C351.901 1020.3 427.101 1020.3 502.401 1020.3C504.301 1020.3 504.301 1017.3 502.401 1017.3C427.101 1017.3 351.901 1017.3 276.601 1017.3C274.701 1017.3 274.701 1020.3 276.601 1020.3Z" fill="#161616"/>
<path d="M563.7 992.9C637.2 992.9 710.6 992.9 784.1 992.9C857.2 992.9 930.4 992.9 1003.5 992.9C1045.1 992.9 1086.6 992.9 1128.2 992.9C1130.1 992.9 1130.1 989.9 1128.2 989.9C1054.7 989.9 981.3 989.9 907.8 989.9C834.7 989.9 761.5 989.9 688.4 989.9C646.8 989.9 605.3 989.9 563.7 989.9C561.8 989.9 561.8 992.9 563.7 992.9Z" fill="#161616"/>
<path d="M889.5 971.9C974.9 971.9 1060.3 971.9 1145.7 971.9C1170 971.9 1194.2 971.9 1218.5 971.9C1220.4 971.9 1220.4 968.9 1218.5 968.9C1133.1 968.9 1047.7 968.9 962.3 968.9C938 968.9 913.8 968.9 889.5 968.9C887.6 968.9 887.6 971.9 889.5 971.9Z" fill="#161616"/>
<path d="M1058.9 1025.1C1134.5 1025.1 1210.2 1025.1 1285.8 1025.1C1307.5 1025.1 1329.1 1025.1 1350.8 1025.1C1352.7 1025.1 1352.7 1022.1 1350.8 1022.1C1275.2 1022.1 1199.5 1022.1 1123.9 1022.1C1102.2 1022.1 1080.6 1022.1 1058.9 1022.1C1056.9 1022.1 1056.9 1025.1 1058.9 1025.1Z" fill="#161616"/>
<path d="M1076 63.1001C1096.3 73.0001 1102.7 96.4001 1105 117.1C1108.1 144.9 1107.4 173.6 1107.2 201.5C1106.8 262.5 1103.2 323.5 1099.9 384.4C1093.4 506.1 1086.8 627.8 1080.3 749.5C1076.6 818 1072.9 886.5 1069.3 955C1069.2 956.9 1072.2 956.9 1072.3 955C1079 830.6 1085.7 706.2 1092.3 581.9C1095.6 520 1098.9 458.2 1102.3 396.3C1105.6 334.7 1109.4 273.1 1110.2 211.4C1110.4 194.2 1110.4 177 1110 159.7C1109.7 145 1109.6 130.2 1107.9 115.6C1105.3 94.3001 1098.4 70.5001 1077.6 60.4001C1075.8 59.7001 1074.3 62.3001 1076 63.1001Z" fill="#161616"/>
<path d="M1023.5 43.3001C1046.3 47.1001 1067.7 55.9001 1086.6 69.1001C1088.2 70.2001 1089.7 67.6001 1088.1 66.5001C1069 53.2001 1047.2 44.3001 1024.3 40.4001C1022.4 40.0001 1021.6 42.9001 1023.5 43.3001Z" fill="#161616"/>
<path d="M935 14.0999C966.1 17.2999 999.6 21.3999 1023.5 43.6999C1024.9 44.9999 1027 42.8999 1025.6 41.5999C1001.1 18.6999 967 14.3999 935 11.0999C933 10.8999 933.1 13.8999 935 14.0999Z" fill="#161616"/>
<path d="M1022.8 43.8C1018.5 75.8 1000.8 105.3 974.5 124C972.9 125.1 974.4 127.7 976 126.6C1003.3 107.1 1021.4 77 1025.8 43.8C1026.1 41.9 1023.1 41.9 1022.8 43.8Z" fill="#161616"/>
<path d="M933.1 12.4C959.3 44.2 973.4 84.9 972.6 126.1C972.6 128 975.6 128 975.6 126.1C976.3 84.1 961.9 42.7 935.2 10.3C934 8.79997 931.9 10.9 933.1 12.4Z" fill="#161616"/>
<path d="M948.801 47.3C936.801 46.5 925.701 61.6 931.501 72.8C935.801 81.1 952.101 85.5 957.801 76.5C958.801 74.9 956.201 73.4 955.201 75C950.701 82.2 936.701 77.3 934.001 70.8C930.001 61.4 939.201 49.6 948.901 50.3C950.701 50.4 950.701 47.4 948.801 47.3Z" fill="#161616"/>
<path d="M932.301 11.8C933.401 25.8 935.601 39.7 939.001 53.3C939.501 55.2 942.401 54.4 941.901 52.5C938.601 39.1 936.401 25.5 935.301 11.8C935.101 9.9 932.101 9.9 932.301 11.8Z" fill="#161616"/>
<path d="M951 81.8999C957.6 96.8999 964.2 111.9 970.7 126.9C971.5 128.7 974.1 127.1 973.3 125.4C966.7 110.4 960.1 95.3999 953.6 80.3999C952.9 78.6999 950.3 80.1999 951 81.8999Z" fill="#161616"/>
<path d="M951.8 80.5999C955.7 91.7999 959.7 103 965.8 113.3C966.8 115 969.3 113.5 968.4 111.8C963 101.7 959.1 91.0999 956.6 79.9999C955.8 80.4999 954.9 80.9999 954.1 81.4999C954.2 81.5999 954.2 81.5999 954.3 81.6999C954.2 81.0999 954.1 80.4999 954.1 79.8999C954 79.9999 954 80.0999 953.9 80.1999C954.7 80.0999 955.5 79.9999 956.3 79.8999C956.2 79.6999 965.1 71.5999 965.7 71.0999C964.9 70.8999 964 70.6999 963.2 70.3999C965.3 79.4999 966.7 88.6999 967.6 97.9999C968.6 97.8999 969.6 97.6999 970.5 97.5999C968.8 91.0999 966.6 84.6999 964 78.4999C963.3 76.7999 960.7 77.3999 961.1 79.2999C962.8 87.3999 964.4 95.4999 966.1 103.7C967.1 103.4 968 103.2 969 102.9C966.8 96.0999 964.4 89.4999 961.7 82.8999C961 81.0999 958.3 81.7999 958.8 83.6999C960.8 91.1999 962.8 98.7999 964.8 106.3C965.7 105.9 966.6 105.5 967.5 105.1C964.7 98.5999 962 92.0999 959.2 85.4999C958.5 83.9999 955.9 85.0999 956.5 86.6999C960.5 97.4999 964.5 108.3 968.3 119.2C968.9 121 971.7 120.3 971.2 118.4C969.7 113.1 968.6 107.7 968.1 102.2C967.1 102.3 966.1 102.5 965.2 102.6C967 108.8 968.8 115 970.6 121.2C971.1 123.1 973.9 122.3 973.5 120.4C971.9 113.4 970.8 106.3 970.1 99.0999C969.1 99.1999 968.1 99.3999 967.2 99.4999C968.5 106.8 969.7 114.1 971.5 121.3C971.9 122.9 974.6 122.6 974.4 120.9C973.6 111.9 972.1 103 969.9 94.1999C969.4 92.2999 966.6 93.0999 967 94.9999C967.7 98.0999 967.7 101.1 967.3 104.3C968.2 104 969.2 103.8 970.1 103.5C967.6 99.1999 966 94.7999 965.4 89.8999C965.2 88.3999 963.5 87.7999 962.6 89.0999C961.9 90.0999 961.3 91.0999 960.6 92.0999C961.5 92.0999 962.3 92.0999 963.2 92.0999C961.9 89.0999 961.4 86.2999 961.5 82.9999C960.5 82.9999 959.5 82.9999 958.5 82.9999C958.3 83.6999 958.1 84.3999 957.9 85.0999C958.7 85.2999 959.6 85.4999 960.4 85.7999C959.9 83.1999 959.9 81.1999 960.1 78.6999C959.1 78.7999 958.1 78.9999 957.2 79.0999C957 80.1999 956.9 81.2999 956.7 82.3999C957.6 82.3999 958.4 82.3999 959.3 82.3999C959.7 80.9999 960.2 79.5999 960.6 78.1999C959.9 77.8999 959.1 77.5999 958.4 77.2999C957.9 78.8999 957.4 80.4999 956.9 82.0999C957.7 82.5999 958.6 83.0999 959.4 83.5999C960.1 80.3999 961.5 78.0999 963.9 75.7999C963.1 75.5999 962.2 75.3999 961.4 75.0999C961.8 77.7999 961.5 79.9999 960.6 82.5999C961.6 82.6999 962.6 82.8999 963.5 82.9999C963.5 80.7999 963.8 78.8999 964.6 76.7999C963.6 76.6999 962.6 76.4999 961.7 76.3999C961.7 78.1999 961.8 79.9999 961.8 81.7999C961.8 83.3999 964.5 83.8999 964.7 82.1999C965 80.3999 965.3 78.5999 965.6 76.7999C964.6 76.7999 963.7 76.7999 962.7 76.7999C962.7 77.7999 962.6 78.7999 962.6 79.8999C961.8 81.6999 964.4 83.1999 965.2 81.3999C966.1 79.3999 966.3 78.1999 965.6 75.9999C965.2 74.6999 963 74.4999 962.7 75.9999C962.4 77.7999 962.1 79.5999 961.8 81.3999C962.8 81.4999 963.8 81.6999 964.7 81.7999C964.7 79.9999 964.6 78.1999 964.6 76.3999C964.6 74.6999 962.2 74.3999 961.7 75.9999C960.8 78.3999 960.5 80.4999 960.5 82.9999C960.5 84.6999 962.9 84.9999 963.4 83.3999C964.5 80.2999 964.7 77.5999 964.2 74.2999C964 73.0999 962.4 72.9999 961.7 73.5999C959 76.0999 957.3 79.0999 956.4 82.6999C956.1 84.0999 957.8 85.2999 958.9 84.1999C961 81.8999 961.7 79.5999 961.1 76.4999C960.9 75.5999 959.6 75.0999 958.9 75.5999C955.9 77.5999 955.1 80.5999 956.5 83.8999C957 84.9999 958.5 84.6999 959.1 83.8999C960.4 81.9999 960.6 80.3999 959.9 78.2999C959.3 76.5999 957.1 76.9999 957 78.6999C956.7 81.3999 956.9 83.8999 957.4 86.5999C957.6 87.6999 959.2 87.9999 959.9 87.2999C961.1 85.9999 961.6 84.9999 961.4 83.0999C961.2 81.1999 958.4 81.0999 958.4 83.0999C958.3 86.8999 959 90.1999 960.5 93.6999C961 94.7999 962.5 94.4999 963.1 93.6999C963.8 92.6999 964.4 91.6999 965.1 90.6999C964.2 90.3999 963.2 90.1999 962.3 89.8999C963 95.3999 964.6 100.3 967.4 105C968.2 106.4 970 105.6 970.2 104.2C970.7 100.7 970.5 97.5999 969.8 94.0999C968.8 94.3999 967.9 94.5999 966.9 94.8999C969.1 103.4 970.5 112.1 971.3 120.8C972.3 120.7 973.3 120.5 974.2 120.4C972.5 113.2 971.2 105.9 969.9 98.5999C969.6 96.8999 966.8 97.2999 967 98.9999C967.7 106.5 968.8 113.8 970.5 121.1C971.5 120.8 972.4 120.6 973.4 120.3C971.6 114.1 969.8 107.9 968 101.7C967.5 100.1 964.9 100.4 965.1 102.1C965.7 107.9 966.7 113.5 968.3 119.1C969.3 118.8 970.2 118.6 971.2 118.3C967.3 107.4 963.4 96.5999 959.4 85.7999C958.5 86.1999 957.6 86.5999 956.7 86.9999C959.5 93.4999 962.2 99.9999 965 106.6C965.7 108.2 968.2 107 967.7 105.4C965.7 97.8999 963.7 90.2999 961.7 82.7999C960.7 83.0999 959.8 83.2999 958.8 83.5999C961.4 90.1999 963.8 96.8999 966.1 103.6C966.7 105.4 969.4 104.7 969 102.8C967.3 94.6999 965.7 86.5999 964 78.3999C963 78.6999 962.1 78.8999 961.1 79.1999C963.7 85.3999 965.9 91.7999 967.6 98.2999C968 99.8999 970.7 99.5999 970.5 97.8999C969.6 88.2999 968.1 78.8999 966 69.4999C965.7 68.3999 964.3 68.0999 963.5 68.7999C960.7 71.3999 955.8 74.4999 953.9 77.8999C953 79.5999 953 80.4999 954.1 81.7999C954.8 82.5999 955.9 82.1999 956.5 81.4999C956.6 81.3999 956.6 81.2999 956.7 81.1999C957.1 80.6999 956.9 79.7999 956.5 79.3999C956.4 79.2999 956.4 79.2999 956.3 79.1999C955.2 78.0999 953.5 79.1999 953.8 80.6999C956.3 92.0999 960.3 103 965.9 113.2C966.8 112.7 967.6 112.2 968.5 111.7C962.6 101.6 958.6 90.6999 954.8 79.6999C954 77.9999 951.1 78.7999 951.8 80.5999Z" fill="#161616"/>
<path d="M933.901 16.1C936.801 26.8 938.901 37.6 940.301 48.5C940.401 49.6 941.5 50.4 942.6 49.8C945.9 48 949.201 46.7 952.901 45.8C953.801 45.6 954.301 44.4 953.801 43.6C949.201 36.7 944.901 29.6 940.901 22.4C940.001 20.7 937.501 22.2 938.301 23.9C941.001 29.8 943.101 35.9 944.801 42.1C945.701 41.7 946.601 41.3 947.501 40.9C945.201 36.5 943.6 32 942.6 27.1C941.7 27.5 940.801 27.9 939.901 28.3C943.601 33.7 945.601 39.6 945.901 46.1C946.801 45.7 947.601 45.4 948.501 45C946.201 42.9 944.9 40.6 944.2 37.5C943.5 38.1 942.701 38.6 942.001 39.2C944.101 40.8 944.801 42.6 944.301 44.7C945.201 44.4 946.2 44.2 947.1 43.9C944.6 40.6 942.601 37.1 940.801 33.4C940.101 34.1 939.4 34.8 938.7 35.5C941.5 37.3 945.201 55.2 952.301 47.1C954.901 44.1 953.4 40.3 951.7 37.2C948.9 32 945.401 27.2 941.801 22.6C940.701 21.2 938.601 23 939.401 24.4C943.301 31.1 946.2 38.1 948.1 45.6C949 45.2 949.901 44.8 950.801 44.4C950.401 43.5 950 42.7 949.6 41.8C948.9 42.5 948.201 43.2 947.501 43.9C947.501 43.8 947.501 43.8 947.501 43.7C946.901 44.2 946.2 44.7 945.6 45.1C946.9 45.6 948.3 46.1 949.6 46.6C951.4 47.3 952.201 44.4 950.401 43.7C949.101 43.2 947.701 42.7 946.401 42.2C945.501 41.8 944.501 42.8 944.501 43.6C944.401 51.5 955.601 45.2 949.001 41.2C947.601 40.4 946.301 42 946.901 43.3C947.301 44.2 947.7 45 948.1 45.9C948.8 47.5 951.201 46.3 950.801 44.7C948.801 36.9 945.901 29.7 941.801 22.8C941.001 23.4 940.201 24 939.401 24.6C941.601 27.5 943.7 30.4 945.7 33.4C946.5 34.6 947.301 35.8 948.001 37.1C948.601 38 949.101 39 949.501 40C951.101 42.1 949.901 43.3 945.801 43.5C944.401 42.4 944.2 38.7 943.6 37.1C942.8 35.1 941.801 33.8 940.001 32.7C938.601 31.9 937.401 33.5 937.901 34.8C939.701 38.6 941.7 42 944.2 45.3C945.1 46.5 946.801 46.1 947.001 44.5C947.401 41 946.1 38.4 943.2 36.4C942.1 35.6 940.701 36.9 941.001 38.1C941.801 41.6 943.5 44.5 946.1 46.9C947 47.7 948.7 47.2 948.7 45.8C948.4 38.7 946.201 32.3 942.301 26.5C941.301 25.1 939.2 26 939.6 27.7C940.7 32.8 942.401 37.6 944.801 42.2C945.601 43.7 948.001 42.7 947.501 41C945.801 34.5 943.5 28.2 940.7 22.1C939.8 22.6 939 23.1 938.1 23.6C942.1 30.9 946.401 37.9 951.001 44.8C951.301 44.1 951.601 43.3 951.901 42.6C948.001 43.5 944.401 44.9 940.901 46.9C941.701 47.3 942.4 47.8 943.2 48.2C941.8 37 939.7 25.9 936.7 15C936.3 13.4 933.401 14.2 933.901 16.1Z" fill="#161616"/>
<path d="M934 67.0999C931.7 61.3999 937.2 56.0999 941.6 53.4999C945.9 50.8999 950.7 49.9999 955.7 50.2999C957.1 50.3999 957.5 48.6999 956.8 47.6999C955.9 46.5999 955.1 45.4999 954.2 44.3999C953.4 43.3999 951.5 44.1999 951.6 45.4999C951.3 43.4999 948.5 44.6999 947.2 44.6999C942.4 44.5999 944.3 43.6999 944.1 40.9999C943.7 37.6999 941.8 34.2999 941 31.0999C939.8 26.3999 939.2 21.6999 938.8 16.8999C938.7 14.9999 935.7 14.9999 935.8 16.8999C936.2 22.5999 937 28.1999 938.5 33.6999C939.2 36.0999 940.9 39.0999 940.6 41.5999C940.5 42.6999 939.7 43.4999 939.7 44.5999C939.8 46.8999 942.1 48.2999 944.2 48.2999C946.5 48.2999 948.8 47.7999 951.2 47.8999C952.5 47.9999 952.7 48.2999 953.9 47.4999C954.3 47.1999 954.7 46.6999 954.6 46.1999C954.6 45.9999 954.5 45.6999 954.5 45.4999C953.6 45.8999 952.8 46.1999 951.9 46.5999C952.8 47.6999 953.6 48.7999 954.5 49.8999C954.9 48.9999 955.2 48.1999 955.6 47.2999C945.8 46.6999 925.7 54.7999 931 67.8999C931.8 69.6999 934.7 68.8999 934 67.0999Z" fill="#161616"/>
<path d="M939.701 50.3C935.301 53.9 931.901 59 931.201 64.8C930.601 69.9 933.701 74.4 937.501 77.6C947.701 86.3 958.601 76.6 965.001 68.4C966.201 66.9 964.101 64.8 962.901 66.3C957.701 73 948.601 82.8 939.701 75.5C935.801 72.3 933.401 67.9 934.701 62.8C935.801 58.6 938.501 55.1 941.901 52.4C943.401 51.2 941.201 49.1 939.701 50.3Z" fill="#161616"/>
<path d="M969.6 87.2999C969.6 87.1999 969.6 87.0999 969.5 86.9999C969.3 87.5999 969 88.0999 968.8 88.6999C968.9 88.5999 969 88.5999 969.1 88.4999C968.4 88.2999 967.7 88.0999 967 87.9999C968.4 90.1999 968.4 94.1999 968.8 96.6999C969.3 99.9999 969.8 103.4 970.2 106.7C970.8 112.4 971.1 118.1 971.3 123.9C971.3 125.8 974.3 125.8 974.3 123.9C974.1 116.9 973.7 109.9 972.8 102.9C972.5 100.2 972.1 97.5999 971.6 94.8999C971.2 92.1999 971.1 88.6999 969.6 86.3999C969.2 85.6999 968.3 85.4999 967.5 85.8999C967.4 85.9999 967.3 85.9999 967.2 86.0999C966.6 86.3999 966.3 87.1999 966.5 87.7999C966.5 87.8999 966.5 87.9999 966.6 88.0999C967.2 89.9999 970.1 89.1999 969.6 87.2999Z" fill="#161616"/>
<path d="M934.901 16.6999C938.401 21.0999 941.001 25.9999 942.701 31.3999C943.301 33.1999 946.201 32.3999 945.601 30.5999C943.701 24.6999 940.901 19.3999 937.001 14.5999C935.901 12.9999 933.701 15.1999 934.901 16.6999Z" fill="#161616"/>
<path d="M854.2 32.0999C867.9 35.9999 881.7 39.3999 895.7 42.1999C897.6 42.5999 898.4 39.6999 896.5 39.2999C882.5 36.4999 868.7 33.0999 855 29.1999C853.2 28.5999 852.4 31.4999 854.2 32.0999Z" fill="#161616"/>
<path d="M819.2 78.8C845.4 76.7 871.3 71.8 896.6 64.2C898.4 63.6 897.7 60.7 895.8 61.3C870.8 68.8 845.2 73.7 819.2 75.7C817.3 75.9 817.3 78.9 819.2 78.8Z" fill="#161616"/>
<path d="M914.4 80.2999C908.4 83.9999 902.8 88.1999 897.5 92.7999C896 94.0999 898.2 96.1999 899.6 94.8999C904.7 90.4999 910.2 86.4999 915.9 82.8999C917.6 81.8999 916.1 79.2999 914.4 80.2999Z" fill="#161616"/>
<path d="M916.3 112.4C894.9 130.9 873.4 149.4 852 167.9C850.5 169.2 852.7 171.3 854.1 170C875.5 151.5 897 133 918.4 114.5C919.9 113.3 917.8 111.1 916.3 112.4Z" fill="#161616"/>
<path d="M924.4 135.2C917.9 147.6 911.3 160.1 904.8 172.5C903.9 174.2 906.5 175.7 907.4 174C913.9 161.6 920.5 149.1 927 136.7C927.9 135 925.3 133.5 924.4 135.2Z" fill="#161616"/>
<path d="M942.001 142.2C938.701 161.7 936.701 181.4 935.901 201.2C935.801 203.1 938.801 203.1 938.901 201.2C939.701 181.7 941.701 162.2 944.901 143C945.201 141.1 942.301 140.3 942.001 142.2Z" fill="#161616"/>
<path d="M1031.6 46.2999C1057.2 42.8999 1080.3 59.5999 1092.9 80.7999C1107.8 105.8 1108.3 136.7 1107.6 165C1106.1 229.1 1103.4 293.1 1100.8 357.1C1095.6 486 1089.1 614.9 1081.5 743.8C1077.2 816.2 1072.5 888.5 1067.4 960.9C1067.1 964.8 1073.1 964.7 1073.4 960.9C1082.7 828.8 1090.7 696.7 1097.4 564.5C1104.1 432.6 1110 300.6 1113.6 168.6C1114.4 137.7 1114.2 103.8 1097.4 76.5999C1083.7 54.3999 1058.8 36.7999 1031.7 40.3999C1027.8 40.7999 1027.8 46.7999 1031.6 46.2999Z" fill="#161616"/>
<path d="M1026.2 44.9999C1033.4 45.1999 1040.6 45.2999 1047.6 46.8999C1054.9 48.5999 1060.5 52.6999 1067 55.9999C1068.7 56.8999 1070.2 54.2999 1068.5 53.3999C1061.7 49.9999 1055.9 45.7999 1048.4 43.9999C1041.1 42.2999 1033.6 42.0999 1026.2 41.8999C1024.3 41.8999 1024.3 44.8999 1026.2 44.9999Z" fill="#161616"/>
<path d="M1026.2 47C1047.6 49.1 1067.9 56.9 1085.3 69.6C1086.9 70.7 1088.4 68.1 1086.8 67C1068.9 54.1 1048.1 46.2 1026.2 44C1024.3 43.8 1024.3 46.8 1026.2 47Z" fill="#161616"/>
<path d="M1021.9 40C1031.3 41.8 1040.5 44.2 1049.5 47C1051.3 47.6 1052.1 44.7 1050.3 44.1C1041.2 41.2 1032 38.9 1022.7 37.1C1020.8 36.7 1020 39.6 1021.9 40Z" fill="#161616"/>
<path d="M1024.1 39.7C1035.8 41 1047.2 43.5 1058.3 47.1C1060.1 47.7 1060.9 44.8 1059.1 44.2C1047.7 40.5 1036 38 1024.1 36.7C1022.2 36.5 1022.2 39.5 1024.1 39.7Z" fill="#161616"/>
<path d="M987.3 22.4C1002.7 27.8 1017.4 34.6 1031.4 42.8C1033.1 43.8 1034.6 41.2 1032.9 40.2C1018.6 31.8 1003.6 24.9 988 19.5C986.3 18.9 985.5 21.8 987.3 22.4Z" fill="#161616"/>
<path d="M983.101 21.4C998.801 27.2 1013.9 34.2 1028.4 42.5C1030.1 43.5 1031.6 40.9 1029.9 39.9C1015.1 31.5 999.801 24.4 983.801 18.5C982.101 17.9 981.301 20.8 983.101 21.4Z" fill="#161616"/>
<path d="M1006.3 95.9C1015.4 79.9 1023.3 63.3 1030 46.1C1030.7 44.3 1027.8 43.5 1027.1 45.3C1020.5 62.2 1012.7 78.6 1003.7 94.4C1002.8 96 1005.4 97.5 1006.3 95.9Z" fill="#161616"/>
<path d="M1025.9 44.8999C1024.1 47.8999 1022.8 50.9999 1021.9 54.3999C1021.4 56.2999 1024.3 57.0999 1024.8 55.1999C1025.6 52.0999 1026.8 49.1999 1028.5 46.3999C1029.5 44.6999 1026.9 43.1999 1025.9 44.8999Z" fill="#161616"/>
<path d="M249.5 559.3C249.5 564.1 249.5 568.9 249.5 573.7C249.5 575.6 252.5 575.6 252.5 573.7C252.5 568.9 252.5 564.1 252.5 559.3C252.5 557.4 249.5 557.4 249.5 559.3Z" fill="#161616"/>
<path d="M251 575.8C321.1 575.8 391.2 575.8 461.3 575.8C463.2 575.8 463.2 572.8 461.3 572.8C391.2 572.8 321.1 572.8 251 572.8C249.1 572.8 249.1 575.8 251 575.8Z" fill="#161616"/>
<path d="M252.601 560.3C321.801 560.3 391.101 560.3 460.301 560.3C462.201 560.3 462.201 557.3 460.301 557.3C391.101 557.3 321.801 557.3 252.601 557.3C250.701 557.3 250.701 560.3 252.601 560.3Z" fill="#161616"/>
<path d="M458.7 559.9C458.9 564.7 458.8 569.5 458.2 574.3C458 576.2 461 576.2 461.2 574.3C461.8 569.5 462 564.7 461.7 559.9C461.6 557.9 458.6 557.9 458.7 559.9Z" fill="#161616"/>
<path d="M370.101 492.5C364.401 514.1 367.601 536.4 372.801 557.7C373.301 559.6 376.101 558.8 375.701 556.9C370.601 536 367.401 514.4 373.001 493.3C373.501 491.4 370.601 490.6 370.101 492.5Z" fill="#161616"/>
<path d="M417.8 496.5C418.5 501 419.2 505.4 419.9 509.9C420.2 511.8 423.1 511 422.8 509.1C422.1 504.6 421.4 500.2 420.7 495.7C420.4 493.8 417.5 494.6 417.8 496.5Z" fill="#161616"/>
<path d="M421.6 510.4C429.7 504.3 434.3 516.2 434.4 522.4C434.5 530.2 430.8 537.2 422.3 537.8C420.4 537.9 420.4 540.9 422.3 540.8C433.9 540.1 438.3 529.9 437.2 519.5C436.4 511.5 428.7 501.4 420.1 507.9C418.5 509 420 511.6 421.6 510.4Z" fill="#161616"/>
<path d="M421 538.8C420.4 544.8 419.3 550.6 417.9 556.5C417.4 558.4 420.3 559.2 420.8 557.3C422.3 551.2 423.4 545.1 424.1 538.8C424.2 536.8 421.2 536.9 421 538.8Z" fill="#161616"/>
<path d="M423.7 515.1C426.9 512.5 428.2 520.7 428.3 521.8C428.4 523.1 428.2 524.5 427.9 525.8C427.1 528.9 425.4 531.4 423 533.4C421.5 534.6 423.6 536.7 425.1 535.5C429.7 531.7 432.1 525.6 431.1 519.7C430.4 515.3 426.5 508.9 421.6 513C420.1 514.2 422.2 516.3 423.7 515.1Z" fill="#161616"/>
<path d="M421.2 512.6C420.8 519.6 420.9 526.6 421.4 533.7C421.5 535.6 424.5 535.6 424.4 533.7C423.9 526.7 423.8 519.7 424.2 512.6C424.3 510.6 421.3 510.6 421.2 512.6Z" fill="#161616"/>
<path d="M375.101 495.9C387.201 499.8 399.801 500.8 412.401 498.9C414.301 498.6 413.501 495.7 411.601 496C399.501 497.8 387.501 496.8 375.901 493C374.101 492.4 373.301 495.3 375.101 495.9Z" fill="#161616"/>
<path d="M382.001 488.3C376.101 484.6 383.001 476.5 384.001 471.8C385.001 467.1 382.301 464.8 380.501 460.8C377.901 455 383.901 450.7 384.801 445.1C385.601 440.2 381.601 436.1 387.001 432.1C388.501 431 387.101 428.4 385.501 429.5C382.201 431.9 380.201 435.6 380.901 439.8C381.401 442.9 382.201 444.5 380.701 447.7C380.001 449.3 379.001 450.7 378.201 452.3C377.201 454.5 376.301 456.8 376.601 459.3C376.801 461.8 378.101 462.9 379.301 464.9C382.801 470.8 379.601 473.8 377.601 479.4C376.101 483.6 376.501 488.2 380.501 490.7C382.101 491.9 383.601 489.3 382.001 488.3Z" fill="#161616"/>
<path d="M399.8 416.6C398.3 420.5 396.4 424.9 396.1 429.1C395.8 432.9 398.6 435 399.5 438.4C400.6 442.5 396.7 445.9 396.3 449.9C395.8 455.1 400.4 458.5 395.9 463.5C394.6 464.9 396.7 467.1 398 465.6C400.3 463.1 401.5 460.1 401.1 456.7C400.8 454.2 399 452.1 399.4 449.4C399.7 447.3 401.3 445.4 402 443.4C403.2 440.2 402.7 437.7 401.1 434.8C397.9 428.8 400.5 423.3 402.7 417.4C403.4 415.6 400.5 414.8 399.8 416.6Z" fill="#161616"/>
<path d="M414.6 446.4C409.9 451.3 407.7 458 409 464.8C409.4 467 410.5 469.2 410.6 471.5C410.8 474.4 409 475.8 408.2 478.3C407.1 481.5 411 486.1 408.6 488.6C407.3 490 409.4 492.1 410.7 490.7C412.2 489.1 412.6 487.3 412.2 485.1C411.8 482.7 410.4 481 411.4 478.5C412 477 413.2 476.2 413.6 474.5C414.4 470.7 412.4 467.1 411.8 463.4C410.9 457.9 412.9 452.5 416.7 448.5C418.1 447.1 415.9 445 414.6 446.4Z" fill="#161616"/>
<path d="M267.601 557.3C267.301 553.4 267.201 549.6 267.301 545.7C266.801 546.2 266.301 546.7 265.801 547.2C281.901 545.6 298.101 544.8 314.301 544.6C322.101 544.5 329.901 544.6 337.601 544.9C339.501 545 341.501 545 343.401 545.1C344.701 545.2 348.001 544.7 349.201 545.4C352.101 547.1 350.901 556.3 351.001 559.2C351.101 561.1 354.101 561.1 354.001 559.2C353.901 555.1 354.601 549.7 353.501 545.8C353.001 544.1 352.401 543.2 350.601 542.5C347.001 541.2 341.301 541.9 337.501 541.8C333.001 541.6 328.401 541.5 323.901 541.5C304.501 541.3 285.001 542.2 265.701 544.1C264.901 544.2 264.201 544.7 264.201 545.6C264.001 549.5 264.101 553.3 264.501 557.2C264.701 559.2 267.701 559.2 267.601 557.3Z" fill="#161616"/>
<path d="M292.6 542.9C292.6 541.1 291.9 537.3 292.7 535.7C294 532.8 299.4 533.6 302 533.5C307.7 533.3 313.3 533 319 532.8C324.3 532.6 329.6 532.4 335 532.2C338.4 532.1 342.2 531.1 343.6 534.9C344.4 537.1 344.1 540.5 344.3 542.8C344.5 544.7 347.5 544.7 347.3 542.8C346.9 538.8 348.1 530.4 342.9 529C340 528.2 336 529.1 332.9 529.2C328.2 529.4 323.6 529.6 318.9 529.8C310.7 530.1 301.7 529.4 293.7 530.9C288 531.9 289.6 538.6 289.5 542.9C289.6 544.8 292.6 544.8 292.6 542.9Z" fill="#161616"/>
<path d="M325.2 544.8C326.9 549.4 327.5 554 326.9 558.8C326.7 560.7 329.7 560.7 329.9 558.8C330.6 553.7 330 548.8 328.1 544C327.4 542.2 324.5 543 325.2 544.8Z" fill="#161616"/>
<path d="M325.401 531.8C327.201 535.9 327.601 540.2 326.801 544.6C326.401 546.5 329.301 547.3 329.701 545.4C330.701 540.2 330.101 535.2 328.001 530.3C327.201 528.5 324.701 530 325.401 531.8Z" fill="#161616"/>
<path d="M336.701 530.9C337.401 534.5 338.101 538.2 338.501 541.8C338.701 543.7 341.701 543.7 341.501 541.8C341.001 537.9 340.401 533.9 339.601 530.1C339.201 528.2 336.301 529 336.701 530.9Z" fill="#161616"/>
<path d="M341.801 545.3C343.301 549.3 343.601 553.3 342.701 557.4C342.301 559.3 345.101 560.1 345.601 558.2C346.701 553.6 346.401 548.9 344.701 544.5C344.001 542.7 341.101 543.5 341.801 545.3Z" fill="#161616"/>
<path d="M233.4 287.6C233.4 291.7 233.6 295.8 233.9 299.8C234.1 301.7 237.1 301.7 236.9 299.8C236.5 295.7 236.3 291.7 236.4 287.6C236.4 285.7 233.4 285.7 233.4 287.6Z" fill="#161616"/>
<path d="M236.2 303.1C308.3 303.1 380.3 303.1 452.4 303.1C454.3 303.1 454.3 300.1 452.4 300.1C380.3 300.1 308.3 300.1 236.2 300.1C234.3 300.1 234.3 303.1 236.2 303.1Z" fill="#161616"/>
<path d="M235.801 288.7C307.901 288.7 379.901 288.7 452.001 288.7C453.901 288.7 453.901 285.7 452.001 285.7C379.901 285.7 307.901 285.7 235.801 285.7C233.801 285.7 233.801 288.7 235.801 288.7Z" fill="#161616"/>
<path d="M451.4 287.6C451.4 292.3 451.4 296.9 451.4 301.6C451.4 303.5 454.4 303.5 454.4 301.6C454.4 296.9 454.4 292.3 454.4 287.6C454.4 285.7 451.4 285.7 451.4 287.6Z" fill="#161616"/>
<path d="M244.4 244.4C247.7 258.4 251 272.4 254.5 286.3C255 288.2 257.9 287.4 257.4 285.5C253.9 271.6 250.6 257.6 247.3 243.6C246.9 241.7 244 242.5 244.4 244.4Z" fill="#161616"/>
<path d="M245.8 244.2C253.2 244 260.5 243.7 267.8 243.2C271.3 243 274.8 242.7 278.3 242.4C282.3 242 286.7 241.1 290.5 242.9C292.2 243.7 293.8 241.1 292 240.3C285.8 237.3 278.1 239.4 271.5 239.9C262.9 240.5 254.3 241 245.6 241.2C243.8 241.2 243.8 244.2 245.8 244.2Z" fill="#161616"/>
<path d="M289.5 241.8C288.3 256.6 285.7 271.2 281.9 285.6C281.4 287.5 284.3 288.3 284.8 286.4C288.7 271.8 291.3 256.9 292.5 241.8C292.6 239.9 289.6 239.9 289.5 241.8Z" fill="#161616"/>
<path d="M254.9 240.6C249.1 233.7 244.5 226.6 241.6 218C239.1 210.7 237.7 203.1 236.3 195.5C235.7 196.1 235.1 196.7 234.5 197.3C252.9 203.6 262.1 221.5 265.7 239.5C266.1 241.4 269 240.6 268.6 238.7C264.8 219.6 254.7 201.1 235.3 194.5C234.1 194.1 233.3 195.3 233.5 196.3C235.1 205 236.7 213.7 239.9 221.9C242.9 229.6 247.5 236.3 252.8 242.6C254 244.2 256.1 242.1 254.9 240.6Z" fill="#161616"/>
<path d="M263.8 221.6C261.2 212.3 269.9 205.5 274.9 198.9C279.7 192.6 283.6 185.7 286.8 178.4C285.9 178.3 285 178.2 284.1 178C289 198.1 293.7 222.2 278.1 239C276.8 240.4 278.9 242.5 280.2 241.1C296.5 223.4 292.1 198.4 286.9 177.2C286.6 176 284.7 175.6 284.2 176.8C280.2 186.2 274.8 194.6 268.2 202.4C263.3 208.1 258.8 214.5 261 222.4C261.4 224.2 264.3 223.5 263.8 221.6Z" fill="#161616"/>
<path d="M334.2 286.3C334.2 280.6 334.2 274.9 334.2 269.3C334.2 267.4 331.2 267.4 331.2 269.3C331.2 275 331.2 280.7 331.2 286.3C331.2 288.3 334.2 288.3 334.2 286.3Z" fill="#161616"/>
<path d="M332.7 270.4C369 270.4 405.2 270.4 441.5 270.4C443.4 270.4 443.4 267.4 441.5 267.4C405.2 267.4 369 267.4 332.7 267.4C330.8 267.4 330.8 270.4 332.7 270.4Z" fill="#161616"/>
<path d="M440.4 270.2C440.4 275.7 440.4 281.3 440.4 286.8C440.4 288.7 443.4 288.7 443.4 286.8C443.4 281.3 443.4 275.7 443.4 270.2C443.4 268.2 440.4 268.2 440.4 270.2Z" fill="#161616"/>
<path d="M354.301 268.4C354.301 265.1 354.301 261.7 354.301 258.4C354.301 256.5 351.301 256.5 351.301 258.4C351.301 261.7 351.301 265.1 351.301 268.4C351.301 270.4 354.301 270.4 354.301 268.4Z" fill="#161616"/>
<path d="M352.8 258.6C381.3 258.6 409.9 258.6 438.4 258.6C440.3 258.6 440.3 255.6 438.4 255.6C409.9 255.6 381.3 255.6 352.8 255.6C350.9 255.6 350.9 258.6 352.8 258.6Z" fill="#161616"/>
<path d="M437.4 257.1C437.4 260.9 437.4 264.7 437.4 268.5C437.4 270.4 440.4 270.4 440.4 268.5C440.4 264.7 440.4 260.9 440.4 257.1C440.4 255.1 437.4 255.1 437.4 257.1Z" fill="#161616"/>
<path d="M377.5 255.8C377.5 250.6 377.5 245.3 377.5 240.1C377.5 238.2 374.5 238.2 374.5 240.1C374.5 245.3 374.5 250.6 374.5 255.8C374.5 257.7 377.5 257.7 377.5 255.8Z" fill="#161616"/>
<path d="M377.3 240.7C396.4 240.7 415.4 240.7 434.5 240.7C436.4 240.7 436.4 237.7 434.5 237.7C415.4 237.7 396.4 237.7 377.3 237.7C375.4 237.7 375.4 240.7 377.3 240.7Z" fill="#161616"/>
<path d="M433.9 238.7C433.9 244.4 433.9 250.1 433.9 255.7C433.9 257.6 436.9 257.6 436.9 255.7C436.9 250 436.9 244.3 436.9 238.7C436.9 236.8 433.9 236.8 433.9 238.7Z" fill="#161616"/>
<path d="M413.9 240C415.3 245.4 415.6 250.7 415.1 256.2C414.9 258.1 417.9 258.1 418.1 256.2C418.7 250.4 418.3 244.8 416.8 239.2C416.3 237.3 413.4 238.1 413.9 240Z" fill="#161616"/>
<path d="M422.9 240.9C423.4 245.3 423.6 249.6 423.4 254C423.3 255.9 426.3 255.9 426.4 254C426.6 249.6 426.5 245.3 425.9 240.9C425.7 239 422.7 239 422.9 240.9Z" fill="#161616"/>
<path d="M410.7 257.9C411.2 261.2 411.1 264.6 410.7 268C410.5 269.9 413.5 269.9 413.7 268C414.2 264.4 414.1 260.8 413.6 257.1C413.3 255.2 410.4 256 410.7 257.9Z" fill="#161616"/>
<path d="M418.3 257.4C418.9 260.1 418.7 262.7 417.8 265.4C417.2 267.2 420.1 268 420.7 266.2C421.8 263.1 421.9 259.9 421.2 256.6C420.8 254.8 417.9 255.6 418.3 257.4Z" fill="#161616"/>
<path d="M395.7 268.9C396.3 274.9 396.4 280.8 396 286.8C395.9 288.7 398.9 288.7 399 286.8C399.4 280.8 399.3 274.9 398.7 268.9C398.5 267 395.5 267 395.7 268.9Z" fill="#161616"/>
<path d="M426.5 269.3C427.2 274.9 427.2 280.4 426.3 286C426 287.9 428.9 288.7 429.2 286.8C430.1 281 430.3 275.2 429.5 269.3C429.3 267.4 426.3 267.4 426.5 269.3Z" fill="#161616"/>
<path d="M534.801 104.4C534.801 121.8 534.801 139.2 534.801 156.6C534.801 158.5 537.801 158.5 537.801 156.6C537.801 139.2 537.801 121.8 537.801 104.4C537.801 102.4 534.801 102.4 534.801 104.4Z" fill="#8B8585"/>
<path d="M492.8 158.8C520.3 158.8 547.9 158.8 575.4 158.8C577.3 158.8 577.3 155.8 575.4 155.8C547.9 155.8 520.3 155.8 492.8 155.8C490.9 155.8 490.9 158.8 492.8 158.8Z" fill="#8B8585"/>
<path d="M560.9 159.4C560.9 176.5 560.9 193.7 560.9 210.8C560.9 212.7 563.9 212.7 563.9 210.8C563.9 193.7 563.9 176.5 563.9 159.4C563.9 157.5 560.9 157.5 560.9 159.4Z" fill="#8B8585"/>
<path d="M1005 945.6C1002.4 949.9 1006.1 954.9 1014.6 973.7C1027.6 1002.4 1027 1009 1024.9 1013.4C1021.4 1020.6 1013.9 1021.5 1014.6 1025C1015.6 1030.1 1032.1 1034 1037.9 1027.7C1040.5 1024.9 1040.1 1021 1039.3 1013.3C1035.7 981.4 1035 979.1 1033.8 969.4C1031.7 952.2 1032.8 947.8 1028.3 944C1021.6 938.7 1008.6 939.8 1005 945.6Z" fill="#161616" stroke="#161616" stroke-width="3" stroke-miterlimit="10"/>
<path d="M1160.6 941.2C1168.1 935.9 1181.2 941.5 1188 948.1C1193.7 953.5 1192.4 957.1 1199 961.8C1200.5 962.9 1207.4 967.8 1216.1 967.3C1222.8 966.9 1224.1 963.6 1229.1 964.6C1232.6 965.2 1234.1 967.2 1240.8 973.5C1251.3 983.5 1255.2 985.8 1254.5 987.2C1253.8 988.5 1250.5 987.8 1236 985.8C1225.4 984.3 1219.9 983.6 1216.1 983.4C1207.4 983 1207 984.1 1194.2 984.4C1181 984.8 1174.3 984.8 1169.5 982.3C1158.8 976.7 1156 964.3 1155.8 963.1C1155.5 961.5 1152.6 946.8 1160.6 941.2Z" fill="#161616" stroke="#161616" stroke-width="3" stroke-miterlimit="10"/>
<path d="M1015.3 903.1C1021.8 903.3 1024.6 910.9 1030.4 917.5C1045.5 934.9 1071.8 935.5 1093.4 936C1134.2 936.9 1145.2 921.4 1164.7 931.9C1175.4 937.7 1185.5 949.6 1185.3 962.7C1185 979.8 1167.1 991.9 1154.5 996.3C1143.3 1000.2 1137.2 997.8 1106.5 992.2C1057.1 983.1 1047.3 984.5 1028.4 973.7C1017.6 967.5 1007.9 959.6 1001.7 947.7C999.1 942.7 995 934.4 996.9 924.4C998.8 913.9 1007.2 902.8 1015.3 903.1Z" fill="#161616" stroke="#161616" stroke-width="3" stroke-miterlimit="10"/>
<path d="M1159.2 932.6C1161.3 929.7 1169.6 937 1178.4 933.3C1185.9 930.1 1189.3 920.8 1191.4 914.8C1195.3 904.1 1192.7 900.3 1196.9 896.3C1200.9 892.4 1204.4 894.9 1216.1 891.5C1224 889.2 1230.4 887.4 1233.9 881.9C1236.7 877.5 1234.7 875.3 1236.6 864.1C1237.2 860.7 1239.5 847.1 1242.8 847C1245.2 846.9 1248.1 854.1 1248.3 860.7C1248.4 863.4 1248 865.3 1244.2 877.8C1241.8 885.6 1240.6 889.5 1240.1 890.1C1235.2 896.2 1228.7 893.2 1216.1 899C1210 901.8 1204.1 904.5 1201 910.6C1198.2 916.2 1200.6 918.7 1197.6 927C1194.8 934.6 1190.3 939.1 1189.4 940C1186.1 943.3 1179.4 949.8 1171.6 948.2C1162.8 946.6 1157.1 935.5 1159.2 932.6Z" fill="#161616" stroke="#161616" stroke-width="3" stroke-miterlimit="10"/>
<path d="M1135.9 979.9C1134.7 982.3 1131.3 989.2 1132.5 997.7C1133.7 1006.4 1139.1 1013.9 1142.8 1018.9C1147.9 1026 1150.9 1027.5 1150.3 1030.5C1149.2 1037.1 1134.4 1037.6 1134.5 1040.8C1134.7 1044 1149.7 1045.6 1161.2 1044.9C1169.8 1044.4 1171.8 1042.9 1172.9 1041.5C1175.3 1038.1 1172.6 1034.1 1171.5 1025.1C1170.7 1018.7 1171.3 1014.2 1172.2 1006.6C1173.7 994.1 1176.1 993.3 1177 984C1177.7 976.6 1178.9 964.3 1172.9 960C1164.7 954.2 1143.8 964.3 1135.9 979.9Z" fill="#161616" stroke="#161616" stroke-width="3" stroke-miterlimit="10"/>
<path d="M932.399 916.8C933.999 924.9 942.799 930 955.699 935.3C969.399 941 1008.2 957 1015.3 946.3C1017.1 943.6 1016.5 939.8 1015.3 937.4C1012.3 931.7 1004.1 932.3 989.899 929.9C977.499 927.8 965.999 925.9 954.299 919.6C943.499 913.9 937.099 907 933.699 909.3C931.299 911 932.299 916.3 932.399 916.8Z" fill="#161616" stroke="#161616" stroke-width="3" stroke-miterlimit="10"/>
<path d="M916.799 881.5C919.899 886.7 923.699 891.4 928.199 895.6C929.599 896.9 931.699 894.8 930.299 893.5C925.999 889.5 922.399 885 919.399 880C918.399 878.3 915.799 879.8 916.799 881.5Z" fill="#161616"/>
<path d="M903.899 889C906.999 892.8 910.999 895.5 915.499 897.1C917.299 897.8 918.099 894.9 916.299 894.2C912.199 892.7 908.699 890.2 905.999 886.9C904.799 885.4 902.699 887.5 903.899 889Z" fill="#161616"/>
<path d="M904.4 908.7C907.2 909 910 909.2 912.9 909.5C914.8 909.7 914.8 906.7 912.9 906.5C910.1 906.2 907.3 906 904.4 905.7C902.5 905.5 902.5 908.5 904.4 908.7Z" fill="#161616"/>
<path d="M986.499 888.7C982.999 890.1 977.499 892.7 972.099 897.6C967.499 901.8 963.099 905.8 962.499 911.3C961.399 921.3 973.599 930.8 983.099 934.6C984.799 935.3 1004.9 942.9 1016 931.2C1023.5 923.2 1021.8 911.8 1021.5 910C1019.2 895.1 1005.8 888.1 1004.4 887.4C1001 882.8 997.499 878.3 994.099 873.7C991.599 878.7 989.099 883.7 986.499 888.7Z" fill="#161616" stroke="#161616" stroke-width="3" stroke-miterlimit="10"/>
<path d="M977.2 902.2C978.7 906.5 982.7 909.4 987.3 909.3C989.2 909.2 989.2 906.2 987.3 906.3C984.1 906.4 981.1 904.4 980.1 901.4C979.4 899.6 976.5 900.4 977.2 902.2Z" fill="white"/>
<path d="M962.599 909.3C963.499 909.3 963.9 909.6 964 910.3C963.7 910.6 963.499 911 963.199 911.3C962.599 911.5 962.5 911.2 962.3 911C962.2 910.9 962.299 910.8 962.199 910.9C962.099 911 962.1 911.3 962 911.5C962.6 911.2 963.2 910.8 963.8 910.5C963.9 910.6 963.9 910.6 963.8 910.5C963.9 910.5 963.9 910.6 963.9 910.6C964 910.7 963.9 910.7 963.9 910.5C964 910.6 964 910.6 963.9 910.5C963.8 909.7 962.799 909.3 962.099 909.5C961.299 909.7 960.899 910.5 961.099 911.3C961.299 912.3 962.099 913.1 963.099 913.4C963.899 913.7 964.6 913.1 964.9 912.4C965.3 911.5 965.4 910.5 964.9 909.7C964.4 908.8 963.3 908.3 962.3 908.6C961.3 908.9 960.8 910 961 911C961.3 912 962.3 912.7 963.3 912.4C964.1 912.2 964.6 911.4 964.3 910.6C964.2 909.6 963.399 909.1 962.599 909.3Z" fill="white"/>
<path d="M961.999 911.9C963.499 917 969.499 919.5 974.099 917.1C975.799 916.2 974.299 913.6 972.599 914.5C969.599 916 965.799 914.2 964.899 911.1C964.399 909.2 961.499 910 961.999 911.9Z" fill="white"/>
<path d="M287.9 827.5C290.1 827.9 293.3 828.5 297.3 829C316.4 831.8 330 831.7 346.8 831.9C356.9 832 371.8 832.3 390.5 833C410.4 831.6 430.4 830.2 450.3 828.7C422.8 825.9 395.3 823 367.8 820.2C341.1 822.6 314.5 825 287.9 827.5Z" fill="#0494F1"/>
<path d="M346.7 889.6C352.4 890.8 358.1 892 363.8 893.2C383.6 892 405.3 889 428.2 883C432.6 881.9 436.9 880.7 441 879.4C409.6 882.8 378.2 886.2 346.7 889.6Z" fill="#0494F1"/>
<path d="M289.2 968.5C289.3 976.9 289.4 985.4 289.5 993.8C335.7 999.7 382 1005.6 428.2 1011.5C428.2 1003.1 428.2 994.6 428.2 986.2C456.5 973.6 484.7 961 513 948.4C505.1 947.2 497.2 946 489.3 944.8C488.4 946.2 487.5 947.6 486.7 949.1C452.4 959.7 418.1 970.4 383.8 981C352.3 976.8 320.7 972.6 289.2 968.5Z" fill="#0494F1"/>
<path d="M237.801 854.2C272.401 858.4 307.101 862.6 341.701 866.8C380.301 864.1 418.901 861.3 457.501 858.6C449.101 855.9 440.701 853.3 432.301 850.6C414.901 851.9 397.401 853.2 380.001 854.5C347.101 852.2 314.301 849.8 281.401 847.5C266.901 849.7 252.301 851.9 237.801 854.2Z" fill="#EF5F75"/>
<path d="M367.7 915.5C378.4 917.1 389.2 918.7 399.9 920.3C429.5 912.6 459 905 488.6 897.3C478.8 895.8 469.1 894.4 459.3 892.9C428.7 900.5 398.2 908 367.7 915.5Z" fill="#EF5F75"/>
<path d="M244.601 940.9C290.201 947.4 335.701 954 381.301 960.5C395.401 957.5 410.101 954 425.401 949.8C446.401 944.1 465.901 937.8 484.001 931.4C477.201 930.2 470.401 929 463.601 927.8C442.301 933.7 421.001 939.6 399.601 945.5C361.801 940.3 324.001 935.2 286.201 930C272.401 933.7 258.501 937.3 244.601 940.9Z" fill="#EF5F75"/>
<path d="M281.601 830.4C281.601 836.4 281.601 842.5 281.601 848.5C281.601 850.4 284.601 850.4 284.601 848.5C284.601 842.5 284.601 836.4 284.601 830.4C284.601 828.5 281.601 828.5 281.601 830.4Z" fill="#161616"/>
<path d="M283.601 831C319.001 832.2 354.501 833.3 389.901 834.5C391.801 834.6 391.801 831.6 389.901 831.5C354.501 830.3 319.001 829.2 283.601 828C281.601 827.9 281.601 830.9 283.601 831Z" fill="#161616"/>
<path d="M283.601 850.8C315.801 851.4 348.001 852.9 380.101 855.3C382.001 855.4 382.001 852.4 380.101 852.3C348.001 850 315.801 848.5 283.601 847.8C281.601 847.8 281.601 850.8 283.601 850.8Z" fill="#161616"/>
<path d="M390.9 834.9C411.4 833.1 432 831.9 452.5 831.2C454.4 831.1 454.4 828.1 452.5 828.2C431.9 828.8 411.4 830.1 390.9 831.9C389 832 388.9 835 390.9 834.9Z" fill="#161616"/>
<path d="M380.601 855.4C404.701 853 428.901 850.7 453.001 848.3C454.901 848.1 454.901 845.1 453.001 845.3C428.901 847.7 404.701 850 380.601 852.4C378.701 852.6 378.701 855.6 380.601 855.4Z" fill="#161616"/>
<path d="M389.4 834.5C388.7 835.6 388.2 836.7 388 838C387.7 840.2 388.6 841.9 387.5 844.1C386.2 846.9 385.4 849.1 385.9 852.2C386.2 854.1 389.1 853.3 388.8 851.4C388.3 848.1 390 846.6 391 843.9C391.9 841.1 390.2 838.7 392 836C393 834.4 390.4 832.8 389.4 834.5Z" fill="#161616"/>
<path d="M284.001 830.1C311.001 826.4 338.101 823.8 365.401 822.1C367.301 822 367.301 819 365.401 819.1C337.901 820.8 310.501 823.5 283.301 827.2C281.301 827.5 282.101 830.3 284.001 830.1Z" fill="#161616"/>
<path d="M363.401 822.2C392.501 822.4 421.501 825 450.101 830C452.001 830.3 452.801 827.4 450.901 827.1C422.001 822 392.701 819.3 363.401 819.1C361.501 819.2 361.501 822.2 363.401 822.2Z" fill="#161616"/>
<path d="M289.5 840.3C298.1 842.3 307.1 840.2 315.9 840.3C325.7 840.4 335.5 841.5 345.3 842.7C347.2 842.9 347.2 839.9 345.3 839.7C336.2 838.7 327 837.6 317.8 837.4C308.9 837.2 299.1 839.5 290.3 837.5C288.4 836.9 287.6 839.8 289.5 840.3Z" fill="#161616"/>
<path d="M329.101 846.8C344.401 847.3 359.801 848 375.101 848.9C377.001 849 377.001 846 375.101 845.9C359.801 845 344.401 844.3 329.101 843.8C327.201 843.7 327.201 846.7 329.101 846.8Z" fill="#161616"/>
<path d="M354.1 841.5C362.9 842.2 371.8 843.1 380.6 844.2C382.5 844.4 382.5 841.4 380.6 841.2C371.8 840.1 363 839.2 354.1 838.5C352.1 838.3 352.2 841.3 354.1 841.5Z" fill="#161616"/>
<path d="M396.801 843C403.801 844 410.601 842.3 417.501 841.3C425.701 840 434.001 839 442.301 838.5C444.201 838.4 444.201 835.4 442.301 835.5C435.601 835.9 428.901 836.7 422.301 837.6C414.301 838.7 405.801 841.3 397.701 840.2C395.701 839.8 394.901 842.7 396.801 843Z" fill="#161616"/>
<path d="M409.401 848.2C415.601 848.9 421.301 846.7 427.301 845.5C434.301 844 441.501 843.4 448.601 843.3C450.501 843.3 450.501 840.3 448.601 840.3C442.401 840.4 436.301 840.9 430.201 841.9C423.401 843.1 416.401 846.1 409.401 845.3C407.501 845 407.501 848 409.401 848.2Z" fill="#161616"/>
<path d="M449.9 832.4C450 837.5 450.1 842.5 450.3 847.6C450.3 849.5 453.3 849.5 453.3 847.6C453.2 842.5 453.1 837.5 452.9 832.4C452.9 830.4 449.9 830.4 449.9 832.4Z" fill="#161616"/>
<path d="M235.6 854.9C235.7 861.6 235.5 868.3 235 875C234.9 876.9 237.9 876.9 238 875C238.5 868.3 238.7 861.6 238.6 854.9C238.5 852.9 235.5 852.9 235.6 854.9Z" fill="#161616"/>
<path d="M237.1 877.9C272.1 882.3 307.2 886.1 342.4 889.5C344.3 889.7 344.3 886.7 342.4 886.5C307.2 883.1 272.1 879.3 237.1 874.9C235.1 874.7 235.2 877.7 237.1 877.9Z" fill="#161616"/>
<path d="M341.8 868.1C341.5 874.5 341.1 880.8 340.8 887.2C340.7 889.1 343.7 889.1 343.8 887.2C344.1 880.8 344.5 874.5 344.8 868.1C344.9 866.2 341.9 866.2 341.8 868.1Z" fill="#161616"/>
<path d="M343.3 868.7C381.9 867.2 420.5 864.3 458.9 860.2C460.8 860 460.8 857 458.9 857.2C420.5 861.3 381.9 864.1 343.3 865.7C341.4 865.8 341.4 868.8 343.3 868.7Z" fill="#161616"/>
<path d="M343.8 890.3C381.9 885.8 420.1 881.9 458.4 878.4C460.3 878.2 460.3 875.2 458.4 875.4C420.2 878.9 382 882.9 343.8 887.3C341.9 887.5 341.9 890.5 343.8 890.3Z" fill="#161616"/>
<path d="M457.601 859.8C457.601 865.2 457.701 870.6 457.701 876C457.701 877.9 460.701 877.9 460.701 876C460.701 870.6 460.601 865.2 460.601 859.8C460.601 857.8 457.601 857.8 457.601 859.8Z" fill="#161616"/>
<path d="M237.501 854.7C252.501 852.7 267.501 850.9 282.601 849.5C284.501 849.3 284.501 846.3 282.601 846.5C267.301 847.9 252.001 849.7 236.701 851.8C234.801 852 235.601 854.9 237.501 854.7Z" fill="#161616"/>
<path d="M239 856.7C273.6 859.2 308.1 862.8 342.5 867.5C344.4 867.8 345.2 864.9 343.3 864.6C308.7 859.9 273.9 856.2 239 853.7C237.1 853.6 237.1 856.6 239 856.7Z" fill="#161616"/>
<path d="M431.701 851.6C440.701 853.3 449.601 855.6 458.301 858.6C460.101 859.2 460.901 856.3 459.101 855.7C450.401 852.8 441.601 850.4 432.501 848.7C430.601 848.3 429.801 851.2 431.701 851.6Z" fill="#161616"/>
<path d="M253.8 870.5C271.8 869.6 289 875.9 306.9 876.2C308.8 876.2 308.8 873.2 306.9 873.2C289 872.9 271.7 866.6 253.8 867.5C251.9 867.6 251.9 870.6 253.8 870.5Z" fill="#161616"/>
<path d="M288.2 866.6C301.4 871.5 315.7 868.5 329.3 871.5C331.2 871.9 332 869 330.1 868.6C316.5 865.6 302.2 868.6 289 863.7C287.2 863 286.4 865.9 288.2 866.6Z" fill="#161616"/>
<path d="M349.701 879.7C382.901 872.2 417.401 871.4 451.201 869.4C453.101 869.3 453.101 866.3 451.201 866.4C417.001 868.5 382.401 869.2 348.901 876.8C347.001 877.2 347.801 880.1 349.701 879.7Z" fill="#161616"/>
<path d="M405.2 877.2C417 877.5 428.8 876.4 440.3 873.9C442.2 873.5 441.4 870.6 439.5 871C428.2 873.4 416.7 874.5 405.2 874.2C403.3 874.1 403.3 877.1 405.2 877.2Z" fill="#161616"/>
<path d="M256.801 879.5C256.801 887 256.801 894.4 256.801 901.9C256.801 903.8 259.801 903.8 259.801 901.9C259.801 894.4 259.801 887 259.801 879.5C259.801 877.6 256.801 877.6 256.801 879.5Z" fill="#161616"/>
<path d="M257.9 903.8C274.1 908.6 292 908.7 308.8 910.3C326.6 912 344.5 913.8 362.3 915.5C364.2 915.7 364.2 912.7 362.3 912.5C345.1 910.8 327.9 909.2 310.7 907.5C293.6 905.8 275.2 905.8 258.7 900.9C256.9 900.4 256.1 903.3 257.9 903.8Z" fill="#161616"/>
<path d="M362.201 892.3C362.301 899.2 362.301 906 362.101 912.9C362.101 914.8 365.101 914.8 365.101 912.9C365.301 906 365.301 899.2 365.201 892.3C365.201 890.3 362.201 890.3 362.201 892.3Z" fill="#161616"/>
<path d="M346.2 891.8C351.7 892.3 357.2 893.2 362.6 894.5C364.5 895 365.3 892.1 363.4 891.6C357.7 890.2 352 889.3 346.2 888.8C344.2 888.7 344.2 891.7 346.2 891.8Z" fill="#161616"/>
<path d="M364.101 893.9C392.101 891.6 419.901 887.4 447.401 881.1C449.301 880.7 448.501 877.8 446.601 878.2C419.401 884.4 391.901 888.6 364.101 890.9C362.201 891 362.201 894 364.101 893.9Z" fill="#161616"/>
<path d="M364.101 915.9C395.901 909.8 427.501 902.3 458.601 893.4C460.501 892.9 459.701 890 457.801 890.5C426.601 899.4 395.101 907 363.301 913C361.501 913.4 362.301 916.3 364.101 915.9Z" fill="#161616"/>
<path d="M457.101 877.3C457.201 882.3 457.101 887.3 456.701 892.2C456.501 894.1 459.501 894.1 459.701 892.2C460.101 887.2 460.201 882.2 460.101 877.3C460.101 875.4 457.101 875.4 457.101 877.3Z" fill="#161616"/>
<path d="M447.401 881.1C450.801 881.1 454.201 880.6 457.501 879.8C459.401 879.3 458.601 876.4 456.701 876.9C453.601 877.7 450.601 878.1 447.401 878.1C445.501 878.1 445.501 881.1 447.401 881.1Z" fill="#161616"/>
<path d="M274.7 897C298.9 899.9 323 902.7 347.2 905.2C349.1 905.4 349.1 902.4 347.2 902.2C323 899.7 298.8 897 274.7 894C272.8 893.8 272.8 896.8 274.7 897Z" fill="#161616"/>
<path d="M265.401 888.7C275.601 889.7 285.801 890.5 296.001 891C297.901 891.1 297.901 888.1 296.001 888C285.801 887.5 275.601 886.7 265.401 885.7C263.501 885.6 263.501 888.6 265.401 888.7Z" fill="#161616"/>
<path d="M308.801 894.2C321.701 894.2 334.501 895.1 347.301 897.1C349.201 897.4 350.001 894.5 348.101 894.2C335.101 892.2 322.001 891.2 308.801 891.2C306.901 891.2 306.801 894.2 308.801 894.2Z" fill="#161616"/>
<path d="M369.001 903.9C383.401 901.6 397.701 899 412.001 896.1C413.901 895.7 413.101 892.8 411.201 893.2C396.901 896.1 382.601 898.7 368.201 901C366.301 901.3 367.101 904.2 369.001 903.9Z" fill="#161616"/>
<path d="M396.2 905.1C413.5 899.3 431.3 895 449.3 892.4C451.2 892.1 450.4 889.2 448.5 889.5C430.4 892.1 412.7 896.3 395.4 902.2C393.6 902.9 394.4 905.8 396.2 905.1Z" fill="#161616"/>
<path d="M440 889.7C444.9 888.2 449.8 887.3 454.9 886.9C456.8 886.8 456.8 883.8 454.9 883.9C449.6 884.3 444.3 885.2 439.2 886.8C437.4 887.4 438.2 890.3 440 889.7Z" fill="#161616"/>
<path d="M279.6 907.7C279.5 914.8 279.3 921.9 279.2 929C279.2 930.9 282.2 930.9 282.2 929C282.3 921.9 282.5 914.8 282.6 907.7C282.7 905.8 279.7 905.8 279.6 907.7Z" fill="#161616"/>
<path d="M281 931C319.8 936.2 358.7 941.4 397.5 946.5C399.4 946.8 399.4 943.8 397.5 943.5C358.7 938.3 319.8 933.1 281 928C279.1 927.7 279.1 930.7 281 931Z" fill="#161616"/>
<path d="M366.5 916.5C378.1 918.3 389.7 919.8 401.4 920.9C403.3 921.1 403.3 918.1 401.4 917.9C390 916.8 378.6 915.4 367.3 913.6C365.4 913.3 364.6 916.2 366.5 916.5Z" fill="#161616"/>
<path d="M401.8 920.6C431.6 917.8 458.9 904.2 488.2 899.2C490.1 898.9 489.3 896 487.4 896.3C458.3 901.2 431.3 914.7 401.8 917.5C399.9 917.8 399.9 920.8 401.8 920.6Z" fill="#161616"/>
<path d="M458.401 893.9C468.501 895.4 478.701 896.5 488.901 897.1C490.801 897.2 490.801 894.2 488.901 894.1C478.901 893.5 469.001 892.5 459.201 891C457.301 890.7 456.501 893.6 458.401 893.9Z" fill="#161616"/>
<path d="M398.3 920.3C398 928.1 397.8 936 397.5 943.8C397.4 945.7 400.4 945.7 400.5 943.8C400.8 936 401 928.1 401.3 920.3C401.4 918.3 398.4 918.3 398.3 920.3Z" fill="#161616"/>
<path d="M399.1 946.6C429 939.4 458.5 930.9 487.7 921.2C489.5 920.6 488.7 917.7 486.9 918.3C457.7 928 428.2 936.4 398.3 943.7C396.4 944.1 397.2 947 399.1 946.6Z" fill="#161616"/>
<path d="M486.9 897.8C487.7 905.1 487.9 912.4 487.5 919.7C487.4 921.6 490.4 921.6 490.5 919.7C490.8 912.4 490.6 905.1 489.9 897.8C489.7 895.9 486.7 895.9 486.9 897.8Z" fill="#161616"/>
<path d="M288.7 922.6C288 922.7 287.4 922.8 286.7 922.8C284.8 923 284.8 925.6 286.7 925.8C312.1 928.5 337.3 932.6 362.6 936.6C364.5 936.9 365.3 934 363.4 933.7C337.9 929.6 312.4 925.5 286.7 922.8C286.7 923.8 286.7 924.8 286.7 925.8C287.4 925.7 288 925.6 288.7 925.6C290.6 925.4 290.6 922.4 288.7 922.6Z" fill="#161616"/>
<path d="M296.501 918.2C304.101 920.1 311.701 921.9 319.401 923.4C321.301 923.8 322.101 920.9 320.201 920.5C312.501 919 304.901 917.3 297.301 915.3C295.501 914.9 294.701 917.8 296.501 918.2Z" fill="#161616"/>
<path d="M328.201 922.1C348.301 925.2 368.301 928.3 388.401 931.4C390.301 931.7 391.101 928.8 389.201 928.5C369.101 925.4 349.101 922.3 329.001 919.2C327.101 919 326.301 921.9 328.201 922.1Z" fill="#161616"/>
<path d="M414.901 926.6C431.601 926.2 446.701 918.1 463.101 915.6C465.001 915.3 464.201 912.4 462.301 912.7C446.201 915.2 431.401 923.2 414.901 923.6C413.001 923.7 413.001 926.7 414.901 926.6Z" fill="#161616"/>
<path d="M409.501 936.7C416.801 934.9 424.101 933.1 431.401 931.2C433.301 930.7 432.501 927.8 430.601 928.3C423.301 930.1 416.001 931.9 408.701 933.8C406.801 934.2 407.601 937.1 409.501 936.7Z" fill="#161616"/>
<path d="M459.201 923.3C467.801 921 476.401 918.7 485.001 916.3C486.901 915.8 486.101 912.9 484.201 913.4C475.601 915.7 467.001 918 458.401 920.4C456.501 920.9 457.301 923.8 459.201 923.3Z" fill="#161616"/>
<path d="M241.101 941.9C257.001 940.2 272.701 936.9 287.901 931.9C289.701 931.3 288.901 928.4 287.101 929C272.101 933.9 256.801 937.2 241.101 938.9C239.201 939.1 239.201 942.1 241.101 941.9Z" fill="#161616"/>
<path d="M239.901 941.6C240.201 948.4 240.601 955.1 240.901 961.9C241.001 963.8 244.001 963.8 243.901 961.9C243.601 955.1 243.201 948.4 242.901 941.6C242.801 939.7 239.801 939.7 239.901 941.6Z" fill="#161616"/>
<path d="M242.601 963.9C288.801 970 334.901 976.1 381.101 982.1C383.001 982.4 383.001 979.3 381.101 979.1C334.901 973 288.801 966.9 242.601 960.9C240.701 960.6 240.801 963.6 242.601 963.9Z" fill="#161616"/>
<path d="M241.701 943.2C286.301 949.5 330.901 955.2 375.601 960.4C377.501 960.6 377.501 957.6 375.601 957.4C331.201 952.3 286.801 946.6 242.501 940.3C240.701 940.1 239.801 943 241.701 943.2Z" fill="#161616"/>
<path d="M381.201 982.7C416.901 972.4 452.401 961.4 487.601 949.6C489.401 949 488.601 946.1 486.801 946.7C451.501 958.4 416.101 969.5 380.401 979.8C378.501 980.3 379.301 983.2 381.201 982.7Z" fill="#161616"/>
<path d="M393.1 959.2C424.8 952.1 456 943.1 486.6 932.1C488.4 931.5 487.6 928.6 485.8 929.2C455.2 940.2 424 949.2 392.3 956.3C390.4 956.7 391.2 959.6 393.1 959.2Z" fill="#161616"/>
<path d="M484.8 931.2C484.9 936.9 485 942.5 485.1 948.2C485.1 950.1 488.1 950.1 488.1 948.2C488 942.5 487.9 936.9 487.8 931.2C487.7 929.3 484.7 929.3 484.8 931.2Z" fill="#161616"/>
<path d="M462.101 929.5C469.801 930.3 477.401 931.1 485.101 931.8C487.001 932 487.001 929 485.101 928.8C477.401 928 469.801 927.2 462.101 926.5C460.201 926.3 460.201 929.3 462.101 929.5Z" fill="#161616"/>
<path d="M252.6 958.2C274.7 959.5 296.6 962.2 318.4 966.1C320.3 966.4 321.1 963.5 319.2 963.2C297.2 959.2 275 956.6 252.6 955.2C250.6 955.1 250.7 958.1 252.6 958.2Z" fill="#161616"/>
<path d="M310.701 957.9C328.401 960.5 346.101 963.5 363.701 966.8C365.601 967.2 366.401 964.3 364.501 963.9C346.901 960.6 329.201 957.6 311.501 955C309.601 954.7 308.801 957.6 310.701 957.9Z" fill="#161616"/>
<path d="M379.701 965.1C379.901 969.5 380.201 973.9 380.401 978.2C380.501 980.1 383.501 980.1 383.401 978.2C383.201 973.8 382.901 969.4 382.701 965.1C382.601 963.2 379.601 963.2 379.701 965.1Z" fill="#161616"/>
<path d="M396.4 966C411.2 962.7 425.9 959 440.6 955C442.5 954.5 441.7 951.6 439.8 952.1C425.2 956.1 410.4 959.8 395.6 963.1C393.7 963.5 394.5 966.4 396.4 966Z" fill="#161616"/>
<path d="M395.901 971.5C399.801 971.1 403.601 970.5 407.301 969.4C409.201 968.9 408.401 966 406.501 966.5C403.001 967.5 399.501 968.1 395.901 968.5C394.001 968.7 394.001 971.7 395.901 971.5Z" fill="#161616"/>
<path d="M449.901 955.6C459.201 952.6 468.501 949.6 477.701 946.7C479.501 946.1 478.701 943.2 476.901 943.8C467.601 946.8 458.301 949.8 449.101 952.7C447.301 953.3 448.101 956.2 449.901 955.6Z" fill="#161616"/>
<path d="M467.901 945.1C471.901 943.9 476.001 942.8 480.001 941.6C481.901 941.1 481.101 938.2 479.201 938.7C475.201 939.9 471.101 941 467.101 942.2C465.301 942.7 466.001 945.6 467.901 945.1Z" fill="#161616"/>
<path d="M287.1 969.5C288.1 977.3 288.5 985.1 288.2 993C288.1 994.9 291.1 994.9 291.2 993C291.5 985.1 291.1 977.3 290.1 969.5C289.9 967.6 286.9 967.6 287.1 969.5Z" fill="#161616"/>
<path d="M290.8 995.1C337 1001.1 383.1 1007 429.3 1013C431.2 1013.2 431.2 1010.2 429.3 1010C383.1 1004 337 998.1 290.8 992.1C288.9 991.8 288.9 994.8 290.8 995.1Z" fill="#161616"/>
<path d="M427 987.6C427.5 995.4 427.901 1003.3 428.401 1011.1C428.501 1013 431.501 1013 431.401 1011.1C430.901 1003.3 430.5 995.4 430 987.6C429.9 985.7 426.9 985.6 427 987.6Z" fill="#161616"/>
<path d="M428.901 1012.8C457.801 998.8 486.801 984.9 515.701 970.9C517.401 970.1 515.901 967.5 514.201 968.3C485.301 982.3 456.301 996.2 427.401 1010.2C425.601 1011.1 427.201 1013.7 428.901 1012.8Z" fill="#161616"/>
<path d="M428.5 987.2C458.1 976.6 486.9 964 514.8 949.4C516.5 948.5 515 945.9 513.3 946.8C485.7 961.2 457.1 973.7 427.7 984.3C425.9 985 426.7 987.9 428.5 987.2Z" fill="#161616"/>
<path d="M512.101 948.2C512.301 955.7 512.501 963.2 512.701 970.6C512.801 972.5 515.801 972.5 515.701 970.6C515.501 963.1 515.301 955.6 515.101 948.2C515.101 946.2 512.101 946.2 512.101 948.2Z" fill="#161616"/>
<path d="M487.8 946.6C496.1 946.7 504.4 947.3 512.6 948.5C514.5 948.8 515.3 945.9 513.4 945.6C504.9 944.4 496.4 943.7 487.8 943.6C485.9 943.6 485.9 946.6 487.8 946.6Z" fill="#161616"/>
<path d="M382.8 983C392.9 984.8 403.1 985.9 413.4 986.3C415.3 986.4 415.3 983.4 413.4 983.3C403.4 982.9 393.5 981.9 383.6 980.1C381.7 979.7 380.9 982.6 382.8 983Z" fill="#161616"/>
<path d="M437.301 991.7C448.301 989 458.801 985.2 469.001 980.3C470.701 979.5 469.201 976.9 467.501 977.7C457.601 982.5 447.301 986.1 436.601 988.8C434.601 989.2 435.401 992.1 437.301 991.7Z" fill="#161616"/>
<path d="M438.5 999.5C447.3 996.2 455.8 992.3 464 987.8C465.7 986.9 464.2 984.3 462.5 985.2C454.5 989.6 446.3 993.4 437.7 996.6C435.9 997.3 436.6 1000.2 438.5 999.5Z" fill="#161616"/>
<path d="M474.401 974.5C485.501 970.6 496.501 966.1 507.301 961.2C509.101 960.4 507.501 957.8 505.801 958.6C495.301 963.4 484.601 967.7 473.601 971.5C471.801 972.2 472.601 975.1 474.401 974.5Z" fill="#161616"/>
<path d="M478.7 981.1C489.6 976.4 500 970.8 510 964.3C511.6 963.2 510.1 960.7 508.5 961.7C498.6 968.2 488.1 973.8 477.2 978.5C475.4 979.3 476.9 981.8 478.7 981.1Z" fill="#161616"/>
<path d="M847.801 704.9C868.301 780.5 888.801 856.1 909.201 931.7C915.001 953.3 920.901 974.8 926.701 996.4C927.701 1000.1 933.501 998.5 932.501 994.8C912.001 919.2 891.501 843.6 871.101 768C865.301 746.4 859.401 724.9 853.601 703.3C852.601 699.6 846.801 701.2 847.801 704.9Z" fill="#161616"/>
<path d="M788.7 708.1C789.6 791.3 790.5 874.6 791.3 957.8C791.5 981.3 791.8 1004.9 792 1028.4C792 1032.3 798 1032.3 798 1028.4C797.1 945.2 796.2 861.9 795.4 778.7C795.2 755.2 794.9 731.6 794.7 708.1C794.7 704.3 788.7 704.3 788.7 708.1Z" fill="#161616"/>
<path d="M705 697.4C687.2 778.7 670 860.1 653.4 941.7C648.7 964.8 644.1 987.9 639.5 1010.9C638.7 1014.7 644.5 1016.3 645.3 1012.5C661.6 930.9 678.4 849.4 695.9 768C700.8 745 705.8 722 710.9 699C711.6 695.2 705.8 693.6 705 697.4Z" fill="#161616"/>
<path d="M663.401 911.6C706.701 912 749.901 913 793.101 914.7C797.001 914.9 797.001 908.9 793.101 908.7C749.901 907 706.601 906 663.401 905.6C659.601 905.6 659.601 911.6 663.401 911.6Z" fill="#161616"/>
<path d="M795.301 913.4C799.301 914 802.401 912.4 806.101 910.9C810.601 909.1 815.101 907.2 819.601 905.3C827.601 901.9 835.601 898.5 843.601 895C860.901 887.4 878.001 879.5 894.901 871.4C898.401 869.7 895.301 864.6 891.901 866.2C876.401 873.7 860.801 880.9 845.001 887.9C837.101 891.4 829.201 894.8 821.201 898.2C817.101 899.9 813.101 901.6 809.001 903.3C805.801 904.6 800.301 908.1 796.801 907.6C793.101 907.1 791.401 912.9 795.301 913.4Z" fill="#161616"/>
<path d="M766.6 709.8C758.6 780.8 750.6 851.8 742.6 922.9C740.3 943 738.1 963.2 735.8 983.3C735.4 987.1 741.4 987.1 741.8 983.3C749.8 912.3 757.8 841.3 765.8 770.2C768.1 750.1 770.3 729.9 772.6 709.8C773.1 706 767.1 706 766.6 709.8Z" fill="#161616"/>
<path d="M750.101 879.1C797.601 878 844.901 875 892.301 871.9C896.101 871.7 896.201 865.6 892.301 865.9C844.901 869 797.601 871.9 750.101 873.1C746.201 873.2 746.201 879.2 750.101 879.1Z" fill="#161616"/>
<path d="M664.501 911.3C694.401 902.6 723.201 890.8 752.101 879.2C755.601 877.8 754.101 872 750.501 873.4C721.601 885 692.801 896.8 662.901 905.5C659.201 906.5 660.801 912.3 664.501 911.3Z" fill="#161616"/>
<path d="M812.9 628.5C838.6 631.9 859.9 639 876.2 646C876.5 664.1 876.7 682.1 877 700.2C858.2 708.6 829.4 718.7 793.1 721.6C746.6 725.3 709.3 715.4 687.8 707.9C686.9 687.6 686.1 667.3 685.2 647C708.8 636.8 755.3 620.9 812.9 628.5Z" fill="white" stroke="#161616" stroke-width="3" stroke-miterlimit="10"/>
<path d="M693.4 651.7C701.2 660.4 712.4 663.5 723.7 664.9C738.3 666.8 753.3 667.4 768.1 667.9C798.5 668.9 829.3 667.2 858.2 656.8C860 656.2 859.2 653.3 857.4 653.9C829.9 663.8 800.7 665.8 771.8 665C758 664.6 744.2 663.8 730.4 662.6C717.9 661.5 704.4 659.4 695.6 649.6C694.2 648.1 692.1 650.3 693.4 651.7Z" fill="#161616"/>
<path d="M678.6 305.9C671.8 306.6 667.6 311.8 659.3 322.6C636.9 351.6 620.7 377.1 619.3 379.3C616.4 383.8 606.5 397.4 586.6 424.6C549.9 474.9 541.4 484.2 544.6 497.3C548.3 512.6 565 526.2 577.3 524C584.5 522.7 588.8 516.2 595.3 505.3C603.7 491.1 614.5 471.9 626 448C656 427.6 675.7 406.2 688 390.7C713 359.2 712.2 345.6 711.3 340C708.5 322.2 692.3 304.6 678.6 305.9Z" fill="white" stroke="#161616" stroke-width="3" stroke-miterlimit="10"/>
<path opacity="0.09" d="M699.599 318.5C694.699 319.1 693.599 333.3 691.699 342.1C685.099 372.5 661.199 375.6 621.599 420.7C604.999 439.7 593.199 457.3 582.299 473.8C571.699 489.8 563.399 503.8 557.399 514.4C558.399 516.3 560.999 520.3 565.899 522.3C572.499 524.9 578.899 522 580.999 521C588.899 517.3 590.299 511.6 603.299 489.6C611.599 475.5 611.499 477 615.099 469.9C621.699 456.8 621.199 452.9 626.899 446.3C631.899 440.4 635.499 440.7 645.199 433.2C650.199 429.4 658.999 422.6 668.799 412.9C671.699 410.1 683.399 398.3 695.699 380.1C705.399 365.8 707.699 359 708.799 355.2C712.799 341.4 710.299 333.3 709.499 331C707.699 325.9 703.399 318 699.599 318.5Z" fill="#3D3D3D"/>
<path opacity="0.18" d="M626.9 444.9C625.6 444.1 620.4 452.4 608.6 465.9C579.1 499.4 556.9 509.8 560.1 518.3C562 523.2 571.2 524.9 577.8 523.5C587.2 521.5 592.2 512.3 602 494C626 449.1 627.7 445.4 626.9 444.9Z" fill="#3D3D3D"/>
<path d="M540.4 887.6C543.2 918.8 545.9 950 548.7 981.2C505.2 1003 484.4 1016.8 486.5 1022.7C489 1029.9 526.2 1025 597.9 1007.9C596.5 964.5 595.1 921 593.8 877.6C576 880.9 558.2 884.2 540.4 887.6Z" fill="#161616" stroke="#161616" stroke-width="3" stroke-miterlimit="10"/>
<path d="M683.1 530.6C667.8 541.9 646.3 557.8 620.7 577.2C540.1 638.3 530 647.6 521.1 664.7C512.3 681.5 509.3 709.8 503.2 766.5C499 805.4 498.7 835.4 498.9 852.5C499.1 871.6 500.1 887.9 501.1 900.5C505.8 904.7 523.6 919.4 550.6 919.9C582.5 920.4 602.9 900.6 606.5 897C603.4 878.6 600.9 858.7 599.3 837.5C596.4 798.7 597.3 763.5 600 732.8C621.4 715.9 651.4 691.5 686 660.4C759.9 594 764.8 578.3 762 567.2C755.6 542.4 708.2 533.7 683.1 530.6Z" fill="white" stroke="#161616" stroke-width="3" stroke-miterlimit="10"/>
<path opacity="0.12" d="M716.4 538.2C705.7 541.8 711.4 566 704.2 588.5C696 614.2 677.1 621.1 630.3 656.7C615.1 668.2 593.4 685.9 568.6 710.3C569 755.2 567.6 802.9 563.7 853.2C561.9 876 559.7 898.3 557.2 919.8C563.8 918.9 572.2 917 581.6 913.3C592.1 909.1 600.3 903.8 606 899.5C602.8 880.5 600.3 859.9 598.7 837.8C595.9 799 596.9 763.8 599.5 733C617.3 718 631.8 706.2 641.7 698.1C655.1 687.2 661.9 681.9 673.4 672.1C680 666.5 686.7 660.6 703.4 645.3C746.4 606.1 758.2 593.7 761.1 576.3C762.5 567.4 760.7 562.6 759.5 560.1C755.8 552.8 748.1 549.5 732.7 543C723.5 539.3 718.9 537.3 716.4 538.2Z" fill="#3D3D3D"/>
<path opacity="0.15" d="M598.6 732.3C594 752.2 589.9 773.3 586.4 795.6C579.7 838.4 576.7 878.2 575.8 914.2C586.1 909.1 596.4 903.9 606.7 898.8C603 874.2 600.1 847 598.6 817.6C597.1 786.7 597.3 758.2 598.6 732.3Z" fill="#3D3D3D"/>
<path opacity="0.09" d="M752.9 554.4C745.8 553.8 739.4 570.1 735 579.6C725.5 600.4 699.7 627.6 648.1 681.9C635.7 695 619 712 598.6 731.4C604 727.5 611.3 722.3 619.7 716C638.7 701.7 650 692.1 686.3 660.8C686.3 660.8 699.4 649.5 752.9 593.4C755.7 590.5 762.5 583.1 762.6 573.1C762.8 564.7 758.2 554.9 752.9 554.4Z" fill="#3D3D3D"/>
<path d="M714.8 295.6C714.4 295.6 712.8 295.7 710.6 295.9C706.1 296.3 699 297.1 690.6 299.3C683.8 301 678.4 303 675.2 304.3C669.5 316 662.3 334.1 659.6 357C655.7 389.6 663.5 410.6 668.8 443.1C672.4 465.4 675.4 497.7 671.3 538.6C679.9 546.6 702.3 565.3 736.5 570.1C784.8 577 820.3 551 827.6 545.4C829.8 531.6 831.9 517.6 834 503.4C834 503.4 837.1 482 840.1 458.5C847.2 403.8 854.5 330.1 855.4 320.9C829.7 294.9 808.4 288.9 793.6 288.4C774.4 287.7 730.4 294.8 714.8 295.6Z" fill="#85C7F2"/>
<path opacity="0.17" d="M752.601 317.3C757.901 322.8 765.001 331.2 771.401 342.6C802.201 397.2 783.101 460.9 774.601 489.2C768.701 509 757.501 538.1 735.301 569.4C743.801 570.9 754.401 571.7 766.501 570.5C795.401 567.6 816.301 554.2 826.801 546.3C834.001 498.6 840.701 449.7 846.701 399.7C849.801 373.9 852.601 348.5 855.301 323.2C850.801 317.6 843.401 309.5 832.301 302.6C823.501 297.1 810.801 289.1 795.001 289.9C770.201 291.3 754.901 313.9 752.601 317.3Z" fill="#3D3D3D"/>
<path d="M525.7 373.7C526.7 373.7 527.8 373.7 528.8 373.7C529.1 372.6 529.4 371.4 529.7 370.3C530.9 372.8 532.9 376.9 535.4 382C546.4 404.3 548.6 408 550.6 414.7C552.2 420.2 554.1 428.1 554.7 438.2C556.6 436.9 559.4 435.1 563 433.1C582.4 422.5 598.6 422.4 613.2 419.8C624.1 417.8 639.4 413.4 657.3 402.7C656.2 404.2 655.1 405.8 654 407.3C655.7 407.9 657.5 408.6 659.2 409.2C660.2 410.5 661.5 412.6 662.6 415.3C668.4 429.6 659.8 445.3 651.5 459.7C617.6 519.3 614.1 522.4 608 525.4C605.5 526.7 580.3 539 562.4 527.6C558.7 525.3 552 519.8 543.4 480.9C537.5 454.4 536.8 439.6 531.2 404.8C529 391.6 527 380.8 525.7 373.7Z" fill="white" stroke="#191919" stroke-width="2" stroke-miterlimit="10"/>
<path d="M531.4 379.2C539.9 397.4 548.3 415.9 550.9 435.9C551 436.4 551.7 436.4 551.7 435.9C549.1 415.7 540.7 397.1 532.1 378.8C531.8 378.4 531.2 378.7 531.4 379.2Z" fill="#191919"/>
<path d="M528.1 376C533.1 386.6 537.2 397.5 540.6 408.7C540.7 409.2 541.5 409 541.3 408.5C537.9 397.2 533.7 386.3 528.7 375.6C528.6 375.2 527.9 375.5 528.1 376Z" fill="#191919"/>
<path d="M541.8 408.1C545.1 417.1 547.3 426.4 548.6 435.9C548.7 436.4 549.4 436.4 549.4 435.9C548.1 426.3 545.9 417 542.6 407.9C542.4 407.4 541.7 407.6 541.8 408.1Z" fill="#191919"/>
<path d="M533.2 393.8C537.8 405.1 541.8 416.7 545.1 428.5C545.2 429 546 428.8 545.8 428.3C542.5 416.5 538.5 404.9 533.9 393.6C533.7 393.2 533 393.4 533.2 393.8Z" fill="#191919"/>
<path d="M556.4 440.7C568.9 432.4 582.9 427 597.8 424.9C598.3 424.8 598.1 424.1 597.6 424.2C582.6 426.3 568.6 431.7 556 440C555.7 440.3 556 441 556.4 440.7Z" fill="#191919"/>
<path d="M562.7 439.4C575.7 431.5 590.4 428.5 605 425.2C620.5 421.7 635.6 417 650.3 411C650.7 410.8 650.5 410.1 650.1 410.3C634.9 416.6 619.2 421.3 603.1 424.9C589 428.1 574.8 431.2 562.3 438.8C561.9 439 562.3 439.7 562.7 439.4Z" fill="#191919"/>
<path d="M560.3 443C575.7 435.7 591.4 431.2 607.9 427.2C624.1 423.2 639.8 417 655.6 411.6C656.1 411.4 655.9 410.7 655.4 410.9C639.1 416.5 622.8 423 606 426.9C590.1 430.7 574.8 435.4 559.9 442.4C559.4 442.5 559.8 443.2 560.3 443Z" fill="#191919"/>
<path d="M525.1 373.5C532.4 396.6 539.8 419.6 547.1 442.7C550.7 443.9 554.3 445.1 557.9 446.3C592.1 435 626.2 423.8 660.4 412.5C661.6 413.5 662.8 414.5 664 415.6C667.9 463.1 671.9 510.5 675.8 558C674.4 558.9 673.1 559.7 671.7 560.6C637 565.9 602.4 571.2 567.7 576.5C562.7 575.3 557.8 574.1 552.8 572.9C548.4 553.4 543.9 534 539.5 514.5C533 468.4 526.5 422.3 520 376.2C521.7 375.2 523.4 374.3 525.1 373.5Z" fill="white" stroke="#191919" stroke-width="2" stroke-miterlimit="10"/>
<path d="M545.5 443.3C547.1 486.6 550.2 530 552.6 573.3C552.7 574.7 554.9 574.7 554.9 573.3C552.5 530 549.4 486.7 547.8 443.3C547.7 441.8 545.4 441.8 545.5 443.3Z" fill="#191919"/>
<path d="M555.9 446C557.3 458.3 557.9 470.6 557.9 483C557.9 484.4 560.1 484.4 560.2 483C560.2 470.6 559.6 458.3 558.2 446C557.9 444.6 555.7 444.6 555.9 446Z" fill="#191919"/>
<path opacity="0.16" d="M618.1 427.5C618.5 437.5 618.2 459.9 605.4 484C591.8 509.6 571.9 522.8 563.3 527.8C562.9 519.6 562.4 511.4 562 503.3C558.6 509 555.3 514.7 551.9 520.4C552.6 538.2 553.4 556 554.1 573.9C558.9 574.9 563.7 575.9 568.6 577C602.3 571.6 636.1 566.2 669.8 560.8C671.6 560.1 673.3 559.3 675.1 558.6C671.3 510.5 667.5 462.5 663.7 414.4C648.5 418.7 633.3 423.1 618.1 427.5Z" fill="#6C6D6D"/>
<path opacity="0.1" d="M556.4 447C555.7 447 554.9 465.5 555.4 485.6C556 514.2 558.7 526.7 557.9 554C557.6 562.9 557.1 570.2 556.7 574.9C560.4 575.4 564.2 575.9 567.9 576.4C567.2 571.5 566.2 564.4 565.2 555.9C557.3 492.3 557.5 447 556.4 447Z" fill="#6C6D6D"/>
<path d="M583.3 452.6C607.1 447 630.5 440 653.5 431.6C655.3 430.9 654.5 428 652.7 428.7C629.7 437 606.3 444 582.5 449.7C580.7 450.2 581.5 453.1 583.3 452.6Z" fill="#191919"/>
<path d="M529.3 455.6C528.2 456 528.3 458 527.4 467.3C526.8 473.6 526.6 473.7 526.8 475.2C527.3 479.4 528.8 480.2 529.3 485C529.6 488.1 529 488.5 529.5 491.1C530.1 494.3 531.5 496.7 532.6 498.2C532.6 499.2 532.8 500.9 533.6 502.6C535.2 505.7 538.9 508.4 540.9 507.4C542 506.9 542.3 504.8 542.8 500.7C543.3 496.9 543 496.7 543.4 492.3C543.8 488.7 544.1 488 543.8 486.2C543.5 484 542.7 483.3 541.9 481C540.8 477.8 541.3 476.6 540.6 473.3C539.6 467.8 537 463.9 535.6 461.8C534.2 459.6 531.2 455 529.3 455.6Z" fill="white"/>
<path d="M528.6 454.7C523.2 466.4 528.6 479.5 540.8 483.8C542.2 484.3 542.8 482.1 541.4 481.6C530.6 477.8 525.8 466.2 530.6 455.8C531.1 454.5 529.2 453.4 528.6 454.7Z" fill="#191919"/>
<path d="M529 456.5C536.2 463.2 540.4 472 541 481.8C541.1 483.2 543.3 483.2 543.3 481.8C542.7 471.4 538.3 462 530.6 454.9C529.5 453.9 527.9 455.5 529 456.5Z" fill="#191919"/>
<path d="M526 468.7C523.4 480.4 530.3 491.5 542.2 494C543.6 494.3 544.2 492.1 542.8 491.8C532.2 489.6 525.8 479.9 528.2 469.2C528.5 467.8 526.3 467.2 526 468.7Z" fill="#191919"/>
<path d="M528.2 483.4C526.1 492.3 531.5 500.8 540.5 502.5C541.9 502.8 542.5 500.6 541.1 500.3C533.3 498.9 528.5 491.8 530.3 484C530.7 482.6 528.6 482 528.2 483.4Z" fill="#191919"/>
<path d="M531.099 497.7C530.699 502 533.2 506.3 537.2 507.9C538.9 508.6 541.1 508.7 542.4 507.2C543.8 505.6 543.2 503.2 542.4 501.5C541.9 500.2 539.7 500.8 540.2 502.1C540.7 503.2 541.699 505.4 540.099 506.1C538.899 506.6 536.999 505.4 536.099 504.7C533.999 503 532.999 500.4 533.299 497.7C533.499 496.2 531.199 496.3 531.099 497.7Z" fill="#191919"/>
<path d="M541.4 502.4C543.6 502.4 544.5 500.2 544.8 498.3C545.2 496 544.8 493.6 543.6 491.6C542.9 490.3 540.9 491.5 541.7 492.7C542.4 493.9 542.8 495.2 542.8 496.5C542.8 497.2 542.6 500.1 541.4 500.1C540 500.1 540 502.4 541.4 502.4Z" fill="#191919"/>
<path d="M544.2 493.2C545.6 491.9 545.6 489.4 545.3 487.6C545 485.3 544 483.3 542.4 481.6C541.4 480.5 539.8 482.1 540.8 483.2C541.8 484.3 542.6 485.6 542.9 487.2C543.1 488.3 543.4 490.7 542.5 491.6C541.5 492.6 543.1 494.2 544.2 493.2Z" fill="#191919"/>
<path d="M648.301 815.3C652.001 837.7 655.601 860.2 659.301 882.6C618.201 911.8 599.101 929 602.001 934.4C605.401 940.7 639.001 930.6 702.801 904.1C700.501 867.5 698.201 831 695.801 794.4C680.001 801.4 664.101 808.3 648.301 815.3Z" fill="#161616" stroke="#161616" stroke-width="3" stroke-miterlimit="10"/>
<path d="M828.1 544.7C829.7 558 830.3 579.3 822.4 603.3C819 613.5 813.3 630.2 798.3 645.9C788.7 655.9 771.9 673.5 747.4 672.8C727.6 672.2 713.6 660.1 708.5 655.2C707 674 706.2 694.4 706.6 716.3C707.2 750 710.5 780.5 714.9 807.1C702.9 829.3 679.9 843 655.6 842.3C624.4 841.4 606.7 817.3 604.7 814.5C597.5 746.8 596.9 690.5 598.2 648.7C599.3 614.6 601.7 586.4 622.3 563.5C642.4 541.1 669 536 676 534.8C727.2 525.7 765.9 561.8 770.5 566.3C777.9 566.8 792.4 566.6 808 559.1C817.2 554.6 823.8 549 828.1 544.7Z" fill="white" stroke="#161616" stroke-width="3" stroke-miterlimit="10"/>
<path d="M710.1 626.1C707.3 638.6 705.8 651.3 705.5 664.1C705.5 666 708.5 666 708.5 664.1C708.8 651.5 710.2 639.1 712.9 626.9C713.4 625 710.5 624.2 710.1 626.1Z" fill="#161616"/>
<path d="M710.8 642.1C712.2 639 713.5 635.9 714.9 632.7C715.7 630.9 713.1 629.4 712.3 631.2C710.9 634.3 709.6 637.4 708.2 640.6C707.4 642.3 710 643.8 710.8 642.1Z" fill="#161616"/>
<path d="M766.801 564.8C773.501 571.2 778.101 580.4 783.101 588.2C784.101 589.8 786.701 588.3 785.701 586.7C780.501 578.7 775.801 569.4 768.901 562.7C767.501 561.3 765.401 563.4 766.801 564.8Z" fill="#161616"/>
<path opacity="0.09" d="M796.2 562.7C796.4 567.5 796.4 574.1 795.6 582C793.7 600.5 792.1 616.2 781.9 623C770 631 751.9 623.4 745.2 620.5C722 610.7 719.3 594.3 706 593.1C690.3 591.7 674 612.7 666.2 629.2C646.9 669.7 668.8 701.4 671.2 774.1C672.1 803.3 669.5 826.9 667.5 841.3C672.7 840.7 679.5 839.2 686.8 835.7C703.7 827.6 712.2 813.7 715.4 807.7C714.7 802.2 713.7 793.7 712.3 783.4C708.9 758.3 707.8 755.6 706.7 744.8C706.2 739.9 705.8 734.4 706.7 698.8C707 688.3 707.3 673.8 707.9 656.5C710.6 658.4 714.3 660.8 719.1 663.3C722.4 665 734 671.1 744.6 672.6C761.5 675 775.9 665.5 783.2 660.8C803.1 647.7 811.7 629.3 817.4 616.6C830.1 588.5 830.5 562.1 829.2 545.7C825.7 549.5 819.2 555.6 809.3 559.4C804.3 561.4 799.8 562.3 796.2 562.7Z" fill="#3D3D3D"/>
<path opacity="0.11" d="M825.401 566.4C823.101 565.6 816.201 579.1 815.401 580.7C808.901 593.6 809.101 601.9 806.701 609.9C802.001 625.9 786.801 642 771.301 646C745.201 652.7 723.301 623.8 711.601 632.9C706.101 637.2 706.401 647 708.501 652.8C714.501 669.5 741.701 670.7 745.201 670.8C768.901 671.6 786.301 656.9 791.801 652.1C827.001 621.7 829.601 567.9 825.401 566.4Z" fill="#3D3D3D"/>
<path opacity="0.11" d="M710.3 631.7C708.6 631.4 703.3 648.2 699.7 664.7C692.4 698.3 693.3 724.2 693.5 736.8C693.8 760.2 691.8 793.7 681.7 836.3C685.8 835.3 692.1 833.1 698.5 828.2C708.3 820.7 712.5 811.3 714 807.1C712 785.2 710.6 766.6 709.6 752.4C707.2 718.1 706 700.6 706.5 684.6C707.6 652.7 712.2 632.1 710.3 631.7Z" fill="#3D3D3D"/>
<path d="M665.301 468.1C666.201 465.5 672.201 465.5 673.801 465.5C680.801 465.5 686.401 470.1 688.201 474C688.701 475.1 688.801 476 688.801 476.5C689.001 479.2 687.401 481.9 686.001 482.8C680.801 486.1 663.501 473.2 665.301 468.1Z" fill="white" stroke="#161616" stroke-width="3" stroke-miterlimit="10"/>
<path d="M847.7 314.1C863.6 323.9 861.7 351.6 859.3 386.3C856.6 424.6 847.4 451.5 843.9 461.3C837.7 478.2 830.8 491.9 825.1 501.7C804.5 510.5 771.7 520.9 731.1 519.1C716.4 518.4 703.3 516.3 692 513.6C678.5 522.9 667.6 522.8 662.9 522.3C655.6 521.6 646 518.3 646.1 515.1C646.1 512.9 650.8 511.1 652.9 510.3C658 508.3 662.5 508.5 662.5 508.3C662.5 508.1 658.8 508.3 654.9 507.9C652.3 507.6 647.2 507.2 642.8 504.9C641.2 504.1 633.3 500.2 631.8 492.6C630.4 485.7 634.6 477.9 642.3 473.3C649.4 471.4 661.9 469.1 677 471.8C688.2 473.8 696.8 477.8 702.5 480.9C729.4 474.3 756.3 467.6 783.1 461C783.6 455.4 784.5 447.2 785.6 437.1C789.1 405.2 790.8 389.2 793.5 375.7C800.1 342.5 804.4 320.8 821.2 313.2C828.7 309.9 839.6 309.1 847.7 314.1Z" fill="white" stroke="#161616" stroke-width="3" stroke-miterlimit="10"/>
<path opacity="0.18" d="M832 311.8C835.3 332.3 838.3 362.6 835.6 399C832.6 439.1 830.9 459.1 816.7 475.7C795.4 500.6 749.5 513.1 713.8 503C700 499.1 680.1 490.2 655.7 495.2C648.7 496.6 638 499.9 638.2 502.5C638.4 504.5 645.6 506.5 650.7 507.1C654.6 507.5 657.1 507.2 657.3 508C657.9 509.9 646.6 513.1 646.9 516.4C647.1 519.2 656 521.4 663.3 521.6C668.9 521.8 678.8 521.1 690.8 514.2C701.4 516.7 713.5 518.8 726.8 519.6C769.3 522.2 804.1 511.1 825.8 501.7C830.2 493.8 835.8 482.7 841.2 468.9C857.9 426.5 859.8 391.2 860.1 381.6C860.7 367.2 860.2 347 855.5 323.1C854.8 321.6 851.8 315.9 844.9 312.9C839.1 310.4 833.8 311.4 832 311.8Z" fill="#3D3D3D"/>
<path opacity="0.21" d="M805.3 502.2C789.8 504.6 780.8 507.1 773.8 508.5C745.4 514.5 722.4 511.8 714.3 510.8C706 509.9 699.2 508.5 694.5 507.5C688.8 509.8 680.3 512.7 669.7 513.9C656.1 515.4 646.4 513.4 646.1 515.1C645.8 516.7 654.1 520.9 662.9 521.9C676.3 523.4 687.2 516.9 692.1 513.5C698.3 515.2 707.2 517.4 718.1 518.7C776 525.8 826.9 501.8 826.3 499.6C826.2 498.9 819.2 500 805.3 502.2Z" fill="#3D3D3D"/>
<path d="M637.8 502.4C647.2 498.4 657.4 497.6 667.3 499.9C669.2 500.3 670 497.4 668.1 497C657.3 494.5 646.5 495.4 636.3 499.8C634.5 500.6 636.1 503.2 637.8 502.4Z" fill="#161616"/>
<path d="M632.5 492.8C643.6 488.8 655.2 487.5 666.9 489C668.8 489.2 668.8 486.2 666.9 486C655 484.5 643 485.8 631.7 489.9C629.9 490.6 630.7 493.5 632.5 492.8Z" fill="#161616"/>
<path d="M635.3 482.6C646.3 479.4 657.5 478.2 668.9 479C670.8 479.1 670.8 476.1 668.9 476C657.3 475.2 645.7 476.5 634.5 479.7C632.6 480.2 633.4 483.1 635.3 482.6Z" fill="#161616"/>
<path d="M688.199 154.2C660.299 176.8 661.399 222.8 672.399 252.5C679.299 271.3 690.499 284.2 697.699 291.3C699.499 298.9 701.199 306.6 702.999 314.2C711.799 316.1 723.399 317.6 736.899 316.4C767.299 313.6 788.699 298.8 798.199 291.1C791.499 274.5 784.799 257.9 778.099 241.2C777.199 235.1 775.899 225.7 774.299 214.3C770.199 184.4 770.399 182.8 768.599 178C767.799 176 756.499 147.4 729.999 142.3C708.499 138.2 690.799 152 688.199 154.2Z" fill="white" stroke="#161616" stroke-width="3" stroke-miterlimit="10"/>
<path d="M665.2 230.7C663.6 237 661.9 246.8 663.1 258.7C663.9 266.6 665.2 280.3 675.1 293.5C685.8 307.8 700.3 313.2 706.4 315.2C705.9 313.6 705.4 311.6 705.1 309.3C704.8 306.8 704.9 304.6 705.1 302.9C711.7 306.4 718.3 310 724.8 313.5C741.4 298.3 746.9 284.5 748.8 274.4C750.3 266.5 751.2 252 754.8 225.6C755.4 220.9 756.7 212.4 762.1 210.3C764.6 209.3 768 209.7 770.3 211.6C776.9 217.1 770.2 232.8 771.6 233.3C773 233.7 784.5 217.9 780.6 199.7C778.6 190.3 773.1 183.8 769.9 180.6C762.7 191.9 754.7 203.5 745.9 215.4C740.3 223 734.7 230.2 729.2 237.1C727.1 238.2 724 239.5 720.4 239.2C717.6 239 716.6 238 714.5 237.4C706.7 235.2 702.5 244.3 694.9 243.1C688.6 242.1 688 235.4 681.1 235.2C677.8 235.1 676.4 236.6 673 235.9C669.4 235.1 666.9 232.7 665.2 230.7Z" fill="#161616" stroke="#161616" stroke-width="3" stroke-miterlimit="10"/>
<path d="M697.4 204C695 214.9 693.5 225.9 692.9 237C692.8 238.2 694.2 238.8 695.2 238.3C699.1 236.3 703 234.3 707 232.3C708.7 231.4 707.2 228.8 705.5 229.7C701.6 231.7 697.7 233.7 693.7 235.7C694.5 236.1 695.2 236.6 696 237C696.7 226.1 698.1 215.4 700.4 204.8C700.7 202.9 697.8 202.1 697.4 204Z" fill="#161616"/>
<path d="M681.7 210.1C682.8 211.8 683 214.4 682.1 214.9C681 215.5 677.9 213.2 677.5 210.6C677.4 209.8 677.5 208.4 678.2 208C679.2 207.5 680.9 208.8 681.7 210.1Z" fill="#161616" stroke="#161616" stroke-width="3" stroke-miterlimit="10"/>
<path d="M676.5 199.8C680 198 684.2 198.3 687.4 200.8C688.9 202 691 199.9 689.5 198.7C685.3 195.3 679.8 194.7 675 197.2C673.3 198.1 674.8 200.7 676.5 199.8Z" fill="#161616"/>
<path d="M711.4 201.3C716.4 198 723.2 199.1 726.6 204.1C727.7 205.7 730.3 204.2 729.2 202.6C724.9 196.4 716.3 194.5 709.9 198.7C708.3 199.8 709.8 202.4 711.4 201.3Z" fill="#161616"/>
<path d="M643.2 182.2C683.1 184.5 723 187.9 762.7 192.2C768.5 192.8 768.4 183.8 762.7 183.2C723 178.9 683.1 175.5 643.2 173.2C637.4 172.9 637.4 181.9 643.2 182.2Z" fill="#161616"/>
<path d="M669.1 176.1C669.7 170 672.2 154.3 684.4 141.6C700.3 125 729.6 118 752.4 132.1C770.3 143.2 779.8 164.6 776.6 186.4C740.7 183 704.9 179.5 669.1 176.1Z" fill="#0494F1"/>
<path opacity="0.69" d="M719.5 127.7C714.8 131.6 714.8 139.7 716.5 148.4C718.3 157.9 722.9 169.5 729.9 181.3C745.4 183.1 761 184.9 776.5 186.7C777.2 183.4 777.8 178.5 777.2 172.6C777.2 172.6 776.2 161.9 770.5 152.2C759.1 133 729.3 119.5 719.5 127.7Z" fill="#046AAC"/>
<path opacity="0.24" d="M768.199 238C764.699 239.9 761.199 239.4 759.999 239.2C761.499 242.1 764.599 248.3 766.799 257C768.799 265.2 771.699 276.4 767.899 289.3C764.499 300.8 757.299 308.4 752.399 312.6C758.399 311.5 766.299 309.4 774.999 305.1C785.099 300.1 792.299 294.1 796.999 289.5C789.599 268.6 782.299 247.7 774.899 226.8C774.899 227.2 774.499 234.7 768.199 238Z" fill="#3D3D3D"/>
<path opacity="0.19" d="M733.2 188.8C734.3 193.6 735.3 200.8 734.1 209.3C732.1 223.6 725.2 233.5 721.5 238C723.7 237.3 725.9 236.6 728.1 235.9C732.5 230.6 736.9 225 741.3 219.2C748.5 209.7 755.2 200.4 761.2 191.3C751.9 190.6 742.5 189.7 733.2 188.8Z" fill="#3D3D3D"/>
<path d="M719.6 211C720.7 212.7 720.9 215.3 720 215.8C718.9 216.4 715.8 214.1 715.4 211.5C715.3 210.7 715.4 209.3 716.1 208.9C717.1 208.4 718.7 209.7 719.6 211Z" fill="#161616" stroke="#161616" stroke-width="3" stroke-miterlimit="10"/>
<path d="M675.799 236C685.796 236 693.899 227.896 693.899 217.9C693.899 207.904 685.796 199.8 675.799 199.8C665.803 199.8 657.699 207.904 657.699 217.9C657.699 227.896 665.803 236 675.799 236Z" stroke="#161616" stroke-width="2" stroke-miterlimit="10"/>
<path d="M717.9 236C727.896 236 736 227.896 736 217.9C736 207.904 727.896 199.8 717.9 199.8C707.903 199.8 699.8 207.904 699.8 217.9C699.8 227.896 707.903 236 717.9 236Z" stroke="#161616" stroke-width="2" stroke-miterlimit="10"/>
<path d="M696 218.5C696.4 218 697.2 217.8 697.7 218.2C698.3 218.7 699.2 218.8 699.8 218.2C700.3 217.7 700.4 216.6 699.8 216.1C698.1 214.6 695.4 214.6 693.9 216.4C693.4 217 693.3 217.9 693.9 218.5C694.4 219.1 695.5 219.1 696 218.5Z" fill="#161616"/>
<path d="M659.199 219.1C661.099 218.1 662.999 217 664.799 215.8C666.399 214.8 664.899 212.2 663.299 213.2C661.499 214.4 659.599 215.5 657.699 216.5C655.899 217.4 657.499 220 659.199 219.1Z" fill="#161616"/>
<path d="M737.099 218.8C745.399 216.7 753.799 214.7 762.099 212.6C763.999 212.1 763.199 209.2 761.299 209.7C752.999 211.8 744.599 213.8 736.299 215.9C734.399 216.4 735.199 219.3 737.099 218.8Z" fill="#161616"/>
</g>
<defs>
<clipPath id="clip0">
<rect width="1274" height="1170" fill="white"/>
</clipPath>
</defs>
</svg>
