<svg width="1274" height="1170" viewBox="0 0 1274 1170" fill="none" xmlns="http://www.w3.org/2000/svg">
<g clip-path="url(#clip0)">
<path d="M1155.14 953.913C1140.24 931.113 1130.54 905.313 1126.84 878.313C1126.34 878.913 1125.84 879.613 1125.44 880.213C1128.84 879.913 1131.74 880.613 1134.44 882.713C1135.94 883.913 1138.04 881.813 1136.54 880.613C1133.14 878.013 1129.64 876.813 1125.44 877.213C1124.34 877.313 1123.84 878.113 1124.04 879.113C1127.84 906.413 1137.54 932.413 1152.64 955.413C1153.64 957.013 1156.24 955.513 1155.14 953.913Z" fill="#8B8585"/>
<path d="M1136.44 881.112C1133.04 846.012 1138.44 810.612 1152.24 778.112C1151.34 778.112 1150.54 778.112 1149.64 778.112C1151.14 780.312 1152.24 782.412 1153.14 784.912C1153.74 786.712 1156.64 785.912 1156.04 784.112C1155.04 781.412 1153.94 779.012 1152.24 776.612C1151.64 775.812 1150.14 775.512 1149.64 776.612C1135.64 809.612 1130.04 845.512 1133.44 881.112C1133.64 883.012 1136.64 883.112 1136.44 881.112Z" fill="#8B8585"/>
<path d="M1156.94 783.613C1160.44 775.113 1164.34 766.713 1168.74 758.713C1172.44 752.013 1177.74 738.513 1187.34 740.413C1197.04 742.313 1200.24 755.213 1202.34 763.313C1204.64 772.313 1205.64 781.613 1205.94 790.813C1206.54 808.213 1205.14 825.713 1203.94 843.013C1202.64 861.413 1200.54 879.813 1196.24 897.813C1191.54 917.813 1184.54 937.113 1175.64 955.513C1174.84 957.213 1177.34 958.813 1178.24 957.013C1187.04 938.913 1194.04 919.913 1198.74 900.313C1203.64 880.213 1205.84 859.713 1207.14 839.113C1208.44 818.613 1210.44 797.613 1207.94 777.113C1206.44 764.813 1202.84 737.813 1186.04 737.013C1177.24 736.613 1172.64 745.813 1168.94 752.213C1163.24 762.013 1158.34 772.213 1154.04 782.713C1153.34 784.613 1156.24 785.413 1156.94 783.613Z" fill="#8B8585"/>
<path d="M1206.24 855.212C1209.64 848.412 1213.64 842.012 1218.44 836.212C1220.74 833.412 1231.54 819.012 1235.84 822.312C1236.74 823.012 1237.04 826.412 1237.24 827.612C1237.84 830.112 1238.24 832.712 1238.44 835.312C1238.84 839.312 1238.94 843.212 1238.74 847.212C1238.34 855.712 1236.84 864.212 1234.74 872.512C1227.14 902.812 1213.54 931.412 1195.84 957.012C1194.74 958.612 1197.34 960.112 1198.44 958.512C1218.94 929.012 1235.64 893.612 1240.74 857.712C1241.94 849.212 1242.34 840.612 1241.14 832.112C1240.64 828.412 1239.94 816.412 1233.84 817.612C1231.04 818.212 1228.44 821.412 1226.44 823.212C1223.24 826.212 1220.14 829.412 1217.34 832.712C1211.94 839.112 1207.34 846.112 1203.64 853.612C1202.74 855.412 1205.34 856.912 1206.24 855.212Z" fill="#8B8585"/>
<path d="M489.1 957.4C475.9 942.3 465 925.3 456.8 907C456.6 907.7 456.4 908.4 456.3 909.1C460.3 907.3 464.3 906.6 468.7 906.9C470.6 907 470.6 904 468.7 903.9C463.8 903.6 459.3 904.5 454.8 906.5C454 906.9 454 907.9 454.3 908.6C462.7 927.2 473.7 944.3 487.1 959.6C488.2 961 490.4 958.9 489.1 957.4Z" fill="#8B8585"/>
<path d="M468.9 902.7C461 888.9 456 873.6 454.6 857.8C453.7 847.8 451.9 812 470.6 821.8C477.2 825.3 481 832.8 484.4 839.1C488.4 846.4 491.9 854 495 861.7C500.6 875.8 504.7 890.5 507.2 905.4C510.2 923.1 510.9 941.1 509.5 959.1C509.3 961 512.4 961 512.5 959.1C515.3 923 509.2 886.5 494.6 853.3C491 845.1 487 836.7 482 829.2C478.4 823.8 473.5 818.5 466.8 817.3C450.8 814.4 451 838.5 451 848.5C451.1 868.1 456.4 887.3 466.2 904.3C467.3 905.8 469.9 904.3 468.9 902.7Z" fill="#8B8585"/>
<path d="M503.9 877.5C503.3 870 505.5 835.8 519.7 843C531 848.7 533.4 866.4 534 877.6C534.7 890.3 534.2 903.1 533.9 915.8C533.5 929.1 532.5 942.3 527.9 954.9C527.2 956.7 530.1 957.5 530.8 955.7C536.5 940.3 536.8 923.9 537.1 907.7C537.4 892.4 538.7 876.1 534.6 861.1C532.3 852.8 524.1 834.5 512.3 840C507.3 842.4 505.1 849.2 503.5 854.1C501.1 861.8 500.3 869.7 500.9 877.7C501 879.5 504 879.5 503.9 877.5Z" fill="#8B8585"/>
<path d="M461.3 819.8C474.2 848.6 484.8 878.3 492.9 908.8C493.4 910.7 496.3 909.9 495.8 908C487.6 877.3 477 847.3 463.9 818.3C463.1 816.5 460.5 818 461.3 819.8Z" fill="#8B8585"/>
<path d="M453 859.3C468.3 864.7 480.7 875.8 487.8 890.4C488.7 892.1 491.2 890.6 490.4 888.9C482.9 873.6 469.8 862.1 453.8 856.4C452 855.8 451.2 858.7 453 859.3Z" fill="#8B8585"/>
<path d="M482.901 833.3C480.201 842.2 478.8 851.3 478.5 860.5C478.4 862.4 481.4 862.4 481.5 860.5C481.8 851.5 483.2 842.7 485.8 834.1C486.3 832.2 483.401 831.4 482.901 833.3Z" fill="#8B8585"/>
<path d="M503.101 859.3C512.501 870.3 519.201 882.9 523.201 896.8C523.701 898.7 526.601 897.9 526.101 896C522.001 881.6 515.001 868.5 505.301 857.2C504.001 855.7 501.901 857.8 503.101 859.3Z" fill="#8B8585"/>
<path d="M518.001 858.5C524.501 890.8 523.401 922.7 520.001 955.3C519.801 957.2 522.801 957.2 523.001 955.3C526.501 922.5 527.501 890.3 520.901 857.7C520.501 855.8 517.601 856.6 518.001 858.5Z" fill="#8B8585"/>
<path d="M323.2 598.5C323.2 605.6 323.2 612.7 323.2 619.9C323.2 621.8 326.2 621.8 326.2 619.9C326.2 612.8 326.2 605.7 326.2 598.5C326.2 596.6 323.2 596.6 323.2 598.5Z" fill="#8B8585"/>
<path d="M324.7 621.9C359.7 621.9 394.6 621.9 429.6 621.9C431.5 621.9 431.5 618.9 429.6 618.9C394.6 618.9 359.7 618.9 324.7 618.9C322.8 618.9 322.8 621.9 324.7 621.9Z" fill="#8B8585"/>
<path d="M324.7 599.7C359.9 599.7 395.1 599.7 430.3 599.7C432.2 599.7 432.2 596.7 430.3 596.7C395.1 596.7 359.9 596.7 324.7 596.7C322.8 596.7 322.8 599.7 324.7 599.7Z" fill="#8B8585"/>
<path d="M428.8 598C428.8 605.3 428.8 612.6 428.8 619.9C428.8 621.8 431.8 621.8 431.8 619.9C431.8 612.6 431.8 605.3 431.8 598C431.8 596 428.8 596 428.8 598Z" fill="#8B8585"/>
<path d="M362.7 621.5C362.7 627.6 362.7 633.7 362.7 639.8C362.7 641.7 365.7 641.7 365.7 639.8C365.7 633.7 365.7 627.6 365.7 621.5C365.7 619.6 362.7 619.6 362.7 621.5Z" fill="#8B8585"/>
<path d="M364.4 642.4C392.3 642.4 420.2 642.4 448.1 642.4C450 642.4 450 639.4 448.1 639.4C420.2 639.4 392.3 639.4 364.4 639.4C362.4 639.4 362.4 642.4 364.4 642.4Z" fill="#8B8585"/>
<path d="M430.5 622.1C436.7 622.1 442.9 622.1 449.2 622.1C451.1 622.1 451.1 619.1 449.2 619.1C443 619.1 436.8 619.1 430.5 619.1C428.5 619.1 428.5 622.1 430.5 622.1Z" fill="#8B8585"/>
<path d="M447.8 621.7C447.8 627.9 447.8 634.1 447.8 640.4C447.8 642.3 450.8 642.3 450.8 640.4C450.8 634.2 450.8 628 450.8 621.7C450.8 619.8 447.8 619.8 447.8 621.7Z" fill="#8B8585"/>
<path d="M438.2 641.3C438.2 648.1 438.2 654.8 438.2 661.6C438.2 663.5 441.2 663.5 441.2 661.6C441.2 654.8 441.2 648.1 441.2 641.3C441.2 639.3 438.2 639.3 438.2 641.3Z" fill="#8B8585"/>
<path d="M440.101 663.2C463.101 663.2 486.101 663.2 509.101 663.2C511.001 663.2 511.001 660.2 509.101 660.2C486.101 660.2 463.101 660.2 440.101 660.2C438.101 660.2 438.101 663.2 440.101 663.2Z" fill="#8B8585"/>
<path d="M449.5 642.6C469.5 642.6 489.5 642.6 509.5 642.6C511.4 642.6 511.4 639.6 509.5 639.6C489.5 639.6 469.5 639.6 449.5 639.6C447.6 639.6 447.6 642.6 449.5 642.6Z" fill="#8B8585"/>
<path d="M507.8 640.9C507.8 647.4 507.8 653.8 507.8 660.3C507.8 662.2 510.8 662.2 510.8 660.3C510.8 653.8 510.8 647.4 510.8 640.9C510.8 639 507.8 639 507.8 640.9Z" fill="#8B8585"/>
<path d="M439.6 660.1C420.5 660.1 401.4 660.1 382.3 660.1C380.4 660.1 380.4 663.1 382.3 663.1C401.4 663.1 420.5 663.1 439.6 663.1C441.5 663.1 441.5 660.1 439.6 660.1Z" fill="#8B8585"/>
<path d="M383.5 661.4C383.5 655 383.5 648.6 383.5 642.1C383.5 640.2 380.5 640.2 380.5 642.1C380.5 648.5 380.5 654.9 380.5 661.4C380.5 663.3 383.5 663.3 383.5 661.4Z" fill="#8B8585"/>
<path d="M260.2 169.7C260.2 242 260.2 314.2 260.2 386.5C260.2 388.4 263.2 388.4 263.2 386.5C263.2 314.2 263.2 242 263.2 169.7C263.2 167.8 260.2 167.8 260.2 169.7Z" fill="#8B8585"/>
<path d="M261.5 388.7C331.9 388.7 402.3 388.7 472.7 388.7C492.6 388.7 512.6 388.7 532.5 388.7C534.4 388.7 534.4 385.7 532.5 385.7C462.1 385.7 391.7 385.7 321.3 385.7C301.4 385.7 281.4 385.7 261.5 385.7C259.6 385.7 259.6 388.7 261.5 388.7Z" fill="#8B8585"/>
<path d="M262.2 169.7C331.8 169.7 401.4 169.7 471 169.7C490.7 169.7 510.3 169.7 530 169.7C531.9 169.7 531.9 166.7 530 166.7C460.4 166.7 390.8 166.7 321.2 166.7C301.5 166.7 281.9 166.7 262.2 166.7C260.3 166.7 260.3 169.7 262.2 169.7Z" fill="#8B8585"/>
<path d="M531.601 169.1C531.601 241.4 531.601 313.7 531.601 386.1C531.601 388 534.601 388 534.601 386.1C534.601 313.8 534.601 241.5 534.601 169.1C534.601 167.2 531.601 167.2 531.601 169.1Z" fill="#8B8585"/>
<path d="M275 180.7C275 246 275 311.3 275 376.5C275 378.4 278 378.4 278 376.5C278 311.2 278 245.9 278 180.7C278 178.7 275 178.7 275 180.7Z" fill="#8B8585"/>
<path d="M276.301 378.6C356.501 378.6 436.701 378.6 516.801 378.6C518.701 378.6 518.701 375.6 516.801 375.6C436.601 375.6 356.401 375.6 276.301 375.6C274.401 375.6 274.301 378.6 276.301 378.6Z" fill="#8B8585"/>
<path d="M276.901 180.8C356.101 180.8 435.401 180.8 514.601 180.8C516.501 180.8 516.501 177.8 514.601 177.8C435.401 177.8 356.101 177.8 276.901 177.8C275.001 177.8 275.001 180.8 276.901 180.8Z" fill="#8B8585"/>
<path d="M515.8 180.1C515.8 245.4 515.8 310.8 515.8 376.1C515.8 378 518.8 378 518.8 376.1C518.8 310.8 518.8 245.4 518.8 180.1C518.8 178.2 515.8 178.2 515.8 180.1Z" fill="#8B8585"/>
<path d="M392.7 181C392.7 212.9 392.7 244.7 392.7 276.6C392.7 278.5 395.7 278.5 395.7 276.6C395.7 244.7 395.7 212.9 395.7 181C395.7 179 392.7 179 392.7 181Z" fill="#8B8585"/>
<path d="M394.2 275C356.1 275 317.9 275 279.8 275C277.9 275 277.9 278 279.8 278C317.9 278 356.1 278 394.2 278C396.1 278 396.1 275 394.2 275Z" fill="#8B8585"/>
<path d="M407.601 181C407.601 212.6 407.601 244.1 407.601 275.7C407.601 277.6 410.601 277.6 410.601 275.7C410.601 244.1 410.601 212.6 410.601 181C410.601 179 407.601 179 407.601 181Z" fill="#8B8585"/>
<path d="M409.101 278.9C444.301 278.9 479.501 278.9 514.701 278.9C516.601 278.9 516.601 275.9 514.701 275.9C479.501 275.9 444.301 275.9 409.101 275.9C407.101 275.9 407.101 278.9 409.101 278.9Z" fill="#8B8585"/>
<path d="M278.9 292.9C317.2 292.9 355.5 292.9 393.7 292.9C395.6 292.9 395.6 289.9 393.7 289.9C355.4 289.9 317.1 289.9 278.9 289.9C277 289.9 276.9 292.9 278.9 292.9Z" fill="#8B8585"/>
<path d="M392.2 291.8C392.2 319.9 392.2 347.9 392.2 376C392.2 377.9 395.2 377.9 395.2 376C395.2 347.9 395.2 319.9 395.2 291.8C395.2 289.9 392.2 289.9 392.2 291.8Z" fill="#8B8585"/>
<path d="M407.101 294C407.101 321.3 407.101 348.6 407.101 376C407.101 377.9 410.101 377.9 410.101 376C410.101 348.7 410.101 321.4 410.101 294C410.101 292.1 407.101 292.1 407.101 294Z" fill="#8B8585"/>
<path d="M408.2 296C444.3 296 480.4 296 516.5 296C518.4 296 518.4 293 516.5 293C480.4 293 444.3 293 408.2 293C406.3 293 406.2 296 408.2 296Z" fill="#8B8585"/>
<path d="M483 181.7C460.5 207.1 439.4 233.7 419.6 261.3C418.5 262.9 421.1 264.4 422.2 262.8C441.8 235.4 462.8 209 485.1 183.8C486.4 182.4 484.3 180.2 483 181.7Z" fill="#8B8585"/>
<path d="M482.801 218.7C472.401 231.3 462 243.9 451.6 256.4C450.4 257.9 452.501 260 453.701 258.5C464.101 245.9 474.501 233.3 484.901 220.8C486.101 219.3 484.001 217.2 482.801 218.7Z" fill="#8B8585"/>
<path d="M290.4 374.9C316.6 348.7 342.8 322.4 369 296.2C370.4 294.8 368.2 292.7 366.9 294.1C340.7 320.3 314.5 346.6 288.3 372.8C287 374.1 289.1 376.2 290.4 374.9Z" fill="#8B8585"/>
<path d="M335.7 365.7C344.6 354.3 354 343.5 364.1 333.2C365.5 331.8 363.3 329.7 362 331.1C351.9 341.4 342.4 352.2 333.6 363.6C332.4 365.1 334.5 367.3 335.7 365.7Z" fill="#8B8585"/>
<path d="M1018.4 166.4C1018.4 238.7 1018.4 310.9 1018.4 383.2C1018.4 385.1 1021.4 385.1 1021.4 383.2C1021.4 310.9 1021.4 238.7 1021.4 166.4C1021.4 164.5 1018.4 164.5 1018.4 166.4Z" fill="#8B8585"/>
<path d="M1019.7 385.4C1090.1 385.4 1160.5 385.4 1230.9 385.4C1250.8 385.4 1270.8 385.4 1290.7 385.4C1292.6 385.4 1292.6 382.4 1290.7 382.4C1220.3 382.4 1149.9 382.4 1079.5 382.4C1059.6 382.4 1039.6 382.4 1019.7 382.4C1017.8 382.4 1017.8 385.4 1019.7 385.4Z" fill="#8B8585"/>
<path d="M1020.4 166.5C1090 166.5 1159.6 166.5 1229.2 166.5C1248.9 166.5 1268.5 166.5 1288.2 166.5C1290.1 166.5 1290.1 163.5 1288.2 163.5C1218.6 163.5 1149 163.5 1079.4 163.5C1059.7 163.5 1040.1 163.5 1020.4 163.5C1018.5 163.5 1018.5 166.5 1020.4 166.5Z" fill="#8B8585"/>
<path d="M1033.2 177.4C1033.2 242.7 1033.2 308 1033.2 373.2C1033.2 375.1 1036.2 375.1 1036.2 373.2C1036.2 307.9 1036.2 242.6 1036.2 177.4C1036.2 175.4 1033.2 175.4 1033.2 177.4Z" fill="#8B8585"/>
<path d="M1034.5 375.3C1114.7 375.3 1194.9 375.3 1275 375.3C1276.9 375.3 1276.9 372.3 1275 372.3C1194.8 372.3 1114.6 372.3 1034.5 372.3C1032.5 372.3 1032.5 375.3 1034.5 375.3Z" fill="#8B8585"/>
<path d="M1035.1 177.5C1114.3 177.5 1193.6 177.5 1272.8 177.5C1274.7 177.5 1274.7 174.5 1272.8 174.5C1193.6 174.5 1114.3 174.5 1035.1 174.5C1033.2 174.5 1033.2 177.5 1035.1 177.5Z" fill="#8B8585"/>
<path d="M1150.9 177.7C1150.9 209.6 1150.9 241.4 1150.9 273.3C1150.9 275.2 1153.9 275.2 1153.9 273.3C1153.9 241.4 1153.9 209.6 1153.9 177.7C1153.9 175.7 1150.9 175.7 1150.9 177.7Z" fill="#8B8585"/>
<path d="M1152.4 271.7C1114.3 271.7 1076.1 271.7 1038 271.7C1036.1 271.7 1036.1 274.7 1038 274.7C1076.1 274.7 1114.3 274.7 1152.4 274.7C1154.3 274.7 1154.3 271.7 1152.4 271.7Z" fill="#8B8585"/>
<path d="M1165.8 177.7C1165.8 209.3 1165.8 240.8 1165.8 272.4C1165.8 274.3 1168.8 274.3 1168.8 272.4C1168.8 240.8 1168.8 209.3 1168.8 177.7C1168.8 175.7 1165.8 175.7 1165.8 177.7Z" fill="#8B8585"/>
<path d="M1167.3 275.6C1202.5 275.6 1237.7 275.6 1272.9 275.6C1274.8 275.6 1274.8 272.6 1272.9 272.6C1237.7 272.6 1202.5 272.6 1167.3 272.6C1165.3 272.6 1165.3 275.6 1167.3 275.6Z" fill="#8B8585"/>
<path d="M1037.1 289.6C1075.4 289.6 1113.7 289.6 1151.9 289.6C1153.8 289.6 1153.8 286.6 1151.9 286.6C1113.6 286.6 1075.3 286.6 1037.1 286.6C1035.1 286.6 1035.1 289.6 1037.1 289.6Z" fill="#8B8585"/>
<path d="M1150.4 288.6C1150.4 316.7 1150.4 344.7 1150.4 372.8C1150.4 374.7 1153.4 374.7 1153.4 372.8C1153.4 344.7 1153.4 316.7 1153.4 288.6C1153.4 286.6 1150.4 286.6 1150.4 288.6Z" fill="#8B8585"/>
<path d="M1165.3 290.8C1165.3 318.1 1165.3 345.4 1165.3 372.8C1165.3 374.7 1168.3 374.7 1168.3 372.8C1168.3 345.5 1168.3 318.2 1168.3 290.8C1168.3 288.8 1165.3 288.8 1165.3 290.8Z" fill="#8B8585"/>
<path d="M1166.4 292.7C1202.5 292.7 1238.6 292.7 1274.7 292.7C1276.6 292.7 1276.6 289.7 1274.7 289.7C1238.6 289.7 1202.5 289.7 1166.4 289.7C1164.4 289.7 1164.4 292.7 1166.4 292.7Z" fill="#8B8585"/>
<path d="M1241.2 178.4C1218.7 203.8 1197.6 230.4 1177.8 258C1176.7 259.6 1179.3 261.1 1180.4 259.5C1200 232.1 1221 205.7 1243.3 180.5C1244.6 179.1 1242.5 177 1241.2 178.4Z" fill="#8B8585"/>
<path d="M1241 215.4C1230.6 228 1220.2 240.6 1209.8 253.1C1208.6 254.6 1210.7 256.7 1211.9 255.2C1222.3 242.6 1232.7 230 1243.1 217.5C1244.3 216 1242.2 213.9 1241 215.4Z" fill="#8B8585"/>
<path d="M1048.6 371.6C1074.8 345.4 1101 319.1 1127.2 292.9C1128.6 291.5 1126.4 289.4 1125.1 290.8C1098.9 317 1072.7 343.3 1046.5 369.5C1045.2 370.8 1047.3 372.9 1048.6 371.6Z" fill="#8B8585"/>
<path d="M1093.9 362.5C1102.8 351.1 1112.2 340.3 1122.3 330C1123.7 328.6 1121.5 326.5 1120.2 327.9C1110.1 338.2 1100.6 349 1091.8 360.4C1090.6 361.8 1092.7 364 1093.9 362.5Z" fill="#8B8585"/>
<path d="M1013 490.2C1048.3 490.2 1083.7 490.2 1119 490.2C1120.9 490.2 1120.9 487.2 1119 487.2C1083.7 487.2 1048.3 487.2 1013 487.2C1011.1 487.2 1011.1 490.2 1013 490.2Z" fill="#8B8585"/>
<path d="M1064.8 490C1064.8 496.7 1064.8 503.3 1064.8 510C1064.8 511.9 1067.8 511.9 1067.8 510C1067.8 503.3 1067.8 496.7 1067.8 490C1067.8 488.1 1064.8 488.1 1064.8 490Z" fill="#8B8585"/>
<path d="M1066.3 511.5C1094.1 511.5 1121.9 511.5 1149.6 511.5C1151.5 511.5 1151.5 508.5 1149.6 508.5C1121.8 508.5 1094 508.5 1066.3 508.5C1064.4 508.5 1064.4 511.5 1066.3 511.5Z" fill="#8B8585"/>
<path d="M1118.8 489.3C1118.8 495.7 1118.8 502.2 1118.8 508.6C1118.8 510.5 1121.8 510.5 1121.8 508.6C1121.8 502.2 1121.8 495.7 1121.8 489.3C1121.8 487.4 1118.8 487.4 1118.8 489.3Z" fill="#8B8585"/>
<path d="M1014.5 488C1014.5 482.7 1014.5 477.3 1014.5 472C1014.5 470.1 1011.5 470.1 1011.5 472C1011.5 477.3 1011.5 482.7 1011.5 488C1011.5 489.9 1014.5 489.9 1014.5 488Z" fill="#8B8585"/>
<path d="M1014.3 472.8C1040.1 472.8 1065.9 472.8 1091.6 472.8C1093.5 472.8 1093.5 469.8 1091.6 469.8C1065.8 469.8 1040 469.8 1014.3 469.8C1012.4 469.8 1012.4 472.8 1014.3 472.8Z" fill="#8B8585"/>
<path d="M1090.8 473.3C1090.8 478.4 1090.8 483.5 1090.8 488.6C1090.8 490.5 1093.8 490.5 1093.8 488.6C1093.8 483.5 1093.8 478.4 1093.8 473.3C1093.8 471.4 1090.8 471.4 1090.8 473.3Z" fill="#8B8585"/>
<path d="M997 512.2C1021.7 512.2 1046.3 512.2 1071 512.2C1072.9 512.2 1072.9 509.2 1071 509.2C1046.3 509.2 1021.7 509.2 997 509.2C995.1 509.2 995.1 512.2 997 512.2Z" fill="#8B8585"/>
<path d="M994.8 512C994.8 517.6 994.8 523.1 994.8 528.7C994.8 530.6 997.8 530.6 997.8 528.7C997.8 523.1 997.8 517.6 997.8 512C997.8 510.1 994.8 510.1 994.8 512Z" fill="#8B8585"/>
<path d="M996.3 531.5C1019.9 531.5 1043.4 531.5 1067 531.5C1068.9 531.5 1068.9 528.5 1067 528.5C1043.4 528.5 1019.9 528.5 996.3 528.5C994.4 528.5 994.4 531.5 996.3 531.5Z" fill="#8B8585"/>
<path d="M1065.5 512C1065.5 517.8 1065.5 523.6 1065.5 529.3C1065.5 531.2 1068.5 531.2 1068.5 529.3C1068.5 523.5 1068.5 517.7 1068.5 512C1068.5 510.1 1065.5 510.1 1065.5 512Z" fill="#8B8585"/>
<path d="M501.8 446.1C545.4 446.1 588.9 446.1 632.5 446.1C634.4 446.1 634.4 443.1 632.5 443.1C588.9 443.1 545.4 443.1 501.8 443.1C499.9 443.1 499.9 446.1 501.8 446.1Z" fill="#8B8585"/>
<path d="M502.7 444.6C502.7 439 502.7 433.4 502.7 427.8C502.7 425.9 499.7 425.9 499.7 427.8C499.7 433.4 499.7 439 499.7 444.6C499.7 446.5 502.7 446.5 502.7 444.6Z" fill="#8B8585"/>
<path d="M502.901 427.5C526.201 427.5 549.601 427.5 572.901 427.5C574.801 427.5 574.801 424.5 572.901 424.5C549.601 424.5 526.201 424.5 502.901 424.5C501.001 424.5 501.001 427.5 502.901 427.5Z" fill="#8B8585"/>
<path d="M571.4 427.8C571.4 433.2 571.4 438.6 571.4 444C571.4 445.9 574.4 445.9 574.4 444C574.4 438.6 574.4 433.2 574.4 427.8C574.4 425.8 571.4 425.8 571.4 427.8Z" fill="#8B8585"/>
<path d="M552.3 446.9C552.3 452.5 552.3 458.1 552.3 463.7C552.3 465.6 555.3 465.6 555.3 463.7C555.3 458.1 555.3 452.5 555.3 446.9C555.3 444.9 552.3 444.9 552.3 446.9Z" fill="#8B8585"/>
<path d="M554.401 466.3C579.801 466.3 605.301 466.3 630.701 466.3C632.601 466.3 632.601 463.3 630.701 463.3C605.301 463.3 579.801 463.3 554.401 463.3C552.501 463.3 552.501 466.3 554.401 466.3Z" fill="#8B8585"/>
<path d="M631 446.3C631 452.7 631 459 631 465.4C631 467.3 634 467.3 634 465.4C634 459 634 452.7 634 446.3C634 444.4 631 444.4 631 446.3Z" fill="#8B8585"/>
<path d="M570.8 465.9C570.8 471.1 570.8 476.3 570.8 481.5C570.8 483.4 573.8 483.4 573.8 481.5C573.8 476.3 573.8 471.1 573.8 465.9C573.8 464 570.8 464 570.8 465.9Z" fill="#8B8585"/>
<path d="M571.2 481.2C549 481.2 526.9 481.2 504.7 481.2C502.8 481.2 502.8 484.2 504.7 484.2C526.9 484.2 549 484.2 571.2 484.2C573.1 484.2 573.1 481.2 571.2 481.2Z" fill="#8B8585"/>
<path d="M557.3 463.9C539.9 463.9 522.6 463.9 505.2 463.9C503.3 463.9 503.3 466.9 505.2 466.9C522.6 466.9 539.9 466.9 557.3 466.9C559.2 466.9 559.2 463.9 557.3 463.9Z" fill="#8B8585"/>
<path d="M503.8 465.4C503.8 471 503.8 476.6 503.8 482.2C503.8 484.1 506.8 484.1 506.8 482.2C506.8 476.6 506.8 471 506.8 465.4C506.8 463.4 503.8 463.4 503.8 465.4Z" fill="#8B8585"/>
<path d="M1195.4 691.3C1222.9 691.3 1250.4 691.3 1277.9 691.3C1279.8 691.3 1279.8 688.3 1277.9 688.3C1250.4 688.3 1222.9 688.3 1195.4 688.3C1193.5 688.3 1193.5 691.3 1195.4 691.3Z" fill="#8B8585"/>
<path d="M1244.5 689C1244.5 682.8 1244.5 676.6 1244.5 670.4C1244.5 668.5 1241.5 668.5 1241.5 670.4C1241.5 676.6 1241.5 682.8 1241.5 689C1241.5 690.9 1244.5 690.9 1244.5 689Z" fill="#8B8585"/>
<path d="M1243.8 671.5C1267.3 671.5 1290.8 671.5 1314.4 671.5C1316.3 671.5 1316.3 668.5 1314.4 668.5C1290.9 668.5 1267.4 668.5 1243.8 668.5C1241.8 668.5 1241.8 671.5 1243.8 671.5Z" fill="#8B8585"/>
<path d="M1275.9 690.9C1288.3 690.9 1300.7 690.9 1313.2 690.9C1315.1 690.9 1315.1 687.9 1313.2 687.9C1300.8 687.9 1288.4 687.9 1275.9 687.9C1273.9 687.9 1273.9 690.9 1275.9 690.9Z" fill="#8B8585"/>
<path d="M1192.3 691.4C1192.3 696.2 1192.3 700.9 1192.3 705.7C1192.3 707.6 1195.3 707.6 1195.3 705.7C1195.3 700.9 1195.3 696.2 1195.3 691.4C1195.3 689.5 1192.3 689.4 1192.3 691.4Z" fill="#8B8585"/>
<path d="M1194.2 708.7C1220.2 708.7 1246.3 708.7 1272.3 708.7C1274.2 708.7 1274.2 705.7 1272.3 705.7C1246.3 705.7 1220.2 705.7 1194.2 705.7C1192.3 705.7 1192.3 708.7 1194.2 708.7Z" fill="#8B8585"/>
<path d="M1271.6 690.2C1271.6 695.6 1271.6 701 1271.6 706.5C1271.6 708.4 1274.6 708.4 1274.6 706.5C1274.6 701.1 1274.6 695.7 1274.6 690.2C1274.6 688.3 1271.6 688.3 1271.6 690.2Z" fill="#8B8585"/>
<path d="M1203.3 647.3C1228.5 647.3 1253.8 647.3 1279 647.3C1280.9 647.3 1280.9 644.3 1279 644.3C1253.8 644.3 1228.5 644.3 1203.3 644.3C1201.4 644.3 1201.4 647.3 1203.3 647.3Z" fill="#8B8585"/>
<path d="M1202.6 646.2C1202.6 653.3 1202.6 660.5 1202.6 667.6C1202.6 669.5 1205.6 669.5 1205.6 667.6C1205.6 660.5 1205.6 653.3 1205.6 646.2C1205.6 644.3 1202.6 644.3 1202.6 646.2Z" fill="#8B8585"/>
<path d="M1206.1 670.7C1223.9 670.7 1241.8 670.7 1259.6 670.7C1261.5 670.7 1261.5 667.7 1259.6 667.7C1241.8 667.7 1223.9 667.7 1206.1 667.7C1204.2 667.7 1204.2 670.7 1206.1 670.7Z" fill="#8B8585"/>
<path d="M370.6 960.6C387 960.6 403.4 960.6 419.8 960.6C421.7 960.6 421.7 957.6 419.8 957.6C403.4 957.6 387 957.6 370.6 957.6C368.7 957.6 368.7 960.6 370.6 960.6Z" fill="#161616"/>
<path d="M244.244 960.8C374.821 960.8 505.306 960.8 635.883 960.8C765.729 960.8 895.667 960.8 1025.51 960.8C1098.79 960.8 1172.06 960.8 1245.33 960.8C1248.89 960.8 1248.89 954.8 1245.33 954.8C1114.75 954.8 984.269 954.8 853.693 954.8C723.846 954.8 593.908 954.8 464.062 954.8C390.789 954.8 317.517 954.8 244.244 954.8C240.686 954.8 240.686 960.8 244.244 960.8Z" fill="#161616"/>
<path d="M1148.72 981C1189.26 981 1229.75 981 1270.29 981C1272.57 981 1272.57 975 1270.29 975C1229.75 975 1189.26 975 1148.72 975C1146.5 975 1146.5 981 1148.72 981Z" fill="#161616"/>
<path d="M436.2 1056.6C514 1056.6 591.7 1056.6 669.5 1056.6C673.4 1056.6 673.4 1050.6 669.5 1050.6C591.7 1050.6 514 1050.6 436.2 1050.6C432.3 1050.6 432.3 1056.6 436.2 1056.6Z" fill="#161616"/>
<path d="M15.0002 1027.3C66.9002 1027.3 118.8 1027.3 170.7 1027.3C174.6 1027.3 174.6 1021.3 170.7 1021.3C118.8 1021.3 66.9002 1021.3 15.0002 1021.3C11.1002 1021.3 11.1002 1027.3 15.0002 1027.3Z" fill="#161616"/>
<path d="M203.5 1000C260.4 1000 317.3 1000 374.2 1000C378.1 1000 378.1 994 374.2 994C317.3 994 260.4 994 203.5 994C199.6 994 199.6 1000 203.5 1000Z" fill="#161616"/>
<path d="M166.9 919C243.7 876.9 317 828.6 388.7 778.3C460.5 727.9 531 675.5 602.7 624.9C642.9 596.6 683.5 568.8 724.9 542.3C726.5 541.3 725 538.7 723.4 539.7C649.5 587 578.3 638.3 507.2 689.7C436.2 741.1 365.2 792.7 291.7 840.4C250.5 867.1 208.6 892.7 165.5 916.3C163.7 917.3 165.2 919.9 166.9 919Z" fill="#161616"/>
<path d="M111.3 898.401C105.3 901.701 101.3 906 99.2004 908.3C96.0004 911.8 93.8004 914.1 92.1004 917.6C89.5004 923.2 89.8004 929.501 90.6004 941.901C91.2004 951.101 91.8004 950.2 91.4004 952.3C89.2004 963.7 76.7004 965.801 77.0004 973.501C77.2004 978.301 82.0004 982.2 86.1004 983.6C92.4004 985.8 100 983.001 104.5 976.501C99.7004 978.901 92.7004 983.501 88.3004 991.701C86.7004 994.701 84.6004 998.601 86.0004 1000.5C88.4004 1003.8 99.3004 999.901 109 995.701C108.5 998.001 108.4 1000.8 110 1002.8C113.9 1007.7 125.4 1003.8 128.4 1002.8C131.8 1001.6 132.3 1001 147.6 991.401C155.6 986.401 158.4 984.7 163 981.3C166.9 978.4 169.9 975.901 172.1 974.001C179.3 974.201 188 973.801 197.6 972.001C215.7 968.501 229.6 961.4 238.5 955.8C239.2 958.7 239.8 961.7 240.5 964.6C231.8 970 225.1 974.001 220.5 976.701C217.6 978.401 214.6 980.201 214.9 981.501C215.4 983.401 222.2 983.3 226.5 983.3C231.3 983.3 235.3 982.7 238.1 982.3C238.3 983 239 984.9 240.9 985.8C243.7 987.3 247.3 985.6 247.2 985.3C247.2 985.1 245.7 985.101 245.7 985.001C245.7 984.801 256.6 984.801 264.1 984.201C270.4 983.701 279.6 982.501 290.9 978.901C292.8 971.201 293.2 965.201 293.2 961.001C293.2 957.901 293 956.301 293.5 953.201C294.4 947.101 296.3 945.1 297.3 940.6C298 937.6 298.2 933.101 296.3 927.201C299.6 925.901 301.8 924.101 303.1 922.901C303.4 922.601 310.2 916.001 309.4 907.001C309.2 905.101 309 902.601 307.4 901.701C304.8 900.301 300.3 903.901 298.1 906.501C294.2 911.001 294 916.6 294.1 919.1C291.4 914.9 286 907.701 276.7 903.201C273 901.401 269.3 900.301 265.3 899.701C246.5 896.501 224.4 903.001 210.5 908.001C192.3 914.601 183.6 920.301 172.4 918.401C169 917.801 161.6 916.5 156.5 910.8C154.5 908.6 154.3 907.301 151.7 904.201C150.8 903.101 146.1 897.601 140.1 894.901C127.9 889.301 114.1 896.901 111.3 898.401Z" fill="white"/>
<path d="M162.5 916.5C160.2 921.8 157 926.6 153 930.9C151.7 932.3 153.8 934.4 155.1 933C159.3 928.6 162.6 923.6 165 918C165.9 916.2 163.3 914.7 162.5 916.5Z" fill="#EF5F75"/>
<path d="M163.9 917.7C161.6 924.1 158.1 929.7 153.4 934.5C152.1 935.9 154.2 938 155.5 936.6C160.6 931.4 164.3 925.3 166.8 918.5C167.4 916.7 164.5 915.9 163.9 917.7Z" fill="#EF5F75"/>
<path d="M114.6 921.9C116.5 934.1 118.3 946.7 124.2 957.8C128.4 965.8 137.2 973.4 146.6 968.5C155.9 963.6 157.2 951.6 156.6 942.2C155.9 931.9 152.3 922 144.8 914.7C143.4 913.4 141.3 915.5 142.7 916.8C149 923 152.4 931.2 153.4 939.9C154.4 948.8 154.1 961.7 144.7 966.1C133.3 971.3 126.2 956.3 123.4 947.9C120.4 939.2 119 930.2 117.7 921.1C117.2 919.2 114.3 920 114.6 921.9Z" fill="#161616"/>
<path d="M110.8 896.8C99.5001 904.7 89.2001 914.9 87.7001 929.3C87.4001 932.7 87.6001 936.1 88.4001 939.3C89.6001 944 92.2001 947.9 89.4001 952.7C85.0001 960.3 78.7001 967.4 73.5001 974.5C72.4001 976.1 75.0002 977.6 76.1002 976C81.0002 969.3 86.1002 962.7 90.8002 955.9C94.8002 950.2 93.7002 946.4 91.8002 940C86.4002 922.7 99.3001 908.4 112.4 899.3C113.9 898.3 112.4 895.7 110.8 896.8Z" fill="#161616"/>
<path d="M73.4002 977.1C77.6002 980.9 82.2002 985 88.1002 985.6C93.5002 986.1 98.7002 983.2 102.9 980.2C112.4 973.5 119.2 964 123.6 953.3C124.3 951.5 121.4 950.7 120.7 952.5C117.2 961.1 111.8 969 104.7 975C100.7 978.3 95.5002 982.3 90.1002 982.6C84.2002 983 79.5002 978.6 75.5002 974.9C74.1002 973.7 72.0002 975.8 73.4002 977.1Z" fill="#161616"/>
<path d="M92.6003 941.7C94.1003 944.5 95.8003 947.1 97.9003 949.4C99.2003 950.9 101.3 948.7 100 947.3C98.1003 945.1 96.5003 942.7 95.2003 940.2C94.2003 938.5 91.7003 940 92.6003 941.7Z" fill="#161616"/>
<path d="M77.9999 971.8C79.9999 974.1 80.5999 977 80.2999 979.9C80.0999 981.8 83.0999 981.8 83.2999 979.9C83.6999 976.2 82.5999 972.5 80.0999 969.7C78.7999 968.3 76.6999 970.4 77.9999 971.8Z" fill="#161616"/>
<path d="M75.3006 976.2C76.5006 977.1 77.6006 978.1 78.8006 979C80.0006 980 82.2006 978.7 81.2006 977.2C80.4006 976 79.9006 974.6 79.9006 973.1C79.0006 973.4 78.0006 973.601 77.1006 973.901C77.4006 974.301 77.7006 974.7 77.9006 975.1C79.0006 976.7 81.6006 975.2 80.5006 973.6C80.2006 973.2 79.9006 972.801 79.7006 972.401C78.9006 971.301 76.9006 971.6 76.9006 973.2C76.9006 975.2 77.5006 977.1 78.6006 978.8C79.4006 978.2 80.2006 977.6 81.0006 977C79.8006 976.1 78.7006 975.1 77.5006 974.2C76.9006 973.7 76.0006 973.6 75.4006 974.2C74.8006 974.6 74.7006 975.7 75.3006 976.2Z" fill="#161616"/>
<path d="M134.7 894.6C143.3 896.7 149.1 903.3 154.3 910C159.3 916.3 162.7 919.7 171.1 919.2C188.5 918.1 205.1 911.5 221.6 906.5C238.6 901.4 260.1 895.8 276.9 904.4C294.3 913.3 300.8 934.7 292.1 952C291.2 953.7 293.8 955.2 294.7 953.5C307.2 928.5 290.6 900.4 263.4 897.5C232.2 894.2 204 912.7 173.6 915.9C167.9 916.5 163.1 916.2 159.1 911.4C156.7 908.5 154.5 905.4 152 902.6C147.4 897.5 142.1 893.3 135.3 891.6C133.6 891.2 132.8 894.1 134.7 894.6Z" fill="#161616"/>
<path d="M262.4 923.2C254.6 929.4 248.9 937.5 249.5 947.9C250.1 957.1 255.6 965 263.8 969.2C265.5 970.1 267 967.5 265.3 966.6C257.6 962.6 252.4 955.1 252.5 946.2C252.6 937.2 257.8 930.6 264.5 925.3C266 924.2 263.9 922 262.4 923.2Z" fill="#161616"/>
<path d="M264 968.4C258.4 970.1 252.9 972.1 247.5 974.5C244.5 975.9 237.1 977.9 236.1 981.6C234 989.4 253.4 986.3 256.3 986.1C262.1 985.7 267.9 985.1 273.7 984.2C278.8 983.4 285.7 983.3 290.3 980.8C293.8 979 293.5 975.1 293.7 971.6C294.2 964.7 294.8 957.9 295.3 951C295.5 949.1 292.5 949.1 292.3 951C292 955.4 291.6 959.7 291.3 964.1C291 968.1 291.9 976.1 288 978.4C285.3 980 280.6 980 277.5 980.5C272.6 981.3 267.8 982 262.8 982.5C258.7 982.9 254.6 983.2 250.5 983.3C248.3 983.4 246.1 983.6 243.9 983.5C242 983.4 238.8 984.1 240.1 981.4C240.7 980.3 244.5 979 245.7 978.5C248 977.4 250.4 976.3 252.8 975.3C256.7 973.7 260.7 972.4 264.7 971.2C266.7 970.7 265.9 967.8 264 968.4Z" fill="#161616"/>
<path d="M154.1 947.9C154.8 964.6 141.1 975.8 127.7 983C122 986 100.5 992.8 108.1 1003C114.8 1012 131.3 1002.7 138.6 998.8C151.2 992.1 162.2 983 173.2 973.9C174.7 972.7 172.6 970.6 171.1 971.8C161.6 979.6 152.1 987.5 141.5 993.7C136.1 996.9 130.4 999.7 124.4 1001.7C121 1002.8 116.5 1004.6 113.1 1002.9C106.1 999.5 111.9 994.4 115.9 992.2C133.9 982.7 158.2 972.1 157.1 947.8C157 946 154 946 154.1 947.9Z" fill="#161616"/>
<path d="M95.7001 941.8C96.2001 938.4 98.0001 935.3 101.1 933.7C102.8 932.8 101.3 930.2 99.6001 931.1C95.8001 933.1 93.4001 936.9 92.8001 941C92.5001 942.9 95.4001 943.7 95.7001 941.8Z" fill="#161616"/>
<path d="M108.2 970.4C106.6 973.4 103.6 975.1 101 977.2C98.3002 979.4 95.7002 981.8 93.2002 984.3C90.2002 987.4 83.5002 992.8 83.2002 997.5C82.5002 1009.1 104.1 999.1 108.2 997.8C110 997.2 109.2 994.3 107.4 994.9C102.9 996.4 98.5002 998 93.9002 999.3C92.6002 999.8 91.2002 1000.1 89.9002 1000.2C87.4002 997.3 87.3002 994.8 89.4002 992.9C90.4002 991.2 92.2002 989.7 93.5002 988.3C96.5002 985.1 99.7002 982.1 103.1 979.3C105.9 977 109 975.2 110.7 971.9C111.7 970.2 109.1 968.7 108.2 970.4Z" fill="#161616"/>
<path d="M172.901 975C201.001 975.1 228.601 966.4 251.501 950.1C253.101 949 251.601 946.4 250.001 947.5C227.501 963.5 200.601 972.1 172.901 972C171.001 971.9 171.001 974.9 172.901 975Z" fill="#161616"/>
<path d="M236 957.2C236.6 958.9 237.1 960.5 237.7 962.2C238.6 964.7 239.4 965.5 236.9 967C233.8 968.9 230.1 970.3 226.8 971.9C223.4 973.5 220 975 216.7 976.8C215.1 977.6 213.6 978.5 212.9 980.2C209.3 989.8 232.9 984.4 236.4 983.3C238.2 982.7 237.4 979.8 235.6 980.4C232.9 981.3 230.1 982 227.3 982.3C225.5 982.5 220.5 983.6 218.7 982.6C213.9 979.9 221.6 977.7 223.2 976.9C225.7 975.7 228.2 974.4 230.8 973.2C233.6 971.8 240.4 970.2 241.7 967.1C242.9 964.3 239.7 958.9 238.8 956.3C238.3 954.6 235.4 955.4 236 957.2Z" fill="#161616"/>
<path d="M295.5 918.7C295.4 914.8 296.1 911.1 298.2 907.7C299.1 906.3 300.4 904.4 302 903.7C310.4 900.2 308.9 908.1 308.2 910.9C306.4 917.3 301.4 922.5 295.9 925.9C294.2 926.9 295.8 929.5 297.4 928.5C302.8 925.3 307.2 920.7 309.9 914.9C311.6 911.1 313.3 905.5 310 902.1C307 899 302.2 899.8 299.1 902.2C294.2 906 292.4 912.8 292.6 918.8C292.6 920.6 295.6 920.7 295.5 918.7Z" fill="#161616"/>
<path d="M111.8 900.2C118.4 895.8 128.9 891.3 136.6 895.3C138.3 896.2 139.8 893.6 138.1 892.7C129.3 888.1 117.9 892.6 110.3 897.6C108.7 898.6 110.2 901.2 111.8 900.2Z" fill="#161616"/>
<path opacity="0.09" d="M145 914.5C148 915.7 155.6 919.1 161 927.3C163.3 930.8 169 939.5 165.8 949.3C162.9 958.1 154.7 962 152.8 962.8C154.1 960 155.9 955.5 156.3 949.8C156.8 942.6 155 937.2 153 931.3C151.6 927 149.2 921.1 145 914.5Z" fill="#6D6C6C"/>
<path opacity="0.13" d="M115 945.8C112.2 956.7 107 963.8 104.2 967.6C98.4004 975.5 91.9004 980.8 86.9004 984.1C90.7004 983.6 96.2004 982.2 101.9 978.8C103.5 977.8 110.7 973.5 116.2 964.5C119.2 959.6 120.7 955.1 121.5 952C119.8 942.6 118.2 933.2 116.5 923.7C117.1 928.6 117.4 936.5 115 945.8Z" fill="#6D6C6C"/>
<path opacity="0.07" d="M288 911.8C288.9 916.5 289.9 923.8 288.5 932.6C286.1 948.2 277.9 958.4 274.2 962.9C262.5 977.2 248 982.9 241.2 985.2C257 984.7 269.8 983.3 279.2 981.9C285.6 981 289.7 980.2 292.2 976.9C296.4 971.3 291.4 965.3 293.7 951.9C295.2 942.8 297.9 942.2 298.2 935.6C298.5 929.6 296.7 921.6 288 911.8Z" fill="#6D6C6C"/>
<path opacity="0.14" d="M238.3 957.5C239 958.6 241.3 962.3 240.1 965.8C239.8 966.6 239 968.4 234.3 970.8C226.3 975 221.8 973.3 218 977.6C217.7 977.9 215.1 980.9 216 982.9C216.9 984.8 220.9 984.6 224.3 984.4C227.6 984.2 232.3 983.5 237.8 981.4C241 979.3 244.9 977 249.6 974.9C254.8 972.6 259.6 971.1 263.6 970.1C263.2 968.8 262.3 966.9 260.8 964.8C258.1 961.2 255.6 960.7 253.3 957.5C252.3 956.1 251 953.8 250.5 950.2C246.4 952.7 242.3 955.1 238.3 957.5Z" fill="#6D6C6C"/>
<path opacity="0.25" d="M307.5 902.5C307.3 905.1 306.7 909 305 913.3C302 921 297.5 925.1 298.2 925.8C298.8 926.4 303.2 923.7 306 919.8C308.3 916.5 308.9 913.3 309 912.3C309.7 907.6 308.2 903.9 307.5 902.5Z" fill="#6D6C6C"/>
<path d="M933.6 891.2C956.2 912.4 978.7 933.7 1001.3 954.9C974.9 1008.6 964.3 1037 969.5 1040.2C975.9 1044.2 1006.9 1008.9 1062.6 934.1C1024.2 906.1 985.8 878.1 947.4 850C942.8 863.8 938.2 877.5 933.6 891.2Z" fill="#191919"/>
<path d="M836.8 581.6C828.4 594.4 833.2 606.1 838 650.3C842.9 695.1 838.8 690.4 842.8 721.4C849.6 773.8 864.6 811.7 876.6 841.4C876.6 841.4 893.5 883.5 926.6 922.2C927.5 923.3 929.6 925.5 932.6 927.6C935.6 929.7 942 934.1 949.5 933C957.4 931.9 963.4 925.2 965.8 919.1C968.5 912.2 965.3 909 968.8 903.4C971.4 899.4 973.7 900 980.3 895C984.9 891.4 990.8 886.9 993.6 879.3C996.7 870.7 994.3 862.9 993.6 860.6C991.5 854 987.5 849.8 986.4 848.5C981.5 843.2 973.9 828.3 958.7 798.5C946.9 775.5 928.4 723.4 922.5 658.1C917.3 600.1 926.3 579.6 909.8 567.1C890.3 552.3 850.7 560.4 836.8 581.6Z" fill="white"/>
<path d="M918.1 602.8C917.2 637.6 921.5 672.3 929 706.3C936.3 739.3 945.7 772.6 958.7 803.8C965.3 819.8 973.5 835.1 984.2 848.7C985.4 850.2 987.5 848.1 986.3 846.6C966.3 821.4 955.9 790.3 946.5 760C936.3 727.3 928.2 693.9 924 659.8C921.7 640.9 920.7 621.8 921.2 602.8C921.2 600.8 918.2 600.8 918.1 602.8Z" fill="#161616"/>
<path d="M837.2 647C837.4 700.5 844.5 754.3 861.2 805.3C869.4 830.3 879.9 854.7 893 877.5C899.6 889.1 906.9 900.4 914.9 911.2C921.6 920.3 929.5 930.4 941.1 933.3C951.8 936 962.5 931.7 966.7 921.2C971 910.3 968.1 896.1 977.1 887.3C978.5 885.9 976.4 883.8 975 885.2C968.1 891.9 967.7 901.6 966.3 910.5C965.6 914.9 964.8 919.5 962.4 923.3C958.4 929.9 950.7 932.1 943.4 930.7C930.3 928.2 921.8 915.7 914.6 905.6C907.5 895.6 900.9 885.2 894.8 874.5C870.1 830.7 854.8 782 846.9 732.4C842.4 704.2 840.3 675.6 840.2 647C840.2 645 837.2 645 837.2 647Z" fill="#161616"/>
<path d="M981.8 845.9C989.9 855.5 996.2 868 991.9 880.7C989.7 887.4 984.7 889.9 979.2 893.4C974.4 896.5 970.4 900.6 967.1 905.3C966 906.9 968.6 908.4 969.7 906.8C972.5 903 975.7 899.4 979.6 896.7C982.1 895 984.9 893.7 987.4 891.9C992.1 888.5 994.7 883.2 995.7 877.6C997.9 864.8 991.9 853.3 983.9 843.7C982.7 842.3 980.6 844.5 981.8 845.9Z" fill="#161616"/>
<path opacity="0.16" d="M839.1 644.7C838.9 657.9 839.3 671.7 840.3 686.2C843.9 737.3 854.8 781.6 867.3 817.8C867.3 817.8 883 862.7 903.9 894.1C906.2 897.5 910.6 903.2 919.5 914.5C928.7 926.3 931.4 929.2 936.3 931.3C937 931.6 949.5 936.8 957.9 930.7C960.2 929.1 962 925.2 965.7 917.5C969.5 909.6 971.4 905.4 972.3 899.5C977.2 899.3 980.8 896.6 981.3 893.5C981.9 889.7 977.5 886.5 977.1 886.3C971.1 882.2 962.8 885.6 959.1 886.3C940.8 889.6 917.9 846 911 832.8C882.5 777.5 868.2 749.9 858.1 719.3C852.2 700.4 844.9 675.2 839.1 644.7Z" fill="#6D6C6C"/>
<path opacity="0.13" d="M852.3 761.3C853.2 761 854.8 765.5 870.3 796.7C900.5 857.4 907.7 866.2 915.4 873C924.6 881.2 941.1 892.4 969.5 897C969.8 898.8 973.4 918.6 961.7 927.6C956.6 931.6 950.7 931.8 949.1 931.8C931 932.4 912.2 907.7 895.6 878.3C863.3 821.1 849 762.4 852.3 761.3Z" fill="#6D6C6C"/>
<path d="M713.5 897.4C700.1 925.4 686.8 953.3 673.4 981.3C614.3 972.5 583.9 971.1 582.4 977C580.5 984.3 623.7 1003.1 711.8 1033.3C726.8 988.2 741.8 943.1 756.7 897.9C742.4 897.8 728 897.6 713.5 897.4Z" fill="#191919"/>
<path d="M832.4 572.4C822.1 581.2 819.1 590.6 810.8 609.8C798 639.3 783.5 668.1 770.5 697.6C744.6 756.4 736.2 769.4 716.6 815.6C705.3 842.2 705.4 844.1 699.3 855.2C693 866.6 686.5 876.2 682 892.6C679.3 902.4 678.7 909.7 681.3 917.1C682.3 920 685.4 929.1 693.5 932.2C698.7 934.2 704 933 710 931.5C714.9 930.3 718.8 928.6 721.5 927.2C723.3 929.5 726.5 932.9 731.6 935.1C741.1 939.4 750.2 936.5 754.6 935.1C757.2 934.3 766.9 930.9 774 921.4C778.9 914.9 780.3 908.4 781.2 904.9C784.8 890 792.2 876.3 797 861.7C799.6 853.7 804.6 841.5 838 792.7C874 740.1 875.8 743.2 893.4 714.3C912.5 682.9 923.2 665.7 927.9 639.5C931.7 618.3 937.3 587.2 918.7 568.8C897.6 547.4 854.9 553 832.4 572.4Z" fill="white"/>
<path d="M928.399 591.8C934.699 649.4 903.499 701.7 870.799 746.3C854.199 768.9 836.699 790.8 821.599 814.3C805.999 838.5 793.899 864.5 783.999 891.5C778.999 905.2 775.799 922.8 762.299 931C750.999 937.8 736.199 937.3 725.699 929.3C724.199 928.1 722.699 930.7 724.199 931.9C742.099 945.4 767.599 937.9 777.199 918.3C783.499 905.4 787.199 891 792.499 877.7C798.499 862.8 805.299 848.1 813.099 834.1C842.499 781.8 886.699 739.1 912.699 684.7C926.499 655.7 934.999 623.9 931.399 591.7C931.199 589.9 928.199 589.8 928.399 591.8Z" fill="#161616"/>
<path d="M830.8 563.4C803.4 623.3 776 683.3 748.5 743.2C734.7 773.5 720.8 803.7 707 834C700.5 848.3 693.7 862.5 687.4 876.9C682.4 888.2 677.6 900.9 679.5 913.4C681.1 923.5 687.4 934.2 698.5 935C706.5 935.6 714.6 931.8 722 929.4C730.7 926.6 739.5 923.7 748.2 920.9C750 920.3 749.2 917.4 747.4 918C740.5 920.2 733.7 922.4 726.8 924.7C719.6 927 712.4 929.9 705 931.5C690.5 934.5 682.5 922.1 682 909.1C681.5 894.7 688.7 880.8 694.5 868.1C700.9 854.2 707.2 840.3 713.6 826.3C739.1 770.6 764.6 714.9 790 659.2C804.4 627.7 818.8 596.2 833.2 564.8C834.2 563.1 831.6 561.6 830.8 563.4Z" fill="#161616"/>
<path d="M721.6 930C722.6 930.6 723.6 931.3 724.5 932C725.1 932.5 726 932.6 726.6 932C727.1 931.5 727.2 930.4 726.6 929.9C725.5 929 724.3 928.2 723.1 927.4C721.5 926.4 720 929 721.6 930Z" fill="#161616"/>
<path opacity="0.09" d="M884.2 554.6C872.1 560.6 875.8 585 874 611.7C872.7 631.4 869.4 637.4 823.5 742.1C784.9 830.2 780.3 841.8 765.2 864.7C746.5 893 727.7 914.3 714.1 928.4C717.3 928.2 720.5 928 723.7 927.8C725.8 929.8 729.2 932.4 733.9 934.4C736.2 935.4 746.5 939.8 757.3 936.2C767.9 932.7 773.1 923.5 777.1 916.4C783.1 905.7 784.7 896.2 785.5 891.8C787.7 880.1 794.6 866.8 808.3 840.1C826.8 804.2 844.8 789.5 878 740.4C905.2 700 920.2 677.3 927.3 643.1C933 615.8 931.3 592.3 929.1 577C914.4 563.1 895.6 548.9 884.2 554.6Z" fill="#6D6C6C"/>
<path opacity="0.16" d="M927.4 624.9C925.7 624.2 917.3 644.4 900.4 674.2C877.1 715 869 718.8 837.9 765.5C806.5 812.7 807 820.6 774.2 868.8C757.2 893.8 742.2 913.6 732.1 926.5C729.2 931.2 729.7 933.4 730.3 934.3C732.8 938.6 745.4 935.7 751.3 934.3C758.9 932.5 762.8 931.6 766.9 928.9C775.6 923.2 777.5 914.3 783.7 895.9C787 886 791.2 876.4 794.5 866.5C801.7 845.3 811.9 830.4 828.7 806.4C886.3 724.5 886.1 729.1 896 710.9C919.7 667.7 929.8 625.9 927.4 624.9Z" fill="#6D6C6C"/>
<path d="M643.2 273.9C640.6 278.3 640.1 282.5 639.9 284.4C638.9 292.6 641.7 299 642.9 301.5C649.5 315.8 664.6 320.7 667.3 321.5C669.1 328.2 670.9 334.9 672.9 341.7C677.4 357.6 682.1 373.2 686.9 388.4C693.3 387.5 699.7 386.6 706.1 385.7C704.3 377.2 702.1 370.4 700.5 365.9C695.7 352.1 691.2 345.2 687.3 330.2C686.3 326.2 685.6 322.8 685.2 320.7C686.8 319.6 689 317.7 691.1 315C699.4 304.2 697.4 291 697 288.2C696.3 283.9 695.2 276.1 688.6 269.5C680.2 261 669.4 260.8 667.8 260.8C658.1 260.5 648.1 265.5 643.2 273.9Z" fill="#EF5F75"/>
<path d="M649.001 282C648.601 283.2 647.501 287.5 648.701 292.8C650.501 300.6 656.701 307.7 665.001 310.1C671.501 312 681.401 311.8 686.701 305.3C690.401 300.8 690.301 295.4 690.201 290.4C690.101 284.8 689.901 276.2 683.101 270.6C674.901 263.8 664.001 267.2 663.301 267.4C656.201 269.7 650.901 275.4 649.001 282Z" fill="white"/>
<path d="M667.1 345.1C666.8 346.6 666.4 348.8 666.4 351.3C666.4 352.5 666.4 355.8 667.6 360.8C668.4 363.9 668.9 364.7 672.2 372.7C675.8 381.4 676.5 383.8 679.2 384.9C681 385.7 682.9 385.4 684.1 385.1C681.2 380.5 681.4 377.8 682.1 376.2C682.7 374.7 683.7 374.4 684.3 372.5C684.5 371.8 684.8 370.5 683.7 366C682.6 361.6 682.1 361.6 681.8 359C681.4 356 682.1 355.9 681.7 353.1C681.6 352.6 681.2 349.9 679.5 346.8C677.9 344 676.9 342.2 674.9 341.6C672.3 341 669.4 342.5 667.1 345.1Z" fill="white"/>
<path d="M692 343.9C689.5 346.4 686 351.1 687.4 353.6C688.6 355.6 692.8 355.8 694.9 355.9C696.4 356 697.6 355.9 698.5 355.8C698.9 356.9 699.3 357.9 699.6 359C702.4 367.2 704.8 375.3 706.8 383.3C707.1 384.4 707.4 385.5 707.6 386.5C706.7 387.8 705 389.8 702.3 391.4C698.6 393.5 695.1 393.8 693.4 393.8C695.3 398.4 698.1 404.2 702.3 410.5C703.5 412.3 707 417.6 712.8 423.9C718.3 429.9 723.8 435.9 732.6 441.1C744.5 448.2 755.7 449.8 761.9 450.6C771.2 451.8 778.5 451.3 782.2 450.9C785.4 450.6 798.1 449 812.8 441.5C826.5 434.5 834.8 426.1 841.1 419.6C846 414.6 854.4 405.7 861.7 391.6C866.7 381.8 868.6 374.5 872.2 360.2C877.3 340 879.8 329.9 874.8 325.3C870.6 321.5 863.2 323.1 857.2 324.5C847.3 326.7 840.6 332 832.5 338.6C828.4 342 824.8 345.5 817.9 352.3C803.3 366.7 802.4 369 794.4 375.6C789.6 379.6 785.7 382.2 777.9 387.3C762.3 397.7 757.9 398.6 754.5 398.8C748.3 399.1 743.6 397 739.3 395.1C726.5 389.3 720.4 379.1 718.5 375.9C716 371.6 714.1 368.3 714 363.7C713.9 358.4 716.2 356.7 716.3 350.2C716.4 346.4 716.5 341.1 713.3 338.4C708.3 334 697.7 338.3 692 343.9Z" fill="white"/>
<path d="M712.3 369.2C721.7 385.4 736.201 402.4 757.001 399.9C758.901 399.7 758.901 396.7 757.001 396.9C737.201 399.3 723.8 383 714.8 367.7C713.9 366 711.3 367.5 712.3 369.2Z" fill="#161616"/>
<path d="M735.1 403.5C748.3 404.7 760.5 399 771.6 392.6C783.1 386 793.7 378 803.3 368.8C822.5 350.3 842.5 320.5 873.2 326C875.1 326.3 875.9 323.4 874 323.1C846.7 318.2 826.5 340.1 809.6 358C799.7 368.5 789 378.1 776.8 385.9C764.4 393.9 750.3 401.8 735.1 400.5C733.2 400.3 733.2 403.3 735.1 403.5Z" fill="#161616"/>
<path d="M688.3 388.6C703 416.5 721.1 444 754 451C784.3 457.5 815.1 446.5 837.3 425.7C850.3 413.5 860.3 398.5 867.5 382.3C868.3 380.6 865.7 379 864.9 380.8C852.8 407.8 832.3 432.4 804.3 443.6C776.1 454.8 742.6 451.2 720.2 429.9C707.6 417.9 699 402.4 690.9 387.1C690 385.3 687.4 386.9 688.3 388.6Z" fill="#161616"/>
<path d="M696.4 339.7C691.3 341.9 684.1 348.6 686.9 354.9C690 361.7 701 355.8 704.9 352.9C706.4 351.8 704.9 349.2 703.4 350.3C701.1 352 690.4 358.4 689.4 352.5C688.6 348.1 694.6 343.8 698 342.3C699.7 341.5 698.1 338.9 696.4 339.7Z" fill="#161616"/>
<path d="M697 342.5C700.8 339.6 706.8 335 711.6 339.2C715.5 342.7 714.7 348.8 714 353.3C713.1 359.1 710.8 367.2 714.5 372.4C715.6 374 718.2 372.5 717.1 370.9C713.5 365.8 716.8 356.6 717.4 351C717.9 346.8 717.7 342.5 715.3 339C710.1 331.4 701.3 335.5 695.5 339.9C694 341.1 695.5 343.7 697 342.5Z" fill="#161616"/>
<path d="M695.3 355.8C698.7 365.9 701.8 376.1 704.8 386.4C705.1 385.8 705.5 385.2 705.8 384.6C699 386.2 692 384.5 685.6 387.8C686.3 388.1 687.1 388.4 687.8 388.7C686.6 384.4 685.1 380.1 683.6 375.9C682.9 374.1 680 374.9 680.7 376.7C682.3 380.9 683.7 385.2 684.9 389.5C685.2 390.5 686.2 390.8 687.1 390.4C693.1 387.3 700.2 389 706.6 387.5C707.4 387.3 707.9 386.4 707.6 385.7C704.6 375.4 701.5 365.3 698.1 355.1C697.6 353.1 694.7 353.9 695.3 355.8Z" fill="#161616"/>
<path d="M686.001 389.7C690.401 396.9 704.101 394.2 707.201 387C708.001 385.2 705.401 383.7 704.601 385.5C702.501 390.5 691.801 393.5 688.501 388.2C687.601 386.5 685.001 388 686.001 389.7Z" fill="#161616"/>
<path d="M688.7 390.6C693.8 391.7 698.8 391.4 703.7 389.6C705.5 388.9 704.7 386 702.9 386.7C698.5 388.3 694 388.6 689.5 387.7C687.6 387.3 686.8 390.2 688.7 390.6Z" fill="#161616"/>
<path d="M687.801 390.1C691.401 384.6 698.201 383.1 703.801 386.4C705.501 387.4 707.001 384.8 705.301 383.8C698.101 379.7 689.701 381.7 685.101 388.6C684.101 390.2 686.701 391.8 687.801 390.1Z" fill="#161616"/>
<path d="M693.3 388.3C694.5 384.5 699.6 386.6 702 387.7C703.7 388.5 705.3 385.9 703.5 385.1C699.2 383.1 692.3 381.4 690.4 387.5C689.9 389.4 692.8 390.2 693.3 388.3Z" fill="#161616"/>
<path d="M680.8 383.6C678.2 381.9 676.5 379 676.6 375.8C676.7 374.4 677.1 373.1 677.7 371.9C678 371.4 680.8 367.8 681.5 368.3C683 369.5 685.1 367.4 683.6 366.2C679.8 363.2 675.2 369.3 674.2 372.6C672.5 377.9 674.8 383.2 679.3 386.2C680.9 387.2 682.4 384.6 680.8 383.6Z" fill="#161616"/>
<path d="M681.7 377.8C686.1 375.3 686.8 369.4 682.9 366.1C681.4 364.9 679.3 367 680.8 368.2C683.2 370.2 683 373.6 680.2 375.2C678.5 376.2 680 378.8 681.7 377.8Z" fill="#161616"/>
<path d="M677.4 384.5C679.6 386.7 683.1 387.2 685.7 385.5C687.3 384.5 685.8 381.9 684.2 382.9C682.7 383.9 680.8 383.7 679.5 382.4C678.2 381 676.1 383.1 677.4 384.5Z" fill="#161616"/>
<path d="M675 374.5C673.2 371.8 672.6 368.7 673.3 365.5C674.1 361.7 677.5 357.1 681.5 361C682.9 362.4 685 360.2 683.6 358.9C679.7 355 674.9 356.1 672.1 360.7C669.2 365.4 669.5 371.5 672.5 376C673.5 377.6 676.1 376.1 675 374.5Z" fill="#161616"/>
<path d="M671.5 367.6C671.3 366.2 670.8 365.1 670.1 363.8C668.8 361.4 668.5 359.6 669.2 356.9C670.4 352.3 674.3 348.9 679 351.7C680.7 352.7 682.2 350.1 680.5 349.1C676.2 346.6 670.7 347.6 668 351.9C666.6 354.1 665.7 357 665.7 359.6C665.6 362.9 668.1 365.2 668.6 368.4C668.9 370.3 671.8 369.5 671.5 367.6Z" fill="#161616"/>
<path d="M668.6 353C667 350.7 666.9 347.5 668.9 345.4C670.9 343.3 674.1 343.2 676.5 344.7C678.1 345.7 679.6 343.1 678 342.1C674.5 339.9 669.7 340.3 666.8 343.3C663.9 346.3 663.7 351.2 666 354.6C667.1 356.1 669.7 354.6 668.6 353Z" fill="#161616"/>
<path d="M677.901 351.3C680.101 352.4 680.901 355.5 679.201 357.4C677.901 358.8 680 361 681.3 359.5C684.2 356.3 683.401 350.7 679.401 348.7C677.701 347.9 676.101 350.4 677.901 351.3Z" fill="#161616"/>
<path d="M675.301 344.8C677.201 345.7 678.301 347.7 677.901 349.9C677.501 351.8 680.401 352.6 680.801 350.7C681.501 347.3 679.901 343.8 676.801 342.3C675.101 341.3 673.601 343.9 675.301 344.8Z" fill="#161616"/>
<path d="M681.3 362.3C682 363.4 682.2 364.8 681.6 366.1C681.3 366.8 681.4 367.7 682.1 368.2C682.7 368.6 683.8 368.4 684.2 367.7C685.2 365.5 685.1 363 683.9 360.9C682.9 359.1 680.3 360.6 681.3 362.3Z" fill="#161616"/>
<path d="M666.5 322.7C667.7 329.5 669.2 336.2 671.1 342.9C671.6 344.8 674.5 344 674 342.1C672.1 335.5 670.6 328.7 669.4 321.9C669.1 320 666.2 320.8 666.5 322.7Z" fill="#161616"/>
<path d="M683.3 321.1C685.7 329.1 688.1 337 690.4 345C691 346.8 693.8 346.1 693.3 344.2C690.9 336.2 688.5 328.3 686.2 320.3C685.6 318.4 682.7 319.2 683.3 321.1Z" fill="#161616"/>
<path d="M666.8 319.8C654.1 318.6 642.5 302.4 640.7 290.6C638.5 276.3 651.8 264.5 665 262C693.3 256.8 708.3 306.4 684.1 319.4C682.4 320.3 683.9 322.9 685.6 322C706.6 310.7 700.9 274.9 683.3 263.2C662.1 249.1 630.3 271.8 639.1 296.4C643.2 307.8 653.9 321.5 666.8 322.7C668.7 323 668.7 320 666.8 319.8Z" fill="#161616"/>
<path d="M666.7 309.3C657 307.1 649.4 298.6 649.5 288.4C649.6 277.6 658.5 268 669.4 267.6C682.5 267.2 688.9 279.9 688.7 291.5C688.6 298.2 687.6 304.6 680.7 307.3C675.4 309.3 669.6 311.1 664 308.9C662.2 308.2 661.4 311.1 663.2 311.8C669.6 314.3 677 312.2 683.1 309.5C688.9 306.9 690.6 302.3 691.4 296.2C693 282.9 687.8 266.6 672.5 264.8C659.9 263.3 648.7 273.1 646.9 285.4C645.1 297.9 654 309.4 666.1 312.2C667.8 312.6 668.6 309.7 666.7 309.3Z" fill="#161616"/>
<path d="M669.9 266.5C665.8 279.4 661.7 292.4 657.7 305.3C657.1 307.1 660 307.9 660.6 306.1C664.7 293.2 668.8 280.2 672.8 267.3C673.4 265.5 670.5 264.7 669.9 266.5Z" fill="#161616"/>
<path d="M675.801 280.9C672.701 290.2 669.301 299.4 665.801 308.5C665.101 310.3 668.001 311.1 668.701 309.3C672.201 300.2 675.601 290.9 678.701 281.7C679.301 279.8 676.401 279 675.801 280.9Z" fill="#161616"/>
<path opacity="0.12" d="M873.8 325.7C869.4 336.8 861.7 353.3 848.5 370.9C834.3 390 818.2 411.6 789.2 421C782 423.3 760.5 430 734.7 422C712.2 415 698.7 400.6 693.4 394.3C695.9 401 700.6 411.3 709.4 421.5C714 426.8 730.9 445.9 760 450.7C763.6 451.3 782.4 454.2 804.3 445.8C828.4 436.6 841.4 419.5 850.5 407.4C856.9 398.9 868.3 383.3 872.9 359.7C875.6 345.7 874.9 333.7 873.8 325.7Z" fill="#6D6C6C"/>
<path opacity="0.21" d="M714.3 423C721.8 427.8 735.4 435.1 753.7 437.1C776.4 439.6 793.6 432.5 806.2 427.4C831.2 417.1 848.7 401.6 859.7 389.5C855.9 398.5 847.9 413.9 832 427.4C824.5 433.8 798.6 455.8 763.4 450.7C736.6 446.8 719.8 429.3 714.3 423Z" fill="#6D6C6C"/>
<path d="M856.1 315.9C839.5 328.2 833.4 344.6 826.5 362.8C813.7 396.6 815.8 423.5 817.2 466.1C818.1 493.2 818.9 532.5 818.1 581.5C835.3 585.8 856.9 589.5 881.9 590.4C901.3 591 918.6 589.8 933.2 587.8C941.4 550.1 950 519.7 956.4 498.6C977.8 428 999.5 376.3 979.7 334.9C978.7 332.9 977.7 331.2 976.6 329.7C953.8 297.5 889.9 290.8 856.1 315.9Z" fill="#85C7F2"/>
<path opacity="0.15" d="M928.3 302.9C927 310.2 924.8 321.7 921.5 335.5C902.8 413.5 884 417.8 880.7 461C877.3 504.5 894.9 520.2 880.2 552.9C872.5 570 860.7 581.4 852 588.4C865.9 589.4 880.8 590 896.7 589.9C909.2 589.8 921 589.3 932.2 588.4C939.3 557.5 946.1 532.8 951.2 515.5C953.7 507 956.7 496.9 962.4 478.1C971.7 447.3 974.1 439.7 978 425.1C983.7 403.4 986.6 392.3 987.2 381.3C988.2 364.8 989.3 346 977.5 330.2C970 320.1 959.7 314.7 954.2 311.7C944 306.2 934.6 303.9 928.3 302.9Z" fill="#6D6C6C"/>
<path opacity="0.17" d="M970.1 441.5C968 440.7 957.3 469.1 938.5 507.6C921 543.4 904.4 571.6 892.8 590.3C905.9 589.3 919.1 588.4 932.2 587.4C935.6 574.1 940.8 554.2 947.3 530C963.3 470.4 972.2 442.2 970.1 441.5Z" fill="#6D6C6C"/>
<path d="M962.8 325.2C959.5 326.4 954.8 328.4 949.4 331.5C930.4 342.4 920.3 357.4 914.1 366.4C914.1 366.4 893.2 396.8 861 437.6C851 450.3 841 462.1 828.7 474.9C803.2 501.5 791.9 507 787 509.1C774.8 514.5 764.1 519.2 750 518.1C740.7 517.4 734.9 514.5 728.5 518.4C721.7 522.5 717.2 532.3 718.1 537.7C718.2 538.3 718.6 540.2 718.8 542.9C718.9 543.6 719 546 718.8 549.5C718.5 554.9 717.9 554.4 718.1 556.4C718.7 560.7 721.7 562.9 720.8 564.3C720.2 565.3 718.6 564.4 717.4 565.7C716 567.1 716.6 569.8 716.7 570.2C717.4 573.3 720 575.1 721.1 575.7C725.4 578.5 728.3 577 739.2 577.4C746.9 577.7 749.2 578.6 753 576.7C754 576.2 755.7 575.3 758.7 571.9C767.3 562.3 766.3 555.9 773.8 549.8C776.5 547.6 779.2 546.4 780.9 545.7C786.4 543.3 790 543.4 795.3 542.2C798.9 541.5 802.5 540 809.7 537C821.4 532.2 830.4 527.5 833.9 525.6C855 514.2 874.1 499.8 878.2 496.6C900.1 479.9 914.1 465.8 932.3 447.5C945.4 434.4 959.2 419.6 972.6 399.5C976.7 393.3 984 381.8 986.4 365.6C987.5 358.3 988.6 350.1 984.4 341.8C978.6 329.7 965.9 326 962.8 325.2Z" fill="white"/>
<path d="M959.801 324.3C940.901 330.2 926.501 347.3 914.701 362.3C901.301 379.4 889.201 397.4 876.201 414.7C862.301 433.2 847.901 451.3 832.201 468.3C817.301 484.3 801.001 500.1 780.901 509.3C769.201 514.6 756.301 517.6 743.501 516.5C736.201 515.9 726.901 514.1 722.401 521.5C721.401 523.1 724.001 524.7 725.001 523C727.701 518.5 733.301 518.6 737.901 519C742.701 519.3 747.401 519.9 752.201 519.7C761.701 519.2 771.101 516.8 779.901 513.1C798.601 505.2 814.201 491.6 828.201 477.1C858.401 445.9 883.201 410.3 908.801 375.4C916.001 365.6 923.401 356 931.901 347.3C940.101 338.9 949.401 330.8 960.901 327.2C962.401 326.6 961.601 323.7 959.801 324.3Z" fill="#161616"/>
<path d="M959.5 326.2C976.2 323.9 985.5 341.6 985.4 355.9C985.3 370.1 979.3 384.1 972.3 396.2C959.3 418.9 940.4 438.3 922.1 456.8C885.9 493.1 843.7 526 793.8 540.7C787.7 542.5 780.3 543.1 774.9 546.7C769.8 550.1 767.2 556.7 763.7 561.6C761.1 565.2 758.3 568.7 755.3 572C751.4 576.2 747.8 576.6 742.5 576.2C738.5 575.9 734.5 575.6 730.4 575.3C726.3 575 720.5 575.3 718.5 570.9C717.7 569.1 715.1 570.7 715.9 572.4C718 577.1 723 577.7 727.6 578.1C731.3 578.4 735 578.7 738.7 578.9C742.3 579.2 746.4 580 750 579.3C756 578.1 760.5 570.6 764 566.2C768.2 560.8 771.7 551.9 777.8 548.5C781.2 546.6 785.5 546.1 789.2 545.1C792.9 544.1 796.5 543.1 800.1 541.9C806.6 539.8 813.1 537.3 819.4 534.6C832.6 528.9 845.2 522.1 857.3 514.3C881.5 498.7 903.5 479.8 923.8 459.5C944.4 438.9 966.1 416.8 979.1 390.3C985.9 376.4 991.5 359.6 987.1 344.2C983.6 331.8 972.3 321.6 958.9 323.4C956.8 323.6 957.6 326.5 959.5 326.2Z" fill="#161616"/>
<path d="M719.1 537C720 530.9 735.5 531.5 739.6 531.1C745.2 530.6 750.2 529.4 754.6 525.7C756.1 524.4 753.901 522.3 752.501 523.6C746.101 529 737.301 527.9 729.501 528.9C725.401 529.5 717 531 716.3 536.1C715.9 538.1 718.8 538.9 719.1 537Z" fill="#161616"/>
<path d="M716.1 537.4C721 547.1 731.6 552.4 742.2 550.1C744.1 549.7 743.3 546.8 741.4 547.2C732 549.3 722.9 544.4 718.6 535.9C717.8 534.2 715.2 535.7 716.1 537.4Z" fill="#161616"/>
<path d="M717.501 540.2C715.501 545.4 717.801 551.2 722.201 554.4C727.201 558.1 733.701 557.7 739.501 556.7C741.401 556.4 740.601 553.5 738.701 553.8C734.201 554.6 729.101 555 724.901 552.6C720.801 550.3 718.701 545.4 720.301 541C721.101 539.2 718.201 538.4 717.501 540.2Z" fill="#161616"/>
<path d="M717.7 548.5C714.9 553.1 716.1 559.2 720 562.9C724.6 567.3 731.6 566.8 736.9 564.2C738.6 563.4 737.1 560.8 735.4 561.6C731.3 563.5 726 564.1 722.3 560.9C719.2 558.2 718.2 553.6 720.3 550C721.3 548.3 718.7 546.8 717.7 548.5Z" fill="#161616"/>
<path d="M719 571.3C717 568.1 719.7 564.1 723.5 565.5C725.3 566.2 726.1 563.3 724.3 562.6C718.1 560.3 713.2 567.5 716.5 572.8C717.4 574.4 720 572.9 719 571.3Z" fill="#161616"/>
<path d="M722.3 523.5C727.9 521.5 733.8 524.2 736.2 529.6C737 531.4 739.6 529.8 738.8 528.1C735.9 521.6 728.3 518.2 721.5 520.7C719.7 521.3 720.5 524.2 722.3 523.5Z" fill="#161616"/>
<path d="M721.201 521.7C717.201 524.6 717.301 531.5 721.801 533.9C723.501 534.8 725.001 532.2 723.301 531.3C720.901 530 720.301 525.9 722.701 524.3C724.301 523.1 722.801 520.5 721.201 521.7Z" fill="#161616"/>
<path d="M722.1 530C722.3 527.8 723 526 724.3 524.2C723.4 524.2 722.601 524.2 721.701 524.2C722.701 525.9 722.701 527.5 721.701 529.1C722.601 529.2 723.501 529.3 724.401 529.5C724.201 528.9 724.1 524.3 725.3 525.1C726.2 525.7 724.2 528.8 723.8 529.5C724.7 529.5 725.501 529.5 726.401 529.5C726.001 528.8 725.701 528.1 725.701 527.3C726.101 525.1 726.701 524.9 727.401 526.8C727.901 527.2 728.4 527.5 728.8 527.9C728.5 526.8 728.801 526.2 729.701 526.4C730.601 526 730.8 526.3 730.3 527.2C731 527.4 731.701 527.6 732.401 527.7C732.701 528 732.901 528.3 733.201 528.6C732.901 530.5 735.8 531.3 736.1 529.4C736.5 526.9 734.2 523.5 731.6 525.8C729.4 527.8 731.601 531.5 734.401 530C737.101 528.5 736.001 524.4 733.201 523.7C730.001 523 728.4 526.8 729.8 529.2C730.2 529.9 731.201 530.1 731.901 529.7C734.401 528.2 734.201 524 731.401 522.9C727.801 521.4 725.5 525.7 726 528.7C726.1 529.4 726.801 529.8 727.401 529.8C731.601 530 732.601 523.8 728.701 522.5C723.301 520.7 721.8 527.5 723.8 531.1C724.4 532.2 725.801 532 726.401 531.1C727.801 529.1 730.7 521.9 726.1 521.5C721.8 521.2 720.6 527.4 721.5 530.4C721.9 531.6 723.601 531.9 724.201 530.8C725.701 528.3 725.701 525.4 724.201 522.8C723.601 521.8 722.2 521.9 721.6 522.8C720 525 719.3 527.4 719 530.1C718.9 532 721.9 531.9 722.1 530Z" fill="#161616"/>
<path d="M719.6 533.3C724.7 534.2 737.1 535.2 738.4 527.8C738.7 525.9 735.8 525.1 735.5 527C734.6 532.1 723.9 531 720.4 530.4C718.5 530.1 717.7 533 719.6 533.3Z" fill="#161616"/>
<path d="M731.701 531.8C735.501 547.1 735.101 562.8 730.401 577.8C729.801 579.6 732.701 580.4 733.301 578.6C738.101 563.1 738.601 546.8 734.601 531C734.101 529.1 731.201 529.9 731.701 531.8Z" fill="#161616"/>
<path d="M731.1 532C731.8 539.6 732.2 547.1 732.4 554.7C732.6 562 733.1 569.5 730.7 576.5C730.1 578.3 733 579.1 733.6 577.3C735.9 570.6 735.6 563.6 735.5 556.6C735.3 548.4 734.9 540.2 734.2 532C733.9 530.1 730.9 530.1 731.1 532Z" fill="#161616"/>
<path d="M735 531.9C737.2 533.5 736.8 541.4 736.9 543.9C737 547.3 737 550.6 736.8 554C736.4 561.2 735.3 568.4 733.5 575.4C733 577.3 735.9 578.1 736.4 576.2C738.6 567.4 739.8 558.5 739.9 549.4C739.9 544.8 739.7 540.2 739.2 535.6C738.9 532.9 738.7 530.9 736.5 529.3C734.9 528.2 733.4 530.8 735 531.9Z" fill="#161616"/>
<path d="M734.3 531.1C735.6 539.2 736 547.3 735.4 555.4C735.3 557.3 738.3 557.3 738.4 555.4C739 547 738.6 538.6 737.2 530.3C736.9 528.4 734 529.2 734.3 531.1Z" fill="#161616"/>
<path d="M727 531.7C730.3 542.8 731.6 554.3 730.7 565.9C730.5 568.9 727.4 583 735.5 579.2C738.5 577.8 738.8 574.3 739.1 571.5C739.7 565.8 739.8 560.1 739.8 554.4C739.8 545.4 741 534.5 735.8 526.7C734.7 525.1 732.1 526.6 733.2 528.2C737.5 534.7 736.7 543.1 736.8 550.6C736.8 554.7 736.8 558.8 736.7 562.9C736.6 564.8 736.5 566.7 736.4 568.6C736.3 569.6 735.7 577.8 732.8 574.4C732.8 574.4 733.4 570 733.5 569.5C733.7 567.7 733.9 565.8 734 564C734.2 560.3 734.2 556.6 734 553C733.6 545.5 732.2 538.1 730.1 530.9C729.4 529 726.5 529.8 727 531.7Z" fill="#161616"/>
<path d="M730.701 531.3C731.301 536.1 731.801 540.9 732.401 545.6C732.601 547.5 735.601 547.5 735.401 545.6C734.801 540.8 734.301 536 733.701 531.3C733.401 529.4 730.401 529.4 730.701 531.3Z" fill="#161616"/>
<path d="M727.7 528.4C729.8 533.8 731.5 539.4 732.6 545.1C733 547 735.9 546.2 735.5 544.3C734.4 538.6 732.8 533 730.6 527.6C729.9 525.8 727 526.6 727.7 528.4Z" fill="#161616"/>
<path opacity="0.15" d="M980.8 335.9C977 335.9 976 356.1 970.6 373.3C965.9 388.2 957.9 400.4 923.9 433.6C876.7 479.6 852.3 502.9 812.1 523.1C795.1 531.6 780.2 537.1 769.8 540.6C766.5 543.5 755.6 552.3 739.7 552.3C731.9 552.3 725.6 550.2 721.7 548.4C721 548.8 718.8 550.1 717.8 552.8C716.7 555.7 717.5 559.1 719.7 561.6C718.9 562.3 716.7 564.7 716.8 567.9C716.9 571.6 719.8 573.9 720.7 574.7C724.1 577.5 729.9 577.6 741.1 577.6C744 577.6 748.2 577.6 753.3 577.6C755.2 575.6 758 572.5 761.1 568.4C768.5 558.4 769.3 553.4 774.7 548.9C780.9 543.8 788.1 543.6 791.2 543.1C817.9 538.5 851 516.5 869.5 504.2C899 484.6 915.8 466.1 949.3 429.3C949.3 429.3 967.1 409.7 980.9 379.7C983 375.2 987.5 364.7 986.2 351.5C985.5 345.2 983.4 336 980.8 335.9Z" fill="#6D6C6C"/>
<path d="M938.7 235C939.5 259.2 938.6 272.9 942.7 296C944.6 306.8 946.9 315.5 948.6 321.3C938.3 324.6 921 328.6 899.8 326.3C885.9 324.8 874.6 321.1 866.5 317.7C870.2 310.7 874.7 300.4 877.2 287.4C879.4 276.1 879.4 266.3 878.9 258.9C868.5 254.7 858.1 250.4 847.7 246.2C846.8 240.9 846 235.6 845.1 230.4C842.2 229.5 839.2 228.6 836.3 227.7C840.2 221.8 846.3 212.5 853.5 200.9C867 179 867.8 175.6 873.2 171.3C887.8 159.5 914.6 156.5 928.5 168.6C936.7 175.8 937.5 195.6 938.7 235Z" fill="white" stroke="#161616" stroke-width="2" stroke-miterlimit="10"/>
<path d="M836.1 229.4C841.6 231 847.2 232 852.9 232.6C854.8 232.8 854.8 229.8 852.9 229.6C847.5 229 842.1 228 836.9 226.5C835 226 834.2 228.9 836.1 229.4Z" fill="#161616"/>
<path d="M845.1 186.1C848.8 185.2 852.801 187.2 854.201 190.8C854.901 192.6 857.8 191.8 857.1 190C855.1 184.8 849.801 181.9 844.401 183.2C842.401 183.7 843.2 186.6 845.1 186.1Z" fill="#161616"/>
<path d="M867.6 195.6C872.1 195.4 876.2 198 877.7 202.2C878.3 204 881.2 203.2 880.6 201.4C878.7 195.9 873.5 192.2 867.7 192.5C865.7 192.7 865.7 195.7 867.6 195.6Z" fill="#161616"/>
<path d="M868.6 208.3C867.9 206.8 868.2 205.5 868.4 203.9C868.7 203.5 868.7 203.3 868.4 203.5C868.1 203.6 868.1 203.8 868.4 204.1C868.5 204.8 868.701 205.5 868.801 206.2C868.801 206.7 868.6 207.7 868.7 208.1C868.9 208.3 869.101 208.5 869.301 208.7C869.301 208.4 869.4 208.1 869.4 207.8C869.6 206.3 869.8 204.8 870 203.2C870.2 201.7 867.8 201.2 867.2 202.4C866.7 203.4 866.5 204.3 866.5 205.4C866.6 207.3 869.6 207.3 869.5 205.4C869.5 204.8 869.501 204.5 869.801 203.9C868.901 203.6 867.9 203.4 867 203.1C866.8 204.9 866.301 206.8 866.301 208.6C866.301 209.9 867.001 211 868.301 211.2C871.601 211.7 871.9 207.5 871.7 205.2C871.4 203.1 869.8 198.6 866.9 201C864.4 203 865 207.3 866.1 209.8C866.8 211.5 869.4 210 868.6 208.3Z" fill="#161616"/>
<path d="M867.601 176.2C869.601 171.5 873.601 164.1 881.101 157.2C883.701 154.8 889.301 149.7 896.801 147.2C911.001 142.5 929.501 148 940.501 161.3C951.301 174.3 953.401 193.1 946.101 209.2C920.001 198.2 893.801 187.2 867.601 176.2Z" fill="#0494F1"/>
<path d="M823.1 164.1C863.6 180.4 904.1 196.6 944.5 212.9C949.9 215.1 952.2 206.4 946.9 204.2C906.4 187.9 865.9 171.7 825.5 155.4C820.2 153.3 817.8 162 823.1 164.1Z" fill="#161616"/>
<path d="M919.3 201C911.2 201.8 905.6 205.7 899 210.4C885.1 220.4 887 225.9 877.5 231.9C862.4 241.5 852.4 230.9 838.7 240.5C827 248.7 824.5 263.1 824 266.5C823.5 269.7 821.8 282.8 829.9 294.2C836.9 304.1 848.6 309 849.8 307.5C850.2 307 849.6 305.2 844.1 299C845.7 300.9 848.3 303.4 852.1 305.1C856.5 307.1 861 307.5 861.2 306.8C861.4 306.3 858.9 305.7 857.5 303.2C856.7 301.7 856.6 300.2 856.6 299C859.6 302.3 863.7 305.6 868.4 305.5C881.3 305 890.4 279.1 893.4 270.5C903.1 242.7 899 225 911.6 217.6C912.7 217 917.7 214 921.9 216C927.3 218.5 929.2 228.2 925.9 233.5C923 238 917.1 237.9 917.2 238.9C917.4 240.2 927.4 240.9 936.9 236.7C940.4 235.2 943.2 233.9 945.4 230.9C949.1 225.6 948.3 218.1 946.1 213.3C941.3 203 928.1 200.1 919.3 201Z" fill="#161616" stroke="#161616" stroke-width="2" stroke-miterlimit="10"/>
<path opacity="0.22" d="M920.701 240.5C918.901 240.2 916.301 239.6 916.301 239C916.301 238.7 917.001 238.4 917.001 238.4C917.001 238.3 914.201 240.5 911.401 240.2C910.101 240 909.101 239.3 908.501 238.7C910.701 249.6 912.601 262.8 912.701 278C912.901 297.3 910.401 313.8 907.601 326.5C913.601 327.2 922.201 327.4 932.101 325.3C938.301 324 943.601 322 947.701 320.1C941.701 301.7 939.901 287.7 939.401 278.4C939.101 274 938.801 263.7 938.601 258.7C938.301 249.5 938.001 241.9 937.901 236.8C937.001 237.2 935.601 237.9 933.801 238.6C931.401 239.6 926.401 241.4 920.701 240.5Z" fill="#6D6C6C"/>
<path d="M913.301 146.3C923.601 151.3 929.501 162.1 928.101 172.7C926.401 185.3 915.201 191.2 914.101 191.8C925.301 196.3 936.501 200.7 947.701 205.2C948.601 202.6 949.601 199 950.101 194.5C951.501 180.3 945.701 169.7 944.401 167.6C942.401 164.2 935.301 152.7 921.301 148.1C918.201 146.9 915.401 146.5 913.301 146.3Z" fill="#046AAC"/>
</g>
<defs>
<clipPath id="clip0">
<rect width="1274" height="1170" fill="white"/>
</clipPath>
</defs>
</svg>
