<svg width="1274" height="1170" viewBox="0 0 1274 1170" fill="none" xmlns="http://www.w3.org/2000/svg">
<g clip-path="url(#clip0)">
<g clip-path="url(#clip1)">
<path d="M73.4002 795.4C76.1002 803.4 73.2002 811.4 72.0002 819.3C71.0002 826 71.8002 831.9 75.5002 837.7C77.5002 840.8 80.3002 844 81.1002 847.7C82.1002 852.3 78.7002 855.5 77.2002 859.5C75.7002 863.5 76.7002 869.2 81.7002 869.9C81.5002 869.1 81.3002 868.2 81.0002 867.4C78.7002 869.9 78.0002 873.6 80.1002 876.5C81.7002 878.7 85.1002 878.9 86.0002 881.8C86.9002 884.7 85.4002 888.4 84.9002 891.2C83.0002 902.9 90.1002 913.1 98.5002 920.4C108.3 929 119.1 936 127.9 945.7C137.1 955.8 144.7 967.4 150.4 979.8C151.2 981.5 153.8 980 153 978.3C143.4 957.6 128.9 940 110.7 926.2C100.6 918.6 88.0002 909.6 87.5002 895.6C87.4002 891.1 89.6002 886.6 89.0002 882.1C88.8002 880.7 88.4002 879.3 87.4002 878.2C85.2002 875.6 78.7002 874 83.0002 869.4C83.7002 868.7 83.5002 867.1 82.3002 866.9C75.5002 865.9 81.7002 857.3 82.8002 854.6C83.7002 852.6 84.2002 850.6 84.0002 848.4C83.5002 842.7 78.9002 838.4 76.4002 833.5C70.0002 821.1 80.5002 807.3 76.1002 794.4C75.7002 792.8 72.8002 793.6 73.4002 795.4Z" fill="#8B8585"/>
<path d="M75.5001 798.3C144.4 828.8 161.3 909.7 173.3 976.3C173.6 978.2 176.5 977.4 176.2 975.5C166.3 920.2 154.8 860.6 112.7 819.9C102.3 809.8 90.3001 801.5 77.0001 795.7C75.3001 794.9 73.7001 797.5 75.5001 798.3Z" fill="#8B8585"/>
<path d="M80.5 805.3C117.3 852 143.5 906.7 156.9 964.6C157.3 966.5 160.2 965.7 159.8 963.8C146.3 905.3 119.8 850.3 82.7 803.1C81.4 801.6 79.3 803.8 80.5 805.3Z" fill="#8B8585"/>
<path d="M88.6004 855.4C110.3 865.3 127.7 882.7 137.7 904.4C138.5 906.2 141.1 904.6 140.3 902.9C130.2 880.8 112.3 862.9 90.2003 852.8C88.3003 852 86.8004 854.6 88.6004 855.4Z" fill="#8B8585"/>
<path d="M163.301 910.2C156.701 881.7 179.301 858.7 193.301 836.7C200.101 826 205.801 814.5 210.101 802.6C212.201 796.8 213.701 790.8 215.501 784.9C217.201 779.3 219.501 773 225.601 771.3C225.001 771.1 224.501 770.8 223.901 770.6C226.201 775.1 227.401 780 226.901 785.1C226.601 788.3 224.201 791.8 224.501 794.8C224.701 796.6 226.301 799.4 226.901 801.2C227.601 803.5 228.101 805.8 228.401 808.1C228.801 810.9 229.001 813.7 229.001 816.5C229.001 818.6 227.601 824.3 228.301 825.9C227.501 824.2 225.301 825.5 225.601 827.1C228.401 844.1 232.401 861.4 233.401 878.5C234.401 895.7 227.501 910.3 218.801 924.7C203.401 950.2 187.001 977.4 190.101 1008.5C190.301 1010.4 193.301 1010.4 193.101 1008.5C189.701 974.4 210.101 947 225.801 918.8C233.201 905.5 237.501 891.9 236.301 876.6C235.001 859.8 231.201 843 228.501 826.3C227.601 826.7 226.701 827.1 225.801 827.5C225.901 827.7 226.001 827.9 226.101 828.1C226.301 828.6 226.901 828.8 227.401 828.8C231.101 828.9 231.501 824.7 231.801 821.9C232.601 815 232.001 808 230.201 801.4C229.501 798.9 227.801 796.1 228.101 793.5C228.401 791.1 229.701 788.6 230.001 786C230.701 780.1 229.401 774.4 226.701 769.2C226.401 768.6 225.601 768.3 225.001 768.5C214.701 771.5 213.101 783.7 210.501 792.5C206.001 807.6 199.401 822 190.901 835.3C176.301 858.2 153.701 881.5 160.601 911.1C160.901 912.9 163.801 912.1 163.301 910.2Z" fill="#8B8585"/>
<path d="M218.9 795.7C217.2 825.9 205 853.8 195.1 881.9C185.1 910.4 178.8 939.8 176.6 969.9C176.5 971.8 179.5 971.8 179.6 969.9C181.9 938.8 188.8 908.6 199.2 879.3C208.9 852 220.2 824.9 221.9 795.7C222 793.8 219 793.8 218.9 795.7Z" fill="#8B8585"/>
<path d="M176.5 864.4C177.9 878.1 181.6 891.3 187.7 903.7C188.6 905.4 191.1 903.9 190.3 902.2C184.5 890.3 180.8 877.6 179.5 864.5C179.3 862.5 176.3 862.5 176.5 864.4Z" fill="#8B8585"/>
<path d="M200 878.7C210.4 872.4 219.2 864.2 226.2 854.3C227.3 852.7 224.7 851.2 223.6 852.8C216.9 862.3 208.4 870.1 198.4 876.1C196.8 877.1 198.3 879.7 200 878.7Z" fill="#8B8585"/>
<path d="M146.601 971.8C153.001 983.7 157.001 996.5 158.501 1009.9C158.701 1011.8 161.701 1011.8 161.501 1009.9C159.901 996 155.801 982.7 149.201 970.3C148.301 968.6 145.701 970.1 146.601 971.8Z" fill="#8B8585"/>
<path d="M171.7 969.9C174.2 982.2 175.6 994.7 175.8 1007.3C175.8 1009.2 178.8 1009.2 178.8 1007.3C178.6 994.4 177.2 981.7 174.6 969.1C174.2 967.2 171.3 968 171.7 969.9Z" fill="#8B8585"/>
<path d="M1176.3 885.3C1175.1 889.3 1173.2 893.6 1172.6 897.8C1172.3 899.5 1172.2 901.1 1173.3 902.5C1174.7 904.2 1177.1 904.4 1179.1 904.7C1183.6 905.5 1188.1 906.2 1192.6 906.8C1208.8 909 1225.2 909.9 1241.5 910.2C1258.4 910.5 1275.3 910 1292.3 909.4C1296.7 909.2 1301.7 909.7 1305.9 908.9C1307.1 908.7 1308.4 908.7 1309.2 907.6C1311 905.3 1308.5 903.3 1306.2 904.5C1305.7 904.8 1305.3 905.6 1305.5 906.2C1305.6 906.3 1305.6 906.5 1305.7 906.6C1306.4 908.4 1309.3 907.6 1308.6 905.8C1308.5 905.7 1308.5 905.5 1308.4 905.4C1308.2 906 1307.9 906.5 1307.7 907.1C1307.1 906.7 1306.5 906.3 1305.9 905.9C1304.9 905.9 1304 906 1303 906C1301.4 906.1 1299.8 906.1 1298.1 906.2C1295.2 906.3 1292.2 906.4 1289.3 906.5C1283.4 906.7 1277.6 906.9 1271.7 907C1259.3 907.3 1247 907.4 1234.6 907C1222.6 906.7 1210.6 905.9 1198.7 904.5C1192.4 903.8 1186.1 902.9 1179.8 901.8C1175.7 901.1 1175.2 899.3 1176.3 895.4C1177.2 892.3 1178.2 889.1 1179.1 886C1179.7 884.2 1176.8 883.4 1176.3 885.3Z" fill="#8B8585"/>
<path d="M1179.1 886.9C1180.7 882 1191.7 883.2 1195.6 883.1C1201.1 882.9 1206.7 882.7 1212.2 882.6C1223.9 882.4 1235.6 882.4 1247.4 882.8C1258.8 883.1 1270.2 883.7 1281.5 884.6C1286.9 885 1292.8 884.9 1298 886.1C1303.4 887.4 1303.4 890 1304.2 894.3C1304.8 897.4 1305.4 900.5 1306 903.6C1306.4 905.5 1309.3 904.7 1308.9 902.8C1308.2 899.1 1307.4 895.3 1306.7 891.6C1306.3 889.4 1306 886.9 1304.3 885.2C1301.1 882 1294.2 882.8 1290.1 882.4C1275.5 881.1 1260.9 880.2 1246.2 879.8C1231.9 879.4 1217.5 879.4 1203.2 879.9C1196.9 880.1 1190.4 880 1184.1 880.8C1180.5 881.3 1177.2 882.5 1176 886.2C1175.6 888 1178.5 888.7 1179.1 886.9Z" fill="#8B8585"/>
<path d="M1182 903.5C1186.4 927.7 1189.5 952.1 1191.4 976.6C1191.5 977.5 1192 978 1192.9 978.1C1222.3 980.8 1251.8 981.5 1281.2 980.2C1283.1 980.1 1283.1 977.1 1281.2 977.2C1251.7 978.5 1222.2 977.8 1192.9 975.1C1193.4 975.6 1193.9 976.1 1194.4 976.6C1192.5 951.8 1189.4 927.2 1184.9 902.7C1184.5 900.8 1181.6 901.6 1182 903.5Z" fill="#8B8585"/>
<path d="M1114.6 723.6C1121.2 741.5 1126 759.9 1129.1 778.6C1129.2 779.1 1129.7 779.5 1130.1 779.6C1133.3 780.5 1136.5 781.4 1139.6 782.3C1139.3 781.7 1138.9 781.1 1138.6 780.5C1136.8 788.7 1136 797.6 1143.7 802.8C1146.2 804.5 1148.8 805.5 1149.4 808.8C1149.8 811.2 1149.6 813.6 1150.1 816C1151.1 821.1 1153.2 826 1156.2 830.2C1162.9 839.5 1173.4 843.5 1182.8 849.4C1193.2 856 1201.3 865.5 1206.7 876.5C1207.5 878.2 1210.1 876.7 1209.3 875C1204.9 866 1198.7 857.9 1190.9 851.6C1182.3 844.6 1171.2 841 1163.1 833.5C1158.8 829.6 1155.7 824.4 1153.9 818.9C1153 816.1 1152.5 813.2 1152.4 810.3C1152.3 808.7 1152.6 807.4 1151.9 806C1150.2 802.2 1145.3 801.1 1142.7 798.1C1138.8 793.6 1140.3 786.6 1141.4 781.3C1141.6 780.5 1141.2 779.7 1140.4 779.5C1138.4 778.9 1134.4 778.6 1132.8 777.4C1130.8 775.9 1130.9 771.9 1130.5 769.5C1129.5 764.2 1128.3 759 1127 753.7C1124.4 743.2 1121.2 733 1117.5 722.9C1116.9 721 1114 721.8 1114.6 723.6Z" fill="#8B8585"/>
<path d="M1117.8 723.7C1152.2 733.8 1181.7 757.3 1199.3 788.5C1200.2 790.2 1202.8 788.7 1201.9 787C1184 755.1 1153.8 731.1 1118.6 720.8C1116.7 720.2 1115.9 723.1 1117.8 723.7Z" fill="#8B8585"/>
<path d="M1195.7 784.2C1214.2 811.7 1226.6 842.8 1232.2 875.5C1232.5 877.4 1235.4 876.6 1235.1 874.7C1229.5 841.8 1216.9 810.4 1198.3 782.7C1197.2 781.1 1194.6 782.6 1195.7 784.2Z" fill="#8B8585"/>
<path d="M1124.4 732.1C1162.9 771.1 1194.9 816 1219.4 865C1220.3 866.7 1222.9 865.2 1222 863.5C1197.5 814.3 1165.2 769.2 1126.6 730C1125.1 728.7 1123 730.8 1124.4 732.1Z" fill="#8B8585"/>
<path d="M1131.5 767.1C1157 782.5 1179.4 802.5 1197.5 826.2C1198.7 827.7 1201.3 826.2 1200.1 824.7C1181.7 800.5 1159 780.1 1133 764.5C1131.4 763.5 1129.9 766.1 1131.5 767.1Z" fill="#8B8585"/>
<path d="M1156.9 740.7C1163.4 754.8 1167.5 769.8 1169.3 785.3C1169.5 787.2 1172.5 787.2 1172.3 785.3C1170.5 769.3 1166.2 753.9 1159.5 739.2C1158.6 737.4 1156.1 738.9 1156.9 740.7Z" fill="#8B8585"/>
<path d="M1226.7 835.9C1223.9 769.3 1287.2 726.7 1316 673.2C1315.1 672.9 1314.1 672.7 1313.2 672.4C1313.2 680.8 1313.1 689.2 1313.1 697.6C1313.1 701.5 1313.1 705.4 1313 709.2C1313 713.2 1314.5 726.8 1306.5 724.3C1305.3 723.9 1304.1 725.4 1304.8 726.5C1309 732.9 1310 740.8 1307.3 748.1C1306 751.6 1304.6 752.9 1304.2 756.7C1303.8 760.9 1303.4 765.2 1303 769.4C1302.2 777.9 1301.3 786.3 1300.5 794.8C1299.7 802.8 1299.8 811.6 1297.5 819.3C1295.3 826.9 1289 831.2 1282.4 834.9C1276.6 838.3 1270.8 841.6 1265.5 845.7C1255.5 853.6 1247.8 864.7 1248.1 877.8C1248.1 879.7 1251.1 879.7 1251.1 877.8C1250.7 860.4 1264.7 848.7 1278.4 840.6C1283.9 837.3 1289.9 834.5 1294.5 829.9C1299 825.4 1300.7 819.9 1301.5 813.7C1303.7 796.3 1304.9 778.8 1306.6 761.4C1307 757.3 1307.7 754.2 1309.4 750.5C1310.5 748 1311.2 745.3 1311.6 742.6C1312.3 736.3 1310.8 730.2 1307.3 724.9C1306.7 725.6 1306.2 726.4 1305.6 727.1C1315.4 730.3 1315.8 717.2 1315.8 711.1C1315.9 698.2 1315.9 685.3 1316 672.3C1316 670.8 1313.9 670.2 1313.2 671.5C1284.1 725.5 1220.6 768.3 1223.5 835.7C1223.7 837.8 1226.7 837.8 1226.7 835.9Z" fill="#8B8585"/>
<path d="M1307.5 700.2C1292.3 725.8 1277.1 751.4 1263.9 778.1C1257.5 791 1251.7 804.1 1246.5 817.5C1241.4 830.9 1237.4 844.8 1238.2 859.2C1238.3 861.1 1241.3 861.1 1241.2 859.2C1240.3 844.4 1244.7 830.2 1250 816.5C1255.3 802.8 1261.4 789.3 1268 776.2C1280.8 750.7 1295.4 726.1 1309.9 701.6C1311.1 700 1308.5 698.5 1307.5 700.2Z" fill="#8B8585"/>
<path d="M1248.8 774.3C1246.4 784.8 1245.9 795.4 1247.4 806C1247.7 807.9 1250.6 807.1 1250.3 805.2C1248.9 795.1 1249.4 785 1251.7 775.1C1252.1 773.2 1249.2 772.4 1248.8 774.3Z" fill="#8B8585"/>
<path d="M1338.1 762.5C1330.4 787 1317.5 809.8 1300.4 828.9C1286.5 844.3 1265.2 857.7 1262.9 880.2C1262.7 882.1 1265.7 882.1 1265.9 880.2C1267.1 867.9 1275.1 858.4 1283.5 850C1291.8 841.7 1300.4 833.9 1307.8 824.8C1322.7 806.6 1333.9 785.7 1340.9 763.3C1341.6 761.5 1338.7 760.7 1338.1 762.5Z" fill="#8B8585"/>
<path d="M999.6 264.2C993.5 314.8 974.9 363.4 945.8 405.3C944.7 406.9 947.3 408.4 948.4 406.8C977.8 364.5 996.4 315.3 1002.6 264.2C1002.8 262.2 999.8 262.3 999.6 264.2Z" fill="#8B8585"/>
<path d="M1000.1 265C1044.1 270.6 1088.6 270.8 1132.6 265.7C1134.5 265.5 1134.5 262.5 1132.6 262.7C1088.6 267.8 1044.1 267.6 1000.1 262C998.2 261.8 998.2 264.8 1000.1 265Z" fill="#8B8585"/>
<path d="M1132.7 267.5C1144 320.3 1137 376.1 1113.2 424.6C1112.3 426.3 1114.9 427.8 1115.8 426.1C1140 376.9 1147.1 320.4 1135.6 266.7C1135.2 264.8 1132.3 265.6 1132.7 267.5Z" fill="#8B8585"/>
<path d="M947.7 408C1000.6 427.6 1057.8 426.7 1113.4 425.6C1115.3 425.6 1115.3 422.6 1113.4 422.6C1058.1 423.7 1001.2 424.6 948.5 405.1C946.7 404.4 945.9 407.3 947.7 408Z" fill="#8B8585"/>
<path d="M1140.9 328.7C1166.1 318.5 1192.7 311.9 1219.8 309.3C1219.3 308.8 1218.8 308.3 1218.3 307.8C1219.1 346.4 1234.8 383.8 1261.7 411.5C1263 412.9 1265.2 410.8 1263.8 409.4C1237.4 382.3 1222.1 345.7 1221.3 307.8C1221.3 307 1220.6 306.2 1219.8 306.3C1192.4 309 1165.6 315.5 1140.1 325.8C1138.3 326.6 1139.1 329.5 1140.9 328.7Z" fill="#8B8585"/>
<path d="M1086.2 427.7C1090.2 441.4 1094.5 455.1 1099.6 468.4C1103.7 479.1 1109 489.5 1117.9 497C1119.4 498.2 1121.5 496.1 1120 494.9C1110.7 487 1105.5 476 1101.4 464.7C1096.9 452.3 1092.9 439.7 1089.1 427C1088.5 425.1 1085.7 425.9 1086.2 427.7Z" fill="#8B8585"/>
<path d="M1121.2 497.2C1166.4 465.9 1214.5 438.9 1264.6 416.3C1266.4 415.5 1264.8 412.9 1263.1 413.7C1212.9 436.2 1164.9 463.3 1119.7 494.6C1118.1 495.7 1119.6 498.3 1121.2 497.2Z" fill="#8B8585"/>
<path d="M1009.1 278C1046.1 282.6 1083.3 285.9 1120.5 287.8C1122.4 287.9 1122.4 284.9 1120.5 284.8C1083.2 282.9 1046.1 279.6 1009.1 275C1007.2 274.8 1007.2 277.8 1009.1 278Z" fill="#8B8585"/>
<path d="M1008.3 292.8C1013.4 295.9 1020.3 295.4 1026 295.8C1034.2 296.4 1042.4 297 1050.6 297.6C1052.5 297.7 1052.5 294.7 1050.6 294.6C1043.7 294.1 1036.8 293.6 1029.9 293.1C1023.7 292.6 1015.2 293.5 1009.8 290.2C1008.2 289.2 1006.7 291.8 1008.3 292.8Z" fill="#8B8585"/>
<path d="M1003.1 307.7C1021.7 309 1040.3 310.3 1058.8 311.6C1076.6 312.8 1095.1 315.6 1112.9 313.8C1114.8 313.6 1114.8 310.6 1112.9 310.8C1095.1 312.6 1076.6 309.9 1058.8 308.6C1040.2 307.3 1021.6 306 1003.1 304.7C1001.2 304.6 1001.2 307.6 1003.1 307.7Z" fill="#8B8585"/>
<path d="M999.8 332.9C1016 338.3 1033.1 338.6 1050.1 338.4C1068.8 338.3 1087.4 338.1 1106.1 337.9C1108 337.9 1108 334.9 1106.1 334.9C1088 335 1070 335.2 1051.9 335.3C1034.6 335.4 1017.2 335.4 1000.6 329.9C998.7 329.4 997.9 332.3 999.8 332.9Z" fill="#8B8585"/>
<path d="M979.2 378.2C979.2 381.4 978.9 384.8 979.2 388.1C979.4 389.7 980.1 391.3 982 391.4C984.3 391.5 986.1 388.9 987.5 387.5C989.8 385.1 991.9 382.6 994 380.1C995.2 378.6 993.1 376.5 991.9 378C989.4 381.2 986.7 384.2 983.8 387C983.5 387.3 983.2 387.6 982.8 387.9C982.2 388.5 982 388.4 982.2 387.5C981.9 386.8 982.2 385.4 982.2 384.7C982.2 382.5 982.2 380.4 982.2 378.2C982.2 376.3 979.2 376.3 979.2 378.2Z" fill="#8B8585"/>
<path d="M1003.4 355.2C1035.6 362.1 1068.6 364.5 1101.4 362.4C1103.3 362.3 1103.3 359.3 1101.4 359.4C1068.8 361.5 1036.1 359.1 1004.2 352.3C1002.3 351.9 1001.5 354.8 1003.4 355.2Z" fill="#8B8585"/>
<path d="M1121.9 460.8C1162.2 446.1 1200.7 426.9 1236.6 403.4C1238.2 402.3 1236.7 399.7 1235.1 400.8C1199.4 424.2 1161.2 443.4 1121.1 457.9C1119.3 458.6 1120.1 461.5 1121.9 460.8Z" fill="#8B8585"/>
<path d="M1112.6 442.1C1142.6 433.4 1171.9 422.8 1200.6 410.5C1202.4 409.7 1200.8 407.2 1199.1 407.9C1170.7 420.2 1141.5 430.6 1111.8 439.2C1110 439.8 1110.7 442.7 1112.6 442.1Z" fill="#8B8585"/>
<path d="M1125.6 418.1C1142.7 411 1159.8 403.8 1176.9 396.7C1191.9 390.4 1207.3 384.7 1220.6 375.1C1222.1 374 1220.7 371.4 1219.1 372.5C1205.5 382.3 1189.6 388.2 1174.3 394.6C1157.8 401.5 1141.3 408.4 1124.8 415.3C1123.1 416 1123.9 418.9 1125.6 418.1Z" fill="#8B8585"/>
<path d="M1139.5 387.5C1146.9 384.4 1154.4 381.4 1161.8 378.3C1163.6 377.6 1162.8 374.7 1161 375.4C1153.6 378.5 1146.1 381.5 1138.7 384.6C1136.9 385.3 1137.7 388.2 1139.5 387.5Z" fill="#8B8585"/>
<path d="M1143.6 348.7C1153.5 349 1163.5 344.2 1172.6 340.6C1182.1 336.8 1191.4 332.6 1200.5 328C1202.2 327.1 1200.7 324.5 1199 325.4C1190.1 329.9 1181.1 334 1171.8 337.7C1163.1 341.2 1153.2 346 1143.6 345.7C1141.6 345.6 1141.6 348.6 1143.6 348.7Z" fill="#8B8585"/>
<path d="M1019.4 424.9C1008.1 459.8 989.2 491.9 964.3 518.9C963.4 519.9 964 521.4 965.4 521.5C1011.6 523 1054.4 542.4 1095.5 562C1097.2 562.8 1098.8 560.2 1097 559.4C1055.4 539.6 1012.2 520.1 965.4 518.5C965.8 519.4 966.1 520.2 966.5 521.1C991.8 493.8 1010.9 461.2 1022.4 425.8C1022.9 423.9 1020 423.1 1019.4 424.9Z" fill="#8B8585"/>
<path d="M1098.9 561C1112.4 534.8 1127 509.2 1142.6 484.1C1143.6 482.5 1141 480.9 1140 482.6C1124.4 507.6 1109.8 533.3 1096.3 559.5C1095.4 561.2 1098 562.8 1098.9 561Z" fill="#8B8585"/>
<path d="M1094.5 526.4C1096.4 526.4 1096.4 523.4 1094.5 523.4C1092.5 523.4 1092.5 526.4 1094.5 526.4Z" fill="#8B8585"/>
<path d="M990.8 504.9C1006.4 503.8 1019.6 513.2 1033.9 517.9C1041.7 520.4 1049.8 521.7 1057.6 524.3C1065.5 526.8 1072.8 530.6 1079.7 535.3C1081.3 536.4 1082.8 533.8 1081.2 532.7C1074.9 528.4 1068.1 524.8 1060.9 522.3C1052.4 519.3 1043.3 517.9 1034.7 515.1C1020.1 510.3 1006.8 500.8 990.8 502C988.8 502 988.8 505 990.8 504.9Z" fill="#8B8585"/>
<path d="M1006.6 492.1C1030 498.1 1052.4 507.4 1073.1 519.8C1074.8 520.8 1076.3 518.2 1074.6 517.2C1053.7 504.6 1031.1 495.2 1007.4 489.2C1005.5 488.8 1004.7 491.6 1006.6 492.1Z" fill="#8B8585"/>
<path d="M1014.2 474.6C1024.6 476.8 1034.2 481 1043 487C1044.6 488.1 1046.1 485.5 1044.5 484.4C1035.5 478.3 1025.6 474 1015 471.7C1013.1 471.3 1012.3 474.2 1014.2 474.6Z" fill="#8B8585"/>
<path d="M1020.4 458.6C1037.3 464.9 1054 471.6 1070.6 478.7C1072.4 479.5 1073.9 476.9 1072.1 476.1C1055.3 468.9 1038.3 462 1021.2 455.7C1019.3 455.1 1018.6 458 1020.4 458.6Z" fill="#8B8585"/>
<path d="M169.9 303.9C168.3 327.7 167.9 351.7 160.3 374.6C153.2 395.9 141.3 415.4 125.7 431.5C124.4 432.9 126.5 435 127.8 433.6C143.4 417.5 155.4 398.1 162.7 376.9C170.8 353.4 171.2 328.5 172.9 303.9C173 302 170 302 169.9 303.9Z" fill="#8B8585"/>
<path d="M172 304.8C211.2 304.3 250.5 304.4 289.7 305.2C299.7 305.4 309.7 305.7 319.6 306C324.7 306.2 332.5 304.7 335.2 310.1C337.1 313.9 337 320 337.6 324.2C340.2 342.6 340.7 361.3 339.3 379.8C337.7 400.8 333.5 421.5 327 441.5C326.4 443.3 329.3 444.1 329.9 442.3C342.1 404.8 346 364.8 340.8 325.7C340.3 321.6 339.6 317.5 338.9 313.5C338.4 310.6 338.1 306.9 335.5 305C333 303.1 329.5 303.4 326.6 303.3C320.9 303.1 315.3 302.9 309.6 302.8C288 302.2 266.4 301.8 244.8 301.7C220.5 301.5 196.2 301.6 172 301.9C170.1 301.9 170.1 304.9 172 304.8Z" fill="#8B8585"/>
<path d="M126.4 435.2C177.2 449.4 230.9 450.9 282.5 439.8C284.4 439.4 283.6 436.5 281.7 436.9C230.7 448 177.5 446.4 127.2 432.3C125.3 431.8 124.5 434.6 126.4 435.2Z" fill="#8B8585"/>
<path d="M329.9 312C327.6 355.7 315.6 398.4 294.8 436.8C293.9 438.5 296.5 440 297.4 438.3C318.4 399.4 330.6 356.2 332.9 312C333 310.1 330 310.1 329.9 312Z" fill="#8B8585"/>
<path d="M329.9 320.3C332.7 333.6 331.5 347 329.2 360.2C327.2 371.7 324.9 383.2 322.3 394.7C317.2 417.2 310.3 439.4 297.1 458.5C296 460.1 298.6 461.6 299.7 460C313.4 440.2 320.4 417.1 325.6 393.8C330.9 370 338 343.9 332.8 319.5C332.4 317.6 329.5 318.4 329.9 320.3Z" fill="#8B8585"/>
<path d="M332.1 329.9C335.6 375.3 328.2 421 310.5 463C309.8 464.8 312.7 465.6 313.4 463.8C331.1 421.6 338.6 375.6 335.1 329.9C335 328 332 328 332.1 329.9Z" fill="#8B8585"/>
<path d="M145.5 460C195.6 468.6 246.8 468.3 296.8 459.2C298.7 458.9 297.9 456 296 456.3C246.6 465.3 195.8 465.6 146.3 457.1C144.4 456.8 143.6 459.7 145.5 460Z" fill="#8B8585"/>
<path d="M152.101 443C149.801 446.8 146.801 450 143.201 452.6C141.601 453.7 143.101 456.3 144.701 455.2C148.701 452.3 152.101 448.8 154.601 444.6C155.701 442.9 153.101 441.4 152.101 443Z" fill="#8B8585"/>
<path d="M159.1 464.9C157.8 467.4 156.3 469.8 154.5 472C153.3 473.5 155.4 475.6 156.6 474.1C158.6 471.7 160.3 469.2 161.6 466.4C162.5 464.7 160 463.1 159.1 464.9Z" fill="#8B8585"/>
<path d="M156.2 476.1C206.5 482 257.6 478.8 306.8 466.6C308.7 466.1 307.9 463.2 306 463.7C257.1 475.8 206.3 478.9 156.2 473C154.3 472.9 154.3 475.9 156.2 476.1Z" fill="#8B8585"/>
<path d="M180.7 344.1C223.9 338.2 267.5 341 310.8 344C312.7 344.1 312.7 341.1 310.8 341C267.2 338 223.4 335.2 179.9 341.2C178 341.4 178.8 344.3 180.7 344.1Z" fill="#8B8585"/>
<path d="M168.3 388.9C208.8 389.5 249.2 391.4 289.5 394.6C291.4 394.8 291.4 391.8 289.5 391.6C249.2 388.3 208.8 386.4 168.3 385.9C166.3 385.9 166.3 388.9 168.3 388.9Z" fill="#8B8585"/>
<path d="M156.2 412.1C201 414.2 245.8 416.4 290.6 418.5C292.5 418.6 292.5 415.6 290.6 415.5C245.8 413.4 201 411.2 156.2 409.1C154.3 409 154.3 412 156.2 412.1Z" fill="#8B8585"/>
<path d="M193.2 371.3C184.7 391.5 176.6 411.8 169.1 432.4C168.4 434.2 171.3 435 172 433.2C179.5 412.9 187.4 392.8 195.8 372.9C196.5 371.1 193.9 369.5 193.2 371.3Z" fill="#8B8585"/>
<path d="M227.101 374.8C217.201 394.8 209.001 415.4 201.901 436.4C201.301 438.2 204.201 439 204.801 437.2C211.801 416.4 219.901 396 229.701 376.3C230.601 374.6 228.001 373.1 227.101 374.8Z" fill="#8B8585"/>
<path d="M265.1 377.2C253.7 395.7 245.2 415.8 239.9 436.9C239.4 438.8 242.3 439.6 242.8 437.7C248 416.8 256.4 397 267.7 378.7C268.7 377.1 266.1 375.6 265.1 377.2Z" fill="#8B8585"/>
<path d="M295.1 378.6C285.7 396.8 277.7 415.7 271.1 435.2C270.5 437 273.4 437.8 274 436C280.5 416.8 288.4 398.2 297.7 380.2C298.5 378.4 296 376.9 295.1 378.6Z" fill="#8B8585"/>
<path d="M164.101 396.2C168.501 398.2 172.201 400.9 175.501 404.4C176.801 405.8 178.901 403.7 177.601 402.3C174.201 398.6 170.201 395.7 165.601 393.6C163.801 392.9 162.301 395.4 164.101 396.2Z" fill="#8B8585"/>
<path d="M177.7 391.1C171.3 394.9 165.7 399.7 161 405.4C159.8 406.9 161.9 409 163.1 407.5C167.7 401.9 173 397.3 179.2 393.7C180.9 392.7 179.4 390.1 177.7 391.1Z" fill="#8B8585"/>
<path d="M217.8 422.5C223.4 425.8 228.2 429.9 232.4 434.8C233.6 436.3 235.8 434.1 234.5 432.7C230.2 427.6 225.1 423.3 219.3 419.9C217.7 418.9 216.2 421.5 217.8 422.5Z" fill="#8B8585"/>
<path d="M234.8 418.3C228.4 423.1 222.5 428.5 217.1 434.4C215.8 435.8 217.9 438 219.2 436.5C224.4 430.7 230.1 425.5 236.3 420.8C237.8 419.8 236.3 417.2 234.8 418.3Z" fill="#8B8585"/>
<path d="M189.9 391.7C195.1 396.5 200.3 401.2 205.5 406C206.9 407.3 209 405.2 207.6 403.9C202.4 399.1 197.2 394.4 192 389.6C190.6 388.2 188.5 390.3 189.9 391.7Z" fill="#8B8585"/>
<path d="M207 389.3C199.7 393.5 193.3 398.9 188.1 405.5C186.9 407 189 409.1 190.2 407.6C195.3 401.2 201.4 396 208.5 391.9C210.2 390.9 208.6 388.3 207 389.3Z" fill="#8B8585"/>
<path d="M227.7 411.7C220.5 407.8 219.5 398.1 226.4 393.1C231.6 389.4 242.2 386.3 246.2 393.1C249.7 399.2 245.5 406.6 240.5 410.3C232.7 416 227.2 409.7 223.6 403.2C222.7 401.5 220.1 403 221 404.7C225.6 413 233 419.5 242.2 412.8C249 407.9 253.7 397.5 247.9 390.1C241.9 382.5 228.2 386.5 222.4 392.5C215.9 399.3 218.3 409.8 226.2 414.1C227.9 415.2 229.4 412.6 227.7 411.7Z" fill="#8B8585"/>
<path d="M185.301 311.8C183.401 318.7 182.801 325.7 183.801 332.9C184.001 334.8 187.101 334.8 186.801 332.9C185.901 326 186.301 319.3 188.201 312.6C188.701 310.8 185.801 310 185.301 311.8Z" fill="#8B8585"/>
<path d="M187.2 313.6C224.8 309.4 262.7 308.4 300.5 310.7C300 310.2 299.5 309.7 299 309.2C299.5 315.1 299.4 320.9 298.4 326.7C298.1 328.6 301 329.4 301.3 327.5C302.3 321.4 302.6 315.4 302 309.2C301.9 308.4 301.4 307.8 300.5 307.7C262.7 305.4 224.8 306.4 187.2 310.6C185.3 310.8 185.3 313.8 187.2 313.6Z" fill="#8B8585"/>
<path d="M190.1 331.9C226.1 331.1 262.1 330.3 298.1 329.5C300 329.5 300 326.5 298.1 326.5C262.1 327.3 226.1 328.1 190.1 328.9C188.2 329 188.2 332 190.1 331.9Z" fill="#8B8585"/>
<path d="M793.3 922.7C849.5 922.7 905.6 922.7 961.8 922.7C967.6 922.7 967.6 913.7 961.8 913.7C905.6 913.7 849.5 913.7 793.3 913.7C787.5 913.7 787.5 922.7 793.3 922.7Z" fill="#161616"/>
<path d="M982.201 922.7C994.301 922.7 1006.3 922.7 1018.4 922.7C1024.2 922.7 1024.2 913.7 1018.4 913.7C1006.3 913.7 994.301 913.7 982.201 913.7C976.401 913.7 976.401 922.7 982.201 922.7Z" fill="#161616"/>
<path d="M1054.7 916.4C1062 916.4 1069.4 916.4 1076.7 916.4C1082.5 916.4 1082.5 907.4 1076.7 907.4C1069.4 907.4 1062 907.4 1054.7 907.4C1048.9 907.4 1048.9 916.4 1054.7 916.4Z" fill="#161616"/>
<path d="M983.8 998.3C1051 998.3 1118.2 998.3 1185.4 998.3C1191.2 998.3 1191.2 989.3 1185.4 989.3C1118.2 989.3 1051 989.3 983.8 989.3C978 989.3 978 998.3 983.8 998.3Z" fill="#161616"/>
<path d="M1198 998.3C1214.8 998.3 1231.6 998.3 1248.4 998.3C1254.2 998.3 1254.2 989.3 1248.4 989.3C1231.6 989.3 1214.8 989.3 1198 989.3C1192.2 989.3 1192.2 998.3 1198 998.3Z" fill="#161616"/>
<path d="M16.2002 1017.5C97.2002 1015.5 178.2 1014 259.2 1013.1C282.4 1012.8 305.7 1012.6 328.9 1012.4C330.8 1012.4 330.8 1009.4 328.9 1009.4C247.9 1010 166.9 1011.2 85.9002 1012.9C62.7002 1013.4 39.4002 1013.9 16.2002 1014.5C14.2002 1014.6 14.2002 1017.6 16.2002 1017.5Z" fill="#161616"/>
<path d="M234.9 1034.2C296.3 1031.6 357.8 1032 419.1 1035.4C421 1035.5 421 1032.5 419.1 1032.4C357.8 1029 296.3 1028.6 234.9 1031.2C232.9 1031.3 232.9 1034.3 234.9 1034.2Z" fill="#161616"/>
<path d="M1205.7 909.3C1201.8 918.5 1196.7 927 1190.4 934.8C1189.2 936.3 1191.3 938.4 1192.5 936.9C1199.2 928.7 1204.5 919.8 1208.6 910.1C1209.3 908.3 1206.4 907.5 1205.7 909.3Z" fill="#8B8585"/>
<path d="M1224.6 907.1C1216.7 924.6 1205.4 940.3 1191.3 953.4C1189.9 954.7 1192 956.8 1193.4 955.5C1207.7 942.3 1219.1 926.4 1227.2 908.6C1228 906.9 1225.4 905.4 1224.6 907.1Z" fill="#8B8585"/>
<path d="M1244.2 908.1C1231.7 933.5 1213.8 955.7 1191.5 973.2C1190 974.4 1192.1 976.5 1193.6 975.3C1216 957.6 1234.1 935.1 1246.7 909.5C1247.6 907.9 1245 906.4 1244.2 908.1Z" fill="#8B8585"/>
<path d="M1262.5 908.9C1248.9 933.6 1232 956.1 1212 976C1210.6 977.4 1212.8 979.5 1214.1 978.1C1234.2 958.1 1251.4 935.3 1265 910.4C1266.1 908.7 1263.5 907.2 1262.5 908.9Z" fill="#8B8585"/>
<path d="M1278.8 908.2C1265.8 933.4 1249.7 956.8 1230.6 977.8C1229.3 979.2 1231.4 981.4 1232.7 979.9C1251.9 958.7 1268.3 935.2 1281.4 909.7C1282.3 908 1279.7 906.5 1278.8 908.2Z" fill="#8B8585"/>
<path d="M1292 908.3C1280.1 933.7 1264.6 957.3 1245.9 978.2C1244.6 979.6 1246.7 981.8 1248 980.3C1266.9 959.1 1282.6 935.4 1294.6 909.7C1295.5 908.1 1292.9 906.5 1292 908.3Z" fill="#8B8585"/>
<path d="M1293.6 927.7C1284.3 946.3 1272.9 963.7 1259.6 979.7C1258.4 981.2 1260.5 983.3 1261.7 981.8C1275.2 965.6 1286.8 948 1296.2 929.2C1297.1 927.5 1294.5 926 1293.6 927.7Z" fill="#8B8585"/>
<path d="M419.8 68.7C419.8 85.7 419.8 102.7 419.8 119.6C419.8 121.5 422.8 121.5 422.8 119.6C422.8 102.6 422.8 85.6 422.8 68.7C422.8 66.7 419.8 66.7 419.8 68.7Z" fill="#8B8585"/>
<path d="M365.2 122.4C415.3 122.4 465.3 122.4 515.4 122.4C517.3 122.4 517.3 119.4 515.4 119.4C465.3 119.4 415.3 119.4 365.2 119.4C363.2 119.4 363.2 122.4 365.2 122.4Z" fill="#8B8585"/>
<path d="M470.8 126.1C470.8 141.8 470.8 157.4 470.8 173.1C470.8 175 473.8 175 473.8 173.1C473.8 157.4 473.8 141.8 473.8 126.1C473.8 124.2 470.8 124.2 470.8 126.1Z" fill="#8B8585"/>
<path d="M392.6 178.6C441.4 178.6 490.1 178.6 538.9 178.6C540.8 178.6 540.8 175.6 538.9 175.6C490.1 175.6 441.4 175.6 392.6 175.6C390.7 175.6 390.7 178.6 392.6 178.6Z" fill="#8B8585"/>
<path d="M389.8 179.7C389.8 191.5 389.8 203.2 389.8 215C389.8 216.9 392.8 216.9 392.8 215C392.8 203.2 392.8 191.5 392.8 179.7C392.8 177.8 389.8 177.7 389.8 179.7Z" fill="#8B8585"/>
<path d="M1115.4 596.1C1145.7 596.1 1175.9 596.1 1206.2 596.1C1208.1 596.1 1208.1 593.1 1206.2 593.1C1175.9 593.1 1145.7 593.1 1115.4 593.1C1113.4 593.1 1113.4 596.1 1115.4 596.1Z" fill="#8B8585"/>
<path d="M1163.4 597.3C1163.4 609.2 1163.4 621.1 1163.4 633.1C1163.4 635 1166.4 635 1166.4 633.1C1166.4 621.2 1166.4 609.3 1166.4 597.3C1166.4 595.4 1163.4 595.4 1163.4 597.3Z" fill="#8B8585"/>
<path d="M1108.5 634.6C1143.4 634.6 1178.2 634.6 1213.1 634.6C1215 634.6 1215 631.6 1213.1 631.6C1178.2 631.6 1143.4 631.6 1108.5 631.6C1106.6 631.6 1106.6 634.6 1108.5 634.6Z" fill="#8B8585"/>
<path d="M1135.9 634.5C1135.9 644.6 1135.9 654.7 1135.9 664.8C1135.9 666.7 1138.9 666.7 1138.9 664.8C1138.9 654.7 1138.9 644.6 1138.9 634.5C1138.9 632.5 1135.9 632.5 1135.9 634.5Z" fill="#8B8585"/>
<path d="M1201.9 635.8C1201.9 645.9 1201.9 656 1201.9 666.1C1201.9 668 1204.9 668 1204.9 666.1C1204.9 656 1204.9 645.9 1204.9 635.8C1204.9 633.9 1201.9 633.9 1201.9 635.8Z" fill="#8B8585"/>
<path d="M225.3 923.9C270.7 923.9 316.1 923.9 361.5 923.9C363.4 923.9 363.4 920.9 361.5 920.9C316.1 920.9 270.7 920.9 225.3 920.9C223.3 920.9 223.3 923.9 225.3 923.9Z" fill="#8B8585"/>
<path d="M16.2002 925.8C44.8002 925.8 73.4002 925.8 102 925.8C103.9 925.8 103.9 922.8 102 922.8C73.4002 922.8 44.8002 922.8 16.2002 922.8C14.2002 922.8 14.2002 925.8 16.2002 925.8Z" fill="#8B8585"/>
<path d="M196.7 688.4C242.1 688.4 287.5 688.4 332.9 688.4C334.8 688.4 334.8 685.4 332.9 685.4C287.5 685.4 242.1 685.4 196.7 685.4C194.7 685.4 194.7 688.4 196.7 688.4Z" fill="#8B8585"/>
<path d="M272.8 689.6C272.8 700 272.8 710.5 272.8 720.9C272.8 722.8 275.8 722.8 275.8 720.9C275.8 710.5 275.8 700 275.8 689.6C275.8 687.7 272.8 687.7 272.8 689.6Z" fill="#8B8585"/>
<path d="M247.101 722.4C282.501 722.4 317.901 722.4 353.301 722.4C355.201 722.4 355.201 719.4 353.301 719.4C317.901 719.4 282.501 719.4 247.101 719.4C245.101 719.4 245.101 722.4 247.101 722.4Z" fill="#8B8585"/>
<path d="M327.3 723.6C327.3 734.9 327.3 746.3 327.3 757.6C327.3 759.5 330.3 759.5 330.3 757.6C330.3 746.3 330.3 734.9 330.3 723.6C330.3 721.7 327.3 721.7 327.3 723.6Z" fill="#8B8585"/>
<path d="M1062 934.6C1100.5 934.6 1138.9 934.6 1177.4 934.6C1179.3 934.6 1179.3 931.6 1177.4 931.6C1138.9 931.6 1100.5 931.6 1062 931.6C1060 931.6 1060 934.6 1062 934.6Z" fill="#8B8585"/>
<path d="M916.2 639.2C916.2 658.4 916.2 677.7 916.2 696.9C916.2 698.8 919.2 698.8 919.2 696.9C919.2 677.7 919.2 658.4 919.2 639.2C919.2 637.2 916.2 637.2 916.2 639.2Z" fill="#8B8585"/>
<path d="M919.5 667.7C937.5 667.7 955.6 667.7 973.6 667.7C975.5 667.7 975.5 664.7 973.6 664.7C955.6 664.7 937.5 664.7 919.5 664.7C917.6 664.7 917.6 667.7 919.5 667.7Z" fill="#8B8585"/>
<path d="M970.3 646.4C970.3 664.4 970.3 682.5 970.3 700.5C970.3 702.4 973.3 702.4 973.3 700.5C973.3 682.5 973.3 664.4 973.3 646.4C973.3 644.4 970.3 644.4 970.3 646.4Z" fill="#8B8585"/>
<path d="M935.8 705.6C964 705.6 992.3 705.6 1020.5 705.6C1022.4 705.6 1022.4 702.6 1020.5 702.6C992.3 702.6 964 702.6 935.8 702.6C933.8 702.6 933.8 705.6 935.8 705.6Z" fill="#8B8585"/>
<path d="M993.8 709.5C993.8 723.3 993.8 737.1 993.8 751C993.8 752.9 996.8 752.9 996.8 751C996.8 737.2 996.8 723.4 996.8 709.5C996.8 707.5 993.8 707.5 993.8 709.5Z" fill="#8B8585"/>
<path d="M765.601 144.8C765.601 176.1 765.601 207.4 765.601 238.7C765.601 240.6 768.601 240.6 768.601 238.7C768.601 207.4 768.601 176.1 768.601 144.8C768.601 142.9 765.601 142.9 765.601 144.8Z" fill="#8B8585"/>
<path d="M768.7 144.6C817.9 144.6 867.1 144.6 916.2 144.6C918.1 144.6 918.1 141.6 916.2 141.6C867 141.6 817.8 141.6 768.7 141.6C766.8 141.6 766.8 144.6 768.7 144.6Z" fill="#8B8585"/>
<path d="M914.9 144.3C914.9 175.3 914.9 206.3 914.9 237.2C914.9 239.1 917.9 239.1 917.9 237.2C917.9 206.2 917.9 175.2 917.9 144.3C917.9 142.4 914.9 142.4 914.9 144.3Z" fill="#8B8585"/>
<path d="M768.401 241.2C818.101 241.2 867.901 241.2 917.601 241.2C919.501 241.2 919.501 238.2 917.601 238.2C867.901 238.2 818.101 238.2 768.401 238.2C766.501 238.2 766.501 241.2 768.401 241.2Z" fill="#8B8585"/>
<path d="M832.501 141.5C832.001 138.8 831.901 136.1 832.401 133.4C832.901 131 834.101 126.2 836.901 129.2C838.301 130.7 838.401 134 838.801 135.9C839.301 138.4 839.801 141 840.301 143.5C840.701 145.4 843.601 144.6 843.201 142.7C842.301 138.3 841.901 133.4 840.201 129.2C839.301 127 837.601 124.4 834.901 124.5C831.901 124.6 830.701 127.8 830.001 130.3C828.801 134.2 828.801 138.2 829.601 142.1C829.901 144.2 832.801 143.4 832.501 141.5Z" fill="#8B8585"/>
<path d="M774.3 155.6C774.3 179.9 774.3 204.2 774.3 228.5C774.3 230.4 777.3 230.4 777.3 228.5C777.3 204.2 777.3 179.9 777.3 155.6C777.3 153.6 774.3 153.6 774.3 155.6Z" fill="#8B8585"/>
<path d="M776.6 155.4C819.8 155.4 863 155.4 906.1 155.4C908 155.4 908 152.4 906.1 152.4C862.9 152.4 819.7 152.4 776.6 152.4C774.7 152.4 774.7 155.4 776.6 155.4Z" fill="#8B8585"/>
<path d="M906.3 153.1C906.3 179 906.3 204.9 906.3 230.8C906.3 232.7 909.3 232.7 909.3 230.8C909.3 204.9 909.3 179 909.3 153.1C909.3 151.2 906.3 151.2 906.3 153.1Z" fill="#8B8585"/>
<path d="M778.2 230.7C821.1 230.7 864 230.7 906.9 230.7C908.8 230.7 908.8 227.7 906.9 227.7C864 227.7 821.1 227.7 778.2 227.7C776.3 227.7 776.3 230.7 778.2 230.7Z" fill="#8B8585"/>
<path d="M776.5 204.6C796.1 199.3 815.7 194.7 835.8 200.4C852.4 205.2 867.6 214.1 884.8 217C886.7 217.3 887.5 214.4 885.6 214.1C867.3 211 851.3 201.1 833.4 196.7C813.9 191.9 794.6 196.6 775.8 201.7C773.8 202.2 774.6 205.1 776.5 204.6Z" fill="#8B8585"/>
<path d="M845.3 204.4C863.8 202.3 882.2 195 900.9 198.9C902.8 199.3 903.6 196.4 901.7 196C882.6 192 864.1 199.2 845.3 201.3C843.4 201.6 843.4 204.7 845.3 204.4Z" fill="#8B8585"/>
<path d="M848.5 183.1C846.2 180.9 846 177 848.4 174.8C851 172.3 855.7 173 857.7 175.9C859.8 178.8 859.3 183.2 856.6 185.5C853.3 188.3 848.9 186.1 846.6 183.2C845.5 181.7 842.8 183.2 844 184.7C847.2 189 853.1 191.8 857.9 188.3C862.4 185 863.1 178.1 859.7 173.8C856.7 170 850.5 169.2 846.7 172.3C842.7 175.5 842.6 181.9 846.3 185.4C847.8 186.5 849.9 184.4 848.5 183.1Z" fill="#8B8585"/>
<path d="M967.601 850.3C970.801 843.7 976.101 835.6 984.701 833.2C997.901 829.5 1007.3 842.7 1027 852.3C1062.6 869.7 1093.6 856.7 1096.5 866.4C1098.8 874.1 1080.3 886.6 1068.3 892.6C1044.2 904.6 998.701 914.3 977.701 888.6C974.601 884.8 966.001 872.9 967.601 850.3Z" fill="#161616" stroke="#161616" stroke-width="3" stroke-miterlimit="10"/>
<path d="M940.4 863.3C936.1 859.2 934.2 854 933.4 850.2C940.9 825.1 956.5 806 974.7 803.9C986.4 802.6 997.9 808.4 1006.9 813C1021.6 820.4 1021.9 825.3 1036.1 834.1C1060 849 1077 846.3 1078.4 854.2C1079.7 861.6 1066.3 871.8 1053.2 876.4C1026.9 885.6 1018.6 866.5 977.7 868.3C963.2 869 949.7 872.1 940.4 863.3Z" fill="#161616" stroke="#161616" stroke-width="3" stroke-miterlimit="10"/>
<path d="M760.001 700.1C762.001 712.5 765.1 732.6 768.3 757.4C780.5 850.6 775.601 864.2 790.201 883.6C823.901 928.4 899.001 920.8 904.901 920.1C947.701 915.2 976.701 892.7 988.301 882.6C981.701 871.1 975.101 859.7 968.501 848.2C935.501 848.5 902.501 848.9 869.401 849.2C876.501 823.6 884.801 780.6 877.701 728.3C872.301 688.3 859.901 656.7 849.501 635.5C822.301 637.5 790.901 642 756.701 651.1C740.201 655.5 724.9 660.5 710.8 665.7C710.1 684.6 709.201 711.5 708.701 743.9C707.001 866.5 714 891.7 731.6 904.5C740.2 910.7 755.2 911.2 784.8 911.8C836.3 912.9 879.901 899.4 930.801 883.6C942.301 880 951.601 876.9 957.301 875C954.401 852.1 951.401 829.3 948.501 806.4C928.201 811.9 907.001 817.1 885.001 822.1C863.901 826.8 843.401 831 823.501 834.6" fill="#85C7F2"/>
<path d="M749.101 715.9C759.501 719.8 761.301 732.9 762.301 742.5C763.701 755.4 764.501 768.3 765.301 781.3C766.901 806.6 768.601 832 774.901 856.6C775.401 858.5 778.301 857.7 777.801 855.8C770.601 827.7 769.501 798.7 767.601 770C766.801 757.7 766.501 745 763.901 732.9C762.101 724.5 758.401 716.3 749.901 713.1C748.101 712.4 747.301 715.3 749.101 715.9Z" fill="#281472"/>
<path d="M796.601 888.9C804.301 895.6 811.801 903.4 820.401 909.1C828.701 914.6 838.701 916.6 848.401 918.4C850.301 918.8 851.101 915.9 849.201 915.5C839.801 913.7 830.101 911.9 821.901 906.5C813.601 901 806.301 893.4 798.701 886.8C797.301 885.5 795.101 887.7 796.601 888.9Z" fill="#281472"/>
<path d="M871.101 838.9C882.001 839.1 892.601 841.1 902.801 844.8C904.601 845.5 905.401 842.6 903.601 841.9C893.101 838.1 882.201 836.1 871.101 835.9C869.101 835.8 869.101 838.8 871.101 838.9Z" fill="#281472"/>
<path opacity="0.58" d="M710.1 734.2C710.7 724.9 717.101 716.6 725.701 712.8C734.701 708.9 745.9 711.5 752.8 717C764.8 726.4 763.8 744.1 764.3 765.5C765.2 804.6 766.3 851.5 789.3 882.8C794.6 890 804.2 900.7 821.6 909.9C812.6 914.2 796.501 920.4 776.201 919.3C767.401 918.8 743.701 917.3 726.701 900C718.401 891.6 711.2 878.8 709 817.1C708.3 796 708.1 767.7 710.1 734.2Z" fill="#6C9FC0"/>
<path opacity="0.59" d="M873.7 825.4C898.6 819 923.5 812.6 948.4 806.2C949.9 820 951.3 833.9 952.8 847.7C941.5 844.6 928.7 841.7 914.8 839.4C898.7 836.8 883.9 835.5 870.7 835C871.7 831.8 872.7 828.6 873.7 825.4Z" fill="#6C9FC0"/>
<path d="M717 418C716.7 411 717.5 403.3 722.1 400.7C738.6 391.5 798.9 450.8 828.5 516.5C840.1 542.3 854.3 585.4 851.2 644.5C805.4 652.9 759.7 661.4 713.9 669.8C706.1 656.7 692.9 636.8 672.6 615.8C652.3 594.8 644.6 593.2 635.9 577.9C617.3 545.1 627.3 507.8 629.8 498.4C633.1 486.2 640.3 460 665.3 439.7C685.4 423.3 707 419.2 717 418Z" fill="white" stroke="#161616" stroke-width="3" stroke-miterlimit="10"/>
<path opacity="0.36" d="M715.3 434C727.2 442.2 768.7 472.7 785.5 531C803.8 594.8 779.5 646.9 773.5 658.8C799.7 654.4 826 650.1 852.2 645.7C853.8 620.3 853.2 575.5 833.4 524.8C808.6 461.4 767 423.5 746.4 407C736 416 725.7 425 715.3 434Z" fill="#828181"/>
<path opacity="0.4" d="M820.3 502.8C822 512.5 824 526.7 824.8 544.1C826.2 574.8 827.3 596.7 816.5 619.1C812.3 627.9 803 643.5 782.8 657.7C805.7 653.5 828.5 649.4 851.4 645.2C852.5 624.3 851.6 595.1 843.1 561.8C836.8 537.9 828.3 518 820.3 502.8Z" fill="#828181"/>
<path d="M522.699 409.7C529.699 419.9 535.999 428.3 541.099 434.7C553.599 450.6 558.399 454.7 565.099 456.1C570.799 457.3 576.199 456.3 579.399 455.6C588.299 453.8 591.899 450.2 597.799 447.4C605.599 443.8 608.699 445.6 633.999 445.9C652.299 446.1 650.299 445.1 666.699 445.4C681.099 445.7 692.999 446.6 701.399 447.4C698.999 445.5 696.599 443.7 694.299 441.8C690.999 440.9 681.399 437.9 673.899 428.5C667.699 420.7 666.199 412.7 665.699 409.1C667.799 408.5 671.499 407 673.899 403.5C678.899 396.1 673.699 386 671.899 382.6C669.699 378.4 665.699 370.8 660.199 371.4C656.099 371.8 652.199 376.6 650.999 383.1C641.599 386.1 627.399 388.9 612.699 384.1C584.999 375 579.299 346.2 564.199 345.8C554.399 345.7 540.499 357.1 522.699 409.7Z" fill="white"/>
<path d="M520 405.1C527.9 423.2 539.9 439.2 555 451.9C556.5 453.1 558.6 451 557.1 449.8C542.1 437.2 530.4 421.5 522.5 403.6C521.8 401.9 519.2 403.4 520 405.1Z" fill="#161616"/>
<path d="M568 426.7C568.9 431.8 570 436.8 571.3 441.8C572.5 446.1 573.4 451.3 575.6 455.2C578.7 460.7 588.6 453.9 591.8 451.4C593.3 450.2 591.2 448.1 589.7 449.3C587.5 451 583.1 454.4 580.1 454C576.8 453.6 576 447.1 575.2 444.6C573.4 438.5 572 432.3 570.9 426C570.5 424 567.6 424.8 568 426.7Z" fill="#161616"/>
<path d="M554.3 427.3C550.5 424.1 545.6 420 547.4 414.4C546.6 414.6 545.7 414.8 544.9 415.1C548.8 418.9 551.8 423.4 553.7 428.5C554 427.9 554.4 427.3 554.7 426.7C554.1 426.2 553.4 425.7 552.8 425.3C552.3 423.4 549.4 424.2 549.9 426.1C550.6 428.8 552.8 430 555.5 429.6C556.3 429.5 556.8 428.4 556.5 427.8C554.4 422.2 551.2 417.3 546.9 413.1C546.1 412.3 544.7 412.7 544.4 413.8C542.3 420.5 547.3 425.7 552.1 429.6C553.6 430.6 555.8 428.5 554.3 427.3Z" fill="#161616"/>
<path d="M544.9 416.2C547.3 419.9 549.7 423.6 552.1 427.3C553.1 428.9 555.7 427.4 554.7 425.8C552.3 422.1 549.9 418.4 547.5 414.7C546.5 413 543.9 414.5 544.9 416.2Z" fill="#161616"/>
<path d="M590.099 412C588.299 409.9 586.399 407.5 585.499 404.8C585.199 404 585.099 403.1 585.099 402.3C585.299 401 585.599 400.9 586.199 401.9C587.199 402.3 588.099 404.2 588.699 405.1C590.099 407.2 591.399 409.5 592.099 411.8C592.499 413.1 592.999 413.3 591.599 412.7C590.299 412.1 589.099 410.7 588.199 409.7C586.899 408.2 584.799 410.4 586.099 411.8C587.699 413.6 592.899 418.9 594.999 414.8C596.899 411.1 592.199 404.6 590.099 401.9C588.299 399.6 583.999 395 582.299 400.1C580.599 405.2 584.899 410.5 587.899 414C589.199 415.6 591.299 413.5 590.099 412Z" fill="#161616"/>
<path d="M583.5 402.4C585.8 406.1 588.1 409.8 590.4 413.5C591.4 415.1 594 413.6 593 412C590.9 408.6 589.1 405.2 587.4 401.6C586.6 402.2 585.8 402.8 585 403.4C587.3 405.6 589 408.2 590.1 411.2C590.8 413 593.7 412.2 593 410.4C591.7 406.9 589.8 403.9 587.1 401.3C585.8 400.1 584 401.6 584.7 403.1C586.4 406.7 588.2 410.2 590.3 413.5C591.2 413 592 412.5 592.9 412C590.6 408.3 588.3 404.6 586 400.9C585.1 399.3 582.5 400.8 583.5 402.4Z" fill="#161616"/>
<path d="M663.599 418.3C666.699 426.5 666.399 435.1 662.399 442.9C661.499 444.6 664.099 446.1 664.999 444.4C669.299 435.9 669.899 426.4 666.499 417.5C665.799 415.8 662.899 416.5 663.599 418.3Z" fill="#161616"/>
<path d="M508 345.1C506.4 347.3 491.9 367.6 499.6 393.1C507.2 418.3 529.9 427.3 532.5 428.3C531.4 422.1 529.6 406.8 537 389.8C545.8 369.3 562 359.7 567.2 356.9C570.5 361.7 583 378.7 606.8 385.4C628.1 391.3 645.7 385.4 651.5 383.2C652.6 381.4 656.8 375.2 662.1 375.4C669.7 375.7 677.2 389.5 672.7 398.9C669.9 404.8 663.3 406.8 661.5 407.3C662.6 411.6 664.9 418.1 669.9 424.6C678.3 435.7 689.3 440 695.6 442.5C701.8 444.9 752.5 464.2 782.7 432.4C799 415.3 806.8 386 796.1 365.9C787.4 349.7 772.1 349.6 730.8 331.3C681.3 309.3 688.1 302.6 658.8 293.3C643.5 288.4 587.2 270.5 543.2 301.1C523.1 315 512.9 333.8 508 345.1Z" fill="#161616"/>
<path d="M486.2 514.9C485.8 509.1 485.6 492.4 496.5 477.1C513.2 453.7 542 453.2 546.9 453.1C555.6 452.9 567.1 454.4 593.7 469C611 478.5 634.7 493.4 660 516.7C666.4 517.1 677 518.5 687.9 524.8C699.5 531.4 721 548.8 716.4 567.5C713.8 578.1 703.1 588.4 692.9 587.9C676.5 587.1 665.9 558.9 662.5 560.6C659.8 561.9 668 578.7 664.4 581C661.1 583.1 648.1 573 642.1 559.3C637.2 548.3 638 537.9 639 532C615 520.7 575.4 506.5 526.4 509C511.4 509.9 498 512.1 486.2 514.9Z" fill="white" stroke="#161616" stroke-width="3" stroke-miterlimit="10"/>
<path opacity="0.34" d="M486.399 512.9C489.999 493.5 498.499 484.6 503.399 480.7C534.099 455.9 592.299 485.8 609.599 494.6C629.999 505 645.299 517.7 652.699 524.2C667.499 537.3 663.799 538.1 683.999 557.3C697.899 570.5 707.799 578 705.799 583.4C704.099 587.8 695.699 588.2 694.899 588.2C675.399 588.9 661.999 558.7 661.399 557.3C666.199 574.8 665.299 580.1 663.099 581.2C658.899 583.4 646.499 571.8 641.299 558.1C637.199 547.3 638.399 537.2 639.599 531.5C624.699 524.8 605.799 518.1 583.499 513.7C543.399 505.9 509.199 508.9 486.399 512.9Z" fill="#828181"/>
<path d="M404 523.1C400.8 540.2 396.8 576.3 413.1 615.7C443.7 689.8 519.6 711.6 529.8 714.3C530.1 726 530.5 737.8 530.8 749.5C512.2 758.3 484.7 773.7 457.3 799.8C437 819.2 401.6 853.8 387.9 910.5C379.5 945.2 382 976.5 386.9 1000.1C507.7 1002.1 628.4 1004.1 749.2 1006.1C753.1 983.3 757.4 937.9 738.1 887.4C703.6 797.1 621.1 762 605.3 755.6C605 739.8 604.6 724.1 604.3 708.3C619.8 704.9 655.7 694.9 685.8 663C736 609.9 728.4 540.4 727.1 530.2C619.3 527.8 511.6 525.5 404 523.1Z" fill="white" stroke="#161616" stroke-width="3" stroke-miterlimit="10"/>
<path d="M423.3 634.2C433.2 639.6 443.8 643.7 455.1 645.3C463.3 646.4 471.1 645.7 479.3 644.8C489.7 643.6 500 642.7 510.3 640.9C520.8 639.1 530.8 636 541.2 633.7C544 633.1 546.6 632.8 549.4 633.4C554.9 634.5 558.1 637.9 562.3 641.1C568.1 645.5 575.6 645.2 581.6 641.6C584.8 639.6 587.7 637.1 590.9 635.2C595.6 632.4 600.8 631 606.3 630.6C612.2 630.2 618.2 630.6 624 631.7C630.9 633 637 635.8 643.6 637.9C656.6 642.1 660.6 628.2 670.7 623.5C682.8 617.8 699.5 618.4 712.2 621.1C714.1 621.5 714.9 618.6 713 618.2C702 615.8 691.2 615.9 680.1 617.8C675.4 618.6 670.9 619.7 666.8 622.2C662.1 625.1 659.4 629.5 655.4 633.1C649.6 638.3 642.9 634.3 636.8 632C631.3 630 625.5 628.7 619.6 628C609.8 626.8 599.4 627.2 590.5 632C583.2 636 576.9 644 567.7 640.6C563.7 639.1 561.2 635.4 557.6 633.3C554.7 631.5 551.2 630.4 547.8 630.1C541.3 629.6 534.6 632.4 528.3 634C516.4 637 504.2 639 491.9 640.3C482.3 641.3 472.4 643.1 462.7 642.8C449.3 642.4 436.5 637.9 424.9 631.5C423.1 630.6 421.6 633.2 423.3 634.2Z" fill="#161616"/>
<path d="M531.3 737.5C532.9 741.3 534.5 745.3 537.2 748.5C538.9 750.6 541.5 752.2 542.6 754.9C543.7 757.7 543.7 761.4 544.1 764.4C545.4 774.7 546.8 785 551.1 794.6C551.9 796.4 554.5 794.8 553.7 793.1C549 782.8 548.1 771.6 546.6 760.5C546.1 756.9 545.9 753.2 543.3 750.4C539.3 746 536.6 742.4 534.2 736.7C533.5 734.9 530.6 735.7 531.3 737.5Z" fill="#161616"/>
<path d="M596.7 746.2C592.3 742.8 588.9 749.1 587.3 752.5C585.7 755.7 584.5 759 583.7 762.4C582.8 766.3 583 770.8 581.2 774.4C579.5 778.1 576.7 781.2 575.1 785C573.6 788.4 572.5 792 571.5 795.6C569.2 804.6 567.9 813.9 566.3 823C566 824.9 568.9 825.7 569.2 823.8C571.6 810.1 572.8 794.8 579.7 782.5C581.3 779.7 583.4 777.3 584.5 774.3C585.3 772.2 585.4 770 585.7 767.9C586 765.7 591.6 746 594.6 748.3C596 749.5 598.2 747.4 596.7 746.2Z" fill="#161616"/>
<path d="M564.6 864C563.7 862.4 562.8 860.5 563.2 858.7C563.8 855.9 566.9 855.5 567.9 858.2C569.1 861.4 567.2 865.1 565 867.2C565.6 867.1 566.2 867 566.8 867C565.6 866.1 564.4 865.2 563.3 864.4C561.7 863.2 560.3 865.9 561.8 867C563 867.9 564.2 868.8 565.3 869.6C565.8 870 566.7 869.8 567.1 869.4C570.7 865.9 574 856.5 567.7 853.7C565.2 852.6 562.4 853.9 561 856.2C559.2 859.2 560.4 862.8 562 865.6C562.9 867.2 565.5 865.7 564.6 864Z" fill="#161616"/>
<path d="M556.7 898.4C556 897 554.9 895.1 555.2 893.4C555.4 892.4 556.7 891 557.7 891.9C558.7 892.7 558.8 895.1 558.5 896.2C558.2 897.2 556.5 898.9 555.6 897.6C554.5 896.1 551.9 897.6 553 899.1C554.6 901.4 557.9 901.6 560 899.6C562.3 897.4 562.1 893 560.4 890.5C558.7 888 555.4 888.4 553.6 890.5C551 893.3 552.6 897.2 554.1 900.1C555 901.6 557.6 900.1 556.7 898.4Z" fill="#161616"/>
<path d="M571.2 910.3C569.9 909.3 571.2 906 573 907C573.8 907.4 574.3 908.6 574.1 909.5C573.8 910.8 572.1 910.6 571.4 909.9C570 908.5 567.9 910.7 569.3 912C571.4 914 575.3 914 576.7 911.2C577.8 908.9 576.8 906 574.8 904.6C572.6 903.1 569.8 904 568.5 906.3C567.2 908.6 567.6 911.4 569.8 912.9C571.2 914 572.7 911.4 571.2 910.3Z" fill="#161616"/>
<path d="M472.9 1001.8C481.2 995.1 489.5 988.4 497.8 981.7C501.8 978.5 505.6 975.1 509.9 972.3C514.2 969.5 518.9 968.2 523.7 966.4C538.7 960.6 551.9 935.7 569.1 951.3C574.7 956.3 579.3 960.7 586.6 963.1C594.9 965.8 603.1 967.4 611 971.3C626.2 978.8 638.6 990.9 646.9 1005.6C647.8 1007.3 650.4 1005.8 649.5 1004.1C643.1 992.6 634.3 982.8 623.5 975.2C618.3 971.5 612.6 968.4 606.7 966C599.9 963.2 592.8 962.1 585.9 959.6C573.5 955.1 567.1 939.3 552 943.9C545.9 945.8 541 949.9 536.3 954.1C533.5 956.6 530.7 959.1 527.5 961.1C523.4 963.7 518.7 964.6 514.3 966.5C507.3 969.5 501.5 974.8 495.6 979.5C487.3 986.2 479 992.9 470.7 999.6C469.3 1000.9 471.4 1003 472.9 1001.8Z" fill="#161616"/>
<path d="M602.5 730.8C601.4 738.9 600.2 746.9 599.1 755C598.1 762.3 598 770.9 594.7 777.7C595.4 777.5 596.1 777.3 596.8 777.2C594 775.3 595.9 765.9 595.9 763.1C596 758.2 596.1 753.4 596.2 748.5C596.2 746.6 593.2 746.6 593.2 748.5C593 755.6 592.9 762.7 592.7 769.9C592.6 773.5 591.9 777.5 595.2 779.8C595.8 780.2 596.9 780 597.3 779.3C600.5 772.7 600.8 765 601.8 757.8C603 749.1 604.3 740.4 605.5 731.7C605.6 729.7 602.7 728.9 602.5 730.8Z" fill="#161616"/>
<path d="M529.899 718.1C528.299 726.6 529.499 734.8 533.299 742.5C534.199 744.2 536.699 742.7 535.899 741C532.499 734 531.399 726.5 532.799 718.9C533.099 717 530.199 716.2 529.899 718.1Z" fill="#161616"/>
<path d="M474.9 675.7C493.1 689 515.6 694.1 534.6 705.8C536.2 706.8 537.8 704.2 536.1 703.2C517 691.5 494.5 686.4 476.4 673.1C474.8 671.9 473.3 674.5 474.9 675.7Z" fill="#161616"/>
<path d="M533.2 691.2C542.2 696.7 548.5 705.1 551.2 715.4C551.7 717.3 554.6 716.5 554.1 714.6C551.3 703.6 544.5 694.5 534.8 688.6C533.1 687.6 531.6 690.2 533.2 691.2Z" fill="#161616"/>
<path d="M585.099 729C589.899 715.8 596.199 702.5 607.899 694.1C609.499 693 607.999 690.4 606.399 691.5C593.999 700.5 587.299 714.1 582.199 728.2C581.599 730.1 584.499 730.8 585.099 729Z" fill="#161616"/>
<path d="M494.9 994.8C505.1 983.6 518.2 975.9 532.9 972.3C534.8 971.9 534 969 532.1 969.4C516.9 973 503.3 981.1 492.8 992.6C491.5 994.2 493.6 996.3 494.9 994.8Z" fill="#161616"/>
<path d="M517.899 985.4C525.099 982.2 532.299 979 539.499 975.8C541.299 975 539.699 972.4 537.999 973.2C530.799 976.4 523.599 979.6 516.399 982.8C514.699 983.6 516.199 986.2 517.899 985.4Z" fill="#161616"/>
<path d="M577.599 948.1C586.399 956.2 600.599 953.4 608.699 962.2C609.999 963.6 612.099 961.5 610.799 960.1C602.499 951.1 588.499 954 579.699 946C578.299 944.6 576.199 946.8 577.599 948.1Z" fill="#161616"/>
<path d="M387 1010.7C481.5 1010.7 576 1010.7 670.6 1010.7C697.2 1010.7 723.9 1010.7 750.5 1010.7C762.1 1010.7 762.1 992.7 750.5 992.7C656 992.7 561.5 992.7 466.9 992.7C440.3 992.7 413.6 992.7 387 992.7C375.4 992.7 375.4 1010.7 387 1010.7Z" fill="#161616"/>
<path d="M401.2 529.3C486.4 529.3 571.6 529.3 656.8 529.3C680.8 529.3 704.7 529.3 728.7 529.3C740.3 529.3 740.3 511.3 728.7 511.3C643.5 511.3 558.3 511.3 473.1 511.3C449.1 511.3 425.2 511.3 401.2 511.3C389.6 511.3 389.6 529.3 401.2 529.3Z" fill="#161616"/>
<path d="M376.8 511.3C369.8 511.3 362.8 511.3 355.8 511.3C344.2 511.3 344.2 529.3 355.8 529.3C362.8 529.3 369.8 529.3 376.8 529.3C388.4 529.3 388.4 511.3 376.8 511.3Z" fill="#161616"/>
<path d="M316.5 527.3C319.2 527.3 321.9 527.3 324.6 527.3C329.3 527.3 333.8 523.2 333.6 518.3C333.4 513.4 329.6 509.3 324.6 509.3C321.9 509.3 319.2 509.3 316.5 509.3C311.8 509.3 307.3 513.4 307.5 518.3C307.7 523.1 311.4 527.3 316.5 527.3Z" fill="#161616"/>
<path d="M771.399 1009.4C785.599 1009.4 799.899 1009.4 814.099 1009.4C825.699 1009.4 825.699 991.4 814.099 991.4C799.899 991.4 785.599 991.4 771.399 991.4C759.799 991.4 759.799 1009.4 771.399 1009.4Z" fill="#161616"/>
<path d="M844.7 1011.4C847.2 1011.4 849.7 1011.4 852.2 1011.4C856.9 1011.4 861.4 1007.3 861.2 1002.4C861 997.5 857.2 993.4 852.2 993.4C849.7 993.4 847.2 993.4 844.7 993.4C840 993.4 835.5 997.5 835.7 1002.4C835.9 1007.3 839.6 1011.4 844.7 1011.4Z" fill="#161616"/>
<path d="M529.8 715C529.1 721.9 528.5 728.9 529.9 735.7C531.4 742.9 535.9 748 539.2 754.4C543 761.6 544.1 770.3 545.9 778.1C547.8 786.4 549.7 794.7 551.6 803C552.5 806.8 558.2 805.2 557.4 801.4C555.6 793.4 553.7 785.4 551.9 777.4C550.2 770 549 762.2 546.2 755.2C543.7 748.9 538.6 743.8 536.5 737.3C534.2 730.1 535.1 722.3 535.8 715C536.2 711.2 530.2 711.2 529.8 715Z" fill="#161616"/>
<path d="M516.2 712C521.7 714.6 527.3 715.4 533.3 714.4C537.1 713.8 535.5 708 531.7 708.6C527.4 709.3 523.1 708.7 519.2 706.8C515.7 705.1 512.7 710.3 516.2 712Z" fill="#161616"/>
<path d="M590.3 746.5C585.5 749.9 583.1 754.8 582 760.4C581.2 764.2 581 768.1 579.9 771.9C578.8 775.7 577 779.2 575.2 782.8C568.5 796.3 561.8 810.6 563.7 826C564.2 829.8 570.2 829.8 569.7 826C567.9 811.5 574.1 798.4 580.4 785.8C583.1 780.4 585.6 775.1 586.6 769.2C587.7 763.1 587.8 755.6 593.3 751.7C596.5 749.4 593.5 744.2 590.3 746.5Z" fill="#161616"/>
<path d="M531.9 880.5C535.8 880.5 535.8 874.5 531.9 874.5C528.1 874.5 528.1 880.5 531.9 880.5Z" fill="#161616"/>
<path d="M521.1 930C525 930 525 924 521.1 924C517.2 924 517.2 930 521.1 930Z" fill="#161616"/>
<path d="M552 815.3C552.3 817.3 552.6 819.4 552.9 821.4C553.1 823 555.2 823.9 556.6 823.5C558.3 823 558.9 821.4 558.7 819.8C558.4 817.8 558.1 815.7 557.8 813.7C557.6 812.1 555.5 811.2 554.1 811.6C552.4 812.1 551.8 813.7 552 815.3Z" fill="#161616"/>
<path d="M567.6 840.9C567.6 841.1 567.6 841.4 567.6 841.6C567.6 843.2 569 844.7 570.6 844.6C572.2 844.5 573.6 843.3 573.6 841.6C573.6 841.4 573.6 841.1 573.6 840.9C573.6 839.3 572.2 837.8 570.6 837.9C569 838 567.6 839.2 567.6 840.9Z" fill="#161616"/>
<path d="M650.099 639.8C659.699 636.2 667.299 629.2 676.499 624.9C687.799 619.7 699.699 626 710.899 621.7C714.499 620.3 712.899 614.5 709.299 615.9C703.199 618.2 696.999 616.9 690.599 616.5C685.299 616.1 680.299 616.8 675.399 618.8C665.799 622.7 658.099 630.3 648.399 634C644.999 635.4 646.499 641.2 650.099 639.8Z" fill="#161616"/>
<path d="M668.399 816.9C659.299 820.8 666.999 830.4 671.199 834.6C679.799 843.2 687.499 852.7 694.199 862.8C707.299 882.5 716.399 904.6 721.299 927.7C721.699 929.6 724.599 928.8 724.199 926.9C719.999 907.3 712.799 888.4 702.799 871C697.999 862.6 692.499 854.6 686.399 847.1C683.299 843.3 680.099 839.6 676.699 836C673.699 832.9 661.699 823 669.899 819.5C671.699 818.7 670.099 816.1 668.399 816.9Z" fill="#161616"/>
<path d="M679.499 824.6C709.799 849.8 722.099 888.3 733.199 924.7C733.799 926.5 736.699 925.8 736.099 923.9C724.799 887 712.299 848 681.599 822.4C680.099 821.2 677.999 823.3 679.499 824.6Z" fill="#161616"/>
<path d="M722.6 937.7C724.5 940.4 726.8 943.6 730.4 943.9C733.2 944.1 736.2 942.5 736.6 939.5C736.9 937.6 734 936.8 733.7 938.7C733.4 940.6 731.4 941.3 729.7 940.7C727.7 940 726.3 937.9 725.2 936.2C724.1 934.6 721.5 936.1 722.6 937.7Z" fill="#161616"/>
<path d="M728.499 979.9C732.999 981.9 738.599 980.5 740.999 976C743.299 971.7 741.499 965.8 737.299 963.4C732.999 961 727.099 962.7 724.599 966.9C722.099 971.3 723.899 976.9 727.899 979.6C729.499 980.7 730.999 978.1 729.399 977C726.699 975.2 725.499 971.3 727.199 968.4C728.799 965.6 732.899 964.4 735.799 966C738.699 967.5 739.899 971.6 738.399 974.5C736.899 977.5 732.899 978.6 729.999 977.3C728.299 976.5 726.699 979.1 728.499 979.9Z" fill="#161616"/>
<path d="M422.2 544.6C423.2 590.9 442.5 635.8 475.5 668.2C476.9 669.6 479 667.4 477.6 666.1C445.1 634.2 426.1 590.1 425.2 544.6C425.1 542.7 422.1 542.7 422.2 544.6Z" fill="#161616"/>
<path d="M425.399 543.3C422.799 540.7 419.099 540.8 416.299 543.1C412.599 546.2 412.999 551.8 413.399 556.2C414.399 569.3 416.999 582.2 420.899 594.7C428.699 619.5 441.799 642.5 459.099 661.8C460.399 663.2 462.499 661.1 461.199 659.7C447.099 644 435.899 626 428.199 606.4C424.499 597.2 421.699 587.6 419.599 577.9C418.499 572.6 417.599 567.3 416.999 562C416.699 559.5 416.399 557.1 416.299 554.6C416.199 553.5 416.099 552.4 416.199 551.4C416.299 549 418.899 541 423.299 545.5C424.699 546.8 426.799 544.6 425.399 543.3Z" fill="#161616"/>
<path opacity="0.25" d="M729.2 530.9C729.3 534.1 643.1 539.3 470.7 546.7C467.7 560.3 465.7 578.9 470.7 599.5C486.7 666 558.9 691.6 566.1 694C567 719.6 568 745.3 568.9 770.9C561.2 773.8 551.1 778.2 540 784.9C532.9 789.2 516 800.2 500.3 818.1C491.4 828.3 462.8 861.1 460.5 910.8C459.1 940.3 467.6 964.1 474.4 978.4C555.6 983 636.9 987.7 718.1 992.3C607.5 993.2 497 994.2 386.4 995.1C382.9 972.8 379.6 930.1 397.5 882.1C400.8 873.4 428.2 803.2 501.3 763.5C512.9 757.2 523 753.1 530 750.5C529.7 738.1 529.4 725.8 529.1 713.4C519 710.8 504 706 487.4 696.7C477.7 691.3 413.3 653.9 401.2 580.9C399.3 569.3 397.7 551 402.1 528.1C620.1 526.4 729.1 527.3 729.2 530.9Z" fill="#474747"/>
<path opacity="0.3" d="M583.8 528.4C531.9 535.7 480 543 428.1 550.2C429.5 567.5 434.9 603.2 459.4 639.4C489.7 684.1 530.8 702.5 546.7 708.7C547.6 727.7 548.6 746.7 549.5 765.7C515.6 772.3 493.3 786.1 481.1 795.1C473 801.1 399.8 854.7 408 931.8C409.4 945.1 414.2 967.9 432.6 993.1C416.8 993.3 401.1 993.5 385.3 993.6C382.1 969.1 379.2 918.6 405.4 866.5C425.4 826.9 454 802.6 470.6 788.8C492.9 770.3 514.2 758.3 529.8 750.8C530.3 738.5 530.9 726.2 531.4 713.9C511.5 709.7 471.8 698.2 441.2 662.8C439 660.3 431.4 651.3 423.8 637.8C401.6 598.4 400.1 557.2 402.2 530.3C462.9 529.6 523.4 529 583.8 528.4Z" fill="#474747"/>
<path d="M527.5 485.5C496.2 508.3 472.1 536.4 474.4 539.2C475.5 540.6 481.6 538.8 504.2 524.3C500.3 526.6 491.1 532.5 486.3 544C484.9 547.4 480.3 556.9 484.5 563.1C489 569.6 500.9 569 508.6 566.4C523.5 561.4 530.6 545.9 531.4 546.5C532.6 547.3 516 571 518.4 572.9C520.9 575 546.9 552.9 566.8 521.9C572.9 512.4 577.1 504.1 579.9 498C597.6 498.4 619.5 499.9 644.3 504C689.1 511.3 706.2 520.9 736.7 515.9C755.4 512.9 785.7 503.3 786.8 489.1C788.2 471.5 744.4 455.3 734.9 451.8C662.7 425.1 595 449.8 584 454C556.6 464.5 537.7 478.1 527.5 485.5Z" fill="white" stroke="#161616" stroke-width="3" stroke-miterlimit="10"/>
<path d="M482 561.5C482.5 562.5 482.8 562.7 483.7 563.3C484.2 563.7 485.1 563.5 485.5 563.1C495.4 551.3 504 537.6 518.1 530.3C519.8 529.4 518.3 526.8 516.6 527.7C502.2 535.1 493.5 548.9 483.4 561C484 560.9 484.6 560.8 485.2 560.8C485 560.5 484.8 560.3 484.6 560C483.7 558.3 481.1 559.8 482 561.5Z" fill="#161616"/>
<path d="M491.4 569.2C497.5 570.6 503.1 562.3 506.7 558.4C512.6 552 518.2 545.6 525.9 541.2C527.6 540.2 526.1 537.7 524.4 538.6C518.6 541.9 513.9 546.3 509.4 551.1C507.1 553.6 504.9 556.1 502.5 558.6C500.3 561 495.7 567.1 492.2 566.3C490.3 565.9 489.5 568.8 491.4 569.2Z" fill="#161616"/>
<path opacity="0.33" d="M482.4 550.4C506.4 533.5 512.2 529.6 512.3 529.8C512.5 530 502.9 535.8 494.6 546.9C490.4 552.6 487.7 558 486 562C486.3 562.6 487.2 564.2 489 565.2C491.3 566.5 493.4 566.2 494.1 566.1C494.7 565.8 495.6 565.3 496.6 564.6C500.1 562.3 502.2 559.6 503 558.7C503.4 558.2 509.7 550.3 512.6 547.2C515.2 544.4 519.6 540.8 526.8 538.2C520.9 547.2 514.9 556.3 509 565.3C515.1 562.3 519.1 558.9 521.6 556.3C524.1 553.8 524.9 552.3 529.4 546.7C533.6 541.5 536.7 538.2 537.9 536.8C548.4 524.8 564.1 496.2 574.1 486.6C595.5 465.9 630 482.8 698.1 483.3C732.5 483.6 761 479.3 780.6 475.4C782.3 476.6 785.5 479.3 786.7 483.7C786.7 483.7 788.2 489.2 784.4 496.1C780.2 503.9 759.2 517.9 714.5 516.7C678 515.7 666.9 505.7 618 500.2C601.6 498.4 588.1 497.9 579.5 497.7C571.4 516.9 562.1 531 554.8 540.5C538.7 561.6 520.5 576.3 517.8 574.3C517.6 574.2 517.1 573.7 516.8 572.8C516.1 570.8 517.6 568.5 518.4 567.3C519.9 564.9 521.8 561.7 524.2 557.1C522.6 559.1 520 561.8 516.2 564.1C505.9 570.4 489.1 572.4 483.4 564.2C482.6 563.2 480 559 482.4 550.4Z" fill="#828181"/>
<path opacity="0.51" d="M593.5 497.6C593.6 496.7 616.5 497.3 641.8 498.6C707.5 502 724.7 506.8 750.1 497.6C766.1 491.8 777.5 483.3 783.7 478.1C785.6 481.8 787.6 487.3 786.1 492.8C782.4 506.2 760.9 510.6 747 513.4C739.3 515 726.2 516.9 705.5 515.1C687.1 513.6 679.8 510.6 660.3 506.5C621.3 498.4 593.4 498.5 593.5 497.6Z" fill="#828181"/>
</g>
</g>
<defs>
<clipPath id="clip0">
<rect width="1274" height="1170" fill="white"/>
</clipPath>
<clipPath id="clip1">
<rect width="1600" height="1200" fill="white" transform="translate(-136)"/>
</clipPath>
</defs>
</svg>
