<svg width="1274" height="1170" viewBox="0 0 1274 1170" fill="none" xmlns="http://www.w3.org/2000/svg">
<g clip-path="url(#clip0)">
<path d="M1146.51 936.782C1137.57 914.029 1136.26 889.131 1142.88 865.632C1142.23 865.912 1141.48 866.192 1140.83 866.471C1142.51 867.59 1144.09 868.803 1145.77 869.922C1146.42 870.388 1147.73 869.922 1147.82 869.082C1153.97 825.721 1172.05 784.691 1200 750.935C1199.26 750.748 1198.42 750.562 1197.67 750.282C1212.96 814.345 1194.04 880.086 1170.93 939.766C1170.28 941.444 1172.98 942.19 1173.63 940.512C1196.93 880.272 1215.75 814.158 1200.38 749.536C1200.19 748.603 1198.7 748.137 1198.05 748.883C1169.9 783.013 1151.45 824.509 1145.21 868.336C1145.86 868.057 1146.61 867.777 1147.26 867.497C1145.58 866.378 1144 865.166 1142.32 864.047C1141.58 863.487 1140.46 864.047 1140.27 864.886C1133.56 888.851 1134.77 914.402 1143.91 937.528C1144.46 939.206 1147.17 938.46 1146.51 936.782Z" fill="#8B8585"/>
<path d="M1204.66 814.717C1210.54 800.45 1217.9 786.929 1226.56 774.06C1225.91 774.247 1225.26 774.433 1224.61 774.527C1225.72 775.366 1226.94 776.205 1228.05 776.951C1228.71 777.417 1229.64 777.044 1230.01 776.485C1238.12 761.845 1247.62 748.044 1258.53 735.362C1257.78 735.268 1257.04 735.175 1256.29 735.082C1270.64 759.793 1259.74 790.286 1250.98 814.997C1241.47 842.133 1229.64 868.429 1214.92 893.047C1206.53 907.035 1197.21 920.463 1186.96 933.052C1185.84 934.45 1187.8 936.409 1188.92 935.01C1207.74 911.884 1223.21 886.427 1235.79 859.477C1242.03 846.143 1247.53 832.528 1252.56 818.727C1257.5 805.019 1262.35 791.032 1264.58 776.578C1266.91 761.845 1266.17 746.738 1258.62 733.59C1258.15 732.844 1257.04 732.657 1256.38 733.31C1245.39 746.272 1235.7 760.166 1227.4 774.993C1228.05 774.806 1228.71 774.62 1229.36 774.527C1228.24 773.687 1227.03 772.848 1225.91 772.102C1225.26 771.636 1224.42 772.009 1223.95 772.568C1215.19 785.53 1207.83 799.331 1201.78 813.878C1201.31 815.65 1204.01 816.396 1204.66 814.717Z" fill="#8B8585"/>
<path d="M1196.18 751.867C1183.88 808.843 1165.15 864.327 1156.3 921.955C1156.02 923.727 1158.72 924.473 1159 922.701C1167.85 864.979 1186.59 809.496 1198.89 752.613C1199.26 750.841 1196.56 750.095 1196.18 751.867Z" fill="#8B8585"/>
<path d="M1257.04 735.735C1247.44 794.296 1218.92 846.982 1190.78 898.363C1189.94 899.948 1192.36 901.347 1193.2 899.762C1221.44 848.101 1250.05 795.228 1259.74 736.481C1260.02 734.709 1257.31 733.963 1257.04 735.735Z" fill="#8B8585"/>
<path d="M1157.98 820.406C1164.59 830.663 1168.97 842.04 1170.84 854.162C1171.12 855.934 1173.82 855.188 1173.54 853.416C1171.68 841.107 1167.2 829.451 1160.4 819.007C1159.37 817.515 1156.95 818.914 1157.98 820.406Z" fill="#8B8585"/>
<path d="M1177.55 837.377C1186.96 822.924 1196.37 808.377 1205.78 793.923C1206.81 792.431 1204.38 791.032 1203.36 792.524C1193.95 806.978 1184.54 821.525 1175.12 835.979C1174.1 837.471 1176.52 838.869 1177.55 837.377Z" fill="#8B8585"/>
<path d="M1215.01 788.235C1214.64 807.631 1216.03 826.933 1219.02 846.05C1219.29 847.821 1222 847.075 1221.72 845.304C1218.74 826.374 1217.43 807.351 1217.8 788.235C1217.9 786.37 1215.1 786.37 1215.01 788.235Z" fill="#8B8585"/>
<path d="M1242.03 800.357C1249.67 792.617 1257.13 784.504 1264.21 776.205C1265.33 774.806 1263.37 772.848 1262.25 774.247C1255.17 782.546 1247.81 790.566 1240.07 798.399C1238.77 799.704 1240.73 801.662 1242.03 800.357Z" fill="#8B8585"/>
<path d="M136.642 888.385C116.327 873.931 102.256 852.018 97.5035 827.493C97.2239 828.052 96.8512 828.612 96.5716 829.171C98.8081 828.519 100.858 829.078 102.536 830.757C103.747 831.969 105.331 830.477 104.772 829.078C92.3782 801.103 85.8551 770.797 85.7619 740.211C85.3891 740.677 85.1095 741.143 84.7368 741.516C85.6687 741.983 86.6937 742.542 87.6256 743.008C88.2779 744.127 90.3281 743.754 90.2349 742.262C89.5826 734.15 88.9302 726.037 88.2779 717.924C87.7188 710.744 86.8801 703.191 91.5395 697.129C90.8872 697.316 90.2349 697.502 89.5826 697.596C96.1057 702.258 99.9264 709.811 103.747 716.619C107.475 723.333 111.016 730.233 114.37 737.134C121.359 751.681 127.323 766.694 132.262 782.08C142.047 812.107 147.918 843.252 149.875 874.771C149.968 876.542 152.764 876.542 152.67 874.771C150.62 841.947 144.377 809.402 133.94 778.164C128.814 762.871 122.757 747.951 115.675 733.497C112.041 726.037 108.22 718.763 104.12 711.583C100.579 705.335 96.9444 699.367 90.9804 695.078C90.3281 694.612 89.4894 694.985 89.0234 695.544C84.83 701.046 84.7368 707.946 85.1096 714.66C85.7619 723.799 86.6005 732.937 87.346 742.169C88.1847 741.889 89.1166 741.703 89.9553 741.423C88.5575 738.999 86.6006 738.253 83.8981 738.626C83.339 738.719 82.873 739.372 82.873 739.931C83.0594 771.077 89.6757 801.756 102.256 830.197C103.002 829.638 103.747 829.078 104.493 828.519C102.07 826.001 99.0877 825.255 95.8261 826.187C95.0806 826.374 94.7079 827.12 94.8942 827.866C99.8332 853.137 114.37 875.517 135.244 890.437C136.735 891.835 138.133 889.411 136.642 888.385Z" fill="#8B8585"/>
<path d="M128.255 760.819C127.416 755.504 126.764 750.188 126.484 744.873C126.205 739.931 124.807 732.564 128.534 728.648C130.678 726.503 131.703 725.477 132.169 722.213C132.821 716.991 132.821 711.676 133.38 706.454C134.498 695.544 136.083 684.82 138.319 674.096C138.692 672.325 138.878 668.968 139.81 667.382C142.047 663.746 145.495 667.569 147.265 669.341C150.433 672.511 152.95 676.241 155.093 680.158C164.039 696.57 166.462 716.805 168.885 735.082C171.587 755.41 172.705 775.926 172.146 796.441C171.587 819.753 168.419 842.972 160.405 864.979C159.752 866.658 162.455 867.404 163.107 865.725C178.669 822.737 177.271 773.967 170.842 729.394C168.139 710.464 165.25 688.923 153.788 672.884C151.272 669.434 143.631 658.43 138.692 663.373C136.083 665.89 135.896 671.765 135.244 675.029C134.032 681.183 132.914 687.338 132.076 693.586C131.237 699.647 130.585 705.708 130.025 711.769C129.746 715.033 130.025 718.763 129.28 721.934C128.534 725.011 126.298 725.943 124.807 728.368C122.384 732.098 123.316 737.973 123.502 742.169C123.782 748.603 124.527 755.037 125.552 761.472C125.832 763.337 128.534 762.591 128.255 760.819Z" fill="#8B8585"/>
<path d="M139.531 665.424C154.534 723.612 158.728 784.131 151.925 843.811C151.739 845.583 154.534 845.583 154.721 843.811C161.524 783.852 157.237 723.053 142.234 664.678C141.768 663 139.065 663.746 139.531 665.424Z" fill="#8B8585"/>
<path d="M87.6258 697.036C109.525 753.079 126.578 810.894 138.786 869.828C139.159 871.6 141.861 870.854 141.488 869.082C129.374 810.148 112.227 752.333 90.3283 696.29C89.5828 694.611 86.8803 695.357 87.6258 697.036Z" fill="#8B8585"/>
<path d="M88.0915 782.826C103.374 787.116 116.048 797.187 123.782 811.081C124.621 812.666 127.044 811.267 126.205 809.682C118.098 795.228 104.679 784.691 88.837 780.215C87.0664 779.656 86.3209 782.36 88.0915 782.826Z" fill="#8B8585"/>
<path d="M119.029 746.645C117.352 761.099 117.072 775.553 118.19 790.006C118.284 791.778 121.079 791.778 120.986 790.006C119.868 775.553 120.147 761.099 121.825 746.645C122.011 744.873 119.216 744.873 119.029 746.645Z" fill="#8B8585"/>
<path d="M128.908 727.995C141.581 744.5 150.434 763.523 154.907 783.852C155.28 785.624 157.982 784.878 157.61 783.106C153.043 762.591 144.191 743.288 131.331 726.596C130.306 725.104 127.883 726.503 128.908 727.995Z" fill="#8B8585"/>
<path d="M161.337 694.425C156.677 705.242 153.416 716.432 151.645 728.088C151.366 729.86 154.068 730.606 154.348 728.834C156.025 717.458 159.193 706.454 163.76 695.824C164.505 694.239 162.082 692.747 161.337 694.425Z" fill="#8B8585"/>
<path d="M38.982 955.059C89.4896 937.248 143.352 951.422 194.046 960.467C248.188 970.072 302.889 976.413 357.683 979.304C388.715 980.982 419.746 981.542 450.871 980.982C452.641 980.982 452.641 978.185 450.871 978.185C394.865 979.117 338.766 976.506 283.04 970.445C254.711 967.368 226.475 963.358 198.426 958.416C173.358 954.033 148.384 948.625 123.13 945.641C94.7081 942.377 65.5404 942.75 38.2365 952.355C36.5591 953.007 37.3046 955.712 38.982 955.059Z" fill="#8B8585"/>
<path d="M331.683 952.727C415.273 973.243 501.844 967.834 586.644 960.001C630.256 955.991 673.775 951.235 717.48 948.904C761.091 946.573 804.61 947.319 848.129 951.608C898.729 956.644 948.771 965.876 998.533 976.32C1000.3 976.693 1001.05 973.989 999.279 973.616C912.801 955.432 825.484 942.097 736.956 945.267C650.291 948.345 564.373 962.612 477.615 964.197C428.878 965.13 379.954 961.679 332.522 950.023C330.658 949.557 329.913 952.261 331.683 952.727Z" fill="#8B8585"/>
<path d="M696.885 1011.94C765.471 997.768 835.268 1011.2 903.575 1020.24C971.509 1029.19 1039.91 1030.68 1107.94 1022.01C1145.58 1017.26 1182.76 1009.61 1219.2 999.353C1220.97 998.887 1220.23 996.182 1218.46 996.649C1152.39 1015.3 1083.89 1025 1015.21 1025.28C981.107 1025.37 947.187 1023.04 913.36 1018.75C878.787 1014.37 844.401 1008.68 809.735 1005.41C771.808 1001.87 733.508 1001.5 696.046 1009.33C694.369 1009.61 695.114 1012.31 696.885 1011.94Z" fill="#8B8585"/>
<path d="M1004.5 940.512C1039.35 953.473 1076.81 945.827 1111.76 937.434C1150.43 928.203 1188.92 920.556 1228.71 918.318C1250.79 917.106 1272.97 917.292 1295.06 918.691C1296.83 918.784 1296.83 915.987 1295.06 915.894C1256.66 913.376 1218.18 914.868 1180.06 920.37C1161.05 923.167 1142.23 927.084 1123.59 931.653C1105.05 936.129 1086.41 940.885 1067.4 943.216C1046.43 945.827 1025.18 945.174 1005.24 937.714C1003.57 937.248 1002.82 939.952 1004.5 940.512Z" fill="#8B8585"/>
<path d="M976.262 641.925C973.559 650.318 970.764 658.617 968.061 667.009C967.409 669.154 966.757 671.206 967.409 673.444C968.341 676.428 971.509 678.199 971.602 681.556C972.162 681.09 972.814 680.624 973.373 680.251C962.377 676.987 962.75 694.518 963.122 700.673C963.775 712.888 967.689 724.638 974.212 734.895C975.144 736.387 977.566 734.989 976.635 733.497C971.975 726.223 968.714 718.204 967.036 709.718C966.104 705.149 962.843 679.971 972.627 682.862C973.466 683.142 974.398 682.396 974.398 681.556C974.398 679.318 973.559 677.826 972.255 676.055C969.832 672.604 970.018 670.087 971.323 666.077C973.839 658.244 976.448 650.504 978.964 642.671C979.523 640.899 976.821 640.153 976.262 641.925Z" fill="#8B8585"/>
<path d="M977.193 642.298C987.723 653.022 990.332 670.46 991.171 684.82C992.103 700.3 989.866 715.779 984.927 730.419C984.368 732.098 987.071 732.844 987.63 731.165C993.035 715.22 995.271 698.248 993.78 681.463C992.569 667.196 989.587 650.877 979.243 640.247C977.845 639.034 975.888 640.993 977.193 642.298Z" fill="#8B8585"/>
<path d="M993.874 683.795C995.738 671.299 998.906 659.177 1003.29 647.334C1002.63 647.614 1001.89 647.893 1001.24 648.173C1003.19 649.479 1005.15 650.877 1007.11 652.183C1008.04 652.836 1009.16 651.996 1009.25 650.971C1010.09 630.176 1026.3 614.23 1030.68 594.461C1029.75 594.461 1028.91 594.461 1027.98 594.461C1035.44 639.408 1026.02 686.219 1001.79 724.825C1000.86 726.317 1003.29 727.715 1004.22 726.223C1028.82 686.965 1038.23 639.408 1030.68 593.715C1030.5 592.316 1028.26 592.41 1027.98 593.715C1023.51 613.857 1007.29 629.803 1006.45 650.971C1007.2 650.598 1007.85 650.131 1008.6 649.758C1006.64 648.453 1004.68 647.054 1002.73 645.749C1001.89 645.189 1000.96 645.842 1000.68 646.588C996.297 658.431 993.128 670.553 991.265 683.049C990.892 684.82 993.594 685.566 993.874 683.795Z" fill="#8B8585"/>
<path d="M1027.7 600.242C1024.72 634.652 1015.4 668.222 1000.21 699.181C999.465 700.766 1001.79 702.165 1002.63 700.579C1018.01 669.061 1027.51 635.118 1030.5 600.242C1030.59 598.377 1027.79 598.471 1027.7 600.242Z" fill="#8B8585"/>
<path d="M975.889 644.536C979.71 672.325 983.344 700.673 977.473 728.368C977.101 730.14 979.803 730.886 980.176 729.114C986.233 700.859 982.505 672.045 978.592 643.79C978.405 642.019 975.703 642.765 975.889 644.536Z" fill="#8B8585"/>
<path d="M840.487 737.973C854.838 736.854 869.282 737.88 883.26 741.33C895.095 744.221 906.837 750.189 919.231 748.324C931.997 746.365 942.714 737.88 955.853 737.413C968.527 736.947 981.014 741.33 993.501 737.693C995.272 737.227 994.526 734.523 992.756 734.989C979.71 738.719 966.57 733.59 953.431 734.802C941.503 735.921 931.531 743.102 919.976 745.433C906.65 748.044 893.418 740.77 880.558 737.973C867.325 735.082 853.813 734.243 840.394 735.362C838.717 735.269 838.717 738.066 840.487 737.973Z" fill="#8B8585"/>
<path d="M18.4804 868.709C44.2001 892.768 81.4751 866.751 111.016 876.356C112.693 876.915 113.438 874.211 111.761 873.652C96.0124 868.523 79.8909 872.533 64.0491 874.957C49.2323 877.195 32.1789 877.568 20.4373 866.658C19.1327 865.539 17.0826 867.497 18.4804 868.709Z" fill="#8B8585"/>
<path d="M1127.32 902.745C975.516 912.35 815.234 918.225 647.124 919.064C477.802 919.903 316.308 915.521 163.48 907.408C178.484 881.018 193.58 854.722 208.77 828.518C220.977 807.351 233.371 786.276 245.765 765.295C377.159 772.755 519.177 775.739 670.42 772.009C812.904 768.465 946.908 759.327 1071.31 746.552C1082.78 762.684 1096.01 784.504 1106.82 812.013C1120.8 847.728 1125.64 879.713 1127.32 902.745Z" fill="white" stroke="#161616" stroke-width="3" stroke-miterlimit="10"/>
<path d="M233.837 888.385C286.767 894.073 340.07 895.845 393.374 893.7C395.144 893.607 395.144 890.81 393.374 890.903C340.164 893.048 286.86 891.276 233.837 885.588C232.066 885.401 232.066 888.199 233.837 888.385Z" fill="#161616"/>
<path d="M328.05 874.957C353.863 875.983 379.769 875.33 405.582 875.33C431.767 875.237 457.86 875.237 484.046 875.143C485.816 875.143 485.816 872.346 484.046 872.346C457.86 872.439 431.767 872.439 405.582 872.533C379.769 872.626 353.863 873.185 328.05 872.16C326.279 872.066 326.279 874.864 328.05 874.957Z" fill="#161616"/>
<path d="M672.564 868.15C751.494 863.114 830.331 857.146 909.167 850.246C910.938 850.059 910.938 847.262 909.167 847.448C830.424 854.349 751.494 860.317 672.564 865.352C670.794 865.446 670.794 868.243 672.564 868.15Z" fill="#161616"/>
<path d="M878.322 820.219C939.453 817.981 1000.49 814.158 1061.44 808.469C1063.21 808.283 1063.21 805.486 1061.44 805.672C1000.49 811.267 939.453 815.184 878.322 817.422C876.551 817.422 876.551 820.219 878.322 820.219Z" fill="#161616"/>
<path d="M931.811 880.085C983.158 877.847 1034.5 875.61 1085.85 873.278C1087.62 873.185 1087.62 870.388 1085.85 870.481C1034.5 872.719 983.158 874.957 931.811 877.288C930.041 877.381 930.041 880.179 931.811 880.085Z" fill="#161616"/>
<path d="M254.338 761.938C256.668 766.321 258.997 770.704 261.42 775.18C263.563 776.578 270.832 780.868 279.964 779.189C283.785 778.537 286.767 777.045 288.724 775.832C291.333 771.263 293.943 766.694 296.552 762.125C291.427 760.539 283.878 758.674 274.56 758.768C266.08 758.861 259.184 760.446 254.338 761.938Z" fill="white" stroke="#161616" stroke-width="3" stroke-miterlimit="10"/>
<path d="M255.923 763.523C264.309 768.745 276.331 767.533 285.743 766.974C287.513 766.88 287.513 764.083 285.743 764.176C276.89 764.642 265.241 766.041 257.32 761.099C255.829 760.166 254.432 762.591 255.923 763.523Z" fill="#161616"/>
<path d="M234.21 700.673C242.131 721.188 250.052 741.703 257.88 762.218C258.532 763.896 261.234 763.15 260.582 761.472C252.661 740.957 244.74 720.442 236.913 699.927C236.26 698.248 233.558 698.901 234.21 700.673Z" fill="#161616"/>
<path d="M246.138 701.139C250.238 722.12 255.084 743.008 260.582 763.71C261.048 765.481 263.75 764.735 263.284 762.964C257.693 742.262 252.847 721.374 248.84 700.393C248.467 698.621 245.765 699.367 246.138 701.139Z" fill="#161616"/>
<path d="M234.769 690.229C233.371 685.753 237.098 681.556 236.073 676.894C234.862 671.952 230.016 669.9 230.575 664.212C230.948 660.295 232.905 656.565 232.253 652.556C231.787 650.038 230.203 648.546 229.084 646.308C227.78 643.51 228.339 640.899 229.084 638.009C229.83 634.745 231.041 631.201 229.737 627.844C229.084 626.073 227.78 625.233 226.661 623.835C224.052 620.757 224.425 617.587 225.077 613.857C227.127 602.294 227.221 591.197 224.239 579.727C223.773 577.956 221.07 578.702 221.536 580.473C223.214 587.001 224.145 593.622 223.959 600.336C223.773 606.024 222.282 611.339 221.816 616.934C221.443 621.503 222.934 623.462 225.73 626.725C229.364 631.108 226.289 636.144 225.636 641.086C225.45 642.671 225.45 644.35 225.916 645.935C226.661 648.546 228.991 650.318 229.457 653.115C230.203 657.591 227.407 661.974 227.687 666.45C228.059 671.299 233.091 673.817 233.464 678.479C233.837 682.862 230.669 686.405 232.066 690.975C232.625 692.653 235.328 691.907 234.769 690.229Z" fill="#8B8585"/>
<path d="M248.281 688.084C245.392 685.38 249.027 682.582 248.002 679.412C247.442 677.64 245.579 676.334 245.485 674.376C245.392 672.604 246.604 670.646 246.883 668.874C247.349 665.517 245.579 663.932 244.74 660.855C243.622 656.659 246.138 651.996 246.883 647.893C247.442 644.723 247.163 642.018 246.045 639.034C245.113 636.61 244.181 634.558 244.367 631.947C244.554 629.803 245.485 627.844 245.951 625.793C247.815 618.333 241.199 610.407 244.367 603.506C245.113 601.921 242.69 600.429 241.944 602.107C238.217 610.034 245.113 617.587 243.063 625.793C242.038 629.896 240.826 632.88 242.224 637.076C243.063 639.407 244.274 641.645 244.367 644.256C244.554 646.867 243.622 649.385 242.969 651.81C242.131 654.98 241.199 658.337 242.038 661.601C242.783 664.305 244.554 666.357 243.901 669.341C243.529 670.833 242.876 672.231 242.783 673.817C242.69 675.309 242.876 676.428 243.622 677.733C243.994 678.386 245.113 679.412 245.206 679.878C245.392 680.624 244.74 682.116 244.554 682.769C243.901 685.659 244.088 687.804 246.324 689.949C247.629 691.254 249.586 689.296 248.281 688.084Z" fill="#8B8585"/>
<path d="M122.664 266.314C141.116 272.096 160.685 271.723 179.788 271.35C198.053 270.977 216.225 269.765 234.303 267.9C270.367 264.076 306.057 257.269 341.096 247.851C412.012 228.828 479.945 199.361 543.406 162.62C579.376 141.826 613.856 118.7 646.937 93.6154C648.335 92.4964 646.937 90.0719 645.54 91.1909C587.67 135.112 525.235 173.158 458.885 202.811C392.349 232.558 321.713 254.005 249.306 263.33C229.457 265.941 209.422 267.62 189.387 268.273C167.581 269.019 144.564 270.231 123.503 263.61C121.733 263.144 120.987 265.755 122.664 266.314Z" fill="#8B8585"/>
<path d="M605.283 123.455C630.164 144.996 659.518 160.382 689.711 173.158C722.14 186.865 755.688 198.242 789.794 207.007C857.262 224.538 927.246 232.371 996.857 230.227C1036.55 229.014 1078.02 226.31 1115.95 213.628C1117.63 213.069 1116.88 210.364 1115.2 210.924C1081.47 222.3 1045.03 225.191 1009.72 226.963C975.517 228.641 941.224 227.895 907.21 224.725C838.345 218.384 770.411 202.252 706.112 176.794C670.98 162.9 636.221 146.395 607.426 121.497C605.842 120.285 603.885 122.243 605.283 123.455Z" fill="#8B8585"/>
<path d="M231.6 171.106C265.8 190.875 306.523 195.724 345.103 199.827C384.801 204.024 424.871 205.143 464.849 203.371C543.685 199.827 622.149 184.907 696.699 159.077C738.727 144.53 779.45 126.533 818.495 105.365C820.079 104.526 818.682 102.101 817.097 102.941C748.418 140.334 674.241 167.47 597.734 183.695C521.041 199.921 441.925 205.143 363.74 198.802C341.562 197.03 319.29 194.512 297.391 190.502C274.933 186.399 252.847 180.245 232.998 168.775C231.507 167.843 230.109 170.267 231.6 171.106Z" fill="#8B8585"/>
<path d="M346.408 231.625C346.408 243.188 346.408 254.845 346.408 266.408C346.408 268.179 349.204 268.179 349.204 266.408C349.204 254.845 349.204 243.188 349.204 231.625C349.204 229.76 346.408 229.76 346.408 231.625Z" fill="#161616"/>
<path d="M347.246 289.347C347.246 302.962 347.246 316.483 347.246 330.098C347.246 331.869 350.042 331.869 350.042 330.098C350.042 316.483 350.042 302.962 350.042 289.347C350.042 287.576 347.246 287.482 347.246 289.347Z" fill="#161616"/>
<path d="M394.771 327.58C394.771 344.551 394.771 361.523 394.771 378.494C394.771 380.266 397.567 380.266 397.567 378.494C397.567 361.523 397.567 344.551 397.567 327.58C397.567 325.715 394.771 325.715 394.771 327.58Z" fill="#161616"/>
<path d="M393.095 419.244C393.095 427.45 393.095 435.656 393.095 443.862C393.095 445.634 395.89 445.634 395.89 443.862C395.89 435.656 395.89 427.45 395.89 419.244C395.89 417.473 393.095 417.473 393.095 419.244Z" fill="#161616"/>
<path d="M489.823 168.775C489.823 183.788 489.823 198.802 489.823 213.815C489.823 215.587 492.619 215.587 492.619 213.815C492.619 198.802 492.619 183.788 492.619 168.775C492.619 167.003 489.823 167.003 489.823 168.775Z" fill="#161616"/>
<path d="M489.823 229.854C489.823 241.137 489.823 252.513 489.823 263.797C489.823 265.568 492.619 265.568 492.619 263.797C492.619 252.513 492.619 241.137 492.619 229.854C492.619 228.082 489.823 228.082 489.823 229.854Z" fill="#161616"/>
<path d="M890.25 185.746C890.25 205.236 890.25 224.818 890.25 244.307C890.25 246.079 893.046 246.079 893.046 244.307C893.046 224.818 893.046 205.236 893.046 185.746C893.046 183.975 890.25 183.975 890.25 185.746Z" fill="#161616"/>
<path d="M889.411 267.247C889.411 277.411 889.411 287.669 889.411 297.833C889.411 299.605 892.207 299.605 892.207 297.833C892.207 287.669 892.207 277.411 892.207 267.247C892.207 265.475 889.411 265.475 889.411 267.247Z" fill="#161616"/>
<path d="M723.071 151.803C723.071 164.299 723.071 176.701 723.071 189.197C723.071 190.968 725.867 190.968 725.867 189.197C725.867 176.701 725.867 164.299 725.867 151.803C725.867 150.032 723.071 149.938 723.071 151.803Z" fill="#161616"/>
<path d="M724.004 224.818C724.004 236.101 724.004 247.478 724.004 258.761C724.004 260.533 726.799 260.533 726.799 258.761C726.799 247.478 726.799 236.101 726.799 224.818C726.799 223.046 724.004 223.046 724.004 224.818Z" fill="#161616"/>
<path d="M983.624 285.897C983.624 296.901 983.624 307.997 983.624 319.001C983.624 320.773 986.42 320.773 986.42 319.001C986.42 307.997 986.42 296.901 986.42 285.897C986.42 284.125 983.624 284.125 983.624 285.897Z" fill="#161616"/>
<path d="M984.463 341.94C984.463 350.706 984.463 359.471 984.463 368.237C984.463 370.008 987.259 370.008 987.259 368.237C987.259 359.471 987.259 350.706 987.259 341.94C987.259 340.168 984.463 340.168 984.463 341.94Z" fill="#161616"/>
<path d="M348.551 294.756C357.095 294.756 364.02 287.825 364.02 279.276C364.02 270.727 357.095 263.797 348.551 263.797C340.008 263.797 333.082 270.727 333.082 279.276C333.082 287.825 340.008 294.756 348.551 294.756Z" fill="#EF5F75"/>
<path d="M395.238 461.953C401.105 461.953 405.861 457.193 405.861 451.322C405.861 445.451 401.105 440.692 395.238 440.692C389.37 440.692 384.614 445.451 384.614 451.322C384.614 457.193 389.37 461.953 395.238 461.953Z" fill="#EF5F75"/>
<path d="M492.433 283.659C495.212 283.659 497.465 281.404 497.465 278.623C497.465 275.842 495.212 273.588 492.433 273.588C489.653 273.588 487.4 275.842 487.4 278.623C487.4 281.404 489.653 283.659 492.433 283.659Z" fill="#EF5F75"/>
<path d="M728.01 297.833C731.921 297.833 735.092 294.66 735.092 290.746C735.092 286.832 731.921 283.659 728.01 283.659C724.099 283.659 720.928 286.832 720.928 290.746C720.928 294.66 724.099 297.833 728.01 297.833Z" fill="#EF5F75"/>
<path d="M727.545 209.898C731.147 209.898 734.068 206.976 734.068 203.371C734.068 199.766 731.147 196.843 727.545 196.843C723.942 196.843 721.021 199.766 721.021 203.371C721.021 206.976 723.942 209.898 727.545 209.898Z" fill="#EF5F75"/>
<path d="M394.306 412.251C398.32 412.251 401.574 408.994 401.574 404.977C401.574 400.96 398.32 397.704 394.306 397.704C390.291 397.704 387.037 400.96 387.037 404.977C387.037 408.994 390.291 412.251 394.306 412.251Z" fill="#85C7F2"/>
<path d="M490.29 171.852C494.253 171.852 497.465 168.637 497.465 164.672C497.465 160.706 494.253 157.492 490.29 157.492C486.327 157.492 483.114 160.706 483.114 164.672C483.114 168.637 486.327 171.852 490.29 171.852Z" fill="#85C7F2"/>
<path d="M490.29 235.356C494.253 235.356 497.465 232.141 497.465 228.175C497.465 224.21 494.253 220.995 490.29 220.995C486.327 220.995 483.114 224.21 483.114 228.175C483.114 232.141 486.327 235.356 490.29 235.356Z" fill="#85C7F2"/>
<path d="M724.469 270.977C726.425 270.977 728.01 269.391 728.01 267.434C728.01 265.477 726.425 263.89 724.469 263.89C722.513 263.89 720.928 265.477 720.928 267.434C720.928 269.391 722.513 270.977 724.469 270.977Z" fill="#85C7F2"/>
<path d="M891.741 327.486C899.924 327.486 906.557 320.848 906.557 312.66C906.557 304.471 899.924 297.833 891.741 297.833C883.558 297.833 876.924 304.471 876.924 312.66C876.924 320.848 883.558 327.486 891.741 327.486Z" fill="#85C7F2"/>
<path d="M987.445 397.051C991.356 397.051 994.527 393.878 994.527 389.964C994.527 386.05 991.356 382.877 987.445 382.877C983.533 382.877 980.362 386.05 980.362 389.964C980.362 393.878 983.533 397.051 987.445 397.051Z" fill="#85C7F2"/>
<path d="M891.648 209.898C895.251 209.898 898.171 206.976 898.171 203.371C898.171 199.766 895.251 196.843 891.648 196.843C888.046 196.843 885.125 199.766 885.125 203.371C885.125 206.976 888.046 209.898 891.648 209.898Z" fill="#85C7F2"/>
<path d="M891.741 236.661C894.52 236.661 896.773 234.406 896.773 231.625C896.773 228.844 894.52 226.59 891.741 226.59C888.962 226.59 886.709 228.844 886.709 231.625C886.709 234.406 888.962 236.661 891.741 236.661Z" fill="#EF5F75"/>
<path d="M985.86 333.175C988.64 333.175 990.893 330.92 990.893 328.139C990.893 325.358 988.64 323.104 985.86 323.104C983.081 323.104 980.828 325.358 980.828 328.139C980.828 330.92 983.081 333.175 985.86 333.175Z" fill="#EF5F75"/>
<path d="M279.126 400.594C274.747 407.495 270.367 414.302 265.987 421.203C262.539 426.611 259.091 432.299 257.88 438.734C255.923 449.83 263.378 457.29 269.714 465.31C273.349 469.879 276.704 475.101 275.119 481.069C273.722 486.478 269.249 491.14 269.901 497.108C270.18 499.626 271.485 501.584 272.603 503.729C274.467 507.459 275.772 511.469 276.238 515.572C277.076 523.218 275.306 530.865 271.299 537.392C270.367 538.977 272.79 540.376 273.722 538.791C279.872 528.627 281.083 515.851 276.331 504.848C274.653 500.931 271.858 497.761 273.069 493.098C273.908 490.021 275.678 487.317 276.89 484.426C278.66 480.043 278.847 475.661 276.983 471.278C272.79 461.393 261.141 454.959 260.396 443.489C259.93 435.75 264.496 428.663 268.41 422.415C272.79 415.514 277.169 408.614 281.549 401.807C282.481 400.501 280.058 399.102 279.126 400.594Z" fill="#8B8585"/>
<path d="M451.244 506.247C444.348 513.241 440.9 523.032 442.018 532.823C442.577 537.952 444.627 542.241 447.05 546.811C450.684 553.711 451.523 558.933 448.728 566.207C447.05 570.496 444.907 574.879 445.466 579.541C446.025 584.857 450.125 587.654 452.641 592.037C457.953 601.548 447.237 611.526 449.753 621.69C450.218 623.462 452.921 622.716 452.455 620.944C450.125 611.806 458.885 603.693 456.648 594.461C455.53 589.985 451.896 587.188 449.659 583.365C446.491 577.956 449.473 572.268 451.43 566.953C453.014 562.756 454.132 558.56 453.2 554.084C451.989 548.582 448.262 544.106 446.305 538.884C442.391 528.347 445.373 516.131 453.2 508.205C454.505 506.9 452.548 504.941 451.244 506.247Z" fill="#8B8585"/>
<path d="M1056.22 526.575C1046.9 537.486 1037.86 551.566 1038.79 566.58C1039.26 573.76 1042.43 579.541 1046.34 585.416C1050.91 592.223 1054.82 598.658 1052.58 607.143C1049.6 618.24 1038.6 629.337 1042.43 641.553C1044.75 649.013 1052.21 653.116 1053.98 660.949C1056.03 670.274 1051.74 680.065 1047.92 688.364C1047.18 689.949 1049.6 691.441 1050.35 689.763C1053.51 682.862 1056.59 675.682 1057.15 668.036C1057.71 660.762 1055.29 654.981 1050.81 649.386C1045.5 642.951 1043.08 637.45 1045.87 629.337C1048.02 623.089 1051.84 617.494 1054.17 611.34C1056.4 605.558 1056.96 599.59 1054.54 593.715C1052.02 587.561 1047.36 582.805 1044.38 576.93C1036 560.145 1047.27 541.309 1058.17 528.627C1059.39 527.228 1057.43 525.27 1056.22 526.575Z" fill="#8B8585"/>
<path d="M1082.4 625.886C1077.56 630.456 1074.48 636.424 1073.64 643.044C1072.62 650.971 1075.6 656.472 1078.77 663.373C1082.68 671.859 1075.04 679.505 1077.09 688.084C1078.21 692.747 1080.73 696.29 1080.63 701.232C1080.45 706.361 1078.4 711.024 1074.85 714.66C1073.64 715.966 1075.6 717.924 1076.81 716.619C1081.56 711.77 1084.08 705.149 1083.24 698.342C1082.78 694.425 1080.63 691.068 1079.79 687.245C1078.58 682.116 1081.38 677.454 1082.4 672.605C1084.17 664.399 1078.58 659.55 1076.81 652.09C1074.67 643.231 1077.74 633.906 1084.36 627.751C1085.76 626.632 1083.8 624.674 1082.4 625.886Z" fill="#8B8585"/>
<path d="M823.248 365.812C817.936 374.018 812.065 383.716 815.14 393.88C816.631 398.823 820.731 400.874 822.968 405.163C825.111 409.453 823.061 414.489 821.57 418.592C819.427 424.466 816.445 431.647 821.85 436.682C823.993 438.64 826.602 439.759 827.534 442.837C828.28 445.354 827.627 448.338 827.161 450.763C826.23 455.239 824.925 459.715 825.484 464.284C825.67 466.056 828.466 466.056 828.28 464.284C827.441 456.638 833.032 448.058 829.771 440.692C827.907 436.402 822.129 435.19 821.57 430.341C821.104 426.704 823.061 422.694 824.273 419.337C826.602 412.903 828.28 406.469 823.248 400.874C818.588 395.745 816.165 390.803 817.656 383.716C818.868 377.655 822.409 372.246 825.764 367.117C826.696 365.625 824.273 364.227 823.248 365.812Z" fill="#8B8585"/>
<path d="M440.155 267.34C434.657 271.163 433.725 277.971 437.545 283.286C440.993 287.948 435.682 290.093 436.707 294.476C437.079 296.061 438.384 296.994 439.13 298.392C440.993 301.843 438.85 305.479 437.079 308.557C436.148 310.142 438.57 311.541 439.502 309.955C441.18 307.065 443.043 303.708 442.764 300.257C442.671 298.672 442.018 297.646 441.366 296.248C440.9 295.408 440.341 295.129 439.968 294.103C439.502 292.331 440.155 291.958 440.993 290.28C442.205 287.948 442.671 285.99 441.366 283.566C440.155 281.328 438.198 280.022 438.011 277.225C437.825 274.241 439.223 271.35 441.646 269.671C443.043 268.739 441.646 266.314 440.155 267.34Z" fill="#EF5F75"/>
<path d="M306.803 337.278C305.033 339.236 303.914 341.381 303.728 343.992C303.542 346.976 305.965 350.053 304.66 352.757C303.728 354.715 302.703 355.461 302.889 357.886C303.076 360.404 307.269 367.304 303.448 368.796C301.771 369.449 302.517 372.153 304.194 371.5C308.853 369.729 307.921 364.786 306.617 360.963C305.592 357.979 306.43 356.487 307.735 353.69C308.015 353.037 308.481 352.571 308.574 351.825C308.76 350.333 307.921 349.493 307.362 348.281C305.871 345.017 306.244 341.847 308.667 339.236C309.972 337.93 307.922 335.879 306.803 337.278Z" fill="#EF5F75"/>
<path d="M1019.87 366.279C1016.15 365.999 1013.44 368.796 1012.88 372.433C1012.05 377.748 1016.43 381.478 1018.66 385.768C1020.15 388.752 1019.59 391.083 1018.66 393.974C1018.2 395.466 1017.64 395 1017.54 396.678C1017.45 398.077 1018.01 399.103 1018.94 400.128C1021.46 403.019 1023.51 404.325 1023.23 408.614C1022.95 412.437 1021.18 416.074 1019.5 419.338C1018.66 420.923 1021.09 422.322 1021.92 420.737C1023.88 417.007 1025.84 412.904 1026.02 408.614C1026.3 404.418 1024.63 402.553 1022.39 399.382C1021.64 398.916 1021.36 398.17 1021.46 397.144C1020.71 396.025 1020.9 395.093 1021.83 394.254C1022.02 393.414 1022.48 392.762 1022.67 391.829C1023.04 389.871 1022.67 387.913 1021.92 385.954C1021.18 383.903 1019.87 382.224 1018.66 380.453C1017.64 378.961 1016.43 377.282 1015.96 375.51C1015.21 372.806 1015.96 368.703 1019.97 368.983C1021.64 369.263 1021.64 366.465 1019.87 366.279Z" fill="#EF5F75"/>
<path d="M731.458 873.465C713.1 876.263 697.631 876.915 686.914 876.915C681.043 962.426 681.882 1005.79 689.524 1007C695.953 1008.02 707.229 979.117 723.257 920.277C745.343 914.775 767.521 909.273 789.607 903.771C791.843 882.137 786.811 873.745 781.779 869.922C772.46 862.928 759.414 869.082 731.458 873.465Z" fill="#161616" stroke="#161616" stroke-width="3" stroke-miterlimit="10"/>
<path d="M641.346 721.934C625.877 736.014 631.188 774.247 654.206 814.251C659.611 813.598 668.091 813.039 678.248 813.878C682.441 814.251 695.581 815.557 729.128 827.772C736.118 830.383 745.809 834.02 757.364 838.962C748.325 841.387 739.286 843.811 730.154 846.236C731.179 857.146 733.042 869.548 736.397 882.79C742.547 907.315 751.68 927.363 760.067 942.377C781.034 936.222 798.18 930.161 810.574 925.685C840.301 914.775 856.05 906.942 871.146 896.404C887.268 885.121 895.748 875.61 898.357 863.674C899.848 856.773 899.009 850.805 898.73 848.66C896.866 837.097 890.436 829.264 883.727 821.804C869.003 805.299 861.641 797.093 849.62 787.955C822.13 767.16 797.062 756.25 769.199 744.407C747.673 735.268 733.322 729.207 712.448 724.172C679.087 716.432 654.019 710.371 641.346 721.934Z" fill="#85C7F2"/>
<path d="M705.738 723.705C733.787 731.911 761.091 742.355 787.557 754.944C810.76 765.948 834.057 778.163 854.186 794.295C863.504 801.755 872.171 810.055 879.719 819.38C887.92 829.544 898.543 843.252 898.357 856.959C898.17 869.735 886.056 881.391 877.203 889.41C867.791 897.896 857.075 904.61 845.706 910.112C817.936 923.54 787.184 929.042 759.041 941.63C757.364 942.376 758.855 944.801 760.439 944.055C787.463 931.933 816.911 926.431 843.842 914.029C855.211 908.807 866.114 902.372 875.805 894.259C884.844 886.706 895.095 876.728 899.475 865.538C904.227 853.416 897.798 840.92 891.368 830.849C884.379 819.846 875.898 809.868 866.3 801.009C847.29 783.385 824.645 770.33 801.628 758.767C771.156 743.381 739.285 730.699 706.483 721.094C704.713 720.535 703.967 723.146 705.738 723.705Z" fill="#85C7F2"/>
<path d="M804.238 824.881C791.844 828.425 779.357 831.968 766.963 835.512C754.755 838.962 742.268 842.039 730.34 846.329C728.663 846.982 729.408 849.686 731.086 849.033C743.014 844.65 755.501 841.666 767.708 838.216C780.102 834.673 792.589 831.129 804.983 827.586C806.661 827.119 805.915 824.415 804.238 824.881Z" fill="#85C7F2"/>
<path d="M729.221 846.516C732.296 880.365 741.708 913.469 757.923 943.402C758.762 944.988 761.184 943.589 760.346 942.004C744.411 912.537 735.092 879.899 732.017 846.609C731.923 844.744 729.128 844.744 729.221 846.516Z" fill="#85C7F2"/>
<path d="M757.737 838.962C725.401 820.406 688.685 810.708 651.317 812.2C649.547 812.293 649.547 815.09 651.317 814.997C688.126 813.412 724.376 823.017 756.246 841.387C757.924 842.226 759.322 839.802 757.737 838.962Z" fill="#85C7F2"/>
<path opacity="0.11" d="M649.453 755.41C658.12 757.368 670.793 760.632 685.796 765.574C696.886 769.211 717.853 776.578 766.031 800.916C782.245 809.122 803.585 820.219 828.28 834.113C796.876 848.007 765.472 861.902 734.067 875.703C732.39 866.098 730.619 856.586 728.942 846.982C737.049 844.371 745.157 841.853 753.264 839.242C740.87 832.435 723.351 824.415 701.359 819.38C683.187 815.183 667.159 814.158 654.578 814.251C652.808 794.575 651.131 774.993 649.453 755.41Z" fill="#3D3D3D"/>
<path opacity="0.11" d="M654.485 813.878C669.302 811.267 693.345 808.842 721.86 814.624C746.461 819.566 765.285 828.798 777.493 835.978C762.117 844.744 746.834 853.416 731.458 862.182C730.433 857.053 729.501 851.831 728.476 846.702C736.677 844.091 744.877 841.573 753.171 838.962C742.268 833.087 728.383 826.84 711.609 821.991C689.151 815.556 669.302 813.878 654.485 813.878Z" fill="#3D3D3D"/>
<path d="M533.435 903.585C547.32 908.434 561.204 913.283 574.996 918.132C577.885 978.091 582.079 1008.21 587.483 1008.4C594.1 1008.68 602.58 965.409 613.017 878.5C590.931 873.185 568.939 867.777 546.854 862.461C542.474 876.169 538.001 889.877 533.435 903.585Z" fill="#161616" stroke="#161616" stroke-width="3" stroke-miterlimit="10"/>
<path d="M654.392 813.971C653.553 787.208 650.478 765.015 647.496 748.789C641.252 714.567 635.848 709.158 631.095 706.92C620.751 702.164 610.221 711.303 583.942 723.332C562.416 733.217 565.211 729.02 528.309 742.915C501.285 753.079 468.669 767.066 434.003 787.395C426.548 791.778 409.029 802.315 392.162 821.338C376.32 839.149 375.202 848.567 375.202 853.136C375.202 857.799 376.32 868.243 391.603 883.909C409.588 902.279 429.903 910.205 488.518 928.948C504.64 934.077 519.363 938.74 532.503 942.749C539.585 929.228 544.99 917.479 548.904 908.34C559.9 882.603 562.229 870.481 563.161 864.326C564.186 857.519 564.652 851.831 564.746 847.914C555.24 845.396 545.642 842.972 536.137 840.454C546.947 834.3 560.366 827.959 576.394 822.923C607.891 813.132 635.568 812.572 654.392 813.971Z" fill="#85C7F2"/>
<path d="M538.933 841.2C543.034 842.133 547.227 843.065 551.327 843.998C555.427 844.93 560.087 845.397 563.535 848.008C564.933 849.127 566.33 846.702 564.933 845.583C561.671 843.065 557.664 842.506 553.75 841.667C549.091 840.641 544.338 839.522 539.679 838.496C537.908 838.123 537.163 840.827 538.933 841.2Z" fill="#85C7F2"/>
<path d="M591.398 721.281C550.581 732.005 510.884 746.552 472.677 764.549C452.548 774.06 433.072 785.623 415.46 799.238C395.89 814.344 360.852 845.583 379.676 872.998C388.342 885.587 401.481 894.912 414.528 902.465C425.151 908.713 436.427 913.935 447.889 918.318C454.598 920.836 461.587 922.701 468.483 924.845C489.45 931.186 510.418 937.807 531.292 944.521C532.969 945.081 533.715 942.376 532.037 941.817C514.797 936.222 497.558 930.72 480.225 925.498C471.186 922.701 461.96 920.369 453.014 917.199C431.022 909.646 408.377 898.269 391.51 882.23C386.012 877.008 380.328 870.854 378.278 863.487C375.669 854.348 378.93 845.21 383.496 837.377C390.858 824.695 401.761 814.158 413.037 804.926C431.115 790.193 451.523 777.977 472.583 767.906C510.977 749.536 551.141 734.895 592.329 724.172C593.914 723.519 593.168 720.815 591.398 721.281Z" fill="#85C7F2"/>
<path d="M480.877 827.865C494.762 831.409 508.74 834.952 522.625 838.403C536.323 841.853 550.301 844.837 563.72 849.313C565.398 849.872 566.143 847.168 564.466 846.609C551.047 842.226 537.069 839.242 523.37 835.698C509.485 832.155 495.507 828.611 481.622 825.161C479.852 824.788 479.106 827.492 480.877 827.865Z" fill="#85C7F2"/>
<path d="M562.882 846.889C559.434 880.645 548.718 913.376 531.105 942.283C530.173 943.868 532.596 945.267 533.528 943.682C551.42 914.215 562.23 881.018 565.678 846.795C565.864 845.024 563.068 845.117 562.882 846.889Z" fill="#85C7F2"/>
<path d="M535.299 841.667C571.735 823.017 612.272 813.785 653.181 815.277C654.952 815.37 654.952 812.573 653.181 812.479C611.806 810.894 570.71 820.312 533.901 839.242C532.317 840.081 533.715 842.506 535.299 841.667Z" fill="#85C7F2"/>
<path opacity="0.13" d="M634.916 763.057C594.846 782.546 568.474 796.254 556.639 801.942C525.514 816.676 495.135 830.197 465.595 842.692C488.146 840.175 510.138 850.619 521.6 869.455C534.554 890.716 531.851 918.878 514.611 938.274C520.575 940.418 526.539 942.563 532.41 944.615C537.442 936.595 542.474 927.457 547.041 917.199C559.155 890.25 564.094 865.259 566.144 845.863C557.664 843.065 549.184 840.361 540.704 837.564C548.345 834.207 556.639 830.943 565.492 828.052C599.039 817.049 629.884 814.438 654.486 814.811C654.206 808.097 653.833 801.289 653.368 794.296C652.436 780.961 651.038 768.185 649.454 756.063C646.099 757.648 641.067 760.166 634.916 763.057Z" fill="#3D3D3D"/>
<path opacity="0.15" d="M651.224 812.386C651.13 811.174 627.181 809.029 598.2 813.132C565.398 817.795 539.771 828.519 523.091 837.098C531.571 843.439 540.051 849.873 548.531 856.214C543.965 884.096 539.492 911.977 534.926 939.859C544.338 924.38 554.961 902.746 561.111 875.423C563.534 864.513 564.839 854.442 565.491 845.21C562.975 844.464 560.366 843.718 557.757 842.972C551.699 841.294 545.829 839.802 540.051 838.59C544.617 836.538 551.047 833.741 558.875 830.85C609.476 812.013 651.224 813.878 651.224 812.386Z" fill="#3D3D3D"/>
<path d="M722.419 504.661C727.172 503.076 734.347 510.443 738.634 514.732C745.53 521.726 748.978 528.813 750.003 530.958C762.676 557.254 760.44 546.81 771.156 571.242C784.296 601.361 793.242 629.803 793.242 629.803C797.621 643.697 800.324 654.048 808.804 666.823C818.402 681.183 826.323 685.007 829.585 686.312C840.394 690.788 850.645 688.83 855.211 687.618C860.15 682.769 863.971 678.572 866.58 675.588C871.892 669.527 874.128 666.263 878.322 665.797C879.254 665.704 883.54 665.238 885.777 667.755C886.802 668.874 886.988 670.087 888.013 670.366C889.318 670.739 890.622 669.247 892.207 667.755C892.859 667.103 897.146 663.093 901.619 661.228C903.948 660.202 908.421 658.897 909.726 660.575C911.03 662.254 908.142 665.797 909.446 667.103C910.751 668.408 913.919 665.424 917.274 666.823C919.138 667.662 920.722 669.714 920.815 671.672C921.002 674.096 918.951 674.656 918.579 677.826C918.206 680.437 919.417 680.904 919.231 683.048C918.858 686.312 915.876 686.778 911.776 691.534C909.446 694.238 910.099 694.425 905.905 700.673C904.321 703.004 902.271 706.081 900.687 707.853C894.536 714.753 884.099 715.313 878.601 715.686C867.978 716.245 859.591 713.075 854.839 710.837C851.67 713.075 846.824 715.872 840.581 718.017C824.459 723.332 810.295 719.602 804.517 718.017C781.5 711.583 767.988 694.145 759.042 682.209C745.716 664.492 740.87 649.105 732.111 621.13C729.408 612.645 721.301 585.695 718.132 549.608C716.828 533.196 714.685 507.272 722.419 504.661Z" fill="white"/>
<path d="M725.028 508.018C733.228 510.723 738.912 517.343 743.665 524.337C748.604 531.517 752.984 539.071 757.177 546.81C765.657 562.663 772.74 579.168 779.356 595.86C786.065 612.645 792.216 629.616 798.459 646.495C803.491 659.923 809.549 674.19 821.197 683.142C832.007 691.441 847.383 694.891 859.497 687.338C860.988 686.406 859.59 683.981 858.099 684.914C845.239 692.933 828.652 687.338 818.681 677.174C807.312 665.424 802.466 649.106 796.968 634.186C785.32 602.294 773.392 569.843 756.711 540.096C749.443 527.135 740.869 510.35 725.773 505.314C724.096 504.755 723.35 507.459 725.028 508.018Z" fill="#161616"/>
<path d="M724.096 598.377C732.389 627.098 739.378 657.125 756.432 682.116C770.503 702.817 791.377 719.323 817.004 721.374C830.889 722.493 844.96 719.136 856.142 710.744C857.54 709.718 856.142 707.2 854.745 708.319C841.698 718.204 824.831 720.721 808.989 717.458C793.334 714.194 779.822 705.149 769.105 693.586C744.783 667.196 736.676 631.201 726.984 597.725C726.332 595.953 723.63 596.699 724.096 598.377Z" fill="#161616"/>
<path d="M859.777 687.711C863.691 682.209 867.326 675.868 872.078 671.112C874.874 668.315 879.44 665.517 883.447 667.755C886.895 669.714 887.174 674.189 885.124 677.174C884.099 678.666 886.522 680.064 887.547 678.572C891.927 672.324 887.361 663.932 879.719 664.305C875.153 664.585 871.426 667.475 868.63 670.926C864.623 675.775 861.175 681.183 857.448 686.312C856.329 687.711 858.752 689.11 859.777 687.711Z" fill="#161616"/>
<path d="M872.731 675.495C870.681 679.598 873.197 684.354 877.763 685.1C883.261 685.939 887.268 681.277 888.2 676.334C888.572 674.563 885.87 673.817 885.497 675.588C884.938 678.572 883.354 681.65 880.092 682.302C877.017 682.955 873.569 680.251 875.153 676.987C875.899 675.309 873.476 673.91 872.731 675.495Z" fill="#161616"/>
<path d="M854.279 711.583C864.996 713.727 875.153 718.67 886.243 716.338C895.189 714.473 902.83 708.972 907.769 701.418C908.794 699.926 906.371 698.528 905.346 700.02C900.5 707.386 892.859 712.515 884.099 713.914C874.035 715.499 864.623 710.837 854.932 708.878C853.254 708.599 852.509 711.303 854.279 711.583Z" fill="#161616"/>
<path d="M880.652 682.303C877.67 684.074 878.042 688.177 880.559 690.322C882.702 692.094 885.591 691.814 888.2 691.814C892.673 691.721 896.4 692.467 900.314 694.705C901.898 695.544 903.296 693.213 901.712 692.28C898.823 690.602 895.748 689.483 892.393 689.11C890.809 688.923 889.225 689.017 887.548 689.017C886.522 689.017 885.497 689.11 884.565 688.923C883.447 688.644 879.813 686.126 882.049 684.82C883.54 683.795 882.143 681.37 880.652 682.303Z" fill="#161616"/>
<path d="M882.515 683.515C889.504 679.505 898.077 680.344 904.041 685.846C905.346 687.058 907.303 685.1 905.998 683.888C899.102 677.547 889.224 676.428 881.117 681.09C879.533 682.023 880.93 684.447 882.515 683.515Z" fill="#161616"/>
<path d="M888.572 672.138C891.647 669.9 894.629 667.755 897.704 665.517C899.009 664.585 900.22 663.652 901.618 662.813C902.55 662.254 903.482 661.694 904.507 661.321C908.887 659.829 909.912 661.974 907.489 667.756C905.811 668.315 906.557 671.019 908.234 670.46C913.266 668.688 915.037 661.881 909.818 658.99C906.93 657.312 903.482 658.524 900.872 660.016C896.12 662.72 891.74 666.543 887.267 669.714C885.683 670.833 887.081 673.257 888.572 672.138Z" fill="#161616"/>
<path d="M894.536 679.598C898.264 677.267 901.991 674.843 905.719 672.511C907.396 671.485 909.073 670.273 910.937 669.434C912.335 668.688 913.826 668.408 915.41 668.408C918.672 668.408 919.883 670.366 919.044 674.19C917.926 675.588 919.883 677.547 921.001 676.148C924.543 671.672 921.374 666.17 915.969 665.704C912.428 665.331 909.26 667.103 906.371 668.874C901.898 671.579 897.518 674.469 893.138 677.267C891.554 678.106 892.952 680.531 894.536 679.598Z" fill="#161616"/>
<path d="M905.439 683.981C907.955 682.582 910.471 681.277 912.987 680.065C913.826 679.598 916.621 677.92 917.46 678.106C919.79 678.573 918.206 680.904 917.646 681.836C916.715 683.328 919.138 684.82 920.069 683.235C921.56 680.811 922.865 676.055 918.858 675.309C916.715 674.843 914.385 676.335 912.521 677.267C909.632 678.666 906.743 680.065 903.948 681.65C902.457 682.489 903.948 684.914 905.439 683.981Z" fill="#161616"/>
<path d="M901.525 683.328C908.235 687.058 909.539 695.357 904.228 700.952C903.016 702.258 904.973 704.216 906.185 702.91C912.708 696.103 911.217 685.473 902.923 680.903C901.432 680.064 899.941 682.489 901.525 683.328Z" fill="#161616"/>
<path d="M918.672 682.302C915.69 686.126 912.242 689.483 908.422 692.28C907.024 693.306 908.328 695.73 909.819 694.705C913.92 691.721 917.554 688.27 920.722 684.261C921.747 682.862 919.79 680.904 918.672 682.302Z" fill="#161616"/>
<path d="M873.383 693.213C879.253 693.679 884.752 695.544 889.69 698.808C891.181 699.833 892.579 697.409 891.088 696.383C885.683 692.933 879.813 690.975 873.383 690.415C871.612 690.322 871.612 693.12 873.383 693.213Z" fill="#161616"/>
<path opacity="0.09" d="M713.007 527.228C714.684 539.164 717.387 555.949 721.394 576.091C724.003 589.146 725.867 598.75 729.315 611.526C734.533 630.922 738.82 647.24 748.884 666.17C755.5 678.572 759.973 687.058 769.292 696.197C775.908 702.631 793.241 719.602 819.334 719.975C835.269 720.162 847.849 714.101 855.211 709.531C859.591 711.956 867.139 715.22 876.924 715.406C881.49 715.499 890.063 715.593 898.17 709.998C900.966 708.039 908.421 703.004 908.98 694.518C909.073 693.213 909.446 686.126 904.414 682.396C898.823 678.293 889.69 680.717 888.945 683.608C888.293 686.312 895.002 688.55 894.816 692.373C894.536 697.222 883.54 700.206 881.49 700.766C815.886 718.483 780.568 689.11 780.568 689.11C769.851 680.158 764.167 670.46 750.934 637.356C740.031 610.127 726.333 572.92 713.007 527.228Z" fill="#3D3D3D"/>
<path d="M446.771 706.081C451.057 709.252 462.426 716.619 477.989 716.525C492.526 716.432 502.776 709.811 508.554 706.081C518.152 699.927 523.65 693.12 528.683 686.592C544.338 666.73 550.582 646.028 555.055 631.015C559.062 617.587 557.477 618.333 561.298 606.677C568.474 584.856 574.624 579.914 580.774 564.341C590.932 538.604 591.584 507.925 583.57 504.568C579.842 503.076 574.344 507.459 563.441 516.411C560.18 519.115 554.402 523.871 548.345 531.238C543.499 537.206 535.019 548.955 525.607 577.023C517.966 599.963 519.643 603.693 510.604 629.057C505.013 644.816 501.472 651.25 497.185 657.125C492.339 663.653 484.325 674.283 469.788 679.878C458.699 684.168 448.728 683.608 443.23 682.862C442.484 679.132 439.968 668.875 431.302 663.839C429.158 662.534 423.94 659.55 420.212 661.788C418.069 663.093 417.324 665.518 417.044 666.823C412.944 661.042 408.471 658.524 405.955 657.405C403.532 656.379 398.593 654.141 396.543 656.193C394.679 658.058 396.356 662.347 396.543 662.907C393.933 661.508 390.951 661.694 388.808 663.28C387.224 664.492 385.453 666.916 386.106 669.527C386.572 671.299 387.969 672.418 388.435 672.698C387.876 674.283 387.41 676.708 388.249 679.225C388.715 680.531 389.274 681.37 392.629 685.1C396.915 689.949 397.009 689.763 397.847 690.975C400.177 694.425 399.711 696.29 401.202 699.367C403.811 705.056 409.403 707.76 411.266 708.599C417.23 711.49 422.728 710.744 431.768 709.438C437.545 708.786 442.577 707.48 446.771 706.081Z" fill="white"/>
<path d="M583.29 502.05C569.032 509.23 556.172 519.115 546.201 531.704C536.23 544.292 529.334 558.839 524.116 573.946C518.897 589.239 515.17 604.998 511.163 620.571C507.342 635.677 500.912 651.343 490.848 663.373C479.106 677.453 460.842 682.862 443.043 680.81C441.272 680.624 441.272 683.421 443.043 683.608C457.114 685.193 471.745 682.489 483.393 674.19C495.694 665.424 503.428 650.784 508.926 636.983C514.797 622.343 517.406 606.397 521.693 591.29C526.259 574.972 531.85 558.746 540.796 544.292C551.42 527.041 566.609 513.613 584.688 504.568C586.365 503.635 584.874 501.211 583.29 502.05Z" fill="#161616"/>
<path d="M563.255 593.621C554.775 625.886 547.879 660.668 526.632 687.431C517.407 698.994 505.386 708.879 490.848 712.795C475.752 716.898 459.444 714.567 447.237 704.496C445.839 703.377 443.882 705.335 445.28 706.454C463.824 721.747 490.289 720.162 509.672 707.107C530.919 692.839 543.499 668.781 551.7 645.189C557.477 628.59 561.484 611.339 565.957 594.367C566.423 592.596 563.721 591.85 563.255 593.621Z" fill="#161616"/>
<path d="M444.534 682.209C441.273 677.174 438.198 671.859 434.563 667.103C432.047 663.746 428.693 660.575 424.22 660.202C416.485 659.736 413.13 668.595 416.858 674.47C417.79 675.962 420.213 674.563 419.281 673.071C417.51 670.273 417.603 665.611 420.772 663.653C425.245 660.855 429.811 665.424 432.234 668.595C435.868 673.351 438.85 678.573 442.112 683.608C443.044 685.1 445.466 683.701 444.534 682.209Z" fill="#161616"/>
<path d="M428.133 672.884C429.624 676.055 426.549 679.225 423.287 678.106C420.585 677.173 419.373 674.096 418.907 671.485C418.628 669.713 415.925 670.459 416.205 672.231C417.044 676.894 420.398 681.743 425.71 681.09C430.276 680.531 432.326 675.402 430.556 671.485C429.81 669.807 427.387 671.205 428.133 672.884Z" fill="#161616"/>
<path d="M446.491 704.869C437.918 706.734 429.531 711.303 420.585 709.904C412.105 708.599 405.023 703.19 400.736 696.01C399.804 694.425 397.381 695.917 398.313 697.409C402.693 704.776 409.589 710.371 418.069 712.329C428.319 714.66 437.452 709.718 447.237 707.573C449.007 707.2 448.262 704.496 446.491 704.869Z" fill="#161616"/>
<path d="M421.889 680.624C422.542 681.09 422.635 682.023 422.355 682.676C421.796 684.541 419.746 684.727 418.069 684.914C416.298 685.007 414.527 684.727 412.664 684.914C409.495 685.287 406.606 686.406 403.904 688.084C402.413 689.017 403.811 691.441 405.302 690.509C408.75 688.364 412.198 687.525 416.298 687.618C418.721 687.711 421.237 687.898 423.194 686.219C425.71 684.168 425.99 679.971 423.194 678.199C421.796 677.267 420.398 679.692 421.889 680.624Z" fill="#161616"/>
<path d="M422.915 677.081C415.553 672.325 406.234 673.63 400.084 679.878C398.779 681.184 400.829 683.142 402.041 681.836C407.353 676.521 415.087 675.402 421.517 679.505C423.008 680.438 424.406 678.013 422.915 677.081Z" fill="#161616"/>
<path d="M417.696 665.89C413.875 662.813 410.148 659.549 406.141 656.752C403.718 655.073 400.642 653.395 397.66 654.514C391.79 656.658 393.001 664.492 398.126 666.45C399.804 667.103 400.549 664.398 398.872 663.745C395.424 659.642 395.704 657.777 399.711 658.15C401.202 657.404 402.506 657.498 403.624 658.43C405.209 659.176 406.7 660.761 408.098 661.787C410.614 663.839 413.223 665.89 415.739 667.942C417.043 668.968 419.094 667.009 417.696 665.89Z" fill="#161616"/>
<path d="M411.918 673.164C407.911 670.367 403.904 667.476 399.897 664.772C397.288 663 394.399 661.321 391.231 661.601C386.199 662.067 383.123 667.569 386.199 671.859C387.224 673.257 389.647 671.859 388.621 670.46C386.571 666.73 388.249 664.772 393.467 664.585C394.679 664.958 395.797 665.424 396.822 666.077C398.127 666.823 399.338 667.756 400.549 668.595C403.904 670.926 407.259 673.257 410.614 675.589C412.012 676.614 413.409 674.19 411.918 673.164Z" fill="#161616"/>
<path d="M401.947 677.547C399.431 675.962 396.822 674.47 394.119 673.164C392.349 672.232 389.926 670.553 387.782 671.299C384.428 672.511 385.732 676.987 387.037 679.225C387.876 680.811 390.299 679.412 389.46 677.827C389.18 677.267 388.155 675.589 388.435 674.936C388.808 674.003 390.299 674.563 390.951 674.749C391.696 674.936 392.442 675.495 393.187 675.868C395.703 677.174 398.126 678.573 400.549 680.065C402.04 680.904 403.531 678.479 401.947 677.547Z" fill="#161616"/>
<path d="M402.879 676.894C395.052 681.743 394.027 692.093 399.897 698.901C401.109 700.299 403.066 698.248 401.854 696.942C397.195 691.534 398.034 683.142 404.277 679.318C405.768 678.386 404.37 675.961 402.879 676.894Z" fill="#161616"/>
<path d="M386.478 679.971C389.274 683.888 392.535 687.431 396.356 690.508C397.754 691.627 399.711 689.669 398.313 688.55C394.679 685.659 391.604 682.396 388.901 678.572C387.783 677.08 385.36 678.479 386.478 679.971Z" fill="#161616"/>
<path d="M429.81 686.405C423.939 686.965 418.441 688.923 413.595 692.373C412.104 693.399 413.502 695.824 414.993 694.798C419.466 691.627 424.312 689.669 429.81 689.203C431.674 689.016 431.674 686.219 429.81 686.405Z" fill="#161616"/>
<path opacity="0.17" d="M578.63 539.164C566.982 567.512 558.036 590.358 552.352 605.278C539.026 639.967 535.298 652.089 522.718 668.035C512.001 681.556 499.328 698.435 477.895 701.698C464.476 703.75 453.107 699.647 446.491 696.663C444.813 697.968 432.046 707.107 419.653 702.258C412.757 699.554 405.954 692.56 407.352 688.27C408.75 683.888 418.068 684.167 417.975 682.116C417.882 680.437 411.452 678.106 405.674 679.878C404.836 680.158 399.151 682.023 397.288 687.151C394.865 693.959 401.201 700.952 402.879 702.817C411.452 712.329 424.591 711.863 426.921 711.769C436.333 711.49 443.229 707.293 446.491 705.055C450.684 708.599 458.046 713.821 468.296 715.686C487.213 719.229 502.496 708.599 510.883 703.377C534.832 688.177 543.871 663.932 551.233 645.655C554.774 636.796 556.359 631.015 565.025 595.673C570.43 573.293 575.089 554.084 578.63 539.164Z" fill="#3D3D3D"/>
<path opacity="0.17" d="M390.485 663.559C393.654 663 397.754 671.392 400.549 678.106C399.152 685.287 397.381 686.872 396.076 687.058C392.349 687.711 386.012 678.573 387.13 670.273C387.224 669.62 387.969 664.026 390.485 663.559Z" fill="#3D3D3D"/>
<path d="M582.266 502.703C564.653 522.938 564.28 547.929 564.187 591.757C564.094 644.816 573.599 689.483 583.757 722.773C599.039 727.342 621.218 732.191 648.149 732.191C674.708 732.191 696.607 727.342 711.796 722.773C715.244 708.506 719.81 687.524 723.351 661.974C735.559 575.345 743.573 518.369 711.796 490.394C679.74 462.232 612.365 468.107 582.266 502.703Z" fill="white" stroke="#161616" stroke-width="3" stroke-miterlimit="10"/>
<path opacity="0.1" d="M669.582 474.262C673.589 482.468 678.901 495.15 682.256 511.282C685.331 526.015 690.083 558.746 663.152 640.247C655.511 663.466 643.956 694.612 626.716 730.42C634.078 731.166 641.999 731.632 650.385 731.539C674.335 731.445 695.115 727.529 711.61 722.866C718.692 688.177 723.724 658.617 727.172 636.144C731.459 608.542 734.441 585.229 733.509 555.762C732.39 518.462 726.054 507.645 722.513 502.61C707.323 480.416 679.926 475.567 669.582 474.262Z" fill="#3D3D3D"/>
<path opacity="0.13" d="M732.018 529.745C727.824 542.427 721.767 562.01 715.803 586.441C708.348 616.934 707.23 629.709 703.13 646.028C697.632 667.289 686.169 697.315 659.238 731.631C668.091 731.911 679.926 731.258 693.345 727.622C700.427 725.663 706.671 723.146 711.796 720.721C716.549 694.798 720.742 670.459 724.47 647.893C731.086 608.355 733.416 592.036 733.695 570.402C733.975 553.337 732.95 539.35 732.018 529.745Z" fill="#3D3D3D"/>
<path d="M628.206 452.255C625.131 456.451 626.622 460.274 625.97 475.94C625.504 486.198 624.479 494.404 623.733 499.626C626.902 501.864 635.848 507.552 648.521 507.552C663.431 507.552 673.402 499.719 676.105 497.388C674.893 494.031 673.402 488.995 672.191 482.747C668.743 464.937 672.284 459.435 668.277 453.374C661.101 442.65 635.568 442.184 628.206 452.255Z" fill="white" stroke="#161616" stroke-width="3" stroke-miterlimit="10"/>
<path d="M590.465 401.993C590.093 415.234 593.075 425.119 595.498 433.045C599.132 444.701 603.139 457.756 614.694 469.692C624.758 480.136 636.5 485.545 645.726 488.342C652.808 485.452 664.456 479.577 675.08 468.014C686.635 455.425 691.015 442.65 694.276 433.045C697.072 424.746 701.824 409.733 699.867 390.15C698.47 376.442 696.979 361.616 685.237 350.146C667.904 333.268 642.557 337.65 639.016 338.303C614.415 342.872 602.021 362.362 599.039 367.677C591.024 381.291 590.652 394.626 590.465 401.993Z" fill="white" stroke="#161616" stroke-width="3" stroke-miterlimit="10"/>
<path d="M639.389 412.157C638.83 424.093 639.948 435.936 642.837 447.499C643.117 448.431 644.515 448.898 645.167 448.152C647.31 445.634 648.708 442.93 649.36 439.666C649.733 437.894 647.031 437.148 646.658 438.92C646.099 441.811 645.074 443.955 643.21 446.193C643.956 446.38 644.794 446.566 645.54 446.846C642.744 435.47 641.719 423.907 642.185 412.25C642.185 410.385 639.389 410.385 639.389 412.157Z" fill="#161616"/>
<path d="M658.958 416.26C665.575 423.254 678.9 425.212 682.442 413.929C683.001 412.25 680.298 411.504 679.739 413.183C676.85 422.415 666.041 419.524 661.009 414.209C659.611 412.996 657.654 414.955 658.958 416.26Z" fill="#161616"/>
<path d="M612.272 434.351C612.272 434.071 612.178 434.444 612.085 434.444C611.992 434.537 611.806 434.537 611.619 434.537C611.34 433.978 610.967 433.418 610.687 432.859C610.781 432.765 610.781 432.672 610.874 432.579C610.128 432.765 609.662 433.511 609.942 434.257C610.128 435.003 610.967 435.47 611.619 435.19C612.458 434.91 613.017 434.351 613.39 433.511C613.669 432.859 613.11 431.926 612.458 431.833C611.247 431.553 609.849 432.206 609.569 433.511C609.476 434.257 609.755 435.097 610.501 435.19C611.246 435.563 612.178 435.19 612.272 434.351Z" fill="#161616"/>
<path d="M626.064 430.714C625.877 432.113 625.505 432.206 624.945 430.994C623.92 430.154 624.107 429.781 625.505 429.968C624.852 429.595 624.014 429.781 623.548 430.434C623.175 431.087 623.361 432.019 624.014 432.392C625.598 433.325 627.555 431.273 626.343 429.781C625.132 428.289 622.709 429.595 623.175 431.367C623.361 432.113 624.2 432.579 624.852 432.299C625.877 432.299 626.25 431.46 626.064 430.714Z" fill="#161616"/>
<path d="M621.031 440.412C621.031 440.598 620.938 440.785 620.751 440.971C620.938 440.785 620.565 441.064 620.658 440.971C620.751 440.878 620.379 441.064 620.658 440.971C620.472 440.971 620.379 440.971 620.472 440.971C620.565 440.971 620.565 440.971 620.285 440.971C620.192 440.971 620.192 440.878 620.099 440.878C620.192 440.971 620.192 440.878 620.006 440.785C619.633 440.412 619.633 439.852 619.913 439.479C620.285 439.106 620.938 439.293 621.124 439.666C620.751 439.013 619.913 438.826 619.167 439.199C618.515 439.572 618.235 440.505 618.701 441.158C619.26 442.09 620.472 442.37 621.404 441.81C622.335 441.344 622.708 440.132 622.149 439.199C621.031 437.428 618.049 438.453 618.049 440.412C618.049 441.158 618.701 441.81 619.447 441.81C620.379 441.81 621.031 441.251 621.031 440.412Z" fill="#161616"/>
<path d="M668.463 428.569C669.116 428.662 669.488 429.035 669.582 429.502C669.675 430.061 669.302 430.434 668.463 430.714C668.184 430.621 667.997 430.621 667.718 430.528C667.252 430.248 667.159 429.875 667.438 429.408C667.904 428.662 669.302 428.942 669.023 429.968C669.209 429.222 668.836 428.383 668.091 428.289C667.345 428.103 666.6 428.476 666.413 429.222C666.041 430.528 667.159 431.926 668.557 431.74C669.768 431.553 670.514 430.341 670.141 429.129C669.954 428.476 669.302 427.917 668.557 427.917C667.998 427.917 667.438 428.289 667.159 428.756C666.6 429.782 667.345 431.46 668.65 431.367C669.395 431.274 670.048 430.807 670.048 429.968C669.861 429.315 669.302 428.476 668.463 428.569Z" fill="#161616"/>
<path d="M678.994 429.595C679.087 429.595 679.087 429.502 678.994 429.595C678.901 429.688 678.714 429.875 678.528 430.061C677.969 429.875 677.503 429.688 676.944 429.408C676.944 429.129 676.944 428.942 676.944 428.662C676.944 428.569 677.037 428.569 677.037 428.476C677.223 428.289 677.41 428.103 677.503 428.01C678.062 428.196 678.528 428.383 679.087 428.662C679.087 428.942 679.087 429.129 679.087 429.408V429.315C679.273 428.569 678.901 427.73 678.155 427.637C677.41 427.45 676.664 427.823 676.478 428.569C676.012 430.434 678.807 431.553 679.646 429.688C680.019 428.942 679.646 428.01 678.901 427.637C678.062 427.17 677.13 427.45 676.664 428.196C676.198 428.849 676.571 429.781 677.13 430.154C677.782 430.527 678.621 430.154 678.994 429.595Z" fill="#161616"/>
<path d="M673.869 438.827C673.776 438.547 673.869 438.827 673.776 438.92C673.776 439.013 673.496 439.2 673.776 439.013C673.03 438.92 672.284 438.827 671.539 438.733C670.98 437.894 672.005 437.148 672.75 437.521C672.098 437.148 671.259 437.335 670.793 437.987C670.421 438.64 670.607 439.573 671.259 439.946C672.005 440.319 672.937 440.225 673.496 439.573C674.055 439.013 674.241 437.987 673.776 437.241C673.31 436.495 672.191 436.309 671.539 436.962C670.887 437.614 670.607 438.64 670.887 439.479C671.166 440.225 671.819 440.692 672.564 440.412C673.589 440.412 674.148 439.573 673.869 438.827Z" fill="#161616"/>
<path d="M633.239 455.239C639.855 462.139 650.385 461.953 656.629 454.586C657.747 453.187 655.79 451.229 654.672 452.628C649.453 458.782 640.88 459.155 635.196 453.28C633.984 451.975 632.027 453.933 633.239 455.239Z" fill="#161616"/>
<path d="M616.092 398.729C618.888 395.652 622.802 394.346 626.902 395.185C628.672 395.558 629.418 392.854 627.647 392.481C622.615 391.455 617.583 392.947 614.135 396.771C612.924 398.076 614.881 400.034 616.092 398.729Z" fill="#161616"/>
<path d="M659.89 393.041C664.177 392.574 668.091 393.6 671.539 396.118C673.03 397.144 674.428 394.719 672.937 393.693C669.116 390.896 664.55 389.684 659.89 390.243C658.12 390.43 658.12 393.227 659.89 393.041Z" fill="#161616"/>
<path d="M611.06 417.1C617.677 424.093 631.003 426.052 634.544 414.768C635.103 413.09 632.4 412.344 631.841 414.022C628.952 423.254 618.143 420.363 613.111 415.048C611.806 413.743 609.756 415.794 611.06 417.1Z" fill="#161616"/>
<path d="M641.811 358.538C647.868 365.812 655.137 373.645 663.897 381.571C675.825 392.388 687.473 400.781 697.631 407.122C697.071 415.514 695.301 428.383 688.964 442.836C682.721 457.197 674.427 467.175 668.742 473.236C668.183 477.712 667.997 485.358 671.631 493.005C680.111 510.816 704.526 518.835 723.257 512.774C725.494 512.028 741.242 506.713 746.368 492.539C747.766 488.622 748.511 483.866 746.368 471.278C743.293 453.094 737.888 439.759 736.303 435.656C731.83 424.28 726.053 407.868 720.834 386.42C719.157 378.96 712.261 352.197 688.032 336.718C681.696 332.615 668.09 323.943 650.944 326.554C643.489 327.673 637.711 330.563 634.077 332.801C626.249 333.454 612.271 335.692 598.852 345.39C568.473 367.211 569.311 406.562 569.405 410.572C568.473 415.514 566.888 422.974 564.093 431.833C557.197 453.467 551.419 456.171 550.115 469.506C549.742 472.863 548.065 489.834 559.247 503.729C561.577 506.619 568.752 515.292 580.96 517.716C597.174 520.98 614.601 511.841 621.776 497.481C625.783 489.461 625.69 481.722 625.317 477.619C622.615 475.194 597.734 452.628 600.716 417.472C604.07 377.468 640.134 359.378 641.811 358.538Z" fill="#161616"/>
<path opacity="0.11" d="M676.291 392.388C677.969 398.729 679.832 408.334 678.807 419.897C677.503 434.63 672.284 444.981 666.879 455.612C662.593 464.004 655.883 475.474 645.26 487.503C646.937 487.223 648.894 486.664 650.851 485.918C655.417 484.239 658.865 481.908 661.195 479.95C660.449 488.715 659.704 497.481 659.052 506.246C664.363 503.915 669.675 501.677 674.987 499.346C673.868 490.021 672.657 480.789 671.539 471.464C673.775 468.667 676.944 464.564 680.298 459.248C684.958 451.882 691.574 441.251 695.022 426.424C696.14 421.669 697.258 414.675 697.165 406.096C690.269 401.62 683.28 396.957 676.291 392.388Z" fill="#3D3D3D"/>
<path opacity="0.16" d="M697.258 407.774C696.513 407.588 694.463 417.192 688.219 431.553C688.219 431.553 683.56 442.183 678.248 451.229C673.309 459.621 663.524 473.702 645.073 488.435C647.123 489.368 649.267 490.3 651.317 491.233C657.374 490.58 663.431 490.021 669.488 489.368C669.209 484.239 668.836 479.11 668.556 474.075C675.825 466.615 685.796 454.399 692.04 436.868C697.072 422.228 698.19 407.961 697.258 407.774Z" fill="#3D3D3D"/>
<path opacity="0.29" d="M557.757 449.084C557.57 452.161 557.757 457.476 560.273 463.165C563.907 471.277 572.387 480.136 581.52 480.043C592.609 479.95 604.91 466.522 604.35 447.499C606.121 451.975 608.823 457.383 612.831 463.165C617.397 469.785 622.336 474.728 626.25 478.178C626.343 481.255 626.063 486.011 624.386 491.326C623.454 494.31 621.124 500.371 615.906 506.06C613.669 508.484 606.401 516.317 594.659 518.275C577.606 521.073 564.746 509.23 562.416 506.992C547.133 492.352 549.743 471.65 550.209 468.48C551.513 459.435 555.241 452.814 557.757 449.084Z" fill="#3D3D3D"/>
<path opacity="0.12" d="M697.911 407.401C698.656 411.971 699.681 419.244 700.427 428.383C702.011 447.965 700.427 453.187 703.595 463.165C704.061 464.75 711.237 486.757 721.767 486.944C729.967 487.13 739.1 474.262 742.734 455.332C745.623 464.75 746.834 472.77 747.393 478.458C748.325 487.69 747.486 490.767 747.114 492.259C744.504 500.745 737.609 505.407 733.974 507.925C721.114 516.69 707.23 515.385 705.179 515.105C701.918 514.732 686.821 512.774 676.757 500.092C675.173 498.134 670.141 491.513 668.65 481.628C668.184 478.365 668.184 475.474 668.37 473.516C674.055 467.921 681.603 459.062 687.753 446.566C695.395 430.714 697.352 416.26 697.911 407.401Z" fill="#3D3D3D"/>
</g>
<defs>
<clipPath id="clip0">
<rect width="1274" height="1170" fill="white"/>
</clipPath>
</defs>
</svg>
